solid Rob-Bad Release v1
facet normal 0.8660254037844404 -0.499999999999997 0.0
  outer loop
    vertex 452.7904324101747 104.57236536014993 0.0
    vertex 447.8904324101747 96.08531640306242 3.0000000000000044
    vertex 447.8904324101747 96.08531640306242 0.0
  endloop
endfacet
facet normal 0.8660254037844404 -0.499999999999997 0.0
  outer loop
    vertex 447.8904324101747 96.08531640306242 3.0000000000000044
    vertex 452.7904324101747 104.57236536014993 0.0
    vertex 452.7904324101747 104.57236536014993 3.0000000000000044
  endloop
endfacet
facet normal 0.8660254037844365 0.500000000000004 0.0
  outer loop
    vertex 447.8904324101747 96.08531640306242 0.0
    vertex 452.79043241017473 87.59826744597491 3.0000000000000044
    vertex 452.79043241017473 87.59826744597491 0.0
  endloop
endfacet
facet normal 0.8660254037844365 0.500000000000004 0.0
  outer loop
    vertex 452.79043241017473 87.59826744597491 3.0000000000000044
    vertex 447.8904324101747 96.08531640306242 0.0
    vertex 447.8904324101747 96.08531640306242 3.0000000000000044
  endloop
endfacet
facet normal 0.0 1.0 0.0
  outer loop
    vertex 452.79043241017473 87.59826744597491 3.0000000000000044
    vertex 462.59043241017474 87.59826744597491 0.0
    vertex 452.79043241017473 87.59826744597491 0.0
  endloop
endfacet
facet normal 0.0 1.0 0.0
  outer loop
    vertex 462.59043241017474 87.59826744597491 0.0
    vertex 452.79043241017473 87.59826744597491 3.0000000000000044
    vertex 462.59043241017474 87.59826744597491 3.0000000000000044
  endloop
endfacet
facet normal -0.8660254037844404 0.499999999999997 0.0
  outer loop
    vertex 467.4904324101747 96.08531640306242 3.0000000000000044
    vertex 462.59043241017474 87.59826744597491 0.0
    vertex 462.59043241017474 87.59826744597491 3.0000000000000044
  endloop
endfacet
facet normal -0.8660254037844404 0.499999999999997 0.0
  outer loop
    vertex 462.59043241017474 87.59826744597491 0.0
    vertex 467.4904324101747 96.08531640306242 3.0000000000000044
    vertex 467.4904324101747 96.08531640306242 0.0
  endloop
endfacet
facet normal -0.8660254037844365 -0.500000000000004 -0.0
  outer loop
    vertex 462.5904324101747 104.57236536014993 3.0000000000000044
    vertex 467.4904324101747 96.08531640306242 0.0
    vertex 467.4904324101747 96.08531640306242 3.0000000000000044
  endloop
endfacet
facet normal -0.8660254037844365 -0.500000000000004 -0.0
  outer loop
    vertex 467.4904324101747 96.08531640306242 0.0
    vertex 462.5904324101747 104.57236536014993 3.0000000000000044
    vertex 462.5904324101747 104.57236536014993 0.0
  endloop
endfacet
facet normal -0.0 -1.0 -0.0
  outer loop
    vertex 462.5904324101747 104.57236536014993 3.0000000000000044
    vertex 452.7904324101747 104.57236536014993 0.0
    vertex 462.5904324101747 104.57236536014993 0.0
  endloop
endfacet
facet normal -0.0 -1.0 -0.0
  outer loop
    vertex 452.7904324101747 104.57236536014993 0.0
    vertex 462.5904324101747 104.57236536014993 3.0000000000000044
    vertex 452.7904324101747 104.57236536014993 3.0000000000000044
  endloop
endfacet
facet normal -0.8660254037844385 -0.5000000000000004 0.0
  outer loop
    vertex 447.71115835233843 92.58531640306241 3.0000000000000044
    vertex 451.6904324101747 85.69301155764917 4.229949723821846e-15
    vertex 451.6904324101747 85.69301155764917 3.0000000000000044
  endloop
endfacet
facet normal -0.8660254037844385 -0.5000000000000004 0.0
  outer loop
    vertex 451.6904324101747 85.69301155764917 4.229949723821846e-15
    vertex 447.71115835233843 92.58531640306241 3.0000000000000044
    vertex 447.71115835233843 92.58531640306241 4.229949723821846e-15
  endloop
endfacet
facet normal -0.0005032138608472753 -0.9999998733878972 0.0
  outer loop
    vertex 447.71115835233843 92.58531640306241 3.0000000000000044
    vertex 432.81934336248025 92.59281017172728 4.229949723821846e-15
    vertex 447.71115835233843 92.58531640306241 4.229949723821846e-15
  endloop
endfacet
facet normal -0.0005032138608472753 -0.9999998733878972 0.0
  outer loop
    vertex 432.81934336248025 92.59281017172728 4.229949723821846e-15
    vertex 447.71115835233843 92.58531640306241 3.0000000000000044
    vertex 432.81934336248025 92.59281017172728 3.0000000000000044
  endloop
endfacet
facet normal 0.03271908282170693 -0.999464587476368 0.0
  outer loop
    vertex 432.81934336248025 92.59281017172728 3.0000000000000044
    vertex 432.59043241017474 92.58531640306241 4.229949723821846e-15
    vertex 432.81934336248025 92.59281017172728 4.229949723821846e-15
  endloop
endfacet
facet normal 0.03271908282170693 -0.999464587476368 0.0
  outer loop
    vertex 432.59043241017474 92.58531640306241 4.229949723821846e-15
    vertex 432.81934336248025 92.59281017172728 3.0000000000000044
    vertex 432.59043241017474 92.58531640306241 3.0000000000000044
  endloop
endfacet
facet normal -0.03271908282170693 -0.999464587476368 0.0
  outer loop
    vertex 432.59043241017474 92.58531640306241 3.0000000000000044
    vertex 432.36152145786923 92.59281017172728 4.229949723821846e-15
    vertex 432.59043241017474 92.58531640306241 4.229949723821846e-15
  endloop
endfacet
facet normal -0.06540312923019048 -0.9978589232386005 0.0
  outer loop
    vertex 432.36152145786923 92.59281017172728 4.229949723821846e-15
    vertex 432.59043241017474 92.58531640306241 3.0000000000000044
    vertex 432.36152145786923 92.59281017172728 3.0000000000000044
  endloop
endfacet
facet normal -0.06540312923019048 -0.9978589232386005 0.0
  outer loop
    vertex 432.36152145786923 92.59281017172728 3.0000000000000044
    vertex 432.1335907374046 92.61525938825409 4.229949723821846e-15
    vertex 432.36152145786923 92.59281017172728 4.229949723821846e-15
  endloop
endfacet
facet normal -0.13052619222005107 -0.9914448613738105 0.0
  outer loop
    vertex 432.1335907374046 92.61525938825409 4.229949723821846e-15
    vertex 432.36152145786923 92.59281017172728 3.0000000000000044
    vertex 432.1335907374046 92.61525938825409 3.0000000000000044
  endloop
endfacet
facet normal -0.13052619222005107 -0.9914448613738105 0.0
  outer loop
    vertex 432.1335907374046 92.61525938825409 3.0000000000000044
    vertex 431.9076162831183 92.6525679216511 4.229949723821846e-15
    vertex 432.1335907374046 92.61525938825409 4.229949723821846e-15
  endloop
endfacet
facet normal -0.19509032201603368 -0.9807852804032492 0.0
  outer loop
    vertex 431.9076162831183 92.6525679216511 4.229949723821846e-15
    vertex 432.1335907374046 92.61525938825409 3.0000000000000044
    vertex 431.9076162831183 92.6525679216511 3.0000000000000044
  endloop
endfacet
facet normal -0.19509032201603368 -0.9807852804032492 0.0
  outer loop
    vertex 431.9076162831183 92.6525679216511 3.0000000000000044
    vertex 431.68456575231585 92.70457601105066 4.229949723821846e-15
    vertex 431.9076162831183 92.6525679216511 4.229949723821846e-15
  endloop
endfacet
facet normal -0.25881904510254033 -0.9659258262890629 0.0
  outer loop
    vertex 431.68456575231585 92.70457601105066 4.229949723821846e-15
    vertex 431.9076162831183 92.6525679216511 3.0000000000000044
    vertex 431.68456575231585 92.70457601105066 3.0000000000000044
  endloop
endfacet
facet normal -0.25881904510254033 -0.9659258262890629 0.0
  outer loop
    vertex 431.68456575231585 92.70457601105066 3.0000000000000044
    vertex 431.46539428161367 92.77106094982953 4.229949723821846e-15
    vertex 431.68456575231585 92.70457601105066 4.229949723821846e-15
  endloop
endfacet
facet normal -0.32143946530321904 -0.9469301294950863 0.0
  outer loop
    vertex 431.46539428161367 92.77106094982953 4.229949723821846e-15
    vertex 431.68456575231585 92.70457601105066 3.0000000000000044
    vertex 431.46539428161367 92.77106094982953 3.0000000000000044
  endloop
endfacet
facet normal -0.32143946530321904 -0.9469301294950863 0.0
  outer loop
    vertex 431.46539428161367 92.77106094982953 3.0000000000000044
    vertex 431.25104039689694 92.85173803927289 4.229949723821846e-15
    vertex 431.46539428161367 92.77106094982953 4.229949723821846e-15
  endloop
endfacet
facet normal -0.38268343236514957 -0.9238795325112621 0.0
  outer loop
    vertex 431.25104039689694 92.85173803927289 4.229949723821846e-15
    vertex 431.46539428161367 92.77106094982953 3.0000000000000044
    vertex 431.25104039689694 92.85173803927289 3.0000000000000044
  endloop
endfacet
facet normal -0.38268343236514957 -0.9238795325112621 0.0
  outer loop
    vertex 431.25104039689694 92.85173803927289 3.0000000000000044
    vertex 431.04242199440824 92.94626180769801 4.229949723821846e-15
    vertex 431.25104039689694 92.85173803927289 4.229949723821846e-15
  endloop
endfacet
facet normal -0.4422886902190486 -0.8968727415326649 0.0
  outer loop
    vertex 431.04242199440824 92.94626180769801 4.229949723821846e-15
    vertex 431.25104039689694 92.85173803927289 3.0000000000000044
    vertex 431.04242199440824 92.94626180769801 3.0000000000000044
  endloop
endfacet
facet normal -0.4422886902190486 -0.8968727415326649 0.0
  outer loop
    vertex 431.04242199440824 92.94626180769801 3.0000000000000044
    vertex 430.8404324101748 93.05422748981688 4.229949723821846e-15
    vertex 431.04242199440824 92.94626180769801 4.229949723821846e-15
  endloop
endfacet
facet normal -0.5000000000000026 -0.866025403784437 0.0
  outer loop
    vertex 430.8404324101748 93.05422748981688 4.229949723821846e-15
    vertex 431.04242199440824 92.94626180769801 3.0000000000000044
    vertex 430.8404324101748 93.05422748981688 3.0000000000000044
  endloop
endfacet
facet normal -0.5000000000000026 -0.866025403784437 0.0
  outer loop
    vertex 430.8404324101748 93.05422748981688 3.0000000000000044
    vertex 430.64593659460616 93.1751727600035 4.229949723821846e-15
    vertex 430.8404324101748 93.05422748981688 4.229949723821846e-15
  endloop
endfacet
facet normal -0.555570233019548 -0.8314696123025815 0.0
  outer loop
    vertex 430.64593659460616 93.1751727600035 4.229949723821846e-15
    vertex 430.8404324101748 93.05422748981688 3.0000000000000044
    vertex 430.64593659460616 93.1751727600035 3.0000000000000044
  endloop
endfacet
facet normal -0.555570233019548 -0.8314696123025815 0.0
  outer loop
    vertex 430.64593659460616 93.1751727600035 3.0000000000000044
    vertex 430.4597674086442 93.30857971204307 4.229949723821846e-15
    vertex 430.64593659460616 93.1751727600035 4.229949723821846e-15
  endloop
endfacet
facet normal -0.6087614290087441 -0.7933533402912171 0.0
  outer loop
    vertex 430.4597674086442 93.30857971204307 4.229949723821846e-15
    vertex 430.64593659460616 93.1751727600035 3.0000000000000044
    vertex 430.4597674086442 93.30857971204307 3.0000000000000044
  endloop
endfacet
facet normal -0.6087614290087441 -0.7933533402912171 0.0
  outer loop
    vertex 430.4597674086442 93.30857971204307 3.0000000000000044
    vertex 430.2827220573245 93.45387707688602 4.229949723821846e-15
    vertex 430.4597674086442 93.30857971204307 4.229949723821846e-15
  endloop
endfacet
facet normal -0.6593458151000672 -0.751839807478979 0.0
  outer loop
    vertex 430.2827220573245 93.45387707688602 4.229949723821846e-15
    vertex 430.4597674086442 93.30857971204307 3.0000000000000044
    vertex 430.2827220573245 93.45387707688602 3.0000000000000044
  endloop
endfacet
facet normal -0.6593458151000672 -0.751839807478979 0.0
  outer loop
    vertex 430.2827220573245 93.45387707688602 3.0000000000000044
    vertex 430.1155586760218 93.61044266890949 4.229949723821846e-15
    vertex 430.2827220573245 93.45387707688602 4.229949723821846e-15
  endloop
endfacet
facet normal -0.7071067811864459 -0.7071067811866493 0.0
  outer loop
    vertex 430.1155586760218 93.61044266890949 4.229949723821846e-15
    vertex 430.2827220573245 93.45387707688602 3.0000000000000044
    vertex 430.1155586760218 93.61044266890949 3.0000000000000044
  endloop
endfacet
facet normal -0.7518398074789847 -0.6593458151000606 0.0
  outer loop
    vertex 429.9589930839983 93.77760605021217 3.0000000000000044
    vertex 430.1155586760218 93.61044266890949 4.229949723821846e-15
    vertex 430.1155586760218 93.61044266890949 3.0000000000000044
  endloop
endfacet
facet normal -0.7071067811864459 -0.7071067811866493 0.0
  outer loop
    vertex 430.1155586760218 93.61044266890949 4.229949723821846e-15
    vertex 429.9589930839983 93.77760605021217 3.0000000000000044
    vertex 429.9589930839983 93.77760605021217 4.229949723821846e-15
  endloop
endfacet
facet normal -0.7933533402912124 -0.6087614290087503 0.0
  outer loop
    vertex 429.8136957191554 93.95465140153188 3.0000000000000044
    vertex 429.9589930839983 93.77760605021217 4.229949723821846e-15
    vertex 429.9589930839983 93.77760605021217 3.0000000000000044
  endloop
endfacet
facet normal -0.7518398074789847 -0.6593458151000606 0.0
  outer loop
    vertex 429.9589930839983 93.77760605021217 4.229949723821846e-15
    vertex 429.8136957191554 93.95465140153188 3.0000000000000044
    vertex 429.8136957191554 93.95465140153188 4.229949723821846e-15
  endloop
endfacet
facet normal -0.831469612302539 -0.5555702330196115 0.0
  outer loop
    vertex 429.68028876711577 94.1408205874938 3.0000000000000044
    vertex 429.8136957191554 93.95465140153188 4.229949723821846e-15
    vertex 429.8136957191554 93.95465140153188 3.0000000000000044
  endloop
endfacet
facet normal -0.7933533402912124 -0.6087614290087503 0.0
  outer loop
    vertex 429.8136957191554 93.95465140153188 4.229949723821846e-15
    vertex 429.68028876711577 94.1408205874938 3.0000000000000044
    vertex 429.68028876711577 94.1408205874938 4.229949723821846e-15
  endloop
endfacet
facet normal -0.8660254037844357 -0.5000000000000052 0.0
  outer loop
    vertex 429.5593434969292 94.33531640306242 3.0000000000000044
    vertex 429.68028876711577 94.1408205874938 4.229949723821846e-15
    vertex 429.68028876711577 94.1408205874938 3.0000000000000044
  endloop
endfacet
facet normal -0.831469612302539 -0.5555702330196115 0.0
  outer loop
    vertex 429.68028876711577 94.1408205874938 4.229949723821846e-15
    vertex 429.5593434969292 94.33531640306242 3.0000000000000044
    vertex 429.5593434969292 94.33531640306242 4.229949723821846e-15
  endloop
endfacet
facet normal -0.896872741532706 -0.44228869021896555 0.0
  outer loop
    vertex 429.45137781481026 94.5373059872959 3.0000000000000044
    vertex 429.5593434969292 94.33531640306242 4.229949723821846e-15
    vertex 429.5593434969292 94.33531640306242 3.0000000000000044
  endloop
endfacet
facet normal -0.8660254037844357 -0.5000000000000052 0.0
  outer loop
    vertex 429.5593434969292 94.33531640306242 4.229949723821846e-15
    vertex 429.45137781481026 94.5373059872959 3.0000000000000044
    vertex 429.45137781481026 94.5373059872959 4.229949723821846e-15
  endloop
endfacet
facet normal -0.9238795325113441 -0.3826834323649516 0.0
  outer loop
    vertex 429.35685404638525 94.7459243897846 3.0000000000000044
    vertex 429.45137781481026 94.5373059872959 4.229949723821846e-15
    vertex 429.45137781481026 94.5373059872959 3.0000000000000044
  endloop
endfacet
facet normal -0.896872741532706 -0.44228869021896555 0.0
  outer loop
    vertex 429.45137781481026 94.5373059872959 4.229949723821846e-15
    vertex 429.35685404638525 94.7459243897846 3.0000000000000044
    vertex 429.35685404638525 94.7459243897846 4.229949723821846e-15
  endloop
endfacet
facet normal -0.9469301294950763 -0.32143946530324824 0.0
  outer loop
    vertex 429.27617695694187 94.96027827450135 3.0000000000000044
    vertex 429.35685404638525 94.7459243897846 4.229949723821846e-15
    vertex 429.35685404638525 94.7459243897846 3.0000000000000044
  endloop
endfacet
facet normal -0.9238795325113441 -0.3826834323649516 0.0
  outer loop
    vertex 429.35685404638525 94.7459243897846 4.229949723821846e-15
    vertex 429.27617695694187 94.96027827450135 3.0000000000000044
    vertex 429.27617695694187 94.96027827450135 4.229949723821846e-15
  endloop
endfacet
facet normal -0.9659258262890709 -0.2588190451025111 0.0
  outer loop
    vertex 429.20969201816297 95.1794497452036 3.0000000000000044
    vertex 429.27617695694187 94.96027827450135 4.229949723821846e-15
    vertex 429.27617695694187 94.96027827450135 3.0000000000000044
  endloop
endfacet
facet normal -0.9469301294950763 -0.32143946530324824 0.0
  outer loop
    vertex 429.27617695694187 94.96027827450135 4.229949723821846e-15
    vertex 429.20969201816297 95.1794497452036 3.0000000000000044
    vertex 429.20969201816297 95.1794497452036 4.229949723821846e-15
  endloop
endfacet
facet normal -0.9807852804032269 -0.19509032201614593 0.0
  outer loop
    vertex 429.15768392876345 95.402500276006 3.0000000000000044
    vertex 429.20969201816297 95.1794497452036 4.229949723821846e-15
    vertex 429.20969201816297 95.1794497452036 3.0000000000000044
  endloop
endfacet
facet normal -0.9659258262890709 -0.2588190451025111 0.0
  outer loop
    vertex 429.20969201816297 95.1794497452036 4.229949723821846e-15
    vertex 429.15768392876345 95.402500276006 3.0000000000000044
    vertex 429.15768392876345 95.402500276006 4.229949723821846e-15
  endloop
endfacet
facet normal -0.9914448613737958 -0.13052619222016248 0.0
  outer loop
    vertex 429.12037539536635 95.62847473029224 3.0000000000000044
    vertex 429.15768392876345 95.402500276006 4.229949723821846e-15
    vertex 429.15768392876345 95.402500276006 3.0000000000000044
  endloop
endfacet
facet normal -0.9807852804032269 -0.19509032201614593 0.0
  outer loop
    vertex 429.15768392876345 95.402500276006 4.229949723821846e-15
    vertex 429.12037539536635 95.62847473029224 3.0000000000000044
    vertex 429.12037539536635 95.62847473029224 4.229949723821846e-15
  endloop
endfacet
facet normal -0.9978589232386068 -0.06540312923009264 0.0
  outer loop
    vertex 429.0979261788396 95.85640545075692 3.0000000000000044
    vertex 429.12037539536635 95.62847473029224 4.229949723821846e-15
    vertex 429.12037539536635 95.62847473029224 3.0000000000000044
  endloop
endfacet
facet normal -0.9914448613737958 -0.13052619222016248 0.0
  outer loop
    vertex 429.12037539536635 95.62847473029224 4.229949723821846e-15
    vertex 429.0979261788396 95.85640545075692 3.0000000000000044
    vertex 429.0979261788396 95.85640545075692 4.229949723821846e-15
  endloop
endfacet
facet normal -1.0 0.0 0.0
  outer loop
    vertex 429.09043241017474 96.08531640306242 3.0000000000000044
    vertex 429.0979261788396 95.85640545075692 4.229949723821846e-15
    vertex 429.0979261788396 95.85640545075692 3.0000000000000044
  endloop
endfacet
facet normal -0.9978589232386068 -0.06540312923009264 0.0
  outer loop
    vertex 429.0979261788396 95.85640545075692 4.229949723821846e-15
    vertex 429.09043241017474 96.08531640306242 3.0000000000000044
    vertex 429.09043241017474 96.08531640306242 4.229949723821846e-15
  endloop
endfacet
facet normal -0.9978589232386068 0.06540312923009264 0.0
  outer loop
    vertex 429.0979261788396 96.31422735536792 3.0000000000000044
    vertex 429.09043241017474 96.08531640306242 4.229949723821846e-15
    vertex 429.09043241017474 96.08531640306242 3.0000000000000044
  endloop
endfacet
facet normal -1.0 0.0 0.0
  outer loop
    vertex 429.09043241017474 96.08531640306242 4.229949723821846e-15
    vertex 429.0979261788396 96.31422735536792 3.0000000000000044
    vertex 429.0979261788396 96.31422735536792 4.229949723821846e-15
  endloop
endfacet
facet normal -0.9914448613737958 0.13052619222016248 0.0
  outer loop
    vertex 429.12037539536635 96.5421580758326 3.0000000000000044
    vertex 429.0979261788396 96.31422735536792 4.229949723821846e-15
    vertex 429.0979261788396 96.31422735536792 3.0000000000000044
  endloop
endfacet
facet normal -0.9978589232386068 0.06540312923009264 0.0
  outer loop
    vertex 429.0979261788396 96.31422735536792 4.229949723821846e-15
    vertex 429.12037539536635 96.5421580758326 3.0000000000000044
    vertex 429.12037539536635 96.5421580758326 4.229949723821846e-15
  endloop
endfacet
facet normal -0.9807852804032269 0.19509032201614593 0.0
  outer loop
    vertex 429.15768392876345 96.76813253011886 3.0000000000000044
    vertex 429.12037539536635 96.5421580758326 4.229949723821846e-15
    vertex 429.12037539536635 96.5421580758326 3.0000000000000044
  endloop
endfacet
facet normal -0.9914448613737958 0.13052619222016248 0.0
  outer loop
    vertex 429.12037539536635 96.5421580758326 4.229949723821846e-15
    vertex 429.15768392876345 96.76813253011886 3.0000000000000044
    vertex 429.15768392876345 96.76813253011886 4.229949723821846e-15
  endloop
endfacet
facet normal -0.9659258262890709 0.2588190451025111 0.0
  outer loop
    vertex 429.20969201816297 96.99118306092124 3.0000000000000044
    vertex 429.15768392876345 96.76813253011886 4.229949723821846e-15
    vertex 429.15768392876345 96.76813253011886 3.0000000000000044
  endloop
endfacet
facet normal -0.9807852804032269 0.19509032201614593 0.0
  outer loop
    vertex 429.15768392876345 96.76813253011886 4.229949723821846e-15
    vertex 429.20969201816297 96.99118306092124 3.0000000000000044
    vertex 429.20969201816297 96.99118306092124 4.229949723821846e-15
  endloop
endfacet
facet normal -0.9469301294950763 0.3214394653032483 0.0
  outer loop
    vertex 429.27617695694187 97.21035453162351 3.0000000000000044
    vertex 429.20969201816297 96.99118306092124 4.229949723821846e-15
    vertex 429.20969201816297 96.99118306092124 3.0000000000000044
  endloop
endfacet
facet normal -0.9659258262890709 0.2588190451025111 0.0
  outer loop
    vertex 429.20969201816297 96.99118306092124 4.229949723821846e-15
    vertex 429.27617695694187 97.21035453162351 3.0000000000000044
    vertex 429.27617695694187 97.21035453162351 4.229949723821846e-15
  endloop
endfacet
facet normal -0.7518398074789847 0.6593458151000606 0.0
  outer loop
    vertex 429.9589930839983 98.39302675591267 3.0000000000000044
    vertex 429.8136957191554 98.21598140459298 4.229949723821846e-15
    vertex 429.8136957191554 98.21598140459298 3.0000000000000044
  endloop
endfacet
facet normal -0.7933533402912124 0.6087614290087503 0.0
  outer loop
    vertex 429.8136957191554 98.21598140459298 4.229949723821846e-15
    vertex 429.9589930839983 98.39302675591267 3.0000000000000044
    vertex 429.9589930839983 98.39302675591267 4.229949723821846e-15
  endloop
endfacet
facet normal -0.7071067811865411 0.7071067811865539 0.0
  outer loop
    vertex 430.1155586760218 98.56019013721537 3.0000000000000044
    vertex 429.9589930839983 98.39302675591267 4.229949723821846e-15
    vertex 429.9589930839983 98.39302675591267 3.0000000000000044
  endloop
endfacet
facet normal -0.7518398074789847 0.6593458151000606 0.0
  outer loop
    vertex 429.9589930839983 98.39302675591267 4.229949723821846e-15
    vertex 430.1155586760218 98.56019013721537 3.0000000000000044
    vertex 430.1155586760218 98.56019013721537 4.229949723821846e-15
  endloop
endfacet
facet normal -0.7071067811865411 0.7071067811865539 0.0
  outer loop
    vertex 430.1155586760218 98.56019013721537 3.0000000000000044
    vertex 430.28272205732446 98.71675572923884 4.229949723821846e-15
    vertex 430.1155586760218 98.56019013721537 4.229949723821846e-15
  endloop
endfacet
facet normal -0.6593458151000744 0.7518398074789727 0.0
  outer loop
    vertex 430.28272205732446 98.71675572923884 4.229949723821846e-15
    vertex 430.1155586760218 98.56019013721537 3.0000000000000044
    vertex 430.28272205732446 98.71675572923884 3.0000000000000044
  endloop
endfacet
facet normal -0.6593458151000744 0.7518398074789727 0.0
  outer loop
    vertex 430.28272205732446 98.71675572923884 3.0000000000000044
    vertex 430.4597674086442 98.86205309408177 4.229949723821846e-15
    vertex 430.28272205732446 98.71675572923884 4.229949723821846e-15
  endloop
endfacet
facet normal -0.608761429008736 0.7933533402912235 0.0
  outer loop
    vertex 430.4597674086442 98.86205309408177 4.229949723821846e-15
    vertex 430.28272205732446 98.71675572923884 3.0000000000000044
    vertex 430.4597674086442 98.86205309408177 3.0000000000000044
  endloop
endfacet
facet normal -0.608761429008736 0.7933533402912235 0.0
  outer loop
    vertex 430.4597674086442 98.86205309408177 3.0000000000000044
    vertex 430.6459365946061 98.99546004612134 4.229949723821846e-15
    vertex 430.4597674086442 98.86205309408177 4.229949723821846e-15
  endloop
endfacet
facet normal -0.5555702330196434 0.8314696123025176 0.0
  outer loop
    vertex 430.6459365946061 98.99546004612134 4.229949723821846e-15
    vertex 430.4597674086442 98.86205309408177 3.0000000000000044
    vertex 430.6459365946061 98.99546004612134 3.0000000000000044
  endloop
endfacet
facet normal -0.5555702330196434 0.8314696123025176 0.0
  outer loop
    vertex 430.6459365946061 98.99546004612134 3.0000000000000044
    vertex 430.8404324101747 99.11640531630796 4.229949723821846e-15
    vertex 430.6459365946061 98.99546004612134 4.229949723821846e-15
  endloop
endfacet
facet normal -0.4999999999999221 0.8660254037844837 0.0
  outer loop
    vertex 430.8404324101747 99.11640531630796 4.229949723821846e-15
    vertex 430.6459365946061 98.99546004612134 3.0000000000000044
    vertex 430.8404324101747 99.11640531630796 3.0000000000000044
  endloop
endfacet
facet normal -0.4999999999999221 0.8660254037844837 0.0
  outer loop
    vertex 430.8404324101747 99.11640531630796 3.0000000000000044
    vertex 431.04242199440824 99.22437099842683 4.229949723821846e-15
    vertex 430.8404324101747 99.11640531630796 4.229949723821846e-15
  endloop
endfacet
facet normal -0.44228869021896544 0.8968727415327061 0.0
  outer loop
    vertex 431.04242199440824 99.22437099842683 4.229949723821846e-15
    vertex 430.8404324101747 99.11640531630796 3.0000000000000044
    vertex 431.04242199440824 99.22437099842683 3.0000000000000044
  endloop
endfacet
facet normal -0.44228869021896544 0.8968727415327061 0.0
  outer loop
    vertex 431.04242199440824 99.22437099842683 3.0000000000000044
    vertex 431.25104039689694 99.31889476685195 4.229949723821846e-15
    vertex 431.04242199440824 99.22437099842683 4.229949723821846e-15
  endloop
endfacet
facet normal -0.38268343236514957 0.9238795325112621 0.0
  outer loop
    vertex 431.25104039689694 99.31889476685195 4.229949723821846e-15
    vertex 431.04242199440824 99.22437099842683 3.0000000000000044
    vertex 431.25104039689694 99.31889476685195 3.0000000000000044
  endloop
endfacet
facet normal -0.38268343236514957 0.9238795325112621 0.0
  outer loop
    vertex 431.25104039689694 99.31889476685195 3.0000000000000044
    vertex 431.46539428161367 99.39957185629532 4.229949723821846e-15
    vertex 431.25104039689694 99.31889476685195 4.229949723821846e-15
  endloop
endfacet
facet normal -0.32143946530321904 0.9469301294950863 0.0
  outer loop
    vertex 431.46539428161367 99.39957185629532 4.229949723821846e-15
    vertex 431.25104039689694 99.31889476685195 3.0000000000000044
    vertex 431.46539428161367 99.39957185629532 3.0000000000000044
  endloop
endfacet
facet normal -0.32143946530321904 0.9469301294950863 0.0
  outer loop
    vertex 431.46539428161367 99.39957185629532 3.0000000000000044
    vertex 431.68456575231585 99.4660567950742 4.229949723821846e-15
    vertex 431.46539428161367 99.39957185629532 4.229949723821846e-15
  endloop
endfacet
facet normal -0.25881904510254033 0.9659258262890629 0.0
  outer loop
    vertex 431.68456575231585 99.4660567950742 4.229949723821846e-15
    vertex 431.46539428161367 99.39957185629532 3.0000000000000044
    vertex 431.68456575231585 99.4660567950742 3.0000000000000044
  endloop
endfacet
facet normal -0.25881904510254033 0.9659258262890629 0.0
  outer loop
    vertex 431.68456575231585 99.4660567950742 3.0000000000000044
    vertex 431.9076162831183 99.51806488447376 4.229949723821846e-15
    vertex 431.68456575231585 99.4660567950742 4.229949723821846e-15
  endloop
endfacet
facet normal -0.19509032201603368 0.9807852804032492 0.0
  outer loop
    vertex 431.9076162831183 99.51806488447376 4.229949723821846e-15
    vertex 431.68456575231585 99.4660567950742 3.0000000000000044
    vertex 431.9076162831183 99.51806488447376 3.0000000000000044
  endloop
endfacet
facet normal -0.19509032201603368 0.9807852804032492 0.0
  outer loop
    vertex 431.9076162831183 99.51806488447376 3.0000000000000044
    vertex 432.1335907374046 99.55537341787075 4.229949723821846e-15
    vertex 431.9076162831183 99.51806488447376 4.229949723821846e-15
  endloop
endfacet
facet normal -0.1305261922200511 0.9914448613738105 0.0
  outer loop
    vertex 432.1335907374046 99.55537341787075 4.229949723821846e-15
    vertex 431.9076162831183 99.51806488447376 3.0000000000000044
    vertex 432.1335907374046 99.55537341787075 3.0000000000000044
  endloop
endfacet
facet normal -0.1305261922200511 0.9914448613738105 0.0
  outer loop
    vertex 432.1335907374046 99.55537341787075 3.0000000000000044
    vertex 432.36152145786923 99.57782263439756 4.229949723821846e-15
    vertex 432.1335907374046 99.55537341787075 4.229949723821846e-15
  endloop
endfacet
facet normal -0.09801714032972413 0.9951847266721809 0.0
  outer loop
    vertex 432.36152145786923 99.57782263439756 4.229949723821846e-15
    vertex 432.1335907374046 99.55537341787075 3.0000000000000044
    vertex 432.36152145786923 99.57782263439756 3.0000000000000044
  endloop
endfacet
facet normal -0.8660254037844385 0.5000000000000004 0.0
  outer loop
    vertex 451.6904324101747 106.47762124847567 3.0000000000000044
    vertex 447.71115835233843 99.58531640306244 4.229949723821846e-15
    vertex 447.71115835233843 99.58531640306244 3.0000000000000044
  endloop
endfacet
facet normal -0.8660254037844385 0.5000000000000004 0.0
  outer loop
    vertex 447.71115835233843 99.58531640306244 4.229949723821846e-15
    vertex 451.6904324101747 106.47762124847567 3.0000000000000044
    vertex 451.6904324101747 106.47762124847567 4.229949723821846e-15
  endloop
endfacet
facet normal -0.9238795325113441 0.3826834323649516 0.0
  outer loop
    vertex 429.35685404638525 97.42470841634025 3.0000000000000044
    vertex 429.27617695694187 97.21035453162351 4.229949723821846e-15
    vertex 429.27617695694187 97.21035453162351 3.0000000000000044
  endloop
endfacet
facet normal -0.9469301294950763 0.3214394653032483 0.0
  outer loop
    vertex 429.27617695694187 97.21035453162351 4.229949723821846e-15
    vertex 429.35685404638525 97.42470841634025 3.0000000000000044
    vertex 429.35685404638525 97.42470841634025 4.229949723821846e-15
  endloop
endfacet
facet normal 0.1305261922200027 -0.9914448613738169 0.0
  outer loop
    vertex 432.6904324101747 97.68531640306242 3.0000000000000044
    vertex 432.27632193801065 97.63079772512495 5.639932965095795e-15
    vertex 432.6904324101747 97.68531640306242 5.639932965095795e-15
  endloop
endfacet
facet normal 0.25881904510254145 -0.9659258262890627 0.0
  outer loop
    vertex 432.27632193801065 97.63079772512495 5.639932965095795e-15
    vertex 432.6904324101747 97.68531640306242 3.0000000000000044
    vertex 432.27632193801065 97.63079772512495 3.0000000000000044
  endloop
endfacet
facet normal 0.25881904510254145 -0.9659258262890627 0.0
  outer loop
    vertex 432.27632193801065 97.63079772512495 3.0000000000000044
    vertex 431.8904324101747 97.47095704911752 5.639932965095795e-15
    vertex 432.27632193801065 97.63079772512495 5.639932965095795e-15
  endloop
endfacet
facet normal 0.5000000000000054 -0.8660254037844356 0.0
  outer loop
    vertex 431.8904324101747 97.47095704911752 5.639932965095795e-15
    vertex 432.27632193801065 97.63079772512495 3.0000000000000044
    vertex 431.8904324101747 97.47095704911752 3.0000000000000044
  endloop
endfacet
facet normal 0.5000000000000054 -0.8660254037844356 0.0
  outer loop
    vertex 431.8904324101747 97.47095704911752 3.0000000000000044
    vertex 431.5590615602762 97.2166872529609 5.639932965095795e-15
    vertex 431.8904324101747 97.47095704911752 5.639932965095795e-15
  endloop
endfacet
facet normal 0.7071067811865243 -0.7071067811865708 0.0
  outer loop
    vertex 431.5590615602762 97.2166872529609 5.639932965095795e-15
    vertex 431.8904324101747 97.47095704911752 3.0000000000000044
    vertex 431.5590615602762 97.2166872529609 3.0000000000000044
  endloop
endfacet
facet normal 0.7071067811865243 -0.7071067811865708 0.0
  outer loop
    vertex 431.5590615602762 97.2166872529609 5.639932965095795e-15
    vertex 431.30479176411956 96.88531640306242 3.0000000000000044
    vertex 431.30479176411956 96.88531640306242 5.639932965095795e-15
  endloop
endfacet
facet normal 0.866025403784469 -0.4999999999999474 0.0
  outer loop
    vertex 431.30479176411956 96.88531640306242 3.0000000000000044
    vertex 431.5590615602762 97.2166872529609 5.639932965095795e-15
    vertex 431.5590615602762 97.2166872529609 3.0000000000000044
  endloop
endfacet
facet normal 0.866025403784469 -0.4999999999999474 0.0
  outer loop
    vertex 431.30479176411956 96.88531640306242 5.639932965095795e-15
    vertex 431.14495108811224 96.49942687522648 3.0000000000000044
    vertex 431.14495108811224 96.49942687522648 5.639932965095795e-15
  endloop
endfacet
facet normal 0.9659258262890749 -0.25881904510249676 0.0
  outer loop
    vertex 431.14495108811224 96.49942687522648 3.0000000000000044
    vertex 431.30479176411956 96.88531640306242 5.639932965095795e-15
    vertex 431.30479176411956 96.88531640306242 3.0000000000000044
  endloop
endfacet
facet normal 0.0 0.0 -1.0
  outer loop
    vertex 431.09043241017474 96.08531640306242 5.639932965095795e-15
    vertex 431.25104039689694 92.85173803927289 4.229949723821846e-15
    vertex 431.04242199440824 92.94626180769801 4.229949723821846e-15
  endloop
endfacet
facet normal 0.0 0.0 -1.0
  outer loop
    vertex 431.25104039689694 92.85173803927289 4.229949723821846e-15
    vertex 431.09043241017474 96.08531640306242 5.639932965095795e-15
    vertex 431.14495108811224 95.67120593089837 5.639932965095795e-15
  endloop
endfacet
facet normal 0.0 0.0 -1.0
  outer loop
    vertex 431.25104039689694 92.85173803927289 4.229949723821846e-15
    vertex 431.14495108811224 95.67120593089837 5.639932965095795e-15
    vertex 431.30479176411956 95.28531640306242 5.639932965095795e-15
  endloop
endfacet
facet normal 0.0 0.0 -1.0
  outer loop
    vertex 431.25104039689694 92.85173803927289 4.229949723821846e-15
    vertex 431.30479176411956 95.28531640306242 5.639932965095795e-15
    vertex 431.46539428161367 92.77106094982953 4.229949723821846e-15
  endloop
endfacet
facet normal 0.0 0.0 -1.0
  outer loop
    vertex 431.46539428161367 92.77106094982953 4.229949723821846e-15
    vertex 431.30479176411956 95.28531640306242 5.639932965095795e-15
    vertex 431.5590615602762 94.95394555316396 5.639932965095795e-15
  endloop
endfacet
facet normal 0.0 0.0 -1.0
  outer loop
    vertex 431.46539428161367 92.77106094982953 4.229949723821846e-15
    vertex 431.5590615602762 94.95394555316396 5.639932965095795e-15
    vertex 431.68456575231585 92.70457601105066 4.229949723821846e-15
  endloop
endfacet
facet normal 0.0 0.0 -1.0
  outer loop
    vertex 431.68456575231585 92.70457601105066 4.229949723821846e-15
    vertex 431.5590615602762 94.95394555316396 5.639932965095795e-15
    vertex 431.8904324101747 94.69967575700734 5.639932965095795e-15
  endloop
endfacet
facet normal 0.0 0.0 -1.0
  outer loop
    vertex 431.68456575231585 92.70457601105066 4.229949723821846e-15
    vertex 431.8904324101747 94.69967575700734 5.639932965095795e-15
    vertex 431.9076162831183 92.6525679216511 4.229949723821846e-15
  endloop
endfacet
facet normal 0.0 0.0 -1.0
  outer loop
    vertex 431.9076162831183 92.6525679216511 4.229949723821846e-15
    vertex 431.8904324101747 94.69967575700734 5.639932965095795e-15
    vertex 432.27632193801065 94.53983508099991 5.639932965095795e-15
  endloop
endfacet
facet normal 0.0 0.0 -1.0
  outer loop
    vertex 431.9076162831183 92.6525679216511 4.229949723821846e-15
    vertex 432.27632193801065 94.53983508099991 5.639932965095795e-15
    vertex 432.1335907374046 92.61525938825409 4.229949723821846e-15
  endloop
endfacet
facet normal 0.0 0.0 -1.0
  outer loop
    vertex 432.1335907374046 92.61525938825409 4.229949723821846e-15
    vertex 432.27632193801065 94.53983508099991 5.639932965095795e-15
    vertex 432.36152145786923 92.59281017172728 4.229949723821846e-15
  endloop
endfacet
facet normal 0.0 0.0 -1.0
  outer loop
    vertex 432.36152145786923 92.59281017172728 4.229949723821846e-15
    vertex 432.27632193801065 94.53983508099991 5.639932965095795e-15
    vertex 432.6904324101747 94.48531640306243 5.639932965095795e-15
  endloop
endfacet
facet normal 0.0 0.0 -1.0
  outer loop
    vertex 432.36152145786923 92.59281017172728 4.229949723821846e-15
    vertex 432.6904324101747 94.48531640306243 5.639932965095795e-15
    vertex 432.59043241017474 92.58531640306241 4.229949723821846e-15
  endloop
endfacet
facet normal 0.0 0.0 -1.0
  outer loop
    vertex 432.59043241017474 92.58531640306241 4.229949723821846e-15
    vertex 432.6904324101747 94.48531640306243 5.639932965095795e-15
    vertex 432.81934336248025 92.59281017172728 4.229949723821846e-15
  endloop
endfacet
facet normal 0.0 0.0 -1.0
  outer loop
    vertex 432.81934336248025 92.59281017172728 4.229949723821846e-15
    vertex 432.6904324101747 94.48531640306243 5.639932965095795e-15
    vertex 437.4904324101747 94.48531640306243 5.639932965095795e-15
  endloop
endfacet
facet normal 0.0 0.0 -1.0
  outer loop
    vertex 432.81934336248025 92.59281017172728 4.229949723821846e-15
    vertex 437.4904324101747 94.48531640306243 5.639932965095795e-15
    vertex 447.71115835233843 92.58531640306241 4.229949723821846e-15
  endloop
endfacet
facet normal 0.0 0.0 -1.0
  outer loop
    vertex 447.71115835233843 92.58531640306241 4.229949723821846e-15
    vertex 437.4904324101747 94.48531640306243 5.639932965095795e-15
    vertex 437.9045428823388 94.53983508099991 5.639932965095795e-15
  endloop
endfacet
facet normal 0.0 0.0 -1.0
  outer loop
    vertex 447.71115835233843 92.58531640306241 4.229949723821846e-15
    vertex 437.9045428823388 94.53983508099991 5.639932965095795e-15
    vertex 438.2904324101747 94.69967575700734 5.639932965095795e-15
  endloop
endfacet
facet normal 0.0 0.0 -1.0
  outer loop
    vertex 447.71115835233843 92.58531640306241 4.229949723821846e-15
    vertex 438.2904324101747 94.69967575700734 5.639932965095795e-15
    vertex 438.6218032600732 94.95394555316396 5.639932965095795e-15
  endloop
endfacet
facet normal 0.0 0.0 -1.0
  outer loop
    vertex 447.71115835233843 92.58531640306241 4.229949723821846e-15
    vertex 438.6218032600732 94.95394555316396 5.639932965095795e-15
    vertex 438.8760730562298 95.28531640306242 5.639932965095795e-15
  endloop
endfacet
facet normal 0.0 0.0 -1.0
  outer loop
    vertex 447.71115835233843 92.58531640306241 4.229949723821846e-15
    vertex 438.8760730562298 95.28531640306242 5.639932965095795e-15
    vertex 439.0359137322372 95.67120593089841 5.639932965095795e-15
  endloop
endfacet
facet normal 0.0 0.0 -1.0
  outer loop
    vertex 447.71115835233843 92.58531640306241 4.229949723821846e-15
    vertex 439.0359137322372 95.67120593089841 5.639932965095795e-15
    vertex 439.0904324101747 96.08531640306242 5.639932965095795e-15
  endloop
endfacet
facet normal 0.0 0.0 -1.0
  outer loop
    vertex 447.71115835233843 92.58531640306241 4.229949723821846e-15
    vertex 439.0904324101747 96.08531640306242 5.639932965095795e-15
    vertex 447.71115835233843 99.58531640306244 4.229949723821846e-15
  endloop
endfacet
facet normal 0.0 0.0 -1.0
  outer loop
    vertex 447.71115835233843 92.58531640306241 4.229949723821846e-15
    vertex 447.71115835233843 99.58531640306244 4.229949723821846e-15
    vertex 447.8904324101747 96.08531640306242 0.0
  endloop
endfacet
facet normal 0.0 0.0 -1.0
  outer loop
    vertex 447.8904324101747 96.08531640306242 0.0
    vertex 447.71115835233843 99.58531640306244 4.229949723821846e-15
    vertex 451.6904324101747 106.47762124847567 4.229949723821846e-15
  endloop
endfacet
facet normal 0.0 0.0 -1.0
  outer loop
    vertex 447.8904324101747 96.08531640306242 0.0
    vertex 451.6904324101747 106.47762124847567 4.229949723821846e-15
    vertex 452.7904324101747 104.57236536014993 0.0
  endloop
endfacet
facet normal 0.0 0.0 -1.0
  outer loop
    vertex 452.7904324101747 104.57236536014993 0.0
    vertex 451.6904324101747 106.47762124847567 4.229949723821846e-15
    vertex 463.6904324101747 106.47762124847567 4.229949723821846e-15
  endloop
endfacet
facet normal 0.0 0.0 -1.0
  outer loop
    vertex 452.7904324101747 104.57236536014993 0.0
    vertex 463.6904324101747 106.47762124847567 4.229949723821846e-15
    vertex 462.5904324101747 104.57236536014993 0.0
  endloop
endfacet
facet normal 0.0 0.0 -1.0
  outer loop
    vertex 462.5904324101747 104.57236536014993 0.0
    vertex 463.6904324101747 106.47762124847567 4.229949723821846e-15
    vertex 467.4904324101747 96.08531640306242 0.0
  endloop
endfacet
facet normal 0.0 0.0 -1.0
  outer loop
    vertex 467.4904324101747 96.08531640306242 0.0
    vertex 463.6904324101747 106.47762124847567 4.229949723821846e-15
    vertex 469.6904324101747 96.08531640306242 4.229949723821846e-15
  endloop
endfacet
facet normal 0.0 0.0 -1.0
  outer loop
    vertex 447.8904324101747 96.08531640306242 0.0
    vertex 451.6904324101747 85.69301155764917 4.229949723821846e-15
    vertex 447.71115835233843 92.58531640306241 4.229949723821846e-15
  endloop
endfacet
facet normal 0.0 0.0 -1.0
  outer loop
    vertex 451.6904324101747 85.69301155764917 4.229949723821846e-15
    vertex 447.8904324101747 96.08531640306242 0.0
    vertex 452.79043241017473 87.59826744597491 0.0
  endloop
endfacet
facet normal 0.0 0.0 -1.0
  outer loop
    vertex 451.6904324101747 85.69301155764917 4.229949723821846e-15
    vertex 452.79043241017473 87.59826744597491 0.0
    vertex 463.6904324101747 85.69301155764917 4.229949723821846e-15
  endloop
endfacet
facet normal 0.0 0.0 -1.0
  outer loop
    vertex 463.6904324101747 85.69301155764917 4.229949723821846e-15
    vertex 452.79043241017473 87.59826744597491 0.0
    vertex 462.59043241017474 87.59826744597491 0.0
  endloop
endfacet
facet normal 0.0 0.0 -1.0
  outer loop
    vertex 463.6904324101747 85.69301155764917 4.229949723821846e-15
    vertex 462.59043241017474 87.59826744597491 0.0
    vertex 467.4904324101747 96.08531640306242 0.0
  endloop
endfacet
facet normal 0.0 0.0 -1.0
  outer loop
    vertex 463.6904324101747 85.69301155764917 4.229949723821846e-15
    vertex 467.4904324101747 96.08531640306242 0.0
    vertex 469.6904324101747 96.08531640306242 4.229949723821846e-15
  endloop
endfacet
facet normal 0.0 0.0 -1.0
  outer loop
    vertex 429.0979261788396 96.31422735536792 4.229949723821846e-15
    vertex 429.0979261788396 95.85640545075692 4.229949723821846e-15
    vertex 429.09043241017474 96.08531640306242 4.229949723821846e-15
  endloop
endfacet
facet normal 0.0 0.0 -1.0
  outer loop
    vertex 429.0979261788396 95.85640545075692 4.229949723821846e-15
    vertex 429.0979261788396 96.31422735536792 4.229949723821846e-15
    vertex 429.12037539536635 96.5421580758326 4.229949723821846e-15
  endloop
endfacet
facet normal 0.0 0.0 -1.0
  outer loop
    vertex 429.0979261788396 95.85640545075692 4.229949723821846e-15
    vertex 429.12037539536635 96.5421580758326 4.229949723821846e-15
    vertex 429.12037539536635 95.62847473029224 4.229949723821846e-15
  endloop
endfacet
facet normal 0.0 0.0 -1.0
  outer loop
    vertex 429.12037539536635 95.62847473029224 4.229949723821846e-15
    vertex 429.12037539536635 96.5421580758326 4.229949723821846e-15
    vertex 429.15768392876345 96.76813253011886 4.229949723821846e-15
  endloop
endfacet
facet normal 0.0 0.0 -1.0
  outer loop
    vertex 429.12037539536635 95.62847473029224 4.229949723821846e-15
    vertex 429.15768392876345 96.76813253011886 4.229949723821846e-15
    vertex 429.15768392876345 95.402500276006 4.229949723821846e-15
  endloop
endfacet
facet normal 0.0 0.0 -1.0
  outer loop
    vertex 429.15768392876345 95.402500276006 4.229949723821846e-15
    vertex 429.15768392876345 96.76813253011886 4.229949723821846e-15
    vertex 429.20969201816297 96.99118306092124 4.229949723821846e-15
  endloop
endfacet
facet normal 0.0 0.0 -1.0
  outer loop
    vertex 429.15768392876345 95.402500276006 4.229949723821846e-15
    vertex 429.20969201816297 96.99118306092124 4.229949723821846e-15
    vertex 429.20969201816297 95.1794497452036 4.229949723821846e-15
  endloop
endfacet
facet normal 0.0 0.0 -1.0
  outer loop
    vertex 429.20969201816297 95.1794497452036 4.229949723821846e-15
    vertex 429.20969201816297 96.99118306092124 4.229949723821846e-15
    vertex 429.27617695694187 97.21035453162351 4.229949723821846e-15
  endloop
endfacet
facet normal 0.0 0.0 -1.0
  outer loop
    vertex 429.20969201816297 95.1794497452036 4.229949723821846e-15
    vertex 429.27617695694187 97.21035453162351 4.229949723821846e-15
    vertex 429.27617695694187 94.96027827450135 4.229949723821846e-15
  endloop
endfacet
facet normal 0.0 0.0 -1.0
  outer loop
    vertex 429.27617695694187 94.96027827450135 4.229949723821846e-15
    vertex 429.27617695694187 97.21035453162351 4.229949723821846e-15
    vertex 429.35685404638525 97.42470841634025 4.229949723821846e-15
  endloop
endfacet
facet normal 0.0 0.0 -1.0
  outer loop
    vertex 429.27617695694187 94.96027827450135 4.229949723821846e-15
    vertex 429.35685404638525 97.42470841634025 4.229949723821846e-15
    vertex 429.35685404638525 94.7459243897846 4.229949723821846e-15
  endloop
endfacet
facet normal 0.0 0.0 -1.0
  outer loop
    vertex 429.35685404638525 94.7459243897846 4.229949723821846e-15
    vertex 429.35685404638525 97.42470841634025 4.229949723821846e-15
    vertex 429.45137781481026 97.63332681882895 4.229949723821846e-15
  endloop
endfacet
facet normal 0.0 0.0 -1.0
  outer loop
    vertex 429.35685404638525 94.7459243897846 4.229949723821846e-15
    vertex 429.45137781481026 97.63332681882895 4.229949723821846e-15
    vertex 429.45137781481026 94.5373059872959 4.229949723821846e-15
  endloop
endfacet
facet normal 0.0 0.0 -1.0
  outer loop
    vertex 429.45137781481026 94.5373059872959 4.229949723821846e-15
    vertex 429.45137781481026 97.63332681882895 4.229949723821846e-15
    vertex 429.5593434969292 97.83531640306244 4.229949723821846e-15
  endloop
endfacet
facet normal 0.0 0.0 -1.0
  outer loop
    vertex 429.45137781481026 94.5373059872959 4.229949723821846e-15
    vertex 429.5593434969292 97.83531640306244 4.229949723821846e-15
    vertex 429.5593434969292 94.33531640306242 4.229949723821846e-15
  endloop
endfacet
facet normal 0.0 0.0 -1.0
  outer loop
    vertex 429.5593434969292 94.33531640306242 4.229949723821846e-15
    vertex 429.5593434969292 97.83531640306244 4.229949723821846e-15
    vertex 429.68028876711577 98.02981221863104 4.229949723821846e-15
  endloop
endfacet
facet normal 0.0 0.0 -1.0
  outer loop
    vertex 429.5593434969292 94.33531640306242 4.229949723821846e-15
    vertex 429.68028876711577 98.02981221863104 4.229949723821846e-15
    vertex 429.68028876711577 94.1408205874938 4.229949723821846e-15
  endloop
endfacet
facet normal 0.0 0.0 -1.0
  outer loop
    vertex 429.68028876711577 94.1408205874938 4.229949723821846e-15
    vertex 429.68028876711577 98.02981221863104 4.229949723821846e-15
    vertex 429.8136957191554 98.21598140459298 4.229949723821846e-15
  endloop
endfacet
facet normal 0.0 0.0 -1.0
  outer loop
    vertex 429.68028876711577 94.1408205874938 4.229949723821846e-15
    vertex 429.8136957191554 98.21598140459298 4.229949723821846e-15
    vertex 429.8136957191554 93.95465140153188 4.229949723821846e-15
  endloop
endfacet
facet normal 0.0 0.0 -1.0
  outer loop
    vertex 429.8136957191554 93.95465140153188 4.229949723821846e-15
    vertex 429.8136957191554 98.21598140459298 4.229949723821846e-15
    vertex 429.9589930839983 98.39302675591267 4.229949723821846e-15
  endloop
endfacet
facet normal 0.0 0.0 -1.0
  outer loop
    vertex 429.8136957191554 93.95465140153188 4.229949723821846e-15
    vertex 429.9589930839983 98.39302675591267 4.229949723821846e-15
    vertex 429.9589930839983 93.77760605021217 4.229949723821846e-15
  endloop
endfacet
facet normal 0.0 0.0 -1.0
  outer loop
    vertex 429.9589930839983 93.77760605021217 4.229949723821846e-15
    vertex 429.9589930839983 98.39302675591267 4.229949723821846e-15
    vertex 430.1155586760218 98.56019013721537 4.229949723821846e-15
  endloop
endfacet
facet normal 0.0 0.0 -1.0
  outer loop
    vertex 429.9589930839983 93.77760605021217 4.229949723821846e-15
    vertex 430.1155586760218 98.56019013721537 4.229949723821846e-15
    vertex 430.1155586760218 93.61044266890949 4.229949723821846e-15
  endloop
endfacet
facet normal 0.0 0.0 -1.0
  outer loop
    vertex 430.1155586760218 93.61044266890949 4.229949723821846e-15
    vertex 430.1155586760218 98.56019013721537 4.229949723821846e-15
    vertex 430.28272205732446 98.71675572923884 4.229949723821846e-15
  endloop
endfacet
facet normal 0.0 0.0 -1.0
  outer loop
    vertex 430.1155586760218 93.61044266890949 4.229949723821846e-15
    vertex 430.28272205732446 98.71675572923884 4.229949723821846e-15
    vertex 430.2827220573245 93.45387707688602 4.229949723821846e-15
  endloop
endfacet
facet normal 0.0 0.0 -1.0
  outer loop
    vertex 430.2827220573245 93.45387707688602 4.229949723821846e-15
    vertex 430.28272205732446 98.71675572923884 4.229949723821846e-15
    vertex 430.4597674086442 98.86205309408177 4.229949723821846e-15
  endloop
endfacet
facet normal 0.0 0.0 -1.0
  outer loop
    vertex 430.2827220573245 93.45387707688602 4.229949723821846e-15
    vertex 430.4597674086442 98.86205309408177 4.229949723821846e-15
    vertex 430.4597674086442 93.30857971204307 4.229949723821846e-15
  endloop
endfacet
facet normal 0.0 0.0 -1.0
  outer loop
    vertex 430.4597674086442 93.30857971204307 4.229949723821846e-15
    vertex 430.4597674086442 98.86205309408177 4.229949723821846e-15
    vertex 430.6459365946061 98.99546004612134 4.229949723821846e-15
  endloop
endfacet
facet normal 0.0 0.0 -1.0
  outer loop
    vertex 430.4597674086442 93.30857971204307 4.229949723821846e-15
    vertex 430.6459365946061 98.99546004612134 4.229949723821846e-15
    vertex 430.64593659460616 93.1751727600035 4.229949723821846e-15
  endloop
endfacet
facet normal 0.0 0.0 -1.0
  outer loop
    vertex 430.64593659460616 93.1751727600035 4.229949723821846e-15
    vertex 430.6459365946061 98.99546004612134 4.229949723821846e-15
    vertex 430.8404324101747 99.11640531630796 4.229949723821846e-15
  endloop
endfacet
facet normal 0.0 0.0 -1.0
  outer loop
    vertex 430.64593659460616 93.1751727600035 4.229949723821846e-15
    vertex 430.8404324101747 99.11640531630796 4.229949723821846e-15
    vertex 430.8404324101748 93.05422748981688 4.229949723821846e-15
  endloop
endfacet
facet normal 0.0 0.0 -1.0
  outer loop
    vertex 430.8404324101748 93.05422748981688 4.229949723821846e-15
    vertex 430.8404324101747 99.11640531630796 4.229949723821846e-15
    vertex 431.04242199440824 99.22437099842683 4.229949723821846e-15
  endloop
endfacet
facet normal 0.0 0.0 -1.0
  outer loop
    vertex 430.8404324101748 93.05422748981688 4.229949723821846e-15
    vertex 431.04242199440824 99.22437099842683 4.229949723821846e-15
    vertex 431.04242199440824 92.94626180769801 4.229949723821846e-15
  endloop
endfacet
facet normal 0.0 0.0 -1.0
  outer loop
    vertex 431.04242199440824 92.94626180769801 4.229949723821846e-15
    vertex 431.04242199440824 99.22437099842683 4.229949723821846e-15
    vertex 431.09043241017474 96.08531640306242 5.639932965095795e-15
  endloop
endfacet
facet normal 0.0 0.0 -1.0
  outer loop
    vertex 431.09043241017474 96.08531640306242 5.639932965095795e-15
    vertex 431.04242199440824 99.22437099842683 4.229949723821846e-15
    vertex 431.25104039689694 99.31889476685195 4.229949723821846e-15
  endloop
endfacet
facet normal 0.0 0.0 -1.0
  outer loop
    vertex 431.09043241017474 96.08531640306242 5.639932965095795e-15
    vertex 431.25104039689694 99.31889476685195 4.229949723821846e-15
    vertex 431.14495108811224 96.49942687522648 5.639932965095795e-15
  endloop
endfacet
facet normal 0.0 0.0 -1.0
  outer loop
    vertex 431.14495108811224 96.49942687522648 5.639932965095795e-15
    vertex 431.25104039689694 99.31889476685195 4.229949723821846e-15
    vertex 431.30479176411956 96.88531640306242 5.639932965095795e-15
  endloop
endfacet
facet normal 0.0 0.0 -1.0
  outer loop
    vertex 431.30479176411956 96.88531640306242 5.639932965095795e-15
    vertex 431.25104039689694 99.31889476685195 4.229949723821846e-15
    vertex 431.46539428161367 99.39957185629532 4.229949723821846e-15
  endloop
endfacet
facet normal 0.0 0.0 -1.0
  outer loop
    vertex 431.30479176411956 96.88531640306242 5.639932965095795e-15
    vertex 431.46539428161367 99.39957185629532 4.229949723821846e-15
    vertex 431.5590615602762 97.2166872529609 5.639932965095795e-15
  endloop
endfacet
facet normal 0.0 0.0 -1.0
  outer loop
    vertex 431.5590615602762 97.2166872529609 5.639932965095795e-15
    vertex 431.46539428161367 99.39957185629532 4.229949723821846e-15
    vertex 431.68456575231585 99.4660567950742 4.229949723821846e-15
  endloop
endfacet
facet normal 0.0 0.0 -1.0
  outer loop
    vertex 431.5590615602762 97.2166872529609 5.639932965095795e-15
    vertex 431.68456575231585 99.4660567950742 4.229949723821846e-15
    vertex 431.8904324101747 97.47095704911752 5.639932965095795e-15
  endloop
endfacet
facet normal 0.0 0.0 -1.0
  outer loop
    vertex 431.8904324101747 97.47095704911752 5.639932965095795e-15
    vertex 431.68456575231585 99.4660567950742 4.229949723821846e-15
    vertex 431.9076162831183 99.51806488447376 4.229949723821846e-15
  endloop
endfacet
facet normal 0.0 0.0 -1.0
  outer loop
    vertex 431.8904324101747 97.47095704911752 5.639932965095795e-15
    vertex 431.9076162831183 99.51806488447376 4.229949723821846e-15
    vertex 432.27632193801065 97.63079772512495 5.639932965095795e-15
  endloop
endfacet
facet normal 0.0 0.0 -1.0
  outer loop
    vertex 432.27632193801065 97.63079772512495 5.639932965095795e-15
    vertex 431.9076162831183 99.51806488447376 4.229949723821846e-15
    vertex 432.1335907374046 99.55537341787075 4.229949723821846e-15
  endloop
endfacet
facet normal 0.0 0.0 -1.0
  outer loop
    vertex 432.27632193801065 97.63079772512495 5.639932965095795e-15
    vertex 432.1335907374046 99.55537341787075 4.229949723821846e-15
    vertex 432.36152145786923 99.57782263439756 4.229949723821846e-15
  endloop
endfacet
facet normal 0.0 0.0 -1.0
  outer loop
    vertex 432.27632193801065 97.63079772512495 5.639932965095795e-15
    vertex 432.36152145786923 99.57782263439756 4.229949723821846e-15
    vertex 432.6904324101747 97.68531640306242 5.639932965095795e-15
  endloop
endfacet
facet normal 0.0 0.0 -1.0
  outer loop
    vertex 432.6904324101747 97.68531640306242 5.639932965095795e-15
    vertex 432.36152145786923 99.57782263439756 4.229949723821846e-15
    vertex 432.59043241017474 99.58531640306244 4.229949723821846e-15
  endloop
endfacet
facet normal 0.0 0.0 -1.0
  outer loop
    vertex 432.6904324101747 97.68531640306242 5.639932965095795e-15
    vertex 432.59043241017474 99.58531640306244 4.229949723821846e-15
    vertex 447.71115835233843 99.58531640306244 4.229949723821846e-15
  endloop
endfacet
facet normal 0.0 0.0 -1.0
  outer loop
    vertex 432.6904324101747 97.68531640306242 5.639932965095795e-15
    vertex 447.71115835233843 99.58531640306244 4.229949723821846e-15
    vertex 437.4904324101747 97.68531640306242 5.639932965095795e-15
  endloop
endfacet
facet normal 0.0 0.0 -1.0
  outer loop
    vertex 437.4904324101747 97.68531640306242 5.639932965095795e-15
    vertex 447.71115835233843 99.58531640306244 4.229949723821846e-15
    vertex 437.9045428823388 97.63079772512495 5.639932965095795e-15
  endloop
endfacet
facet normal 0.0 0.0 -1.0
  outer loop
    vertex 437.9045428823388 97.63079772512495 5.639932965095795e-15
    vertex 447.71115835233843 99.58531640306244 4.229949723821846e-15
    vertex 438.2904324101747 97.47095704911752 5.639932965095795e-15
  endloop
endfacet
facet normal 0.0 0.0 -1.0
  outer loop
    vertex 438.2904324101747 97.47095704911752 5.639932965095795e-15
    vertex 447.71115835233843 99.58531640306244 4.229949723821846e-15
    vertex 438.6218032600732 97.2166872529609 5.639932965095795e-15
  endloop
endfacet
facet normal 0.0 0.0 -1.0
  outer loop
    vertex 438.6218032600732 97.2166872529609 5.639932965095795e-15
    vertex 447.71115835233843 99.58531640306244 4.229949723821846e-15
    vertex 438.8760730562298 96.88531640306242 5.639932965095795e-15
  endloop
endfacet
facet normal 0.0 0.0 -1.0
  outer loop
    vertex 438.8760730562298 96.88531640306242 5.639932965095795e-15
    vertex 447.71115835233843 99.58531640306244 4.229949723821846e-15
    vertex 439.0359137322372 96.49942687522648 5.639932965095795e-15
  endloop
endfacet
facet normal 0.0 0.0 -1.0
  outer loop
    vertex 439.0359137322372 96.49942687522648 5.639932965095795e-15
    vertex 447.71115835233843 99.58531640306244 4.229949723821846e-15
    vertex 439.0904324101747 96.08531640306242 5.639932965095795e-15
  endloop
endfacet
facet normal -0.1305261922200027 0.9914448613738169 0.0
  outer loop
    vertex 437.4904324101747 94.48531640306243 3.0000000000000044
    vertex 437.9045428823388 94.53983508099991 5.639932965095795e-15
    vertex 437.4904324101747 94.48531640306243 5.639932965095795e-15
  endloop
endfacet
facet normal -0.25881904510254145 0.9659258262890627 0.0
  outer loop
    vertex 437.9045428823388 94.53983508099991 5.639932965095795e-15
    vertex 437.4904324101747 94.48531640306243 3.0000000000000044
    vertex 437.9045428823388 94.53983508099991 3.0000000000000044
  endloop
endfacet
facet normal -0.25881904510254145 0.9659258262890627 0.0
  outer loop
    vertex 437.9045428823388 94.53983508099991 3.0000000000000044
    vertex 438.2904324101747 94.69967575700734 5.639932965095795e-15
    vertex 437.9045428823388 94.53983508099991 5.639932965095795e-15
  endloop
endfacet
facet normal -0.5000000000000054 0.8660254037844356 0.0
  outer loop
    vertex 438.2904324101747 94.69967575700734 5.639932965095795e-15
    vertex 437.9045428823388 94.53983508099991 3.0000000000000044
    vertex 438.2904324101747 94.69967575700734 3.0000000000000044
  endloop
endfacet
facet normal -0.8660254037844793 0.49999999999992956 0.0
  outer loop
    vertex 438.8760730562298 95.28531640306242 3.0000000000000044
    vertex 438.6218032600732 94.95394555316396 5.639932965095795e-15
    vertex 438.6218032600732 94.95394555316396 3.0000000000000044
  endloop
endfacet
facet normal -0.7071067811865243 0.7071067811865708 0.0
  outer loop
    vertex 438.6218032600732 94.95394555316396 5.639932965095795e-15
    vertex 438.8760730562298 95.28531640306242 3.0000000000000044
    vertex 438.8760730562298 95.28531640306242 5.639932965095795e-15
  endloop
endfacet
facet normal -0.9659258262890782 0.2588190451024836 0.0
  outer loop
    vertex 439.0359137322372 95.67120593089841 3.0000000000000044
    vertex 438.8760730562298 95.28531640306242 5.639932965095795e-15
    vertex 438.8760730562298 95.28531640306242 3.0000000000000044
  endloop
endfacet
facet normal -0.8660254037844793 0.49999999999992956 0.0
  outer loop
    vertex 438.8760730562298 95.28531640306242 5.639932965095795e-15
    vertex 439.0359137322372 95.67120593089841 3.0000000000000044
    vertex 439.0359137322372 95.67120593089841 5.639932965095795e-15
  endloop
endfacet
facet normal -1.0 7.057599037352408e-15 0.0
  outer loop
    vertex 439.0904324101747 96.08531640306242 3.0000000000000044
    vertex 439.0359137322372 95.67120593089841 5.639932965095795e-15
    vertex 439.0359137322372 95.67120593089841 3.0000000000000044
  endloop
endfacet
facet normal -0.9659258262890782 0.2588190451024836 0.0
  outer loop
    vertex 439.0359137322372 95.67120593089841 5.639932965095795e-15
    vertex 439.0904324101747 96.08531640306242 3.0000000000000044
    vertex 439.0904324101747 96.08531640306242 5.639932965095795e-15
  endloop
endfacet
facet normal -0.9659258262890749 -0.25881904510249676 0.0
  outer loop
    vertex 439.0359137322372 96.49942687522648 3.0000000000000044
    vertex 439.0904324101747 96.08531640306242 5.639932965095795e-15
    vertex 439.0904324101747 96.08531640306242 3.0000000000000044
  endloop
endfacet
facet normal -1.0 7.057599037352408e-15 0.0
  outer loop
    vertex 439.0904324101747 96.08531640306242 5.639932965095795e-15
    vertex 439.0359137322372 96.49942687522648 3.0000000000000044
    vertex 439.0359137322372 96.49942687522648 5.639932965095795e-15
  endloop
endfacet
facet normal -0.866025403784469 -0.4999999999999474 0.0
  outer loop
    vertex 438.8760730562298 96.88531640306242 3.0000000000000044
    vertex 439.0359137322372 96.49942687522648 5.639932965095795e-15
    vertex 439.0359137322372 96.49942687522648 3.0000000000000044
  endloop
endfacet
facet normal -0.9659258262890749 -0.25881904510249676 0.0
  outer loop
    vertex 439.0359137322372 96.49942687522648 5.639932965095795e-15
    vertex 438.8760730562298 96.88531640306242 3.0000000000000044
    vertex 438.8760730562298 96.88531640306242 5.639932965095795e-15
  endloop
endfacet
facet normal -0.7071067811865243 -0.7071067811865708 0.0
  outer loop
    vertex 438.6218032600732 97.2166872529609 3.0000000000000044
    vertex 438.8760730562298 96.88531640306242 5.639932965095795e-15
    vertex 438.8760730562298 96.88531640306242 3.0000000000000044
  endloop
endfacet
facet normal -0.866025403784469 -0.4999999999999474 0.0
  outer loop
    vertex 438.8760730562298 96.88531640306242 5.639932965095795e-15
    vertex 438.6218032600732 97.2166872529609 3.0000000000000044
    vertex 438.6218032600732 97.2166872529609 5.639932965095795e-15
  endloop
endfacet
facet normal -0.7071067811865243 -0.7071067811865708 0.0
  outer loop
    vertex 438.6218032600732 97.2166872529609 3.0000000000000044
    vertex 438.2904324101747 97.47095704911752 5.639932965095795e-15
    vertex 438.6218032600732 97.2166872529609 5.639932965095795e-15
  endloop
endfacet
facet normal -0.5000000000000054 -0.8660254037844356 0.0
  outer loop
    vertex 438.2904324101747 97.47095704911752 5.639932965095795e-15
    vertex 438.6218032600732 97.2166872529609 3.0000000000000044
    vertex 438.2904324101747 97.47095704911752 3.0000000000000044
  endloop
endfacet
facet normal -0.5000000000000054 -0.8660254037844356 0.0
  outer loop
    vertex 438.2904324101747 97.47095704911752 3.0000000000000044
    vertex 437.9045428823388 97.63079772512495 5.639932965095795e-15
    vertex 438.2904324101747 97.47095704911752 5.639932965095795e-15
  endloop
endfacet
facet normal -0.25881904510254145 -0.9659258262890627 0.0
  outer loop
    vertex 437.9045428823388 97.63079772512495 5.639932965095795e-15
    vertex 438.2904324101747 97.47095704911752 3.0000000000000044
    vertex 437.9045428823388 97.63079772512495 3.0000000000000044
  endloop
endfacet
facet normal -0.25881904510254145 -0.9659258262890627 0.0
  outer loop
    vertex 437.9045428823388 97.63079772512495 3.0000000000000044
    vertex 437.4904324101747 97.68531640306242 5.639932965095795e-15
    vertex 437.9045428823388 97.63079772512495 5.639932965095795e-15
  endloop
endfacet
facet normal -0.1305261922200027 -0.9914448613738169 -0.0
  outer loop
    vertex 437.4904324101747 97.68531640306242 5.639932965095795e-15
    vertex 437.9045428823388 97.63079772512495 3.0000000000000044
    vertex 437.4904324101747 97.68531640306242 3.0000000000000044
  endloop
endfacet
facet normal -0.0 -1.0 -0.0
  outer loop
    vertex 437.4904324101747 97.68531640306242 3.0000000000000044
    vertex 432.6904324101747 97.68531640306242 5.639932965095795e-15
    vertex 437.4904324101747 97.68531640306242 5.639932965095795e-15
  endloop
endfacet
facet normal -0.0 -1.0 -0.0
  outer loop
    vertex 432.6904324101747 97.68531640306242 5.639932965095795e-15
    vertex 437.4904324101747 97.68531640306242 3.0000000000000044
    vertex 432.6904324101747 97.68531640306242 3.0000000000000044
  endloop
endfacet
facet normal 0.0 0.0 1.0
  outer loop
    vertex 429.0979261788396 95.85640545075692 3.0000000000000044
    vertex 429.0979261788396 96.31422735536792 3.0000000000000044
    vertex 429.09043241017474 96.08531640306242 3.0000000000000044
  endloop
endfacet
facet normal 0.0 0.0 1.0
  outer loop
    vertex 429.0979261788396 96.31422735536792 3.0000000000000044
    vertex 429.0979261788396 95.85640545075692 3.0000000000000044
    vertex 429.12037539536635 95.62847473029224 3.0000000000000044
  endloop
endfacet
facet normal 0.0 0.0 1.0
  outer loop
    vertex 429.0979261788396 96.31422735536792 3.0000000000000044
    vertex 429.12037539536635 95.62847473029224 3.0000000000000044
    vertex 429.12037539536635 96.5421580758326 3.0000000000000044
  endloop
endfacet
facet normal 0.0 0.0 1.0
  outer loop
    vertex 429.12037539536635 96.5421580758326 3.0000000000000044
    vertex 429.12037539536635 95.62847473029224 3.0000000000000044
    vertex 429.15768392876345 95.402500276006 3.0000000000000044
  endloop
endfacet
facet normal 0.0 0.0 1.0
  outer loop
    vertex 429.12037539536635 96.5421580758326 3.0000000000000044
    vertex 429.15768392876345 95.402500276006 3.0000000000000044
    vertex 429.15768392876345 96.76813253011886 3.0000000000000044
  endloop
endfacet
facet normal 0.0 0.0 1.0
  outer loop
    vertex 429.15768392876345 96.76813253011886 3.0000000000000044
    vertex 429.15768392876345 95.402500276006 3.0000000000000044
    vertex 429.20969201816297 95.1794497452036 3.0000000000000044
  endloop
endfacet
facet normal 0.0 0.0 1.0
  outer loop
    vertex 429.15768392876345 96.76813253011886 3.0000000000000044
    vertex 429.20969201816297 95.1794497452036 3.0000000000000044
    vertex 429.20969201816297 96.99118306092124 3.0000000000000044
  endloop
endfacet
facet normal 0.0 0.0 1.0
  outer loop
    vertex 429.20969201816297 96.99118306092124 3.0000000000000044
    vertex 429.20969201816297 95.1794497452036 3.0000000000000044
    vertex 429.27617695694187 94.96027827450135 3.0000000000000044
  endloop
endfacet
facet normal 0.0 0.0 1.0
  outer loop
    vertex 429.20969201816297 96.99118306092124 3.0000000000000044
    vertex 429.27617695694187 94.96027827450135 3.0000000000000044
    vertex 429.27617695694187 97.21035453162351 3.0000000000000044
  endloop
endfacet
facet normal 0.0 0.0 1.0
  outer loop
    vertex 429.27617695694187 97.21035453162351 3.0000000000000044
    vertex 429.27617695694187 94.96027827450135 3.0000000000000044
    vertex 429.35685404638525 94.7459243897846 3.0000000000000044
  endloop
endfacet
facet normal 0.0 0.0 1.0
  outer loop
    vertex 429.27617695694187 97.21035453162351 3.0000000000000044
    vertex 429.35685404638525 94.7459243897846 3.0000000000000044
    vertex 429.35685404638525 97.42470841634025 3.0000000000000044
  endloop
endfacet
facet normal 0.0 0.0 1.0
  outer loop
    vertex 429.35685404638525 97.42470841634025 3.0000000000000044
    vertex 429.35685404638525 94.7459243897846 3.0000000000000044
    vertex 429.45137781481026 94.5373059872959 3.0000000000000044
  endloop
endfacet
facet normal 0.0 0.0 1.0
  outer loop
    vertex 429.35685404638525 97.42470841634025 3.0000000000000044
    vertex 429.45137781481026 94.5373059872959 3.0000000000000044
    vertex 429.45137781481026 97.63332681882895 3.0000000000000044
  endloop
endfacet
facet normal 0.0 0.0 1.0
  outer loop
    vertex 429.45137781481026 97.63332681882895 3.0000000000000044
    vertex 429.45137781481026 94.5373059872959 3.0000000000000044
    vertex 429.5593434969292 94.33531640306242 3.0000000000000044
  endloop
endfacet
facet normal 0.0 0.0 1.0
  outer loop
    vertex 429.45137781481026 97.63332681882895 3.0000000000000044
    vertex 429.5593434969292 94.33531640306242 3.0000000000000044
    vertex 429.5593434969292 97.83531640306244 3.0000000000000044
  endloop
endfacet
facet normal 0.0 0.0 1.0
  outer loop
    vertex 429.5593434969292 97.83531640306244 3.0000000000000044
    vertex 429.5593434969292 94.33531640306242 3.0000000000000044
    vertex 429.68028876711577 94.1408205874938 3.0000000000000044
  endloop
endfacet
facet normal 0.0 0.0 1.0
  outer loop
    vertex 429.5593434969292 97.83531640306244 3.0000000000000044
    vertex 429.68028876711577 94.1408205874938 3.0000000000000044
    vertex 429.68028876711577 98.02981221863104 3.0000000000000044
  endloop
endfacet
facet normal 0.0 0.0 1.0
  outer loop
    vertex 429.68028876711577 98.02981221863104 3.0000000000000044
    vertex 429.68028876711577 94.1408205874938 3.0000000000000044
    vertex 429.8136957191554 93.95465140153188 3.0000000000000044
  endloop
endfacet
facet normal 0.0 0.0 1.0
  outer loop
    vertex 429.68028876711577 98.02981221863104 3.0000000000000044
    vertex 429.8136957191554 93.95465140153188 3.0000000000000044
    vertex 429.8136957191554 98.21598140459298 3.0000000000000044
  endloop
endfacet
facet normal 0.0 0.0 1.0
  outer loop
    vertex 429.8136957191554 98.21598140459298 3.0000000000000044
    vertex 429.8136957191554 93.95465140153188 3.0000000000000044
    vertex 429.9589930839983 93.77760605021217 3.0000000000000044
  endloop
endfacet
facet normal 0.0 0.0 1.0
  outer loop
    vertex 429.8136957191554 98.21598140459298 3.0000000000000044
    vertex 429.9589930839983 93.77760605021217 3.0000000000000044
    vertex 429.9589930839983 98.39302675591267 3.0000000000000044
  endloop
endfacet
facet normal 0.0 0.0 1.0
  outer loop
    vertex 429.9589930839983 98.39302675591267 3.0000000000000044
    vertex 429.9589930839983 93.77760605021217 3.0000000000000044
    vertex 430.1155586760218 93.61044266890949 3.0000000000000044
  endloop
endfacet
facet normal 0.0 0.0 1.0
  outer loop
    vertex 429.9589930839983 98.39302675591267 3.0000000000000044
    vertex 430.1155586760218 93.61044266890949 3.0000000000000044
    vertex 430.1155586760218 98.56019013721537 3.0000000000000044
  endloop
endfacet
facet normal 0.0 0.0 1.0
  outer loop
    vertex 430.1155586760218 98.56019013721537 3.0000000000000044
    vertex 430.1155586760218 93.61044266890949 3.0000000000000044
    vertex 430.2827220573245 93.45387707688602 3.0000000000000044
  endloop
endfacet
facet normal 0.0 0.0 1.0
  outer loop
    vertex 430.1155586760218 98.56019013721537 3.0000000000000044
    vertex 430.2827220573245 93.45387707688602 3.0000000000000044
    vertex 430.28272205732446 98.71675572923884 3.0000000000000044
  endloop
endfacet
facet normal 0.0 0.0 1.0
  outer loop
    vertex 430.28272205732446 98.71675572923884 3.0000000000000044
    vertex 430.2827220573245 93.45387707688602 3.0000000000000044
    vertex 430.4597674086442 98.86205309408177 3.0000000000000044
  endloop
endfacet
facet normal 0.0 0.0 1.0
  outer loop
    vertex 430.4597674086442 98.86205309408177 3.0000000000000044
    vertex 430.2827220573245 93.45387707688602 3.0000000000000044
    vertex 430.4597674086442 93.30857971204307 3.0000000000000044
  endloop
endfacet
facet normal 0.0 0.0 1.0
  outer loop
    vertex 430.4597674086442 98.86205309408177 3.0000000000000044
    vertex 430.4597674086442 93.30857971204307 3.0000000000000044
    vertex 430.64593659460616 93.1751727600035 3.0000000000000044
  endloop
endfacet
facet normal 0.0 0.0 1.0
  outer loop
    vertex 430.4597674086442 98.86205309408177 3.0000000000000044
    vertex 430.64593659460616 93.1751727600035 3.0000000000000044
    vertex 430.6459365946061 98.99546004612134 3.0000000000000044
  endloop
endfacet
facet normal 0.0 0.0 1.0
  outer loop
    vertex 430.6459365946061 98.99546004612134 3.0000000000000044
    vertex 430.64593659460616 93.1751727600035 3.0000000000000044
    vertex 430.8404324101747 99.11640531630796 3.0000000000000044
  endloop
endfacet
facet normal 0.0 0.0 1.0
  outer loop
    vertex 430.8404324101747 99.11640531630796 3.0000000000000044
    vertex 430.64593659460616 93.1751727600035 3.0000000000000044
    vertex 430.8404324101748 93.05422748981688 3.0000000000000044
  endloop
endfacet
facet normal 0.0 0.0 1.0
  outer loop
    vertex 430.8404324101747 99.11640531630796 3.0000000000000044
    vertex 430.8404324101748 93.05422748981688 3.0000000000000044
    vertex 431.04242199440824 99.22437099842683 3.0000000000000044
  endloop
endfacet
facet normal 0.0 0.0 1.0
  outer loop
    vertex 431.04242199440824 99.22437099842683 3.0000000000000044
    vertex 430.8404324101748 93.05422748981688 3.0000000000000044
    vertex 431.04242199440824 92.94626180769801 3.0000000000000044
  endloop
endfacet
facet normal 0.0 0.0 1.0
  outer loop
    vertex 431.04242199440824 99.22437099842683 3.0000000000000044
    vertex 431.04242199440824 92.94626180769801 3.0000000000000044
    vertex 431.09043241017474 96.08531640306242 3.0000000000000044
  endloop
endfacet
facet normal 0.0 0.0 1.0
  outer loop
    vertex 431.09043241017474 96.08531640306242 3.0000000000000044
    vertex 431.04242199440824 92.94626180769801 3.0000000000000044
    vertex 431.25104039689694 92.85173803927289 3.0000000000000044
  endloop
endfacet
facet normal 0.0 0.0 1.0
  outer loop
    vertex 431.09043241017474 96.08531640306242 3.0000000000000044
    vertex 431.25104039689694 92.85173803927289 3.0000000000000044
    vertex 431.14495108811224 95.67120593089837 3.0000000000000044
  endloop
endfacet
facet normal 0.0 0.0 1.0
  outer loop
    vertex 431.14495108811224 95.67120593089837 3.0000000000000044
    vertex 431.25104039689694 92.85173803927289 3.0000000000000044
    vertex 431.30479176411956 95.28531640306242 3.0000000000000044
  endloop
endfacet
facet normal 0.0 0.0 1.0
  outer loop
    vertex 431.30479176411956 95.28531640306242 3.0000000000000044
    vertex 431.25104039689694 92.85173803927289 3.0000000000000044
    vertex 431.46539428161367 92.77106094982953 3.0000000000000044
  endloop
endfacet
facet normal 0.0 0.0 1.0
  outer loop
    vertex 431.30479176411956 95.28531640306242 3.0000000000000044
    vertex 431.46539428161367 92.77106094982953 3.0000000000000044
    vertex 431.5590615602762 94.95394555316396 3.0000000000000044
  endloop
endfacet
facet normal 0.0 0.0 1.0
  outer loop
    vertex 431.5590615602762 94.95394555316396 3.0000000000000044
    vertex 431.46539428161367 92.77106094982953 3.0000000000000044
    vertex 431.68456575231585 92.70457601105066 3.0000000000000044
  endloop
endfacet
facet normal 0.0 0.0 1.0
  outer loop
    vertex 431.5590615602762 94.95394555316396 3.0000000000000044
    vertex 431.68456575231585 92.70457601105066 3.0000000000000044
    vertex 431.8904324101747 94.69967575700734 3.0000000000000044
  endloop
endfacet
facet normal 0.0 0.0 1.0
  outer loop
    vertex 431.8904324101747 94.69967575700734 3.0000000000000044
    vertex 431.68456575231585 92.70457601105066 3.0000000000000044
    vertex 431.9076162831183 92.6525679216511 3.0000000000000044
  endloop
endfacet
facet normal 0.0 0.0 1.0
  outer loop
    vertex 431.8904324101747 94.69967575700734 3.0000000000000044
    vertex 431.9076162831183 92.6525679216511 3.0000000000000044
    vertex 432.27632193801065 94.53983508099991 3.0000000000000044
  endloop
endfacet
facet normal 0.0 0.0 1.0
  outer loop
    vertex 432.27632193801065 94.53983508099991 3.0000000000000044
    vertex 431.9076162831183 92.6525679216511 3.0000000000000044
    vertex 432.1335907374046 92.61525938825409 3.0000000000000044
  endloop
endfacet
facet normal 0.0 0.0 1.0
  outer loop
    vertex 432.27632193801065 94.53983508099991 3.0000000000000044
    vertex 432.1335907374046 92.61525938825409 3.0000000000000044
    vertex 432.36152145786923 92.59281017172728 3.0000000000000044
  endloop
endfacet
facet normal 0.0 0.0 1.0
  outer loop
    vertex 432.27632193801065 94.53983508099991 3.0000000000000044
    vertex 432.36152145786923 92.59281017172728 3.0000000000000044
    vertex 432.6904324101747 94.48531640306243 3.0000000000000044
  endloop
endfacet
facet normal 0.0 0.0 1.0
  outer loop
    vertex 432.6904324101747 94.48531640306243 3.0000000000000044
    vertex 432.36152145786923 92.59281017172728 3.0000000000000044
    vertex 432.59043241017474 92.58531640306241 3.0000000000000044
  endloop
endfacet
facet normal 0.0 0.0 1.0
  outer loop
    vertex 432.6904324101747 94.48531640306243 3.0000000000000044
    vertex 432.59043241017474 92.58531640306241 3.0000000000000044
    vertex 432.81934336248025 92.59281017172728 3.0000000000000044
  endloop
endfacet
facet normal 0.0 0.0 1.0
  outer loop
    vertex 432.6904324101747 94.48531640306243 3.0000000000000044
    vertex 432.81934336248025 92.59281017172728 3.0000000000000044
    vertex 437.4904324101747 94.48531640306243 3.0000000000000044
  endloop
endfacet
facet normal 0.0 0.0 1.0
  outer loop
    vertex 437.4904324101747 94.48531640306243 3.0000000000000044
    vertex 432.81934336248025 92.59281017172728 3.0000000000000044
    vertex 447.71115835233843 92.58531640306241 3.0000000000000044
  endloop
endfacet
facet normal 0.0 0.0 1.0
  outer loop
    vertex 437.4904324101747 94.48531640306243 3.0000000000000044
    vertex 447.71115835233843 92.58531640306241 3.0000000000000044
    vertex 437.9045428823388 94.53983508099991 3.0000000000000044
  endloop
endfacet
facet normal 0.0 0.0 1.0
  outer loop
    vertex 437.9045428823388 94.53983508099991 3.0000000000000044
    vertex 447.71115835233843 92.58531640306241 3.0000000000000044
    vertex 438.2904324101747 94.69967575700734 3.0000000000000044
  endloop
endfacet
facet normal 0.0 0.0 1.0
  outer loop
    vertex 438.2904324101747 94.69967575700734 3.0000000000000044
    vertex 447.71115835233843 92.58531640306241 3.0000000000000044
    vertex 438.6218032600732 94.95394555316396 3.0000000000000044
  endloop
endfacet
facet normal 0.0 0.0 1.0
  outer loop
    vertex 438.6218032600732 94.95394555316396 3.0000000000000044
    vertex 447.71115835233843 92.58531640306241 3.0000000000000044
    vertex 438.8760730562298 95.28531640306242 3.0000000000000044
  endloop
endfacet
facet normal 0.0 0.0 1.0
  outer loop
    vertex 438.8760730562298 95.28531640306242 3.0000000000000044
    vertex 447.71115835233843 92.58531640306241 3.0000000000000044
    vertex 439.0359137322372 95.67120593089841 3.0000000000000044
  endloop
endfacet
facet normal 0.0 0.0 1.0
  outer loop
    vertex 439.0359137322372 95.67120593089841 3.0000000000000044
    vertex 447.71115835233843 92.58531640306241 3.0000000000000044
    vertex 439.0904324101747 96.08531640306242 3.0000000000000044
  endloop
endfacet
facet normal 0.0 0.0 1.0
  outer loop
    vertex 431.09043241017474 96.08531640306242 3.0000000000000044
    vertex 431.25104039689694 99.31889476685195 3.0000000000000044
    vertex 431.04242199440824 99.22437099842683 3.0000000000000044
  endloop
endfacet
facet normal 0.0 0.0 1.0
  outer loop
    vertex 431.25104039689694 99.31889476685195 3.0000000000000044
    vertex 431.09043241017474 96.08531640306242 3.0000000000000044
    vertex 431.14495108811224 96.49942687522648 3.0000000000000044
  endloop
endfacet
facet normal 0.0 0.0 1.0
  outer loop
    vertex 431.25104039689694 99.31889476685195 3.0000000000000044
    vertex 431.14495108811224 96.49942687522648 3.0000000000000044
    vertex 431.30479176411956 96.88531640306242 3.0000000000000044
  endloop
endfacet
facet normal 0.0 0.0 1.0
  outer loop
    vertex 431.25104039689694 99.31889476685195 3.0000000000000044
    vertex 431.30479176411956 96.88531640306242 3.0000000000000044
    vertex 431.46539428161367 99.39957185629532 3.0000000000000044
  endloop
endfacet
facet normal 0.0 0.0 1.0
  outer loop
    vertex 431.46539428161367 99.39957185629532 3.0000000000000044
    vertex 431.30479176411956 96.88531640306242 3.0000000000000044
    vertex 431.5590615602762 97.2166872529609 3.0000000000000044
  endloop
endfacet
facet normal 0.0 0.0 1.0
  outer loop
    vertex 431.46539428161367 99.39957185629532 3.0000000000000044
    vertex 431.5590615602762 97.2166872529609 3.0000000000000044
    vertex 431.68456575231585 99.4660567950742 3.0000000000000044
  endloop
endfacet
facet normal 0.0 0.0 1.0
  outer loop
    vertex 431.68456575231585 99.4660567950742 3.0000000000000044
    vertex 431.5590615602762 97.2166872529609 3.0000000000000044
    vertex 431.8904324101747 97.47095704911752 3.0000000000000044
  endloop
endfacet
facet normal 0.0 0.0 1.0
  outer loop
    vertex 431.68456575231585 99.4660567950742 3.0000000000000044
    vertex 431.8904324101747 97.47095704911752 3.0000000000000044
    vertex 431.9076162831183 99.51806488447376 3.0000000000000044
  endloop
endfacet
facet normal 0.0 0.0 1.0
  outer loop
    vertex 431.9076162831183 99.51806488447376 3.0000000000000044
    vertex 431.8904324101747 97.47095704911752 3.0000000000000044
    vertex 432.27632193801065 97.63079772512495 3.0000000000000044
  endloop
endfacet
facet normal 0.0 0.0 1.0
  outer loop
    vertex 431.9076162831183 99.51806488447376 3.0000000000000044
    vertex 432.27632193801065 97.63079772512495 3.0000000000000044
    vertex 432.1335907374046 99.55537341787075 3.0000000000000044
  endloop
endfacet
facet normal 0.0 0.0 1.0
  outer loop
    vertex 432.1335907374046 99.55537341787075 3.0000000000000044
    vertex 432.27632193801065 97.63079772512495 3.0000000000000044
    vertex 432.36152145786923 99.57782263439756 3.0000000000000044
  endloop
endfacet
facet normal 0.0 0.0 1.0
  outer loop
    vertex 432.36152145786923 99.57782263439756 3.0000000000000044
    vertex 432.27632193801065 97.63079772512495 3.0000000000000044
    vertex 432.6904324101747 97.68531640306242 3.0000000000000044
  endloop
endfacet
facet normal 0.0 0.0 1.0
  outer loop
    vertex 432.36152145786923 99.57782263439756 3.0000000000000044
    vertex 432.6904324101747 97.68531640306242 3.0000000000000044
    vertex 432.59043241017474 99.58531640306244 3.0000000000000044
  endloop
endfacet
facet normal 0.0 0.0 1.0
  outer loop
    vertex 432.59043241017474 99.58531640306244 3.0000000000000044
    vertex 432.6904324101747 97.68531640306242 3.0000000000000044
    vertex 447.71115835233843 99.58531640306244 3.0000000000000044
  endloop
endfacet
facet normal 0.0 0.0 1.0
  outer loop
    vertex 447.71115835233843 99.58531640306244 3.0000000000000044
    vertex 432.6904324101747 97.68531640306242 3.0000000000000044
    vertex 437.4904324101747 97.68531640306242 3.0000000000000044
  endloop
endfacet
facet normal 0.0 0.0 1.0
  outer loop
    vertex 447.71115835233843 99.58531640306244 3.0000000000000044
    vertex 437.4904324101747 97.68531640306242 3.0000000000000044
    vertex 437.9045428823388 97.63079772512495 3.0000000000000044
  endloop
endfacet
facet normal 0.0 0.0 1.0
  outer loop
    vertex 447.71115835233843 99.58531640306244 3.0000000000000044
    vertex 437.9045428823388 97.63079772512495 3.0000000000000044
    vertex 438.2904324101747 97.47095704911752 3.0000000000000044
  endloop
endfacet
facet normal 0.0 0.0 1.0
  outer loop
    vertex 447.71115835233843 99.58531640306244 3.0000000000000044
    vertex 438.2904324101747 97.47095704911752 3.0000000000000044
    vertex 438.6218032600732 97.2166872529609 3.0000000000000044
  endloop
endfacet
facet normal 0.0 0.0 1.0
  outer loop
    vertex 447.71115835233843 99.58531640306244 3.0000000000000044
    vertex 438.6218032600732 97.2166872529609 3.0000000000000044
    vertex 438.8760730562298 96.88531640306242 3.0000000000000044
  endloop
endfacet
facet normal 0.0 0.0 1.0
  outer loop
    vertex 447.71115835233843 99.58531640306244 3.0000000000000044
    vertex 438.8760730562298 96.88531640306242 3.0000000000000044
    vertex 439.0359137322372 96.49942687522648 3.0000000000000044
  endloop
endfacet
facet normal 0.0 0.0 1.0
  outer loop
    vertex 447.71115835233843 99.58531640306244 3.0000000000000044
    vertex 439.0359137322372 96.49942687522648 3.0000000000000044
    vertex 439.0904324101747 96.08531640306242 3.0000000000000044
  endloop
endfacet
facet normal 0.0 0.0 1.0
  outer loop
    vertex 447.71115835233843 99.58531640306244 3.0000000000000044
    vertex 439.0904324101747 96.08531640306242 3.0000000000000044
    vertex 447.71115835233843 92.58531640306241 3.0000000000000044
  endloop
endfacet
facet normal 0.0 0.0 1.0
  outer loop
    vertex 447.71115835233843 99.58531640306244 3.0000000000000044
    vertex 447.71115835233843 92.58531640306241 3.0000000000000044
    vertex 447.8904324101747 96.08531640306242 3.0000000000000044
  endloop
endfacet
facet normal 0.0 0.0 1.0
  outer loop
    vertex 447.8904324101747 96.08531640306242 3.0000000000000044
    vertex 447.71115835233843 92.58531640306241 3.0000000000000044
    vertex 451.6904324101747 85.69301155764917 3.0000000000000044
  endloop
endfacet
facet normal 0.0 0.0 1.0
  outer loop
    vertex 447.8904324101747 96.08531640306242 3.0000000000000044
    vertex 451.6904324101747 85.69301155764917 3.0000000000000044
    vertex 452.79043241017473 87.59826744597491 3.0000000000000044
  endloop
endfacet
facet normal 0.0 0.0 1.0
  outer loop
    vertex 452.79043241017473 87.59826744597491 3.0000000000000044
    vertex 451.6904324101747 85.69301155764917 3.0000000000000044
    vertex 463.6904324101747 85.69301155764917 3.0000000000000044
  endloop
endfacet
facet normal 0.0 0.0 1.0
  outer loop
    vertex 452.79043241017473 87.59826744597491 3.0000000000000044
    vertex 463.6904324101747 85.69301155764917 3.0000000000000044
    vertex 462.59043241017474 87.59826744597491 3.0000000000000044
  endloop
endfacet
facet normal 0.0 0.0 1.0
  outer loop
    vertex 462.59043241017474 87.59826744597491 3.0000000000000044
    vertex 463.6904324101747 85.69301155764917 3.0000000000000044
    vertex 467.4904324101747 96.08531640306242 3.0000000000000044
  endloop
endfacet
facet normal 0.0 0.0 1.0
  outer loop
    vertex 467.4904324101747 96.08531640306242 3.0000000000000044
    vertex 463.6904324101747 85.69301155764917 3.0000000000000044
    vertex 469.6904324101747 96.08531640306242 3.0000000000000044
  endloop
endfacet
facet normal 0.0 0.0 1.0
  outer loop
    vertex 447.8904324101747 96.08531640306242 3.0000000000000044
    vertex 451.6904324101747 106.47762124847567 3.0000000000000044
    vertex 447.71115835233843 99.58531640306244 3.0000000000000044
  endloop
endfacet
facet normal 0.0 0.0 1.0
  outer loop
    vertex 451.6904324101747 106.47762124847567 3.0000000000000044
    vertex 447.8904324101747 96.08531640306242 3.0000000000000044
    vertex 452.7904324101747 104.57236536014993 3.0000000000000044
  endloop
endfacet
facet normal 0.0 0.0 1.0
  outer loop
    vertex 451.6904324101747 106.47762124847567 3.0000000000000044
    vertex 452.7904324101747 104.57236536014993 3.0000000000000044
    vertex 463.6904324101747 106.47762124847567 3.0000000000000044
  endloop
endfacet
facet normal 0.0 0.0 1.0
  outer loop
    vertex 463.6904324101747 106.47762124847567 3.0000000000000044
    vertex 452.7904324101747 104.57236536014993 3.0000000000000044
    vertex 462.5904324101747 104.57236536014993 3.0000000000000044
  endloop
endfacet
facet normal 0.0 0.0 1.0
  outer loop
    vertex 463.6904324101747 106.47762124847567 3.0000000000000044
    vertex 462.5904324101747 104.57236536014993 3.0000000000000044
    vertex 467.4904324101747 96.08531640306242 3.0000000000000044
  endloop
endfacet
facet normal 0.0 0.0 1.0
  outer loop
    vertex 463.6904324101747 106.47762124847567 3.0000000000000044
    vertex 467.4904324101747 96.08531640306242 3.0000000000000044
    vertex 469.6904324101747 96.08531640306242 3.0000000000000044
  endloop
endfacet
facet normal -0.03271908282170693 0.999464587476368 0.0
  outer loop
    vertex 432.36152145786923 99.57782263439756 3.0000000000000044
    vertex 432.59043241017474 99.58531640306244 4.229949723821846e-15
    vertex 432.36152145786923 99.57782263439756 4.229949723821846e-15
  endloop
endfacet
facet normal -0.03271908282170693 0.999464587476368 0.0
  outer loop
    vertex 432.59043241017474 99.58531640306244 4.229949723821846e-15
    vertex 432.36152145786923 99.57782263439756 3.0000000000000044
    vertex 432.59043241017474 99.58531640306244 3.0000000000000044
  endloop
endfacet
facet normal -0.03271908282170693 0.999464587476368 0.0
  outer loop
    vertex 432.36152145786923 99.57782263439756 3.0000000000000044
    vertex 432.59043241017474 99.58531640306244 4.229949723821846e-15
    vertex 432.36152145786923 99.57782263439756 4.229949723821846e-15
  endloop
endfacet
facet normal -0.03271908282170693 0.999464587476368 0.0
  outer loop
    vertex 432.59043241017474 99.58531640306244 4.229949723821846e-15
    vertex 432.36152145786923 99.57782263439756 3.0000000000000044
    vertex 432.59043241017474 99.58531640306244 3.0000000000000044
  endloop
endfacet
facet normal 0.0 1.0 0.0
  outer loop
    vertex 432.59043241017474 99.58531640306244 3.0000000000000044
    vertex 447.71115835233843 99.58531640306244 4.229949723821846e-15
    vertex 432.59043241017474 99.58531640306244 4.229949723821846e-15
  endloop
endfacet
facet normal 0.0 1.0 0.0
  outer loop
    vertex 447.71115835233843 99.58531640306244 4.229949723821846e-15
    vertex 432.59043241017474 99.58531640306244 3.0000000000000044
    vertex 447.71115835233843 99.58531640306244 3.0000000000000044
  endloop
endfacet
facet normal 0.9659258262890749 -0.25881904510249676 0.0
  outer loop
    vertex 431.14495108811224 96.49942687522648 5.639932965095795e-15
    vertex 431.09043241017474 96.08531640306242 3.0000000000000044
    vertex 431.09043241017474 96.08531640306242 5.639932965095795e-15
  endloop
endfacet
facet normal 1.0 0.0 0.0
  outer loop
    vertex 431.09043241017474 96.08531640306242 3.0000000000000044
    vertex 431.14495108811224 96.49942687522648 5.639932965095795e-15
    vertex 431.14495108811224 96.49942687522648 3.0000000000000044
  endloop
endfacet
facet normal 1.0 0.0 0.0
  outer loop
    vertex 431.09043241017474 96.08531640306242 5.639932965095795e-15
    vertex 431.14495108811224 95.67120593089837 3.0000000000000044
    vertex 431.14495108811224 95.67120593089837 5.639932965095795e-15
  endloop
endfacet
facet normal 0.9659258262890749 0.25881904510249676 0.0
  outer loop
    vertex 431.14495108811224 95.67120593089837 3.0000000000000044
    vertex 431.09043241017474 96.08531640306242 5.639932965095795e-15
    vertex 431.09043241017474 96.08531640306242 3.0000000000000044
  endloop
endfacet
facet normal 0.9659258262890749 0.25881904510249676 0.0
  outer loop
    vertex 431.14495108811224 95.67120593089837 5.639932965095795e-15
    vertex 431.30479176411956 95.28531640306242 3.0000000000000044
    vertex 431.30479176411956 95.28531640306242 5.639932965095795e-15
  endloop
endfacet
facet normal 0.866025403784469 0.4999999999999474 0.0
  outer loop
    vertex 431.30479176411956 95.28531640306242 3.0000000000000044
    vertex 431.14495108811224 95.67120593089837 5.639932965095795e-15
    vertex 431.14495108811224 95.67120593089837 3.0000000000000044
  endloop
endfacet
facet normal 0.866025403784469 0.4999999999999474 0.0
  outer loop
    vertex 431.30479176411956 95.28531640306242 5.639932965095795e-15
    vertex 431.5590615602762 94.95394555316396 3.0000000000000044
    vertex 431.5590615602762 94.95394555316396 5.639932965095795e-15
  endloop
endfacet
facet normal 0.7071067811865243 0.7071067811865708 0.0
  outer loop
    vertex 431.5590615602762 94.95394555316396 3.0000000000000044
    vertex 431.30479176411956 95.28531640306242 5.639932965095795e-15
    vertex 431.30479176411956 95.28531640306242 3.0000000000000044
  endloop
endfacet
facet normal 0.7071067811865243 0.7071067811865708 0.0
  outer loop
    vertex 431.5590615602762 94.95394555316396 3.0000000000000044
    vertex 431.8904324101747 94.69967575700734 5.639932965095795e-15
    vertex 431.5590615602762 94.95394555316396 5.639932965095795e-15
  endloop
endfacet
facet normal 0.5000000000000054 0.8660254037844356 0.0
  outer loop
    vertex 431.8904324101747 94.69967575700734 5.639932965095795e-15
    vertex 431.5590615602762 94.95394555316396 3.0000000000000044
    vertex 431.8904324101747 94.69967575700734 3.0000000000000044
  endloop
endfacet
facet normal 0.5000000000000054 0.8660254037844356 0.0
  outer loop
    vertex 431.8904324101747 94.69967575700734 3.0000000000000044
    vertex 432.27632193801065 94.53983508099991 5.639932965095795e-15
    vertex 431.8904324101747 94.69967575700734 5.639932965095795e-15
  endloop
endfacet
facet normal 0.25881904510254145 0.9659258262890627 0.0
  outer loop
    vertex 432.27632193801065 94.53983508099991 5.639932965095795e-15
    vertex 431.8904324101747 94.69967575700734 3.0000000000000044
    vertex 432.27632193801065 94.53983508099991 3.0000000000000044
  endloop
endfacet
facet normal -0.8660254037844357 0.5000000000000052 0.0
  outer loop
    vertex 429.5593434969292 97.83531640306244 3.0000000000000044
    vertex 429.45137781481026 97.63332681882895 4.229949723821846e-15
    vertex 429.45137781481026 97.63332681882895 3.0000000000000044
  endloop
endfacet
facet normal -0.896872741532706 0.44228869021896555 0.0
  outer loop
    vertex 429.45137781481026 97.63332681882895 4.229949723821846e-15
    vertex 429.5593434969292 97.83531640306244 3.0000000000000044
    vertex 429.5593434969292 97.83531640306244 4.229949723821846e-15
  endloop
endfacet
facet normal -0.831469612302539 0.5555702330196115 0.0
  outer loop
    vertex 429.68028876711577 98.02981221863104 3.0000000000000044
    vertex 429.5593434969292 97.83531640306244 4.229949723821846e-15
    vertex 429.5593434969292 97.83531640306244 3.0000000000000044
  endloop
endfacet
facet normal -0.8660254037844357 0.5000000000000052 0.0
  outer loop
    vertex 429.5593434969292 97.83531640306244 4.229949723821846e-15
    vertex 429.68028876711577 98.02981221863104 3.0000000000000044
    vertex 429.68028876711577 98.02981221863104 4.229949723821846e-15
  endloop
endfacet
facet normal -0.7933533402912124 0.6087614290087503 0.0
  outer loop
    vertex 429.8136957191554 98.21598140459298 3.0000000000000044
    vertex 429.68028876711577 98.02981221863104 4.229949723821846e-15
    vertex 429.68028876711577 98.02981221863104 3.0000000000000044
  endloop
endfacet
facet normal -0.831469612302539 0.5555702330196115 0.0
  outer loop
    vertex 429.68028876711577 98.02981221863104 4.229949723821846e-15
    vertex 429.8136957191554 98.21598140459298 3.0000000000000044
    vertex 429.8136957191554 98.21598140459298 4.229949723821846e-15
  endloop
endfacet
facet normal 0.8660254037844387 0.4999999999999999 0.0
  outer loop
    vertex 463.6904324101747 106.47762124847567 4.229949723821846e-15
    vertex 469.6904324101747 96.08531640306242 3.0000000000000044
    vertex 469.6904324101747 96.08531640306242 4.229949723821846e-15
  endloop
endfacet
facet normal 0.8660254037844387 0.4999999999999999 0.0
  outer loop
    vertex 469.6904324101747 96.08531640306242 3.0000000000000044
    vertex 463.6904324101747 106.47762124847567 4.229949723821846e-15
    vertex 463.6904324101747 106.47762124847567 3.0000000000000044
  endloop
endfacet
facet normal 0.8660254037844387 -0.4999999999999999 0.0
  outer loop
    vertex 469.6904324101747 96.08531640306242 4.229949723821846e-15
    vertex 463.6904324101747 85.69301155764917 3.0000000000000044
    vertex 463.6904324101747 85.69301155764917 4.229949723821846e-15
  endloop
endfacet
facet normal 0.8660254037844387 -0.4999999999999999 0.0
  outer loop
    vertex 463.6904324101747 85.69301155764917 3.0000000000000044
    vertex 469.6904324101747 96.08531640306242 4.229949723821846e-15
    vertex 469.6904324101747 96.08531640306242 3.0000000000000044
  endloop
endfacet
facet normal 0.0 -1.0 0.0
  outer loop
    vertex 463.6904324101747 85.69301155764917 3.0000000000000044
    vertex 451.6904324101747 85.69301155764917 4.229949723821846e-15
    vertex 463.6904324101747 85.69301155764917 4.229949723821846e-15
  endloop
endfacet
facet normal 0.0 -1.0 0.0
  outer loop
    vertex 451.6904324101747 85.69301155764917 4.229949723821846e-15
    vertex 463.6904324101747 85.69301155764917 3.0000000000000044
    vertex 451.6904324101747 85.69301155764917 3.0000000000000044
  endloop
endfacet
facet normal 0.0 1.0 0.0
  outer loop
    vertex 451.6904324101747 106.47762124847567 3.0000000000000044
    vertex 463.6904324101747 106.47762124847567 4.229949723821846e-15
    vertex 451.6904324101747 106.47762124847567 4.229949723821846e-15
  endloop
endfacet
facet normal 0.0 1.0 0.0
  outer loop
    vertex 463.6904324101747 106.47762124847567 4.229949723821846e-15
    vertex 451.6904324101747 106.47762124847567 3.0000000000000044
    vertex 463.6904324101747 106.47762124847567 3.0000000000000044
  endloop
endfacet
facet normal -0.896872741532706 0.44228869021896555 0.0
  outer loop
    vertex 429.45137781481026 97.63332681882895 3.0000000000000044
    vertex 429.35685404638525 97.42470841634025 4.229949723821846e-15
    vertex 429.35685404638525 97.42470841634025 3.0000000000000044
  endloop
endfacet
facet normal -0.9238795325113441 0.3826834323649516 0.0
  outer loop
    vertex 429.35685404638525 97.42470841634025 4.229949723821846e-15
    vertex 429.45137781481026 97.63332681882895 3.0000000000000044
    vertex 429.45137781481026 97.63332681882895 4.229949723821846e-15
  endloop
endfacet
facet normal 0.25881904510254145 0.9659258262890627 0.0
  outer loop
    vertex 432.27632193801065 94.53983508099991 3.0000000000000044
    vertex 432.6904324101747 94.48531640306243 5.639932965095795e-15
    vertex 432.27632193801065 94.53983508099991 5.639932965095795e-15
  endloop
endfacet
facet normal 0.1305261922200027 0.9914448613738169 0.0
  outer loop
    vertex 432.6904324101747 94.48531640306243 5.639932965095795e-15
    vertex 432.27632193801065 94.53983508099991 3.0000000000000044
    vertex 432.6904324101747 94.48531640306243 3.0000000000000044
  endloop
endfacet
facet normal 0.0 1.0 0.0
  outer loop
    vertex 432.6904324101747 94.48531640306243 3.0000000000000044
    vertex 437.4904324101747 94.48531640306243 5.639932965095795e-15
    vertex 432.6904324101747 94.48531640306243 5.639932965095795e-15
  endloop
endfacet
facet normal 0.0 1.0 0.0
  outer loop
    vertex 437.4904324101747 94.48531640306243 5.639932965095795e-15
    vertex 432.6904324101747 94.48531640306243 3.0000000000000044
    vertex 437.4904324101747 94.48531640306243 3.0000000000000044
  endloop
endfacet
facet normal -0.5000000000000054 0.8660254037844356 0.0
  outer loop
    vertex 438.2904324101747 94.69967575700734 3.0000000000000044
    vertex 438.6218032600732 94.95394555316396 5.639932965095795e-15
    vertex 438.2904324101747 94.69967575700734 5.639932965095795e-15
  endloop
endfacet
facet normal -0.7071067811865243 0.7071067811865708 0.0
  outer loop
    vertex 438.6218032600732 94.95394555316396 5.639932965095795e-15
    vertex 438.2904324101747 94.69967575700734 3.0000000000000044
    vertex 438.6218032600732 94.95394555316396 3.0000000000000044
  endloop
endfacet
endsolid Rob-Bad Release v1
