solid Rob-Bad Release v1
facet normal 0.0 1.0 -1.8047785488306494e-14
  outer loop
    vertex 352.2850341415192 213.29057910151863 -1.804833910173028e-13
    vertex 354.2850341415191 213.29057910151863 1.9999999999998834
    vertex 378.285034141519 213.29057910151863 -1.804833910173028e-13
  endloop
endfacet
facet normal 0.0 1.0 -1.8047785488306494e-14
  outer loop
    vertex 354.2850341415191 213.29057910151863 1.9999999999998834
    vertex 352.2850341415192 213.29057910151863 -1.804833910173028e-13
    vertex 352.2850341415192 213.290579101519 19.999999999999872
  endloop
endfacet
facet normal 0.0 1.0 -1.8047785488306494e-14
  outer loop
    vertex 354.2850341415191 213.29057910151863 1.9999999999998834
    vertex 352.2850341415192 213.290579101519 19.999999999999872
    vertex 354.2850341415191 213.29057910151883 17.999999999999968
  endloop
endfacet
facet normal 0.0 1.0 -1.8047785488306494e-14
  outer loop
    vertex 354.2850341415191 213.29057910151883 17.999999999999968
    vertex 352.2850341415192 213.290579101519 19.999999999999872
    vertex 376.28503414151913 213.29057910151883 17.999999999999968
  endloop
endfacet
facet normal 0.0 1.0 -1.8047785488306494e-14
  outer loop
    vertex 378.285034141519 213.29057910151863 -1.804833910173028e-13
    vertex 376.28503414151913 213.29057910151863 1.9999999999998834
    vertex 378.285034141519 213.290579101519 19.999999999999872
  endloop
endfacet
facet normal 0.0 1.0 -1.8047785488306494e-14
  outer loop
    vertex 376.28503414151913 213.29057910151863 1.9999999999998834
    vertex 378.285034141519 213.29057910151863 -1.804833910173028e-13
    vertex 354.2850341415191 213.29057910151863 1.9999999999998834
  endloop
endfacet
facet normal 0.0 1.0 -1.8047785488306494e-14
  outer loop
    vertex 378.285034141519 213.290579101519 19.999999999999872
    vertex 376.28503414151913 213.29057910151863 1.9999999999998834
    vertex 376.28503414151913 213.29057910151883 17.999999999999968
  endloop
endfacet
facet normal 0.0 1.0 -1.8047785488306494e-14
  outer loop
    vertex 378.285034141519 213.290579101519 19.999999999999872
    vertex 376.28503414151913 213.29057910151883 17.999999999999968
    vertex 352.2850341415192 213.290579101519 19.999999999999872
  endloop
endfacet
facet normal 1.0 0.0 0.0
  outer loop
    vertex 354.2850341415191 213.29057910151863 1.9999999999998834
    vertex 354.2850341415191 209.29057910151866 17.999999999999766
    vertex 354.2850341415191 209.29057910151866 2.0000000000000413
  endloop
endfacet
facet normal 1.0 0.0 0.0
  outer loop
    vertex 354.2850341415191 209.29057910151866 17.999999999999766
    vertex 354.2850341415191 213.29057910151863 1.9999999999998834
    vertex 354.2850341415191 213.29057910151883 17.999999999999968
  endloop
endfacet
facet normal -1.0 0.0 0.0
  outer loop
    vertex 376.28503414151913 213.29057910151883 17.999999999999968
    vertex 376.28503414151913 209.29057910151866 2.0000000000000413
    vertex 376.28503414151913 209.29057910151866 17.999999999999766
  endloop
endfacet
facet normal -1.0 0.0 0.0
  outer loop
    vertex 376.28503414151913 209.29057910151866 2.0000000000000413
    vertex 376.28503414151913 213.29057910151883 17.999999999999968
    vertex 376.28503414151913 213.29057910151863 1.9999999999998834
  endloop
endfacet
facet normal 0.0 5.075939668585995e-14 -1.0
  outer loop
    vertex 376.28503414151913 213.29057910151883 17.999999999999968
    vertex 354.2850341415191 209.29057910151866 17.999999999999766
    vertex 354.2850341415191 213.29057910151883 17.999999999999968
  endloop
endfacet
facet normal 0.0 5.075939668585995e-14 -1.0
  outer loop
    vertex 354.2850341415191 209.29057910151866 17.999999999999766
    vertex 376.28503414151913 213.29057910151883 17.999999999999968
    vertex 376.28503414151913 209.29057910151866 17.999999999999766
  endloop
endfacet
facet normal 0.0 3.947953075567064e-14 1.0
  outer loop
    vertex 376.28503414151913 209.29057910151866 2.0000000000000413
    vertex 354.2850341415191 213.29057910151863 1.9999999999998834
    vertex 354.2850341415191 209.29057910151866 2.0000000000000413
  endloop
endfacet
facet normal 0.0 3.947953075567064e-14 1.0
  outer loop
    vertex 354.2850341415191 213.29057910151863 1.9999999999998834
    vertex 376.28503414151913 209.29057910151866 2.0000000000000413
    vertex 376.28503414151913 213.29057910151863 1.9999999999998834
  endloop
endfacet
facet normal -1.0 0.0 0.0
  outer loop
    vertex 352.2850341415192 213.290579101519 19.999999999999872
    vertex 352.2850341415192 211.29057910151855 -1.5792365915691968e-13
    vertex 352.2850341415192 211.29057910151855 19.999999999999787
  endloop
endfacet
facet normal -1.0 0.0 0.0
  outer loop
    vertex 352.2850341415192 211.29057910151855 -1.5792365915691968e-13
    vertex 352.2850341415192 213.290579101519 19.999999999999872
    vertex 352.2850341415192 213.29057910151863 -1.804833910173028e-13
  endloop
endfacet
facet normal 0.0 1.0 0.0
  outer loop
    vertex 322.2850341415191 211.29057910151855 19.999999999999773
    vertex 352.2850341415192 211.29057910151855 -1.5792365915691968e-13
    vertex 322.28503414151913 211.29057910151855 -1.5792365915691968e-13
  endloop
endfacet
facet normal 0.0 1.0 0.0
  outer loop
    vertex 352.2850341415192 211.29057910151855 -1.5792365915691968e-13
    vertex 322.2850341415191 211.29057910151855 19.999999999999773
    vertex 352.2850341415192 211.29057910151855 19.999999999999787
  endloop
endfacet
facet normal 0.0 -1.0 0.0
  outer loop
    vertex 377.285034141519 209.29057910151855 18.999999999999762
    vertex 376.28503414151913 209.29057910151866 2.0000000000000413
    vertex 377.285034141519 209.29057910151855 0.9999999999998459
  endloop
endfacet
facet normal 0.0 -1.0 0.0
  outer loop
    vertex 376.28503414151913 209.29057910151866 2.0000000000000413
    vertex 377.285034141519 209.29057910151855 18.999999999999762
    vertex 376.28503414151913 209.29057910151866 17.999999999999766
  endloop
endfacet
facet normal 0.0 -1.0 0.0
  outer loop
    vertex 376.28503414151913 209.29057910151866 17.999999999999766
    vertex 377.285034141519 209.29057910151855 18.999999999999762
    vertex 354.2850341415191 209.29057910151866 17.999999999999766
  endloop
endfacet
facet normal 0.0 -1.0 0.0
  outer loop
    vertex 323.2850341415192 209.29057910151855 0.9999999999998402
    vertex 354.2850341415191 209.29057910151866 2.0000000000000413
    vertex 323.2850341415192 209.29057910151855 18.999999999999762
  endloop
endfacet
facet normal 0.0 -1.0 0.0
  outer loop
    vertex 354.2850341415191 209.29057910151866 2.0000000000000413
    vertex 323.2850341415192 209.29057910151855 0.9999999999998402
    vertex 377.285034141519 209.29057910151855 0.9999999999998459
  endloop
endfacet
facet normal 0.0 -1.0 0.0
  outer loop
    vertex 354.2850341415191 209.29057910151866 2.0000000000000413
    vertex 377.285034141519 209.29057910151855 0.9999999999998459
    vertex 376.28503414151913 209.29057910151866 2.0000000000000413
  endloop
endfacet
facet normal 0.0 -1.0 0.0
  outer loop
    vertex 323.2850341415192 209.29057910151855 18.999999999999762
    vertex 354.2850341415191 209.29057910151866 2.0000000000000413
    vertex 354.2850341415191 209.29057910151866 17.999999999999766
  endloop
endfacet
facet normal 0.0 -1.0 0.0
  outer loop
    vertex 323.2850341415192 209.29057910151855 18.999999999999762
    vertex 354.2850341415191 209.29057910151866 17.999999999999766
    vertex 377.285034141519 209.29057910151855 18.999999999999762
  endloop
endfacet
facet normal 0.0 -1.0 0.0
  outer loop
    vertex 377.285034141519 206.99057910151853 -1.466437932267281e-13
    vertex 323.2850341415192 206.99057910151853 0.9999999999998402
    vertex 323.2850341415192 206.99057910151853 -1.5792365915691968e-13
  endloop
endfacet
facet normal 0.0 -1.0 0.0
  outer loop
    vertex 323.2850341415192 206.99057910151853 0.9999999999998402
    vertex 377.285034141519 206.99057910151853 -1.466437932267281e-13
    vertex 377.285034141519 206.99057910151853 0.9999999999998516
  endloop
endfacet
facet normal -1.5666480458599484e-16 1.226072383716467e-15 1.0
  outer loop
    vertex 377.285034141519 206.99057910151853 0.9999999999998516
    vertex 323.2850341415192 209.29057910151855 0.9999999999998402
    vertex 323.2850341415192 206.99057910151853 0.9999999999998402
  endloop
endfacet
facet normal -1.5666480458599484e-16 1.226072383716467e-15 1.0
  outer loop
    vertex 323.2850341415192 209.29057910151855 0.9999999999998402
    vertex 377.285034141519 206.99057910151853 0.9999999999998516
    vertex 377.285034141519 209.29057910151855 0.9999999999998459
  endloop
endfacet
facet normal 5.780464162039062e-20 -2.7497921546818588e-15 -1.0
  outer loop
    vertex 378.285034141519 213.29057910151863 -1.804833910173028e-13
    vertex 352.2850341415192 211.29057910151855 -1.5792365915691968e-13
    vertex 352.2850341415192 213.29057910151863 -1.804833910173028e-13
  endloop
endfacet
facet normal 5.780464162039062e-20 -2.7497921546818588e-15 -1.0
  outer loop
    vertex 352.2850341415192 211.29057910151855 -1.5792365915691968e-13
    vertex 378.285034141519 213.29057910151863 -1.804833910173028e-13
    vertex 377.285034141519 206.99057910151853 -1.466437932267281e-13
  endloop
endfacet
facet normal 5.780464162039062e-20 -2.7497921546818588e-15 -1.0
  outer loop
    vertex 377.285034141519 206.99057910151853 -1.466437932267281e-13
    vertex 378.285034141519 213.29057910151863 -1.804833910173028e-13
    vertex 377.285034141519 204.99057910151853 -1.466437932267281e-13
  endloop
endfacet
facet normal 5.780464162039062e-20 -2.7497921546818588e-15 -1.0
  outer loop
    vertex 322.28503414151913 203.9905791015185 -1.5792365915691968e-13
    vertex 323.2850341415192 204.99057910151853 -1.466437932267281e-13
    vertex 378.285034141519 203.9905791015185 -1.410038602616323e-13
  endloop
endfacet
facet normal 5.780464162039062e-20 -2.7497921546818588e-15 -1.0
  outer loop
    vertex 323.2850341415192 204.99057910151853 -1.466437932267281e-13
    vertex 322.28503414151913 203.9905791015185 -1.5792365915691968e-13
    vertex 323.2850341415192 206.99057910151853 -1.5792365915691968e-13
  endloop
endfacet
facet normal 5.780464162039062e-20 -2.7497921546818588e-15 -1.0
  outer loop
    vertex 378.285034141519 203.9905791015185 -1.410038602616323e-13
    vertex 323.2850341415192 204.99057910151853 -1.466437932267281e-13
    vertex 377.285034141519 204.99057910151853 -1.466437932267281e-13
  endloop
endfacet
facet normal 5.780464162039062e-20 -2.7497921546818588e-15 -1.0
  outer loop
    vertex 378.285034141519 203.9905791015185 -1.410038602616323e-13
    vertex 377.285034141519 204.99057910151853 -1.466437932267281e-13
    vertex 378.285034141519 213.29057910151863 -1.804833910173028e-13
  endloop
endfacet
facet normal 5.780464162039062e-20 -2.7497921546818588e-15 -1.0
  outer loop
    vertex 322.28503414151913 211.29057910151855 -1.5792365915691968e-13
    vertex 323.2850341415192 206.99057910151853 -1.5792365915691968e-13
    vertex 322.28503414151913 203.9905791015185 -1.5792365915691968e-13
  endloop
endfacet
facet normal 5.780464162039062e-20 -2.7497921546818588e-15 -1.0
  outer loop
    vertex 323.2850341415192 206.99057910151853 -1.5792365915691968e-13
    vertex 322.28503414151913 211.29057910151855 -1.5792365915691968e-13
    vertex 352.2850341415192 211.29057910151855 -1.5792365915691968e-13
  endloop
endfacet
facet normal 5.780464162039062e-20 -2.7497921546818588e-15 -1.0
  outer loop
    vertex 323.2850341415192 206.99057910151853 -1.5792365915691968e-13
    vertex 352.2850341415192 211.29057910151855 -1.5792365915691968e-13
    vertex 377.285034141519 206.99057910151853 -1.466437932267281e-13
  endloop
endfacet
facet normal 0.0 0.9950168972244249 -0.09970644030291288
  outer loop
    vertex 323.2850341415192 206.84191952758118 18.475386352682484
    vertex 377.285034141519 204.99057910151853 -1.466437932267281e-13
    vertex 323.2850341415192 204.99057910151853 -1.466437932267281e-13
  endloop
endfacet
facet normal 0.0 0.9950168972244249 -0.09970644030291288
  outer loop
    vertex 377.285034141519 204.99057910151853 -1.466437932267281e-13
    vertex 323.2850341415192 206.84191952758118 18.475386352682484
    vertex 377.285034141519 206.84191952758118 18.475386352682484
  endloop
endfacet
facet normal 1.0 0.0 0.0
  outer loop
    vertex 378.285034141519 213.29057910151863 -1.804833910173028e-13
    vertex 378.285034141519 205.9905791015186 19.999999999999794
    vertex 378.285034141519 203.9905791015185 -1.410038602616323e-13
  endloop
endfacet
facet normal 1.0 0.0 0.0
  outer loop
    vertex 378.285034141519 205.9905791015186 19.999999999999794
    vertex 378.285034141519 213.29057910151863 -1.804833910173028e-13
    vertex 378.285034141519 213.290579101519 19.999999999999872
  endloop
endfacet
facet normal -2.4999631510314214e-17 -0.9950371902099888 0.09950371902100348
  outer loop
    vertex 378.285034141519 203.9905791015185 -1.410038602616323e-13
    vertex 322.2850341415191 205.9905791015186 19.999999999999783
    vertex 322.28503414151913 203.9905791015185 -1.5792365915691968e-13
  endloop
endfacet
facet normal -2.4999631510314214e-17 -0.9950371902099888 0.09950371902100348
  outer loop
    vertex 322.2850341415191 205.9905791015186 19.999999999999783
    vertex 378.285034141519 203.9905791015185 -1.410038602616323e-13
    vertex 378.285034141519 205.9905791015186 19.999999999999794
  endloop
endfacet
facet normal -8.648145498271958e-16 -7.909485768802207e-15 1.0
  outer loop
    vertex 378.285034141519 205.9905791015186 19.999999999999794
    vertex 322.2850341415191 211.29057910151855 19.999999999999773
    vertex 322.2850341415191 205.9905791015186 19.999999999999783
  endloop
endfacet
facet normal -8.648145498271958e-16 -7.909485768802207e-15 1.0
  outer loop
    vertex 322.2850341415191 211.29057910151855 19.999999999999773
    vertex 378.285034141519 205.9905791015186 19.999999999999794
    vertex 352.2850341415192 211.29057910151855 19.999999999999787
  endloop
endfacet
facet normal -8.648145498271958e-16 -7.909485768802207e-15 1.0
  outer loop
    vertex 352.2850341415192 211.29057910151855 19.999999999999787
    vertex 378.285034141519 205.9905791015186 19.999999999999794
    vertex 352.2850341415192 213.290579101519 19.999999999999872
  endloop
endfacet
facet normal -8.648145498271958e-16 -7.909485768802207e-15 1.0
  outer loop
    vertex 352.2850341415192 213.290579101519 19.999999999999872
    vertex 378.285034141519 205.9905791015186 19.999999999999794
    vertex 378.285034141519 213.290579101519 19.999999999999872
  endloop
endfacet
facet normal 1.0 0.0 0.0
  outer loop
    vertex 323.2850341415192 206.99057910151853 -1.5792365915691968e-13
    vertex 323.2850341415192 206.84191952758118 18.475386352682484
    vertex 323.2850341415192 204.99057910151853 -1.466437932267281e-13
  endloop
endfacet
facet normal 1.0 0.0 0.0
  outer loop
    vertex 323.2850341415192 206.84191952758118 18.475386352682484
    vertex 323.2850341415192 206.99057910151853 -1.5792365915691968e-13
    vertex 323.2850341415192 206.99057910151853 0.9999999999998402
  endloop
endfacet
facet normal 1.0 0.0 0.0
  outer loop
    vertex 323.2850341415192 206.84191952758118 18.475386352682484
    vertex 323.2850341415192 206.99057910151853 0.9999999999998402
    vertex 323.2850341415192 209.29057910151855 18.999999999999762
  endloop
endfacet
facet normal 1.0 0.0 0.0
  outer loop
    vertex 323.2850341415192 209.29057910151855 18.999999999999762
    vertex 323.2850341415192 206.99057910151853 0.9999999999998402
    vertex 323.2850341415192 209.29057910151855 0.9999999999998402
  endloop
endfacet
facet normal -1.0 -3.1521555816486737e-30 -4.5119463720766504e-15
  outer loop
    vertex 322.2850341415191 205.9905791015186 19.999999999999783
    vertex 322.28503414151913 211.29057910151855 -1.5792365915691968e-13
    vertex 322.28503414151913 203.9905791015185 -1.5792365915691968e-13
  endloop
endfacet
facet normal -1.0 -3.1521555816486737e-30 -4.5119463720766504e-15
  outer loop
    vertex 322.28503414151913 211.29057910151855 -1.5792365915691968e-13
    vertex 322.2850341415191 205.9905791015186 19.999999999999783
    vertex 322.2850341415191 211.29057910151855 19.999999999999773
  endloop
endfacet
facet normal -1.0 0.0 0.0
  outer loop
    vertex 377.285034141519 209.29057910151855 18.999999999999762
    vertex 377.285034141519 206.99057910151853 0.9999999999998516
    vertex 377.285034141519 206.84191952758118 18.475386352682484
  endloop
endfacet
facet normal -1.0 0.0 0.0
  outer loop
    vertex 377.285034141519 206.99057910151853 0.9999999999998516
    vertex 377.285034141519 209.29057910151855 18.999999999999762
    vertex 377.285034141519 209.29057910151855 0.9999999999998459
  endloop
endfacet
facet normal -1.0 0.0 0.0
  outer loop
    vertex 377.285034141519 206.84191952758118 18.475386352682484
    vertex 377.285034141519 206.99057910151853 -1.466437932267281e-13
    vertex 377.285034141519 204.99057910151853 -1.466437932267281e-13
  endloop
endfacet
facet normal -1.0 0.0 0.0
  outer loop
    vertex 377.285034141519 206.99057910151853 -1.466437932267281e-13
    vertex 377.285034141519 206.84191952758118 18.475386352682484
    vertex 377.285034141519 206.99057910151853 0.9999999999998516
  endloop
endfacet
facet normal 0.0 0.2094912457669876 -0.9778105225180366
  outer loop
    vertex 377.285034141519 209.29057910151855 18.999999999999762
    vertex 323.2850341415192 206.84191952758118 18.475386352682484
    vertex 323.2850341415192 209.29057910151855 18.999999999999762
  endloop
endfacet
facet normal 0.0 0.2094912457669876 -0.9778105225180366
  outer loop
    vertex 323.2850341415192 206.84191952758118 18.475386352682484
    vertex 377.285034141519 209.29057910151855 18.999999999999762
    vertex 377.285034141519 206.84191952758118 18.475386352682484
  endloop
endfacet
endsolid Rob-Bad Release v1
