solid Robin-Z-Endstop
facet normal 0.25881904510252063 -0.9659258262890682 0.0
  outer loop
    vertex -0.6599885650114279 2.4631108570371243 14.999999999999998
    vertex -1.2749999999999997 2.2083647796503185 0.0
    vertex -0.6599885650114279 2.4631108570371243 0.0
  endloop
endfacet
facet normal 0.5 -0.8660254037844386 0.0
  outer loop
    vertex -1.2749999999999997 2.2083647796503185 0.0
    vertex -0.6599885650114279 2.4631108570371243 14.999999999999998
    vertex -1.2749999999999997 2.2083647796503185 14.999999999999998
  endloop
endfacet
facet normal 0.7071067811865475 -0.7071067811865476 0.0
  outer loop
    vertex -1.8031222920256957 1.8031222920256962 0.0
    vertex -2.208364779650318 1.2750000000000004 14.999999999999998
    vertex -2.208364779650318 1.2750000000000004 0.0
  endloop
endfacet
facet normal 0.8660254037844386 -0.5000000000000001 0.0
  outer loop
    vertex -2.208364779650318 1.2750000000000004 14.999999999999998
    vertex -1.8031222920256957 1.8031222920256962 0.0
    vertex -1.8031222920256957 1.8031222920256962 14.999999999999998
  endloop
endfacet
facet normal 0.5000000000000002 0.8660254037844386 0.0
  outer loop
    vertex 2.250000000000002 3.8971143170299727 14.999999999999998
    vertex 3.1819805153394647 3.1819805153394642 0.0
    vertex 2.250000000000002 3.8971143170299727 0.0
  endloop
endfacet
facet normal 0.7071067811865478 0.7071067811865472 0.0
  outer loop
    vertex 3.1819805153394647 3.1819805153394642 0.0
    vertex 2.250000000000002 3.8971143170299727 14.999999999999998
    vertex 3.1819805153394647 3.1819805153394642 14.999999999999998
  endloop
endfacet
facet normal -3.297110661389355e-16 -1.0 0.0
  outer loop
    vertex 0.0 2.55 14.999999999999998
    vertex -0.6599885650114279 2.4631108570371243 0.0
    vertex 0.0 2.55 0.0
  endloop
endfacet
facet normal 0.25881904510252063 -0.9659258262890682 0.0
  outer loop
    vertex -0.6599885650114279 2.4631108570371243 0.0
    vertex 0.0 2.55 14.999999999999998
    vertex -0.6599885650114279 2.4631108570371243 14.999999999999998
  endloop
endfacet
facet normal -0.5000000000000004 -0.8660254037844385 0.0
  outer loop
    vertex 1.275000000000001 2.208364779650318 14.999999999999998
    vertex 0.6599885650114299 2.4631108570371234 0.0
    vertex 1.275000000000001 2.208364779650318 0.0
  endloop
endfacet
facet normal -0.2588190451025212 -0.9659258262890682 0.0
  outer loop
    vertex 0.6599885650114299 2.4631108570371234 0.0
    vertex 1.275000000000001 2.208364779650318 14.999999999999998
    vertex 0.6599885650114299 2.4631108570371234 14.999999999999998
  endloop
endfacet
facet normal 0.5 -0.8660254037844386 0.0
  outer loop
    vertex -1.2749999999999997 2.2083647796503185 14.999999999999998
    vertex -1.8031222920256957 1.8031222920256962 0.0
    vertex -1.2749999999999997 2.2083647796503185 0.0
  endloop
endfacet
facet normal 0.7071067811865475 -0.7071067811865476 0.0
  outer loop
    vertex -1.8031222920256957 1.8031222920256962 0.0
    vertex -1.2749999999999997 2.2083647796503185 14.999999999999998
    vertex -1.8031222920256957 1.8031222920256962 14.999999999999998
  endloop
endfacet
facet normal 1.0 -2.1386663749552573e-16 0.0
  outer loop
    vertex -2.55 1.5614246689128752e-16 0.0
    vertex -2.4631108570371243 -0.6599885650114276 14.999999999999998
    vertex -2.4631108570371243 -0.6599885650114276 0.0
  endloop
endfacet
facet normal 0.9659258262890684 0.2588190451025205 0.0
  outer loop
    vertex -2.4631108570371243 -0.6599885650114276 14.999999999999998
    vertex -2.55 1.5614246689128752e-16 0.0
    vertex -2.55 1.5614246689128752e-16 14.999999999999998
  endloop
endfacet
facet normal 0.9659258262890683 0.25881904510252035 0.0
  outer loop
    vertex 4.3466662183008085 1.1646857029613413 0.0
    vertex 4.5 -8.266365894244633e-16 14.999999999999998
    vertex 4.5 -8.266365894244633e-16 0.0
  endloop
endfacet
facet normal 1.0 -3.920888354084638e-16 0.0
  outer loop
    vertex 4.5 -8.266365894244633e-16 14.999999999999998
    vertex 4.3466662183008085 1.1646857029613413 0.0
    vertex 4.3466662183008085 1.1646857029613413 14.999999999999998
  endloop
endfacet
facet normal 0.0 0.0 -1.0
  outer loop
    vertex 0.0 4.5 0.0
    vertex -4.5 3.2499999999999996 0.0
    vertex -4.5 4.5 0.0
  endloop
endfacet
facet normal 0.0 0.0 -1.0
  outer loop
    vertex -4.5 3.2499999999999996 0.0
    vertex 0.0 4.5 0.0
    vertex -4.5 1.9999999999999991 0.0
  endloop
endfacet
facet normal 0.0 0.0 -1.0
  outer loop
    vertex -4.5 1.9999999999999991 0.0
    vertex 0.0 4.5 0.0
    vertex -4.5 0.0 0.0
  endloop
endfacet
facet normal 0.0 0.0 -1.0
  outer loop
    vertex -4.5 0.0 0.0
    vertex 0.0 4.5 0.0
    vertex -2.208364779650318 1.2750000000000004 0.0
  endloop
endfacet
facet normal 0.0 0.0 -1.0
  outer loop
    vertex -4.5 0.0 0.0
    vertex -2.208364779650318 1.2750000000000004 0.0
    vertex -2.463110857037124 0.6599885650114284 0.0
  endloop
endfacet
facet normal 0.0 0.0 -1.0
  outer loop
    vertex -4.5 0.0 0.0
    vertex -2.463110857037124 0.6599885650114284 0.0
    vertex -4.5 -4.5 0.0
  endloop
endfacet
facet normal 0.0 0.0 -1.0
  outer loop
    vertex -4.5 -4.5 0.0
    vertex -2.463110857037124 0.6599885650114284 0.0
    vertex -4.5 -9.999999999999998 0.0
  endloop
endfacet
facet normal 0.0 0.0 -1.0
  outer loop
    vertex -4.5 -9.999999999999998 0.0
    vertex -2.463110857037124 0.6599885650114284 0.0
    vertex -2.55 1.5614246689128752e-16 0.0
  endloop
endfacet
facet normal 0.0 0.0 -1.0
  outer loop
    vertex -4.5 -9.999999999999998 0.0
    vertex -2.55 1.5614246689128752e-16 0.0
    vertex -4.5 -17.9 2.819966482547898e-17
  endloop
endfacet
facet normal 0.0 0.0 -1.0
  outer loop
    vertex -4.5 -17.9 2.819966482547898e-17
    vertex -2.55 1.5614246689128752e-16 0.0
    vertex -4.5 -18.74999999999999 0.0
  endloop
endfacet
facet normal 0.0 0.0 -1.0
  outer loop
    vertex -4.5 -18.74999999999999 0.0
    vertex -2.55 1.5614246689128752e-16 0.0
    vertex -4.5 -19.499999999999982 0.0
  endloop
endfacet
facet normal 0.0 0.0 -1.0
  outer loop
    vertex -2.208364779650318 1.2750000000000004 0.0
    vertex 0.0 4.5 0.0
    vertex -1.8031222920256957 1.8031222920256962 0.0
  endloop
endfacet
facet normal 0.0 0.0 -1.0
  outer loop
    vertex -1.8031222920256957 1.8031222920256962 0.0
    vertex 0.0 4.5 0.0
    vertex -1.2749999999999997 2.2083647796503185 0.0
  endloop
endfacet
facet normal 0.0 0.0 -1.0
  outer loop
    vertex -1.2749999999999997 2.2083647796503185 0.0
    vertex 0.0 4.5 0.0
    vertex -0.6599885650114279 2.4631108570371243 0.0
  endloop
endfacet
facet normal 0.0 0.0 -1.0
  outer loop
    vertex -0.6599885650114279 2.4631108570371243 0.0
    vertex 0.0 4.5 0.0
    vertex 0.0 2.55 0.0
  endloop
endfacet
facet normal 0.0 0.0 -1.0
  outer loop
    vertex 0.0 2.55 0.0
    vertex 0.0 4.5 0.0
    vertex 1.1646857029613469 4.346666218300807 0.0
  endloop
endfacet
facet normal 0.0 0.0 -1.0
  outer loop
    vertex 0.0 2.55 0.0
    vertex 1.1646857029613469 4.346666218300807 0.0
    vertex 0.6599885650114299 2.4631108570371234 0.0
  endloop
endfacet
facet normal 0.0 0.0 -1.0
  outer loop
    vertex 0.6599885650114299 2.4631108570371234 0.0
    vertex 1.1646857029613469 4.346666218300807 0.0
    vertex 1.275000000000001 2.208364779650318 0.0
  endloop
endfacet
facet normal 0.0 0.0 -1.0
  outer loop
    vertex 1.275000000000001 2.208364779650318 0.0
    vertex 1.1646857029613469 4.346666218300807 0.0
    vertex 2.250000000000002 3.8971143170299727 0.0
  endloop
endfacet
facet normal 0.0 0.0 -1.0
  outer loop
    vertex 1.275000000000001 2.208364779650318 0.0
    vertex 2.250000000000002 3.8971143170299727 0.0
    vertex 1.8031222920256966 1.8031222920256957 0.0
  endloop
endfacet
facet normal 0.0 0.0 -1.0
  outer loop
    vertex 1.8031222920256966 1.8031222920256957 0.0
    vertex 2.250000000000002 3.8971143170299727 0.0
    vertex 2.2083647796503194 1.2749999999999981 0.0
  endloop
endfacet
facet normal 0.0 0.0 -1.0
  outer loop
    vertex 2.2083647796503194 1.2749999999999981 0.0
    vertex 2.250000000000002 3.8971143170299727 0.0
    vertex 2.4631108570371243 0.6599885650114268 0.0
  endloop
endfacet
facet normal 0.0 0.0 -1.0
  outer loop
    vertex 2.4631108570371243 0.6599885650114268 0.0
    vertex 2.250000000000002 3.8971143170299727 0.0
    vertex 3.1819805153394647 3.1819805153394642 0.0
  endloop
endfacet
facet normal 0.0 0.0 -1.0
  outer loop
    vertex 2.4631108570371243 0.6599885650114268 0.0
    vertex 3.1819805153394647 3.1819805153394642 0.0
    vertex 2.55 -4.684274006738625e-16 0.0
  endloop
endfacet
facet normal 0.0 0.0 -1.0
  outer loop
    vertex 2.55 -4.684274006738625e-16 0.0
    vertex 3.1819805153394647 3.1819805153394642 0.0
    vertex 3.181980515339462 -3.1819805153394656 0.0
  endloop
endfacet
facet normal 0.0 0.0 -1.0
  outer loop
    vertex 3.181980515339462 -3.1819805153394656 0.0
    vertex 3.1819805153394647 3.1819805153394642 0.0
    vertex 3.8971143170299727 -2.250000000000002 0.0
  endloop
endfacet
facet normal 0.0 0.0 -1.0
  outer loop
    vertex 3.8971143170299727 -2.250000000000002 0.0
    vertex 3.1819805153394647 3.1819805153394642 0.0
    vertex 3.8971143170299753 2.249999999999997 0.0
  endloop
endfacet
facet normal 0.0 0.0 -1.0
  outer loop
    vertex 3.8971143170299727 -2.250000000000002 0.0
    vertex 3.8971143170299753 2.249999999999997 0.0
    vertex 4.346666218300807 -1.1646857029613467 0.0
  endloop
endfacet
facet normal 0.0 0.0 -1.0
  outer loop
    vertex 4.346666218300807 -1.1646857029613467 0.0
    vertex 3.8971143170299753 2.249999999999997 0.0
    vertex 4.3466662183008085 1.1646857029613413 0.0
  endloop
endfacet
facet normal 0.0 0.0 -1.0
  outer loop
    vertex 4.346666218300807 -1.1646857029613467 0.0
    vertex 4.3466662183008085 1.1646857029613413 0.0
    vertex 4.5 -8.266365894244633e-16 0.0
  endloop
endfacet
facet normal 0.0 0.0 -1.0
  outer loop
    vertex -3.1228493378257504e-16 -2.55 0.0
    vertex -5.51091059616309e-16 -4.5 0.0
    vertex -0.6599885650114286 -2.463110857037124 0.0
  endloop
endfacet
facet normal 0.0 0.0 -1.0
  outer loop
    vertex -5.51091059616309e-16 -4.5 0.0
    vertex -3.1228493378257504e-16 -2.55 0.0
    vertex 1.1646857029613418 -4.3466662183008085 0.0
  endloop
endfacet
facet normal 0.0 0.0 -1.0
  outer loop
    vertex 1.1646857029613418 -4.3466662183008085 0.0
    vertex -3.1228493378257504e-16 -2.55 0.0
    vertex 0.6599885650114269 -2.4631108570371243 0.0
  endloop
endfacet
facet normal 0.0 0.0 -1.0
  outer loop
    vertex 1.1646857029613418 -4.3466662183008085 0.0
    vertex 0.6599885650114269 -2.4631108570371243 0.0
    vertex 1.2749999999999995 -2.208364779650319 0.0
  endloop
endfacet
facet normal 0.0 0.0 -1.0
  outer loop
    vertex 1.1646857029613418 -4.3466662183008085 0.0
    vertex 1.2749999999999995 -2.208364779650319 0.0
    vertex 2.249999999999999 -3.897114317029975 0.0
  endloop
endfacet
facet normal 0.0 0.0 -1.0
  outer loop
    vertex 2.249999999999999 -3.897114317029975 0.0
    vertex 1.2749999999999995 -2.208364779650319 0.0
    vertex 1.803122292025695 -1.8031222920256973 0.0
  endloop
endfacet
facet normal 0.0 0.0 -1.0
  outer loop
    vertex 2.249999999999999 -3.897114317029975 0.0
    vertex 1.803122292025695 -1.8031222920256973 0.0
    vertex 2.208364779650318 -1.275000000000001 0.0
  endloop
endfacet
facet normal 0.0 0.0 -1.0
  outer loop
    vertex 2.249999999999999 -3.897114317029975 0.0
    vertex 2.208364779650318 -1.275000000000001 0.0
    vertex 2.4631108570371234 -0.6599885650114298 0.0
  endloop
endfacet
facet normal 0.0 0.0 -1.0
  outer loop
    vertex 2.249999999999999 -3.897114317029975 0.0
    vertex 2.4631108570371234 -0.6599885650114298 0.0
    vertex 3.181980515339462 -3.1819805153394656 0.0
  endloop
endfacet
facet normal 0.0 0.0 -1.0
  outer loop
    vertex 3.181980515339462 -3.1819805153394656 0.0
    vertex 2.4631108570371234 -0.6599885650114298 0.0
    vertex 2.55 -4.684274006738625e-16 0.0
  endloop
endfacet
facet normal 0.0 0.0 -1.0
  outer loop
    vertex -2.55 1.5614246689128752e-16 0.0
    vertex -5.51091059616309e-16 -19.499999999999982 0.0
    vertex -4.5 -19.499999999999982 0.0
  endloop
endfacet
facet normal 0.0 0.0 -1.0
  outer loop
    vertex -5.51091059616309e-16 -19.499999999999982 0.0
    vertex -2.55 1.5614246689128752e-16 0.0
    vertex -2.4631108570371243 -0.6599885650114276 0.0
  endloop
endfacet
facet normal 0.0 0.0 -1.0
  outer loop
    vertex -5.51091059616309e-16 -19.499999999999982 0.0
    vertex -2.4631108570371243 -0.6599885650114276 0.0
    vertex -2.208364779650319 -1.2749999999999995 0.0
  endloop
endfacet
facet normal 0.0 0.0 -1.0
  outer loop
    vertex -5.51091059616309e-16 -19.499999999999982 0.0
    vertex -2.208364779650319 -1.2749999999999995 0.0
    vertex -1.8031222920256962 -1.8031222920256957 0.0
  endloop
endfacet
facet normal 0.0 0.0 -1.0
  outer loop
    vertex -5.51091059616309e-16 -19.499999999999982 0.0
    vertex -1.8031222920256962 -1.8031222920256957 0.0
    vertex -1.2750000000000008 -2.208364779650318 0.0
  endloop
endfacet
facet normal 0.0 0.0 -1.0
  outer loop
    vertex -5.51091059616309e-16 -19.499999999999982 0.0
    vertex -1.2750000000000008 -2.208364779650318 0.0
    vertex -0.6599885650114286 -2.463110857037124 0.0
  endloop
endfacet
facet normal 0.0 0.0 -1.0
  outer loop
    vertex -5.51091059616309e-16 -19.499999999999982 0.0
    vertex -0.6599885650114286 -2.463110857037124 0.0
    vertex -5.51091059616309e-16 -4.5 0.0
  endloop
endfacet
facet normal 0.0 0.0 -1.0
  outer loop
    vertex -4.5 -17.9 2.819966482547898e-17
    vertex -10.5 -18.74999999999999 0.0
    vertex -10.5 -17.9 2.819966482547898e-17
  endloop
endfacet
facet normal 0.0 0.0 -1.0
  outer loop
    vertex -10.5 -18.74999999999999 0.0
    vertex -4.5 -17.9 2.819966482547898e-17
    vertex -4.5 -18.74999999999999 0.0
  endloop
endfacet
facet normal 0.0 0.0 -1.0
  outer loop
    vertex -4.5 3.2499999999999996 0.0
    vertex -10.5 1.9999999999999991 0.0
    vertex -10.5 3.2499999999999996 0.0
  endloop
endfacet
facet normal 0.0 0.0 -1.0
  outer loop
    vertex -10.5 1.9999999999999991 0.0
    vertex -4.5 3.2499999999999996 0.0
    vertex -4.5 1.9999999999999991 0.0
  endloop
endfacet
facet normal -0.8660254037844385 0.5000000000000004 0.0
  outer loop
    vertex 2.208364779650318 -1.275000000000001 14.999999999999998
    vertex 1.803122292025695 -1.8031222920256973 0.0
    vertex 1.803122292025695 -1.8031222920256973 14.999999999999998
  endloop
endfacet
facet normal -0.7071067811865471 0.7071067811865479 0.0
  outer loop
    vertex 1.803122292025695 -1.8031222920256973 0.0
    vertex 2.208364779650318 -1.275000000000001 14.999999999999998
    vertex 2.208364779650318 -1.275000000000001 0.0
  endloop
endfacet
facet normal 1.0 -3.920888354084638e-16 0.0
  outer loop
    vertex 4.5 -8.266365894244633e-16 0.0
    vertex 4.346666218300807 -1.1646857029613467 14.999999999999998
    vertex 4.346666218300807 -1.1646857029613467 0.0
  endloop
endfacet
facet normal 0.9659258262890682 -0.25881904510252135 0.0
  outer loop
    vertex 4.346666218300807 -1.1646857029613467 14.999999999999998
    vertex 4.5 -8.266365894244633e-16 0.0
    vertex 4.5 -8.266365894244633e-16 14.999999999999998
  endloop
endfacet
facet normal 0.258819045102521 0.9659258262890682 0.0
  outer loop
    vertex -0.6599885650114286 -2.463110857037124 14.999999999999998
    vertex -3.1228493378257504e-16 -2.55 0.0
    vertex -0.6599885650114286 -2.463110857037124 0.0
  endloop
endfacet
facet normal 4.1882216509540457e-16 1.0 0.0
  outer loop
    vertex -3.1228493378257504e-16 -2.55 0.0
    vertex -0.6599885650114286 -2.463110857037124 14.999999999999998
    vertex -3.1228493378257504e-16 -2.55 14.999999999999998
  endloop
endfacet
facet normal 4.1882216509540457e-16 1.0 0.0
  outer loop
    vertex -3.1228493378257504e-16 -2.55 14.999999999999998
    vertex 0.6599885650114269 -2.4631108570371243 0.0
    vertex -3.1228493378257504e-16 -2.55 0.0
  endloop
endfacet
facet normal -0.25881904510252035 0.9659258262890685 0.0
  outer loop
    vertex 0.6599885650114269 -2.4631108570371243 0.0
    vertex -3.1228493378257504e-16 -2.55 14.999999999999998
    vertex 0.6599885650114269 -2.4631108570371243 14.999999999999998
  endloop
endfacet
facet normal 0.7071067811865474 -0.7071067811865477 0.0
  outer loop
    vertex 3.181980515339462 -3.1819805153394656 14.999999999999998
    vertex 2.249999999999999 -3.897114317029975 0.0
    vertex 3.181980515339462 -3.1819805153394656 0.0
  endloop
endfacet
facet normal 0.49999999999999994 -0.8660254037844387 0.0
  outer loop
    vertex 2.249999999999999 -3.897114317029975 0.0
    vertex 3.181980515339462 -3.1819805153394656 14.999999999999998
    vertex 2.249999999999999 -3.897114317029975 14.999999999999998
  endloop
endfacet
facet normal -0.707106781186548 -0.7071067811865471 0.0
  outer loop
    vertex 1.8031222920256966 1.8031222920256957 14.999999999999998
    vertex 2.2083647796503194 1.2749999999999981 0.0
    vertex 2.2083647796503194 1.2749999999999981 14.999999999999998
  endloop
endfacet
facet normal -0.8660254037844389 -0.49999999999999956 0.0
  outer loop
    vertex 2.2083647796503194 1.2749999999999981 0.0
    vertex 1.8031222920256966 1.8031222920256957 14.999999999999998
    vertex 1.8031222920256966 1.8031222920256957 0.0
  endloop
endfacet
facet normal 1.0 0.0 -0.0
  outer loop
    vertex -5.51091059616309e-16 -4.5 0.0
    vertex -5.51091059616309e-16 -19.499999999999982 14.999999999999998
    vertex -5.51091059616309e-16 -19.499999999999982 0.0
  endloop
endfacet
facet normal 1.0 0.0 -0.0
  outer loop
    vertex -5.51091059616309e-16 -19.499999999999982 14.999999999999998
    vertex -5.51091059616309e-16 -4.5 0.0
    vertex -5.51091059616309e-16 -4.5 14.999999999999998
  endloop
endfacet
facet normal -1.0 0.0 0.0
  outer loop
    vertex -10.5 -17.900000000000002 10.0
    vertex -10.5 -18.74999999999999 0.0
    vertex -10.5 -18.74999999999999 10.0
  endloop
endfacet
facet normal -1.0 0.0 0.0
  outer loop
    vertex -10.5 -18.74999999999999 0.0
    vertex -10.5 -17.900000000000002 10.0
    vertex -10.5 -17.9 2.819966482547898e-17
  endloop
endfacet
facet normal 0.49999999999999994 -0.8660254037844387 0.0
  outer loop
    vertex 2.249999999999999 -3.897114317029975 14.999999999999998
    vertex 1.1646857029613418 -4.3466662183008085 0.0
    vertex 2.249999999999999 -3.897114317029975 0.0
  endloop
endfacet
facet normal 0.25881904510252035 -0.9659258262890683 0.0
  outer loop
    vertex 1.1646857029613418 -4.3466662183008085 0.0
    vertex 2.249999999999999 -3.897114317029975 14.999999999999998
    vertex 1.1646857029613418 -4.3466662183008085 14.999999999999998
  endloop
endfacet
facet normal -0.25881904510252035 0.9659258262890685 0.0
  outer loop
    vertex 0.6599885650114269 -2.4631108570371243 14.999999999999998
    vertex 1.2749999999999995 -2.208364779650319 0.0
    vertex 0.6599885650114269 -2.4631108570371243 0.0
  endloop
endfacet
facet normal -0.49999999999999967 0.8660254037844388 0.0
  outer loop
    vertex 1.2749999999999995 -2.208364779650319 0.0
    vertex 0.6599885650114269 -2.4631108570371243 14.999999999999998
    vertex 1.2749999999999995 -2.208364779650319 14.999999999999998
  endloop
endfacet
facet normal 0.7071067811865476 0.7071067811865475 0.0
  outer loop
    vertex -1.8031222920256962 -1.8031222920256957 14.999999999999998
    vertex -1.2750000000000008 -2.208364779650318 0.0
    vertex -1.8031222920256962 -1.8031222920256957 0.0
  endloop
endfacet
facet normal 0.5000000000000004 0.8660254037844384 0.0
  outer loop
    vertex -1.2750000000000008 -2.208364779650318 0.0
    vertex -1.8031222920256962 -1.8031222920256957 14.999999999999998
    vertex -1.2750000000000008 -2.208364779650318 14.999999999999998
  endloop
endfacet
facet normal 0.0 1.0 0.0
  outer loop
    vertex -10.5 3.2499999999999996 10.0
    vertex -4.5 3.2499999999999996 0.0
    vertex -10.5 3.2499999999999996 0.0
  endloop
endfacet
facet normal 0.0 1.0 0.0
  outer loop
    vertex -4.5 3.2499999999999996 0.0
    vertex -10.5 3.2499999999999996 10.0
    vertex -4.5 3.2499999999999996 10.0
  endloop
endfacet
facet normal 0.0 -0.0 1.0
  outer loop
    vertex -4.5 -18.74999999999999 10.0
    vertex -10.5 -17.900000000000002 10.0
    vertex -10.5 -18.74999999999999 10.0
  endloop
endfacet
facet normal 0.0 -0.0 1.0
  outer loop
    vertex -10.5 -17.900000000000002 10.0
    vertex -4.5 -18.74999999999999 10.0
    vertex -4.5 -17.900000000000002 10.0
  endloop
endfacet
facet normal -0.9659258262890684 -0.2588190451025204 0.0
  outer loop
    vertex 2.4631108570371243 0.6599885650114268 14.999999999999998
    vertex 2.55 -4.684274006738625e-16 0.0
    vertex 2.55 -4.684274006738625e-16 14.999999999999998
  endloop
endfacet
facet normal -1.0 5.881332531126958e-16 0.0
  outer loop
    vertex 2.55 -4.684274006738625e-16 0.0
    vertex 2.4631108570371243 0.6599885650114268 14.999999999999998
    vertex 2.4631108570371243 0.6599885650114268 0.0
  endloop
endfacet
facet normal -1.0 0.0 0.0
  outer loop
    vertex -4.5 -19.499999999999982 14.999999999999998
    vertex -4.5 -18.74999999999999 10.0
    vertex -4.5 -19.499999999999982 0.0
  endloop
endfacet
facet normal -1.0 0.0 0.0
  outer loop
    vertex -4.5 -18.74999999999999 10.0
    vertex -4.5 -19.499999999999982 14.999999999999998
    vertex -4.5 4.5 14.999999999999998
  endloop
endfacet
facet normal -1.0 0.0 0.0
  outer loop
    vertex -4.5 -18.74999999999999 10.0
    vertex -4.5 4.5 14.999999999999998
    vertex -4.5 -17.900000000000002 10.0
  endloop
endfacet
facet normal -1.0 0.0 0.0
  outer loop
    vertex -4.5 -17.900000000000002 10.0
    vertex -4.5 4.5 14.999999999999998
    vertex -4.5 -17.9 2.819966482547898e-17
  endloop
endfacet
facet normal -1.0 0.0 0.0
  outer loop
    vertex -4.5 -17.9 2.819966482547898e-17
    vertex -4.5 4.5 14.999999999999998
    vertex -4.5 -9.999999999999998 0.0
  endloop
endfacet
facet normal -1.0 0.0 0.0
  outer loop
    vertex -4.5 -9.999999999999998 0.0
    vertex -4.5 4.5 14.999999999999998
    vertex -4.5 -4.5 0.0
  endloop
endfacet
facet normal -1.0 0.0 0.0
  outer loop
    vertex -4.5 -4.5 0.0
    vertex -4.5 4.5 14.999999999999998
    vertex -4.5 1.9999999999999991 10.0
  endloop
endfacet
facet normal -1.0 0.0 0.0
  outer loop
    vertex -4.5 -4.5 0.0
    vertex -4.5 1.9999999999999991 10.0
    vertex -4.5 0.0 0.0
  endloop
endfacet
facet normal -1.0 0.0 0.0
  outer loop
    vertex -4.5 1.9999999999999991 10.0
    vertex -4.5 4.5 14.999999999999998
    vertex -4.5 3.2499999999999996 10.0
  endloop
endfacet
facet normal -1.0 0.0 0.0
  outer loop
    vertex -4.5 3.2499999999999996 10.0
    vertex -4.5 4.5 14.999999999999998
    vertex -4.5 3.2499999999999996 0.0
  endloop
endfacet
facet normal -1.0 0.0 0.0
  outer loop
    vertex -4.5 3.2499999999999996 0.0
    vertex -4.5 4.5 14.999999999999998
    vertex -4.5 4.5 0.0
  endloop
endfacet
facet normal -1.0 0.0 0.0
  outer loop
    vertex -4.5 1.9999999999999991 0.0
    vertex -4.5 0.0 0.0
    vertex -4.5 1.9999999999999991 10.0
  endloop
endfacet
facet normal -1.0 0.0 0.0
  outer loop
    vertex -4.5 -18.74999999999999 0.0
    vertex -4.5 -19.499999999999982 0.0
    vertex -4.5 -18.74999999999999 10.0
  endloop
endfacet
facet normal 0.0 1.0 2.8199664825478977e-16
  outer loop
    vertex -10.5 -17.900000000000002 10.0
    vertex -4.5 -17.9 2.819966482547898e-17
    vertex -10.5 -17.9 2.819966482547898e-17
  endloop
endfacet
facet normal 0.0 1.0 2.8199664825478977e-16
  outer loop
    vertex -4.5 -17.9 2.819966482547898e-17
    vertex -10.5 -17.900000000000002 10.0
    vertex -4.5 -17.900000000000002 10.0
  endloop
endfacet
facet normal -1.0 0.0 0.0
  outer loop
    vertex -10.5 3.2499999999999996 10.0
    vertex -10.5 1.9999999999999991 0.0
    vertex -10.5 1.9999999999999991 10.0
  endloop
endfacet
facet normal -1.0 0.0 0.0
  outer loop
    vertex -10.5 1.9999999999999991 0.0
    vertex -10.5 3.2499999999999996 10.0
    vertex -10.5 3.2499999999999996 0.0
  endloop
endfacet
facet normal -1.0 5.881332531126958e-16 0.0
  outer loop
    vertex 2.55 -4.684274006738625e-16 14.999999999999998
    vertex 2.4631108570371234 -0.6599885650114298 0.0
    vertex 2.4631108570371234 -0.6599885650114298 14.999999999999998
  endloop
endfacet
facet normal -0.9659258262890682 0.2588190451025213 0.0
  outer loop
    vertex 2.4631108570371234 -0.6599885650114298 0.0
    vertex 2.55 -4.684274006738625e-16 14.999999999999998
    vertex 2.55 -4.684274006738625e-16 0.0
  endloop
endfacet
facet normal -0.707106781186548 -0.7071067811865471 0.0
  outer loop
    vertex 1.8031222920256966 1.8031222920256957 14.999999999999998
    vertex 1.275000000000001 2.208364779650318 0.0
    vertex 1.8031222920256966 1.8031222920256957 0.0
  endloop
endfacet
facet normal -0.5000000000000004 -0.8660254037844385 0.0
  outer loop
    vertex 1.275000000000001 2.208364779650318 0.0
    vertex 1.8031222920256966 1.8031222920256957 14.999999999999998
    vertex 1.275000000000001 2.208364779650318 14.999999999999998
  endloop
endfacet
facet normal 0.0 -1.0 0.0
  outer loop
    vertex -5.51091059616309e-16 -19.499999999999982 14.999999999999998
    vertex -4.5 -19.499999999999982 0.0
    vertex -5.51091059616309e-16 -19.499999999999982 0.0
  endloop
endfacet
facet normal 0.0 -1.0 0.0
  outer loop
    vertex -4.5 -19.499999999999982 0.0
    vertex -5.51091059616309e-16 -19.499999999999982 14.999999999999998
    vertex -4.5 -19.499999999999982 14.999999999999998
  endloop
endfacet
facet normal 0.25881904510252035 -0.9659258262890683 0.0
  outer loop
    vertex 1.1646857029613418 -4.3466662183008085 14.999999999999998
    vertex -5.51091059616309e-16 -4.5 0.0
    vertex 1.1646857029613418 -4.3466662183008085 0.0
  endloop
endfacet
facet normal 0.1305261922200513 -0.9914448613738106 0.0
  outer loop
    vertex -5.51091059616309e-16 -4.5 0.0
    vertex 1.1646857029613418 -4.3466662183008085 14.999999999999998
    vertex -5.51091059616309e-16 -4.5 14.999999999999998
  endloop
endfacet
facet normal 0.5000000000000004 0.8660254037844384 0.0
  outer loop
    vertex -1.2750000000000008 -2.208364779650318 14.999999999999998
    vertex -0.6599885650114286 -2.463110857037124 0.0
    vertex -1.2750000000000008 -2.208364779650318 0.0
  endloop
endfacet
facet normal 0.258819045102521 0.9659258262890682 0.0
  outer loop
    vertex -0.6599885650114286 -2.463110857037124 0.0
    vertex -1.2750000000000008 -2.208364779650318 14.999999999999998
    vertex -0.6599885650114286 -2.463110857037124 14.999999999999998
  endloop
endfacet
facet normal 0.8660254037844387 0.4999999999999999 0.0
  outer loop
    vertex -2.208364779650319 -1.2749999999999995 0.0
    vertex -1.8031222920256962 -1.8031222920256957 14.999999999999998
    vertex -1.8031222920256962 -1.8031222920256957 0.0
  endloop
endfacet
facet normal 0.7071067811865476 0.7071067811865475 0.0
  outer loop
    vertex -1.8031222920256962 -1.8031222920256957 14.999999999999998
    vertex -2.208364779650319 -1.2749999999999995 0.0
    vertex -2.208364779650319 -1.2749999999999995 14.999999999999998
  endloop
endfacet
facet normal 0.0 0.0 1.0
  outer loop
    vertex -5.51091059616309e-16 -19.499999999999982 14.999999999999998
    vertex -4.5 4.5 14.999999999999998
    vertex -4.5 -19.499999999999982 14.999999999999998
  endloop
endfacet
facet normal 0.0 0.0 1.0
  outer loop
    vertex -4.5 4.5 14.999999999999998
    vertex -5.51091059616309e-16 -19.499999999999982 14.999999999999998
    vertex -2.55 1.5614246689128752e-16 14.999999999999998
  endloop
endfacet
facet normal 0.0 0.0 1.0
  outer loop
    vertex -2.55 1.5614246689128752e-16 14.999999999999998
    vertex -5.51091059616309e-16 -19.499999999999982 14.999999999999998
    vertex -2.4631108570371243 -0.6599885650114276 14.999999999999998
  endloop
endfacet
facet normal 0.0 0.0 1.0
  outer loop
    vertex -2.4631108570371243 -0.6599885650114276 14.999999999999998
    vertex -5.51091059616309e-16 -19.499999999999982 14.999999999999998
    vertex -2.208364779650319 -1.2749999999999995 14.999999999999998
  endloop
endfacet
facet normal 0.0 0.0 1.0
  outer loop
    vertex -2.208364779650319 -1.2749999999999995 14.999999999999998
    vertex -5.51091059616309e-16 -19.499999999999982 14.999999999999998
    vertex -1.8031222920256962 -1.8031222920256957 14.999999999999998
  endloop
endfacet
facet normal 0.0 0.0 1.0
  outer loop
    vertex -1.8031222920256962 -1.8031222920256957 14.999999999999998
    vertex -5.51091059616309e-16 -19.499999999999982 14.999999999999998
    vertex -1.2750000000000008 -2.208364779650318 14.999999999999998
  endloop
endfacet
facet normal 0.0 0.0 1.0
  outer loop
    vertex -1.2750000000000008 -2.208364779650318 14.999999999999998
    vertex -5.51091059616309e-16 -19.499999999999982 14.999999999999998
    vertex -0.6599885650114286 -2.463110857037124 14.999999999999998
  endloop
endfacet
facet normal 0.0 0.0 1.0
  outer loop
    vertex -0.6599885650114286 -2.463110857037124 14.999999999999998
    vertex -5.51091059616309e-16 -19.499999999999982 14.999999999999998
    vertex -5.51091059616309e-16 -4.5 14.999999999999998
  endloop
endfacet
facet normal 0.0 0.0 1.0
  outer loop
    vertex -0.6599885650114286 -2.463110857037124 14.999999999999998
    vertex -5.51091059616309e-16 -4.5 14.999999999999998
    vertex -3.1228493378257504e-16 -2.55 14.999999999999998
  endloop
endfacet
facet normal 0.0 0.0 1.0
  outer loop
    vertex -3.1228493378257504e-16 -2.55 14.999999999999998
    vertex -5.51091059616309e-16 -4.5 14.999999999999998
    vertex 1.1646857029613418 -4.3466662183008085 14.999999999999998
  endloop
endfacet
facet normal 0.0 0.0 1.0
  outer loop
    vertex -3.1228493378257504e-16 -2.55 14.999999999999998
    vertex 1.1646857029613418 -4.3466662183008085 14.999999999999998
    vertex 0.6599885650114269 -2.4631108570371243 14.999999999999998
  endloop
endfacet
facet normal 0.0 0.0 1.0
  outer loop
    vertex 0.6599885650114269 -2.4631108570371243 14.999999999999998
    vertex 1.1646857029613418 -4.3466662183008085 14.999999999999998
    vertex 1.2749999999999995 -2.208364779650319 14.999999999999998
  endloop
endfacet
facet normal 0.0 0.0 1.0
  outer loop
    vertex 1.2749999999999995 -2.208364779650319 14.999999999999998
    vertex 1.1646857029613418 -4.3466662183008085 14.999999999999998
    vertex 2.249999999999999 -3.897114317029975 14.999999999999998
  endloop
endfacet
facet normal 0.0 0.0 1.0
  outer loop
    vertex 1.2749999999999995 -2.208364779650319 14.999999999999998
    vertex 2.249999999999999 -3.897114317029975 14.999999999999998
    vertex 1.803122292025695 -1.8031222920256973 14.999999999999998
  endloop
endfacet
facet normal 0.0 0.0 1.0
  outer loop
    vertex 1.803122292025695 -1.8031222920256973 14.999999999999998
    vertex 2.249999999999999 -3.897114317029975 14.999999999999998
    vertex 2.208364779650318 -1.275000000000001 14.999999999999998
  endloop
endfacet
facet normal 0.0 0.0 1.0
  outer loop
    vertex 2.208364779650318 -1.275000000000001 14.999999999999998
    vertex 2.249999999999999 -3.897114317029975 14.999999999999998
    vertex 2.4631108570371234 -0.6599885650114298 14.999999999999998
  endloop
endfacet
facet normal 0.0 0.0 1.0
  outer loop
    vertex 2.4631108570371234 -0.6599885650114298 14.999999999999998
    vertex 2.249999999999999 -3.897114317029975 14.999999999999998
    vertex 3.181980515339462 -3.1819805153394656 14.999999999999998
  endloop
endfacet
facet normal 0.0 0.0 1.0
  outer loop
    vertex 2.4631108570371234 -0.6599885650114298 14.999999999999998
    vertex 3.181980515339462 -3.1819805153394656 14.999999999999998
    vertex 2.55 -4.684274006738625e-16 14.999999999999998
  endloop
endfacet
facet normal 0.0 0.0 1.0
  outer loop
    vertex -4.5 4.5 14.999999999999998
    vertex -2.208364779650318 1.2750000000000004 14.999999999999998
    vertex 0.0 4.5 14.999999999999998
  endloop
endfacet
facet normal 0.0 0.0 1.0
  outer loop
    vertex -2.208364779650318 1.2750000000000004 14.999999999999998
    vertex -4.5 4.5 14.999999999999998
    vertex -2.463110857037124 0.6599885650114284 14.999999999999998
  endloop
endfacet
facet normal 0.0 0.0 1.0
  outer loop
    vertex -2.463110857037124 0.6599885650114284 14.999999999999998
    vertex -4.5 4.5 14.999999999999998
    vertex -2.55 1.5614246689128752e-16 14.999999999999998
  endloop
endfacet
facet normal 0.0 0.0 1.0
  outer loop
    vertex 0.0 4.5 14.999999999999998
    vertex -2.208364779650318 1.2750000000000004 14.999999999999998
    vertex -1.8031222920256957 1.8031222920256962 14.999999999999998
  endloop
endfacet
facet normal 0.0 0.0 1.0
  outer loop
    vertex 0.0 4.5 14.999999999999998
    vertex -1.8031222920256957 1.8031222920256962 14.999999999999998
    vertex -1.2749999999999997 2.2083647796503185 14.999999999999998
  endloop
endfacet
facet normal 0.0 0.0 1.0
  outer loop
    vertex 0.0 4.5 14.999999999999998
    vertex -1.2749999999999997 2.2083647796503185 14.999999999999998
    vertex -0.6599885650114279 2.4631108570371243 14.999999999999998
  endloop
endfacet
facet normal 0.0 0.0 1.0
  outer loop
    vertex 0.0 4.5 14.999999999999998
    vertex -0.6599885650114279 2.4631108570371243 14.999999999999998
    vertex 0.0 2.55 14.999999999999998
  endloop
endfacet
facet normal 0.0 0.0 1.0
  outer loop
    vertex 0.0 4.5 14.999999999999998
    vertex 0.0 2.55 14.999999999999998
    vertex 0.6599885650114299 2.4631108570371234 14.999999999999998
  endloop
endfacet
facet normal 0.0 0.0 1.0
  outer loop
    vertex 0.0 4.5 14.999999999999998
    vertex 0.6599885650114299 2.4631108570371234 14.999999999999998
    vertex 1.1646857029613469 4.346666218300807 14.999999999999998
  endloop
endfacet
facet normal 0.0 0.0 1.0
  outer loop
    vertex 1.1646857029613469 4.346666218300807 14.999999999999998
    vertex 0.6599885650114299 2.4631108570371234 14.999999999999998
    vertex 1.275000000000001 2.208364779650318 14.999999999999998
  endloop
endfacet
facet normal 0.0 0.0 1.0
  outer loop
    vertex 1.1646857029613469 4.346666218300807 14.999999999999998
    vertex 1.275000000000001 2.208364779650318 14.999999999999998
    vertex 2.250000000000002 3.8971143170299727 14.999999999999998
  endloop
endfacet
facet normal 0.0 0.0 1.0
  outer loop
    vertex 2.250000000000002 3.8971143170299727 14.999999999999998
    vertex 1.275000000000001 2.208364779650318 14.999999999999998
    vertex 1.8031222920256966 1.8031222920256957 14.999999999999998
  endloop
endfacet
facet normal 0.0 0.0 1.0
  outer loop
    vertex 2.250000000000002 3.8971143170299727 14.999999999999998
    vertex 1.8031222920256966 1.8031222920256957 14.999999999999998
    vertex 2.2083647796503194 1.2749999999999981 14.999999999999998
  endloop
endfacet
facet normal 0.0 0.0 1.0
  outer loop
    vertex 2.250000000000002 3.8971143170299727 14.999999999999998
    vertex 2.2083647796503194 1.2749999999999981 14.999999999999998
    vertex 2.4631108570371243 0.6599885650114268 14.999999999999998
  endloop
endfacet
facet normal 0.0 0.0 1.0
  outer loop
    vertex 2.250000000000002 3.8971143170299727 14.999999999999998
    vertex 2.4631108570371243 0.6599885650114268 14.999999999999998
    vertex 3.1819805153394647 3.1819805153394642 14.999999999999998
  endloop
endfacet
facet normal 0.0 0.0 1.0
  outer loop
    vertex 3.1819805153394647 3.1819805153394642 14.999999999999998
    vertex 2.4631108570371243 0.6599885650114268 14.999999999999998
    vertex 2.55 -4.684274006738625e-16 14.999999999999998
  endloop
endfacet
facet normal 0.0 0.0 1.0
  outer loop
    vertex 3.1819805153394647 3.1819805153394642 14.999999999999998
    vertex 2.55 -4.684274006738625e-16 14.999999999999998
    vertex 3.181980515339462 -3.1819805153394656 14.999999999999998
  endloop
endfacet
facet normal 0.0 0.0 1.0
  outer loop
    vertex 3.1819805153394647 3.1819805153394642 14.999999999999998
    vertex 3.181980515339462 -3.1819805153394656 14.999999999999998
    vertex 3.8971143170299727 -2.250000000000002 14.999999999999998
  endloop
endfacet
facet normal 0.0 0.0 1.0
  outer loop
    vertex 3.1819805153394647 3.1819805153394642 14.999999999999998
    vertex 3.8971143170299727 -2.250000000000002 14.999999999999998
    vertex 3.8971143170299753 2.249999999999997 14.999999999999998
  endloop
endfacet
facet normal 0.0 0.0 1.0
  outer loop
    vertex 3.8971143170299753 2.249999999999997 14.999999999999998
    vertex 3.8971143170299727 -2.250000000000002 14.999999999999998
    vertex 4.346666218300807 -1.1646857029613467 14.999999999999998
  endloop
endfacet
facet normal 0.0 0.0 1.0
  outer loop
    vertex 3.8971143170299753 2.249999999999997 14.999999999999998
    vertex 4.346666218300807 -1.1646857029613467 14.999999999999998
    vertex 4.3466662183008085 1.1646857029613413 14.999999999999998
  endloop
endfacet
facet normal 0.0 0.0 1.0
  outer loop
    vertex 4.3466662183008085 1.1646857029613413 14.999999999999998
    vertex 4.346666218300807 -1.1646857029613467 14.999999999999998
    vertex 4.5 -8.266365894244633e-16 14.999999999999998
  endloop
endfacet
facet normal 0.9659258262890684 0.2588190451025205 0.0
  outer loop
    vertex -2.4631108570371243 -0.6599885650114276 0.0
    vertex -2.208364779650319 -1.2749999999999995 14.999999999999998
    vertex -2.208364779650319 -1.2749999999999995 0.0
  endloop
endfacet
facet normal 0.8660254037844387 0.4999999999999999 0.0
  outer loop
    vertex -2.208364779650319 -1.2749999999999995 14.999999999999998
    vertex -2.4631108570371243 -0.6599885650114276 0.0
    vertex -2.4631108570371243 -0.6599885650114276 14.999999999999998
  endloop
endfacet
facet normal 0.8660254037844383 -0.5000000000000007 0.0
  outer loop
    vertex 3.8971143170299727 -2.250000000000002 0.0
    vertex 3.181980515339462 -3.1819805153394656 14.999999999999998
    vertex 3.181980515339462 -3.1819805153394656 0.0
  endloop
endfacet
facet normal 0.7071067811865474 -0.7071067811865477 0.0
  outer loop
    vertex 3.181980515339462 -3.1819805153394656 14.999999999999998
    vertex 3.8971143170299727 -2.250000000000002 0.0
    vertex 3.8971143170299727 -2.250000000000002 14.999999999999998
  endloop
endfacet
facet normal 0.9659258262890682 -0.25881904510252135 0.0
  outer loop
    vertex 4.346666218300807 -1.1646857029613467 0.0
    vertex 3.8971143170299727 -2.250000000000002 14.999999999999998
    vertex 3.8971143170299727 -2.250000000000002 0.0
  endloop
endfacet
facet normal 0.8660254037844383 -0.5000000000000007 0.0
  outer loop
    vertex 3.8971143170299727 -2.250000000000002 14.999999999999998
    vertex 4.346666218300807 -1.1646857029613467 0.0
    vertex 4.346666218300807 -1.1646857029613467 14.999999999999998
  endloop
endfacet
facet normal 0.866025403784439 0.49999999999999944 0.0
  outer loop
    vertex 3.8971143170299753 2.249999999999997 0.0
    vertex 4.3466662183008085 1.1646857029613413 14.999999999999998
    vertex 4.3466662183008085 1.1646857029613413 0.0
  endloop
endfacet
facet normal 0.9659258262890683 0.25881904510252035 0.0
  outer loop
    vertex 4.3466662183008085 1.1646857029613413 14.999999999999998
    vertex 3.8971143170299753 2.249999999999997 0.0
    vertex 3.8971143170299753 2.249999999999997 14.999999999999998
  endloop
endfacet
facet normal 0.2588190451025213 0.9659258262890682 0.0
  outer loop
    vertex 1.1646857029613469 4.346666218300807 14.999999999999998
    vertex 2.250000000000002 3.8971143170299727 0.0
    vertex 1.1646857029613469 4.346666218300807 0.0
  endloop
endfacet
facet normal 0.5000000000000002 0.8660254037844386 0.0
  outer loop
    vertex 2.250000000000002 3.8971143170299727 0.0
    vertex 1.1646857029613469 4.346666218300807 14.999999999999998
    vertex 2.250000000000002 3.8971143170299727 14.999999999999998
  endloop
endfacet
facet normal 0.9659258262890682 -0.2588190451025209 0.0
  outer loop
    vertex -2.463110857037124 0.6599885650114284 0.0
    vertex -2.55 1.5614246689128752e-16 14.999999999999998
    vertex -2.55 1.5614246689128752e-16 0.0
  endloop
endfacet
facet normal 1.0 -2.1386663749552573e-16 0.0
  outer loop
    vertex -2.55 1.5614246689128752e-16 14.999999999999998
    vertex -2.463110857037124 0.6599885650114284 0.0
    vertex -2.463110857037124 0.6599885650114284 14.999999999999998
  endloop
endfacet
facet normal 0.0 -0.0 1.0
  outer loop
    vertex -4.5 1.9999999999999991 10.0
    vertex -10.5 3.2499999999999996 10.0
    vertex -10.5 1.9999999999999991 10.0
  endloop
endfacet
facet normal 0.0 -0.0 1.0
  outer loop
    vertex -10.5 3.2499999999999996 10.0
    vertex -4.5 1.9999999999999991 10.0
    vertex -4.5 3.2499999999999996 10.0
  endloop
endfacet
facet normal 0.13052619222005196 0.9914448613738105 0.0
  outer loop
    vertex 0.0 4.5 14.999999999999998
    vertex 1.1646857029613469 4.346666218300807 0.0
    vertex 0.0 4.5 0.0
  endloop
endfacet
facet normal 0.2588190451025213 0.9659258262890682 0.0
  outer loop
    vertex 1.1646857029613469 4.346666218300807 0.0
    vertex 0.0 4.5 14.999999999999998
    vertex 1.1646857029613469 4.346666218300807 14.999999999999998
  endloop
endfacet
facet normal 0.7071067811865478 0.7071067811865472 0.0
  outer loop
    vertex 3.1819805153394647 3.1819805153394642 0.0
    vertex 3.8971143170299753 2.249999999999997 14.999999999999998
    vertex 3.8971143170299753 2.249999999999997 0.0
  endloop
endfacet
facet normal 0.866025403784439 0.49999999999999944 0.0
  outer loop
    vertex 3.8971143170299753 2.249999999999997 14.999999999999998
    vertex 3.1819805153394647 3.1819805153394642 0.0
    vertex 3.1819805153394647 3.1819805153394642 14.999999999999998
  endloop
endfacet
facet normal 0.0 -1.0 0.0
  outer loop
    vertex -4.5 -18.74999999999999 10.0
    vertex -10.5 -18.74999999999999 0.0
    vertex -4.5 -18.74999999999999 0.0
  endloop
endfacet
facet normal 0.0 -1.0 0.0
  outer loop
    vertex -10.5 -18.74999999999999 0.0
    vertex -4.5 -18.74999999999999 10.0
    vertex -10.5 -18.74999999999999 10.0
  endloop
endfacet
facet normal -0.8660254037844389 -0.49999999999999956 0.0
  outer loop
    vertex 2.2083647796503194 1.2749999999999981 14.999999999999998
    vertex 2.4631108570371243 0.6599885650114268 0.0
    vertex 2.4631108570371243 0.6599885650114268 14.999999999999998
  endloop
endfacet
facet normal -0.9659258262890684 -0.2588190451025204 0.0
  outer loop
    vertex 2.4631108570371243 0.6599885650114268 0.0
    vertex 2.2083647796503194 1.2749999999999981 14.999999999999998
    vertex 2.2083647796503194 1.2749999999999981 0.0
  endloop
endfacet
facet normal 0.0 -1.0 0.0
  outer loop
    vertex -4.5 1.9999999999999991 10.0
    vertex -10.5 1.9999999999999991 0.0
    vertex -4.5 1.9999999999999991 0.0
  endloop
endfacet
facet normal 0.0 -1.0 0.0
  outer loop
    vertex -10.5 1.9999999999999991 0.0
    vertex -4.5 1.9999999999999991 10.0
    vertex -10.5 1.9999999999999991 10.0
  endloop
endfacet
facet normal -0.2588190451025212 -0.9659258262890682 0.0
  outer loop
    vertex 0.6599885650114299 2.4631108570371234 14.999999999999998
    vertex 0.0 2.55 0.0
    vertex 0.6599885650114299 2.4631108570371234 0.0
  endloop
endfacet
facet normal -3.297110661389355e-16 -1.0 0.0
  outer loop
    vertex 0.0 2.55 0.0
    vertex 0.6599885650114299 2.4631108570371234 14.999999999999998
    vertex 0.0 2.55 14.999999999999998
  endloop
endfacet
facet normal -0.9659258262890682 0.2588190451025213 0.0
  outer loop
    vertex 2.4631108570371234 -0.6599885650114298 14.999999999999998
    vertex 2.208364779650318 -1.275000000000001 0.0
    vertex 2.208364779650318 -1.275000000000001 14.999999999999998
  endloop
endfacet
facet normal -0.8660254037844385 0.5000000000000004 0.0
  outer loop
    vertex 2.208364779650318 -1.275000000000001 0.0
    vertex 2.4631108570371234 -0.6599885650114298 14.999999999999998
    vertex 2.4631108570371234 -0.6599885650114298 0.0
  endloop
endfacet
facet normal -0.49999999999999967 0.8660254037844388 0.0
  outer loop
    vertex 1.2749999999999995 -2.208364779650319 14.999999999999998
    vertex 1.803122292025695 -1.8031222920256973 0.0
    vertex 1.2749999999999995 -2.208364779650319 0.0
  endloop
endfacet
facet normal -0.7071067811865471 0.7071067811865479 0.0
  outer loop
    vertex 1.803122292025695 -1.8031222920256973 0.0
    vertex 1.2749999999999995 -2.208364779650319 14.999999999999998
    vertex 1.803122292025695 -1.8031222920256973 14.999999999999998
  endloop
endfacet
facet normal -0.0 1.0 -0.0
  outer loop
    vertex -4.5 4.5 14.999999999999998
    vertex 0.0 4.5 0.0
    vertex -4.5 4.5 0.0
  endloop
endfacet
facet normal -0.0 1.0 -0.0
  outer loop
    vertex 0.0 4.5 0.0
    vertex -4.5 4.5 14.999999999999998
    vertex 0.0 4.5 14.999999999999998
  endloop
endfacet
facet normal 0.8660254037844386 -0.5000000000000001 0.0
  outer loop
    vertex -2.208364779650318 1.2750000000000004 0.0
    vertex -2.463110857037124 0.6599885650114284 14.999999999999998
    vertex -2.463110857037124 0.6599885650114284 0.0
  endloop
endfacet
facet normal 0.9659258262890682 -0.2588190451025209 0.0
  outer loop
    vertex -2.463110857037124 0.6599885650114284 14.999999999999998
    vertex -2.208364779650318 1.2750000000000004 0.0
    vertex -2.208364779650318 1.2750000000000004 14.999999999999998
  endloop
endfacet
endsolid Robin-Z-Endstop
