solid Robin-Extruder-Mount
facet normal 0.4999999999999997 0.0 0.8660254037844389
  outer loop
    vertex 2.2250000000000014 0.0 1.2916352203496813
    vertex 1.696877707974305 20.0 1.6968777079743038
    vertex 1.696877707974305 0.0 1.6968777079743038
  endloop
endfacet
facet normal 0.7071067811865474 0.0 0.7071067811865477
  outer loop
    vertex 1.696877707974305 20.0 1.6968777079743038
    vertex 2.2250000000000014 0.0 1.2916352203496813
    vertex 2.2250000000000014 20.0 1.2916352203496813
  endloop
endfacet
facet normal 1.0 -2.7624440676505406e-16 0.0
  outer loop
    vertex 6.400000000000001 10.0 1.4099832412739487e-15
    vertex 6.4885928516484235 9.327070482733443 3.5
    vertex 6.4885928516484235 9.327070482733443 1.4099832412739487e-15
  endloop
endfacet
facet normal 0.9659258262890681 0.25881904510252146 0.0
  outer loop
    vertex 6.4885928516484235 9.327070482733443 3.5
    vertex 6.400000000000001 10.0 1.4099832412739487e-15
    vertex 6.400000000000001 10.0 3.5
  endloop
endfacet
facet normal -1.0 1.3366664843470358e-16 0.0
  outer loop
    vertex 30.908447287575914 10.0 3.5
    vertex 30.819854435927493 9.327070482733447 1.4099832412739487e-15
    vertex 30.819854435927493 9.327070482733447 3.5
  endloop
endfacet
facet normal -0.9659258262890684 0.2588190451025204 0.0
  outer loop
    vertex 30.819854435927493 9.327070482733447 1.4099832412739487e-15
    vertex 30.908447287575914 10.0 3.5
    vertex 30.908447287575914 10.0 1.4099832412739487e-15
  endloop
endfacet
facet normal 0.5000000000000003 -0.8660254037844386 0.0
  outer loop
    vertex 27.008447287575915 12.251666049839539 3.5
    vertex 26.469969656490896 11.838477631085023 1.4099832412739487e-15
    vertex 27.008447287575915 12.251666049839539 1.4099832412739487e-15
  endloop
endfacet
facet normal 0.7071067811865479 -0.7071067811865471 0.0
  outer loop
    vertex 26.469969656490896 11.838477631085023 1.4099832412739487e-15
    vertex 27.008447287575915 12.251666049839539 3.5
    vertex 26.469969656490896 11.838477631085023 3.5
  endloop
endfacet
facet normal -0.8660254037844386 0.0 0.5000000000000002
  outer loop
    vertex 25.016812067226237 20.0 2.225
    vertex 24.611569579601614 0.0 1.696877707974304
    vertex 25.016812067226237 0.0 2.225
  endloop
endfacet
facet normal -0.7071067811865478 0.0 0.7071067811865472
  outer loop
    vertex 24.611569579601614 0.0 1.696877707974304
    vertex 25.016812067226237 20.0 2.225
    vertex 24.611569579601614 20.0 1.696877707974304
  endloop
endfacet
facet normal -0.9914448613738105 0.0 0.13052619222005088
  outer loop
    vertex 25.358447287575917 20.0 3.5
    vertex 25.271558144613042 0.0 2.840011434988572
    vertex 25.358447287575917 0.0 3.5
  endloop
endfacet
facet normal -0.9659258262890682 0.0 0.2588190451025209
  outer loop
    vertex 25.271558144613042 0.0 2.840011434988572
    vertex 25.358447287575917 20.0 3.5
    vertex 25.271558144613042 20.0 2.840011434988572
  endloop
endfacet
facet normal -0.25881904510252074 0.0 0.9659258262890682
  outer loop
    vertex 23.468435852587348 0.0 1.0368891429628764
    vertex 22.80844728757592 20.0 0.9500000000000004
    vertex 22.80844728757592 0.0 0.9500000000000004
  endloop
endfacet
facet normal -1.9604441770423192e-16 0.0 1.0
  outer loop
    vertex 22.80844728757592 20.0 0.9500000000000004
    vertex 23.468435852587348 0.0 1.0368891429628764
    vertex 23.468435852587348 20.0 1.0368891429628764
  endloop
endfacet
facet normal 0.0 0.0 -1.0
  outer loop
    vertex 19.308447287575916 20.0 0.0
    vertex 26.056781237736377 11.299999999999997 1.4099832412739487e-15
    vertex 19.308447287575916 0.0 0.0
  endloop
endfacet
facet normal 0.0 0.0 -1.0
  outer loop
    vertex 26.056781237736377 11.299999999999997 1.4099832412739487e-15
    vertex 19.308447287575916 20.0 0.0
    vertex 26.469969656490896 11.838477631085023 1.4099832412739487e-15
  endloop
endfacet
facet normal 0.0 0.0 -1.0
  outer loop
    vertex 26.469969656490896 11.838477631085023 1.4099832412739487e-15
    vertex 19.308447287575916 20.0 0.0
    vertex 27.008447287575915 12.251666049839539 1.4099832412739487e-15
  endloop
endfacet
facet normal 0.0 0.0 -1.0
  outer loop
    vertex 27.008447287575915 12.251666049839539 1.4099832412739487e-15
    vertex 19.308447287575916 20.0 0.0
    vertex 37.308447287575916 20.0 0.0
  endloop
endfacet
facet normal 0.0 0.0 -1.0
  outer loop
    vertex 19.308447287575916 0.0 0.0
    vertex 26.056781237736377 11.299999999999997 1.4099832412739487e-15
    vertex 25.79704013922434 10.672929517266553 1.4099832412739487e-15
  endloop
endfacet
facet normal 0.0 0.0 -1.0
  outer loop
    vertex 19.308447287575916 0.0 0.0
    vertex 25.79704013922434 10.672929517266553 1.4099832412739487e-15
    vertex 25.70844728757592 10.0 1.4099832412739487e-15
  endloop
endfacet
facet normal 0.0 0.0 -1.0
  outer loop
    vertex 27.008447287575915 12.251666049839539 1.4099832412739487e-15
    vertex 37.308447287575916 20.0 0.0
    vertex 27.63551777030936 12.511407148351577 1.4099832412739487e-15
  endloop
endfacet
facet normal 0.0 0.0 -1.0
  outer loop
    vertex 27.63551777030936 12.511407148351577 1.4099832412739487e-15
    vertex 37.308447287575916 20.0 0.0
    vertex 28.30844728757592 12.6 1.4099832412739487e-15
  endloop
endfacet
facet normal 0.0 0.0 -1.0
  outer loop
    vertex 28.30844728757592 12.6 1.4099832412739487e-15
    vertex 37.308447287575916 20.0 0.0
    vertex 28.98137680484247 12.511407148351577 1.4099832412739487e-15
  endloop
endfacet
facet normal 0.0 0.0 -1.0
  outer loop
    vertex 28.98137680484247 12.511407148351577 1.4099832412739487e-15
    vertex 37.308447287575916 20.0 0.0
    vertex 29.608447287575917 12.251666049839539 1.4099832412739487e-15
  endloop
endfacet
facet normal 0.0 0.0 -1.0
  outer loop
    vertex 29.608447287575917 12.251666049839539 1.4099832412739487e-15
    vertex 37.308447287575916 20.0 0.0
    vertex 30.14692491866094 11.838477631085023 1.4099832412739487e-15
  endloop
endfacet
facet normal 0.0 0.0 -1.0
  outer loop
    vertex 30.14692491866094 11.838477631085023 1.4099832412739487e-15
    vertex 37.308447287575916 20.0 0.0
    vertex 30.56011333741546 11.3 1.4099832412739487e-15
  endloop
endfacet
facet normal 0.0 0.0 -1.0
  outer loop
    vertex 30.56011333741546 11.3 1.4099832412739487e-15
    vertex 37.308447287575916 20.0 0.0
    vertex 30.819854435927493 10.672929517266555 1.4099832412739487e-15
  endloop
endfacet
facet normal 0.0 0.0 -1.0
  outer loop
    vertex 30.819854435927493 10.672929517266555 1.4099832412739487e-15
    vertex 37.308447287575916 20.0 0.0
    vertex 30.908447287575914 10.0 1.4099832412739487e-15
  endloop
endfacet
facet normal 0.0 0.0 -1.0
  outer loop
    vertex 19.308447287575916 0.0 0.0
    vertex 27.008447287575915 7.748333950160461 1.4099832412739487e-15
    vertex 37.308447287575916 0.0 0.0
  endloop
endfacet
facet normal 0.0 0.0 -1.0
  outer loop
    vertex 27.008447287575915 7.748333950160461 1.4099832412739487e-15
    vertex 19.308447287575916 0.0 0.0
    vertex 26.469969656490896 8.161522368914977 1.4099832412739487e-15
  endloop
endfacet
facet normal 0.0 0.0 -1.0
  outer loop
    vertex 26.469969656490896 8.161522368914977 1.4099832412739487e-15
    vertex 19.308447287575916 0.0 0.0
    vertex 26.056781237736377 8.7 1.4099832412739487e-15
  endloop
endfacet
facet normal 0.0 0.0 -1.0
  outer loop
    vertex 26.056781237736377 8.7 1.4099832412739487e-15
    vertex 19.308447287575916 0.0 0.0
    vertex 25.79704013922434 9.327070482733443 1.4099832412739487e-15
  endloop
endfacet
facet normal 0.0 0.0 -1.0
  outer loop
    vertex 25.79704013922434 9.327070482733443 1.4099832412739487e-15
    vertex 19.308447287575916 0.0 0.0
    vertex 25.70844728757592 10.0 1.4099832412739487e-15
  endloop
endfacet
facet normal 0.0 0.0 -1.0
  outer loop
    vertex 37.308447287575916 0.0 0.0
    vertex 27.008447287575915 7.748333950160461 1.4099832412739487e-15
    vertex 27.635517770309363 7.4885928516484235 1.4099832412739487e-15
  endloop
endfacet
facet normal 0.0 0.0 -1.0
  outer loop
    vertex 37.308447287575916 0.0 0.0
    vertex 27.635517770309363 7.4885928516484235 1.4099832412739487e-15
    vertex 28.30844728757592 7.4 1.4099832412739487e-15
  endloop
endfacet
facet normal 0.0 0.0 -1.0
  outer loop
    vertex 37.308447287575916 0.0 0.0
    vertex 28.30844728757592 7.4 1.4099832412739487e-15
    vertex 28.981376804842473 7.4885928516484235 1.4099832412739487e-15
  endloop
endfacet
facet normal 0.0 0.0 -1.0
  outer loop
    vertex 37.308447287575916 0.0 0.0
    vertex 28.981376804842473 7.4885928516484235 1.4099832412739487e-15
    vertex 29.608447287575917 7.748333950160461 1.4099832412739487e-15
  endloop
endfacet
facet normal 0.0 0.0 -1.0
  outer loop
    vertex 37.308447287575916 0.0 0.0
    vertex 29.608447287575917 7.748333950160461 1.4099832412739487e-15
    vertex 30.14692491866094 8.161522368914977 1.4099832412739487e-15
  endloop
endfacet
facet normal 0.0 0.0 -1.0
  outer loop
    vertex 37.308447287575916 0.0 0.0
    vertex 30.14692491866094 8.161522368914977 1.4099832412739487e-15
    vertex 30.56011333741546 8.700000000000001 1.4099832412739487e-15
  endloop
endfacet
facet normal 0.0 0.0 -1.0
  outer loop
    vertex 37.308447287575916 0.0 0.0
    vertex 30.56011333741546 8.700000000000001 1.4099832412739487e-15
    vertex 30.819854435927493 9.327070482733447 1.4099832412739487e-15
  endloop
endfacet
facet normal 0.0 0.0 -1.0
  outer loop
    vertex 37.308447287575916 0.0 0.0
    vertex 30.819854435927493 9.327070482733447 1.4099832412739487e-15
    vertex 30.908447287575914 10.0 1.4099832412739487e-15
  endloop
endfacet
facet normal 0.0 0.0 -1.0
  outer loop
    vertex 37.308447287575916 0.0 0.0
    vertex 30.908447287575914 10.0 1.4099832412739487e-15
    vertex 37.308447287575916 20.0 0.0
  endloop
endfacet
facet normal -2.7624440676505406e-16 -1.0 0.0
  outer loop
    vertex 9.0 12.6 3.5
    vertex 8.327070482733445 12.511407148351577 1.4099832412739487e-15
    vertex 9.0 12.6 1.4099832412739487e-15
  endloop
endfacet
facet normal 0.25881904510252146 -0.9659258262890681 0.0
  outer loop
    vertex 8.327070482733445 12.511407148351577 1.4099832412739487e-15
    vertex 9.0 12.6 3.5
    vertex 8.327070482733445 12.511407148351577 3.5
  endloop
endfacet
facet normal -0.49999999999999944 -0.8660254037844392 0.0
  outer loop
    vertex 10.299999999999999 12.251666049839539 3.5
    vertex 9.672929517266553 12.511407148351577 1.4099832412739487e-15
    vertex 10.299999999999999 12.251666049839539 1.4099832412739487e-15
  endloop
endfacet
facet normal -0.25881904510252135 -0.9659258262890682 0.0
  outer loop
    vertex 9.672929517266553 12.511407148351577 1.4099832412739487e-15
    vertex 10.299999999999999 12.251666049839539 3.5
    vertex 9.672929517266553 12.511407148351577 3.5
  endloop
endfacet
facet normal 0.25881904510252146 -0.9659258262890681 0.0
  outer loop
    vertex 8.327070482733445 12.511407148351577 3.5
    vertex 7.7 12.251666049839539 1.4099832412739487e-15
    vertex 8.327070482733445 12.511407148351577 1.4099832412739487e-15
  endloop
endfacet
facet normal 0.5000000000000003 -0.8660254037844386 0.0
  outer loop
    vertex 7.7 12.251666049839539 1.4099832412739487e-15
    vertex 8.327070482733445 12.511407148351577 3.5
    vertex 7.7 12.251666049839539 3.5
  endloop
endfacet
facet normal -0.7071067811865466 -0.7071067811865486 0.0
  outer loop
    vertex 10.838477631085023 11.838477631085023 3.5
    vertex 11.25166604983954 11.3 1.4099832412739487e-15
    vertex 11.25166604983954 11.3 3.5
  endloop
endfacet
facet normal -0.8660254037844387 -0.4999999999999999 0.0
  outer loop
    vertex 11.25166604983954 11.3 1.4099832412739487e-15
    vertex 10.838477631085023 11.838477631085023 3.5
    vertex 10.838477631085023 11.838477631085023 1.4099832412739487e-15
  endloop
endfacet
facet normal -0.9659258262890684 0.2588190451025204 0.0
  outer loop
    vertex 30.819854435927493 9.327070482733447 3.5
    vertex 30.56011333741546 8.700000000000001 1.4099832412739487e-15
    vertex 30.56011333741546 8.700000000000001 3.5
  endloop
endfacet
facet normal -0.8660254037844389 0.4999999999999994 0.0
  outer loop
    vertex 30.56011333741546 8.700000000000001 1.4099832412739487e-15
    vertex 30.819854435927493 9.327070482733447 3.5
    vertex 30.819854435927493 9.327070482733447 1.4099832412739487e-15
  endloop
endfacet
facet normal -0.8660254037844387 -0.4999999999999999 0.0
  outer loop
    vertex 30.56011333741546 11.3 3.5
    vertex 30.819854435927493 10.672929517266555 1.4099832412739487e-15
    vertex 30.819854435927493 10.672929517266555 3.5
  endloop
endfacet
facet normal -0.9659258262890684 -0.2588190451025203 0.0
  outer loop
    vertex 30.819854435927493 10.672929517266555 1.4099832412739487e-15
    vertex 30.56011333741546 11.3 3.5
    vertex 30.56011333741546 11.3 1.4099832412739487e-15
  endloop
endfacet
facet normal -0.5000000000000001 0.0 0.8660254037844385
  outer loop
    vertex 35.083447287575915 0.0 1.2916352203496806
    vertex 34.46843585258735 20.0 1.036889142962875
    vertex 34.46843585258735 0.0 1.036889142962875
  endloop
endfacet
facet normal -0.25881904510252074 0.0 0.9659258262890682
  outer loop
    vertex 34.46843585258735 20.0 1.036889142962875
    vertex 35.083447287575915 0.0 1.2916352203496806
    vertex 35.083447287575915 20.0 1.2916352203496806
  endloop
endfacet
facet normal -2.6733329686940717e-16 0.0 1.0
  outer loop
    vertex 14.500000000000002 0.0 0.949999999999999
    vertex 13.840011434988574 20.0 1.0368891429628748
    vertex 13.840011434988574 0.0 1.0368891429628748
  endloop
endfacet
facet normal 0.2588190451025205 0.0 0.9659258262890684
  outer loop
    vertex 13.840011434988574 20.0 1.0368891429628748
    vertex 14.500000000000002 0.0 0.949999999999999
    vertex 14.500000000000002 20.0 0.949999999999999
  endloop
endfacet
facet normal 0.25881904510252135 0.9659258262890682 0.0
  outer loop
    vertex 27.635517770309363 7.4885928516484235 3.5
    vertex 28.30844728757592 7.4 1.4099832412739487e-15
    vertex 27.635517770309363 7.4885928516484235 1.4099832412739487e-15
  endloop
endfacet
facet normal 1.3366664843470358e-16 1.0 0.0
  outer loop
    vertex 28.30844728757592 7.4 1.4099832412739487e-15
    vertex 27.635517770309363 7.4885928516484235 3.5
    vertex 28.30844728757592 7.4 3.5
  endloop
endfacet
facet normal -0.9659258262890682 0.0 0.2588190451025209
  outer loop
    vertex 25.271558144613042 20.0 2.840011434988572
    vertex 25.016812067226237 0.0 2.225
    vertex 25.271558144613042 0.0 2.840011434988572
  endloop
endfacet
facet normal -0.8660254037844386 0.0 0.5000000000000002
  outer loop
    vertex 25.016812067226237 0.0 2.225
    vertex 25.271558144613042 20.0 2.840011434988572
    vertex 25.016812067226237 20.0 2.225
  endloop
endfacet
facet normal 0.9659258262890682 -0.25881904510252074 0.0
  outer loop
    vertex 6.4885928516484235 10.672929517266553 1.4099832412739487e-15
    vertex 6.400000000000001 10.0 3.5
    vertex 6.400000000000001 10.0 1.4099832412739487e-15
  endloop
endfacet
facet normal 1.0 -2.7624440676505406e-16 0.0
  outer loop
    vertex 6.400000000000001 10.0 3.5
    vertex 6.4885928516484235 10.672929517266553 1.4099832412739487e-15
    vertex 6.4885928516484235 10.672929517266553 3.5
  endloop
endfacet
facet normal -0.7071067811865466 -0.7071067811865486 0.0
  outer loop
    vertex 30.14692491866094 11.838477631085023 3.5
    vertex 30.56011333741546 11.3 1.4099832412739487e-15
    vertex 30.56011333741546 11.3 3.5
  endloop
endfacet
facet normal -0.8660254037844387 -0.4999999999999999 0.0
  outer loop
    vertex 30.56011333741546 11.3 1.4099832412739487e-15
    vertex 30.14692491866094 11.838477631085023 3.5
    vertex 30.14692491866094 11.838477631085023 1.4099832412739487e-15
  endloop
endfacet
facet normal -0.49999999999999944 -0.8660254037844392 0.0
  outer loop
    vertex 29.608447287575917 12.251666049839539 3.5
    vertex 28.98137680484247 12.511407148351577 1.4099832412739487e-15
    vertex 29.608447287575917 12.251666049839539 1.4099832412739487e-15
  endloop
endfacet
facet normal -0.25881904510252135 -0.9659258262890682 0.0
  outer loop
    vertex 28.98137680484247 12.511407148351577 1.4099832412739487e-15
    vertex 29.608447287575917 12.251666049839539 3.5
    vertex 28.98137680484247 12.511407148351577 3.5
  endloop
endfacet
facet normal -0.8660254037844387 -0.4999999999999999 0.0
  outer loop
    vertex 11.25166604983954 11.3 3.5
    vertex 11.511407148351577 10.672929517266555 1.4099832412739487e-15
    vertex 11.511407148351577 10.672929517266555 3.5
  endloop
endfacet
facet normal -0.9659258262890684 -0.2588190451025203 0.0
  outer loop
    vertex 11.511407148351577 10.672929517266555 1.4099832412739487e-15
    vertex 11.25166604983954 11.3 3.5
    vertex 11.25166604983954 11.3 1.4099832412739487e-15
  endloop
endfacet
facet normal -0.5 0.8660254037844388 0.0
  outer loop
    vertex 10.3 7.748333950160461 3.5
    vertex 10.838477631085023 8.161522368914977 1.4099832412739487e-15
    vertex 10.3 7.748333950160461 1.4099832412739487e-15
  endloop
endfacet
facet normal -0.7071067811865475 0.7071067811865477 0.0
  outer loop
    vertex 10.838477631085023 8.161522368914977 1.4099832412739487e-15
    vertex 10.3 7.748333950160461 3.5
    vertex 10.838477631085023 8.161522368914977 3.5
  endloop
endfacet
facet normal 0.5000000000000002 0.0 0.8660254037844385
  outer loop
    vertex 13.225000000000001 0.0 1.2916352203496804
    vertex 12.696877707974306 20.0 1.6968777079743032
    vertex 12.696877707974306 0.0 1.6968777079743032
  endloop
endfacet
facet normal 0.707106781186548 0.0 0.707106781186547
  outer loop
    vertex 12.696877707974306 20.0 1.6968777079743032
    vertex 13.225000000000001 0.0 1.2916352203496804
    vertex 13.225000000000001 20.0 1.2916352203496804
  endloop
endfacet
facet normal -1.9604441770423192e-16 0.0 1.0
  outer loop
    vertex 22.80844728757592 0.0 0.9500000000000004
    vertex 22.14845872256449 20.0 1.0368891429628762
    vertex 22.14845872256449 0.0 1.0368891429628762
  endloop
endfacet
facet normal 0.2588190451025205 0.0 0.9659258262890683
  outer loop
    vertex 22.14845872256449 20.0 1.0368891429628762
    vertex 22.80844728757592 0.0 0.9500000000000004
    vertex 22.80844728757592 20.0 0.9500000000000004
  endloop
endfacet
facet normal 1.0 0.0 0.0
  outer loop
    vertex 37.308447287575916 20.0 0.0
    vertex 37.308447287575916 0.0 3.5
    vertex 37.308447287575916 0.0 0.0
  endloop
endfacet
facet normal 1.0 0.0 0.0
  outer loop
    vertex 37.308447287575916 0.0 3.5
    vertex 37.308447287575916 20.0 0.0
    vertex 37.308447287575916 20.0 3.5
  endloop
endfacet
facet normal -2.4951107707811333e-16 0.0 1.0
  outer loop
    vertex 33.80844728757592 0.0 0.949999999999999
    vertex 33.14845872256449 20.0 1.0368891429628748
    vertex 33.14845872256449 0.0 1.0368891429628748
  endloop
endfacet
facet normal 0.2588190451025205 0.0 0.9659258262890683
  outer loop
    vertex 33.14845872256449 20.0 1.0368891429628748
    vertex 33.80844728757592 0.0 0.949999999999999
    vertex 33.80844728757592 20.0 0.949999999999999
  endloop
endfacet
facet normal -0.25881904510252135 -0.9659258262890682 0.0
  outer loop
    vertex 28.98137680484247 12.511407148351577 3.5
    vertex 28.30844728757592 12.6 1.4099832412739487e-15
    vertex 28.98137680484247 12.511407148351577 1.4099832412739487e-15
  endloop
endfacet
facet normal -2.7624440676505406e-16 -1.0 0.0
  outer loop
    vertex 28.30844728757592 12.6 1.4099832412739487e-15
    vertex 28.98137680484247 12.511407148351577 3.5
    vertex 28.30844728757592 12.6 3.5
  endloop
endfacet
facet normal 1.3366664843470358e-16 1.0 0.0
  outer loop
    vertex 28.30844728757592 7.4 3.5
    vertex 28.981376804842473 7.4885928516484235 1.4099832412739487e-15
    vertex 28.30844728757592 7.4 1.4099832412739487e-15
  endloop
endfacet
facet normal -0.2588190451025212 0.9659258262890682 0.0
  outer loop
    vertex 28.981376804842473 7.4885928516484235 1.4099832412739487e-15
    vertex 28.30844728757592 7.4 3.5
    vertex 28.981376804842473 7.4885928516484235 3.5
  endloop
endfacet
facet normal -0.25881904510252135 -0.9659258262890682 0.0
  outer loop
    vertex 9.672929517266553 12.511407148351577 3.5
    vertex 9.0 12.6 1.4099832412739487e-15
    vertex 9.672929517266553 12.511407148351577 1.4099832412739487e-15
  endloop
endfacet
facet normal -2.7624440676505406e-16 -1.0 0.0
  outer loop
    vertex 9.0 12.6 1.4099832412739487e-15
    vertex 9.672929517266553 12.511407148351577 3.5
    vertex 9.0 12.6 3.5
  endloop
endfacet
facet normal -2.7624440676505406e-16 -1.0 0.0
  outer loop
    vertex 28.30844728757592 12.6 3.5
    vertex 27.63551777030936 12.511407148351577 1.4099832412739487e-15
    vertex 28.30844728757592 12.6 1.4099832412739487e-15
  endloop
endfacet
facet normal 0.25881904510252146 -0.9659258262890681 0.0
  outer loop
    vertex 27.63551777030936 12.511407148351577 1.4099832412739487e-15
    vertex 28.30844728757592 12.6 3.5
    vertex 27.63551777030936 12.511407148351577 3.5
  endloop
endfacet
facet normal -0.5 0.8660254037844388 0.0
  outer loop
    vertex 29.608447287575917 7.748333950160461 3.5
    vertex 30.14692491866094 8.161522368914977 1.4099832412739487e-15
    vertex 29.608447287575917 7.748333950160461 1.4099832412739487e-15
  endloop
endfacet
facet normal -0.7071067811865475 0.7071067811865477 0.0
  outer loop
    vertex 30.14692491866094 8.161522368914977 1.4099832412739487e-15
    vertex 29.608447287575917 7.748333950160461 3.5
    vertex 30.14692491866094 8.161522368914977 3.5
  endloop
endfacet
facet normal -0.5 0.0 0.8660254037844387
  outer loop
    vertex 24.083447287575915 0.0 1.291635220349682
    vertex 23.468435852587348 20.0 1.0368891429628764
    vertex 23.468435852587348 0.0 1.0368891429628764
  endloop
endfacet
facet normal -0.25881904510252074 0.0 0.9659258262890682
  outer loop
    vertex 23.468435852587348 20.0 1.0368891429628764
    vertex 24.083447287575915 0.0 1.291635220349682
    vertex 24.083447287575915 20.0 1.291635220349682
  endloop
endfacet
facet normal 0.25881904510252146 -0.9659258262890681 0.0
  outer loop
    vertex 27.63551777030936 12.511407148351577 3.5
    vertex 27.008447287575915 12.251666049839539 1.4099832412739487e-15
    vertex 27.63551777030936 12.511407148351577 1.4099832412739487e-15
  endloop
endfacet
facet normal 0.5000000000000003 -0.8660254037844386 0.0
  outer loop
    vertex 27.008447287575915 12.251666049839539 1.4099832412739487e-15
    vertex 27.63551777030936 12.511407148351577 3.5
    vertex 27.008447287575915 12.251666049839539 3.5
  endloop
endfacet
facet normal -1.0 1.3366664843470358e-16 0.0
  outer loop
    vertex 11.6 10.0 3.5
    vertex 11.511407148351577 9.327070482733447 1.4099832412739487e-15
    vertex 11.511407148351577 9.327070482733447 3.5
  endloop
endfacet
facet normal -0.9659258262890684 0.2588190451025204 0.0
  outer loop
    vertex 11.511407148351577 9.327070482733447 1.4099832412739487e-15
    vertex 11.6 10.0 3.5
    vertex 11.6 10.0 1.4099832412739487e-15
  endloop
endfacet
facet normal -0.9914448613738103 0.0 0.13052619222005302
  outer loop
    vertex 36.35844728757591 20.0 3.5
    vertex 36.271558144613046 0.0 2.840011434988572
    vertex 36.35844728757591 0.0 3.5
  endloop
endfacet
facet normal -0.965925826289068 0.0 0.25881904510252174
  outer loop
    vertex 36.271558144613046 0.0 2.840011434988572
    vertex 36.35844728757591 20.0 3.5
    vertex 36.271558144613046 20.0 2.840011434988572
  endloop
endfacet
facet normal -0.0 1.0 -0.0
  outer loop
    vertex 0.0 20.0 0.0
    vertex 3.5000000000000004 20.0 0.9500000000000004
    vertex 18.0 20.0 0.0
  endloop
endfacet
facet normal -0.0 1.0 -0.0
  outer loop
    vertex 3.5000000000000004 20.0 0.9500000000000004
    vertex 0.0 20.0 0.0
    vertex 2.8400114349885732 20.0 1.0368891429628762
  endloop
endfacet
facet normal -0.0 1.0 -0.0
  outer loop
    vertex 2.8400114349885732 20.0 1.0368891429628762
    vertex 0.0 20.0 0.0
    vertex 2.2250000000000014 20.0 1.2916352203496813
  endloop
endfacet
facet normal -0.0 1.0 -0.0
  outer loop
    vertex 2.2250000000000014 20.0 1.2916352203496813
    vertex 0.0 20.0 0.0
    vertex 1.696877707974305 20.0 1.6968777079743038
  endloop
endfacet
facet normal -0.0 1.0 -0.0
  outer loop
    vertex 1.696877707974305 20.0 1.6968777079743038
    vertex 0.0 20.0 0.0
    vertex 0.0 20.0 3.5
  endloop
endfacet
facet normal -0.0 1.0 -0.0
  outer loop
    vertex 18.0 20.0 0.0
    vertex 3.5000000000000004 20.0 0.9500000000000004
    vertex 14.500000000000002 20.0 0.949999999999999
  endloop
endfacet
facet normal -0.0 1.0 -0.0
  outer loop
    vertex 1.696877707974305 20.0 1.6968777079743038
    vertex 0.0 20.0 3.5
    vertex 1.2916352203496828 20.0 2.2249999999999996
  endloop
endfacet
facet normal -0.0 1.0 -0.0
  outer loop
    vertex 1.2916352203496828 20.0 2.2249999999999996
    vertex 0.0 20.0 3.5
    vertex 1.0368891429628773 20.0 2.8400114349885714
  endloop
endfacet
facet normal -0.0 1.0 -0.0
  outer loop
    vertex 1.0368891429628773 20.0 2.8400114349885714
    vertex 0.0 20.0 3.5
    vertex 0.9500000000000011 20.0 3.5
  endloop
endfacet
facet normal -0.0 1.0 -0.0
  outer loop
    vertex 3.5000000000000004 20.0 0.9500000000000004
    vertex 13.840011434988574 20.0 1.0368891429628748
    vertex 14.500000000000002 20.0 0.949999999999999
  endloop
endfacet
facet normal -0.0 1.0 -0.0
  outer loop
    vertex 13.840011434988574 20.0 1.0368891429628748
    vertex 3.5000000000000004 20.0 0.9500000000000004
    vertex 4.159988565011429 20.0 1.0368891429628764
  endloop
endfacet
facet normal -0.0 1.0 -0.0
  outer loop
    vertex 13.840011434988574 20.0 1.0368891429628748
    vertex 4.159988565011429 20.0 1.0368891429628764
    vertex 13.225000000000001 20.0 1.2916352203496804
  endloop
endfacet
facet normal -0.0 1.0 -0.0
  outer loop
    vertex 13.225000000000001 20.0 1.2916352203496804
    vertex 4.159988565011429 20.0 1.0368891429628764
    vertex 4.775000000000001 20.0 1.291635220349682
  endloop
endfacet
facet normal -0.0 1.0 -0.0
  outer loop
    vertex 13.225000000000001 20.0 1.2916352203496804
    vertex 4.775000000000001 20.0 1.291635220349682
    vertex 12.696877707974306 20.0 1.6968777079743032
  endloop
endfacet
facet normal -0.0 1.0 -0.0
  outer loop
    vertex 12.696877707974306 20.0 1.6968777079743032
    vertex 4.775000000000001 20.0 1.291635220349682
    vertex 5.303122292025697 20.0 1.696877707974304
  endloop
endfacet
facet normal -0.0 1.0 -0.0
  outer loop
    vertex 12.696877707974306 20.0 1.6968777079743032
    vertex 5.303122292025697 20.0 1.696877707974304
    vertex 12.291635220349685 20.0 2.2249999999999988
  endloop
endfacet
facet normal -0.0 1.0 -0.0
  outer loop
    vertex 12.291635220349685 20.0 2.2249999999999988
    vertex 5.303122292025697 20.0 1.696877707974304
    vertex 5.708364779650319 20.0 2.225
  endloop
endfacet
facet normal -0.0 1.0 -0.0
  outer loop
    vertex 12.291635220349685 20.0 2.2249999999999988
    vertex 5.708364779650319 20.0 2.225
    vertex 12.036889142962877 20.0 2.8400114349885714
  endloop
endfacet
facet normal -0.0 1.0 -0.0
  outer loop
    vertex 12.036889142962877 20.0 2.8400114349885714
    vertex 5.708364779650319 20.0 2.225
    vertex 5.963110857037125 20.0 2.840011434988572
  endloop
endfacet
facet normal -0.0 1.0 -0.0
  outer loop
    vertex 12.036889142962877 20.0 2.8400114349885714
    vertex 5.963110857037125 20.0 2.840011434988572
    vertex 11.950000000000001 20.0 3.5
  endloop
endfacet
facet normal -0.0 1.0 -0.0
  outer loop
    vertex 11.950000000000001 20.0 3.5
    vertex 5.963110857037125 20.0 2.840011434988572
    vertex 6.05 20.0 3.5
  endloop
endfacet
facet normal -0.0 1.0 -0.0
  outer loop
    vertex 18.0 20.0 0.0
    vertex 16.303122292025698 20.0 1.6968777079743032
    vertex 18.0 20.0 3.5
  endloop
endfacet
facet normal -0.0 1.0 -0.0
  outer loop
    vertex 16.303122292025698 20.0 1.6968777079743032
    vertex 18.0 20.0 0.0
    vertex 15.775000000000002 20.0 1.2916352203496806
  endloop
endfacet
facet normal -0.0 1.0 -0.0
  outer loop
    vertex 15.775000000000002 20.0 1.2916352203496806
    vertex 18.0 20.0 0.0
    vertex 15.15998856501143 20.0 1.036889142962875
  endloop
endfacet
facet normal -0.0 1.0 -0.0
  outer loop
    vertex 15.15998856501143 20.0 1.036889142962875
    vertex 18.0 20.0 0.0
    vertex 14.500000000000002 20.0 0.949999999999999
  endloop
endfacet
facet normal -0.0 1.0 -0.0
  outer loop
    vertex 18.0 20.0 3.5
    vertex 16.303122292025698 20.0 1.6968777079743032
    vertex 16.70836477965032 20.0 2.2249999999999996
  endloop
endfacet
facet normal -0.0 1.0 -0.0
  outer loop
    vertex 18.0 20.0 3.5
    vertex 16.70836477965032 20.0 2.2249999999999996
    vertex 16.963110857037126 20.0 2.840011434988572
  endloop
endfacet
facet normal -0.0 1.0 -0.0
  outer loop
    vertex 18.0 20.0 3.5
    vertex 16.963110857037126 20.0 2.840011434988572
    vertex 17.050000000000004 20.0 3.5
  endloop
endfacet
facet normal 0.0 0.0 1.0
  outer loop
    vertex 20.258447287575915 0.0 3.5
    vertex 19.308447287575916 20.0 3.5
    vertex 19.308447287575916 0.0 3.5
  endloop
endfacet
facet normal 0.0 0.0 1.0
  outer loop
    vertex 19.308447287575916 20.0 3.5
    vertex 20.258447287575915 0.0 3.5
    vertex 20.258447287575915 20.0 3.5
  endloop
endfacet
facet normal 0.4999999999999997 0.0 0.8660254037844389
  outer loop
    vertex 21.533447287575918 0.0 1.2916352203496813
    vertex 21.00532499555022 20.0 1.6968777079743038
    vertex 21.00532499555022 0.0 1.6968777079743038
  endloop
endfacet
facet normal 0.7071067811865474 0.0 0.7071067811865477
  outer loop
    vertex 21.00532499555022 20.0 1.6968777079743038
    vertex 21.533447287575918 0.0 1.2916352203496813
    vertex 21.533447287575918 20.0 1.2916352203496813
  endloop
endfacet
facet normal 0.9659258262890682 -0.25881904510252074 0.0
  outer loop
    vertex 25.79704013922434 10.672929517266553 1.4099832412739487e-15
    vertex 25.70844728757592 10.0 3.5
    vertex 25.70844728757592 10.0 1.4099832412739487e-15
  endloop
endfacet
facet normal 1.0 -2.7624440676505406e-16 0.0
  outer loop
    vertex 25.70844728757592 10.0 3.5
    vertex 25.79704013922434 10.672929517266553 1.4099832412739487e-15
    vertex 25.79704013922434 10.672929517266553 3.5
  endloop
endfacet
facet normal 0.2588190451025205 0.0 0.9659258262890683
  outer loop
    vertex 33.14845872256449 0.0 1.0368891429628748
    vertex 32.53344728757592 20.0 1.2916352203496804
    vertex 32.53344728757592 0.0 1.2916352203496804
  endloop
endfacet
facet normal 0.5000000000000002 0.0 0.8660254037844385
  outer loop
    vertex 32.53344728757592 20.0 1.2916352203496804
    vertex 33.14845872256449 0.0 1.0368891429628748
    vertex 33.14845872256449 20.0 1.0368891429628748
  endloop
endfacet
facet normal 0.965925826289068 0.0 0.2588190451025216
  outer loop
    vertex 12.036889142962877 20.0 2.8400114349885714
    vertex 11.950000000000001 0.0 3.5
    vertex 12.036889142962877 0.0 2.8400114349885714
  endloop
endfacet
facet normal 0.9914448613738103 -0.0 0.13052619222005282
  outer loop
    vertex 11.950000000000001 0.0 3.5
    vertex 12.036889142962877 20.0 2.8400114349885714
    vertex 11.950000000000001 20.0 3.5
  endloop
endfacet
facet normal -0.707106781186548 0.0 0.707106781186547
  outer loop
    vertex 35.611569579601614 0.0 1.6968777079743032
    vertex 35.083447287575915 20.0 1.2916352203496806
    vertex 35.083447287575915 0.0 1.2916352203496806
  endloop
endfacet
facet normal -0.5000000000000001 0.0 0.8660254037844385
  outer loop
    vertex 35.083447287575915 20.0 1.2916352203496806
    vertex 35.611569579601614 0.0 1.6968777079743032
    vertex 35.611569579601614 20.0 1.6968777079743032
  endloop
endfacet
facet normal -0.0 -0.0 1.0
  outer loop
    vertex 18.0 0.0 3.5
    vertex 17.050000000000004 20.0 3.5
    vertex 17.050000000000004 0.0 3.5
  endloop
endfacet
facet normal -0.0 -0.0 1.0
  outer loop
    vertex 17.050000000000004 20.0 3.5
    vertex 18.0 0.0 3.5
    vertex 18.0 20.0 3.5
  endloop
endfacet
facet normal 0.707106781186547 0.7071067811865481 0.0
  outer loop
    vertex 7.161522368914978 8.161522368914977 3.5
    vertex 7.700000000000001 7.748333950160461 1.4099832412739487e-15
    vertex 7.161522368914978 8.161522368914977 1.4099832412739487e-15
  endloop
endfacet
facet normal 0.5 0.8660254037844388 0.0
  outer loop
    vertex 7.700000000000001 7.748333950160461 1.4099832412739487e-15
    vertex 7.161522368914978 8.161522368914977 3.5
    vertex 7.700000000000001 7.748333950160461 3.5
  endloop
endfacet
facet normal 0.25881904510252135 0.9659258262890682 0.0
  outer loop
    vertex 8.327070482733447 7.4885928516484235 3.5
    vertex 9.0 7.4 1.4099832412739487e-15
    vertex 8.327070482733447 7.4885928516484235 1.4099832412739487e-15
  endloop
endfacet
facet normal 1.3366664843470358e-16 1.0 0.0
  outer loop
    vertex 9.0 7.4 1.4099832412739487e-15
    vertex 8.327070482733447 7.4885928516484235 3.5
    vertex 9.0 7.4 3.5
  endloop
endfacet
facet normal -0.9659258262890684 0.2588190451025204 0.0
  outer loop
    vertex 11.511407148351577 9.327070482733447 3.5
    vertex 11.25166604983954 8.700000000000001 1.4099832412739487e-15
    vertex 11.25166604983954 8.700000000000001 3.5
  endloop
endfacet
facet normal -0.8660254037844389 0.4999999999999994 0.0
  outer loop
    vertex 11.25166604983954 8.700000000000001 1.4099832412739487e-15
    vertex 11.511407148351577 9.327070482733447 3.5
    vertex 11.511407148351577 9.327070482733447 1.4099832412739487e-15
  endloop
endfacet
facet normal -0.965925826289068 0.0 0.25881904510252174
  outer loop
    vertex 36.271558144613046 20.0 2.840011434988572
    vertex 36.01681206722623 0.0 2.2249999999999996
    vertex 36.271558144613046 0.0 2.840011434988572
  endloop
endfacet
facet normal -0.8660254037844388 0.0 0.4999999999999999
  outer loop
    vertex 36.01681206722623 0.0 2.2249999999999996
    vertex 36.271558144613046 20.0 2.840011434988572
    vertex 36.01681206722623 20.0 2.2249999999999996
  endloop
endfacet
facet normal -0.9659258262890684 -0.2588190451025203 0.0
  outer loop
    vertex 30.819854435927493 10.672929517266555 3.5
    vertex 30.908447287575914 10.0 1.4099832412739487e-15
    vertex 30.908447287575914 10.0 3.5
  endloop
endfacet
facet normal -1.0 1.3366664843470358e-16 0.0
  outer loop
    vertex 30.908447287575914 10.0 1.4099832412739487e-15
    vertex 30.819854435927493 10.672929517266555 3.5
    vertex 30.819854435927493 10.672929517266555 1.4099832412739487e-15
  endloop
endfacet
facet normal 0.5 0.8660254037844388 0.0
  outer loop
    vertex 7.700000000000001 7.748333950160461 3.5
    vertex 8.327070482733447 7.4885928516484235 1.4099832412739487e-15
    vertex 7.700000000000001 7.748333950160461 1.4099832412739487e-15
  endloop
endfacet
facet normal 0.25881904510252135 0.9659258262890682 0.0
  outer loop
    vertex 8.327070482733447 7.4885928516484235 1.4099832412739487e-15
    vertex 7.700000000000001 7.748333950160461 3.5
    vertex 8.327070482733447 7.4885928516484235 3.5
  endloop
endfacet
facet normal -0.8660254037844389 0.4999999999999994 0.0
  outer loop
    vertex 11.25166604983954 8.700000000000001 3.5
    vertex 10.838477631085023 8.161522368914977 1.4099832412739487e-15
    vertex 10.838477631085023 8.161522368914977 3.5
  endloop
endfacet
facet normal -0.7071067811865475 0.7071067811865477 0.0
  outer loop
    vertex 10.838477631085023 8.161522368914977 1.4099832412739487e-15
    vertex 11.25166604983954 8.700000000000001 3.5
    vertex 11.25166604983954 8.700000000000001 1.4099832412739487e-15
  endloop
endfacet
facet normal 0.7071067811865474 0.0 0.7071067811865477
  outer loop
    vertex 21.00532499555022 20.0 1.6968777079743038
    vertex 20.6000825079256 0.0 2.2249999999999996
    vertex 21.00532499555022 0.0 1.6968777079743038
  endloop
endfacet
facet normal 0.8660254037844386 0.0 0.5000000000000001
  outer loop
    vertex 20.6000825079256 0.0 2.2249999999999996
    vertex 21.00532499555022 20.0 1.6968777079743038
    vertex 20.6000825079256 20.0 2.2249999999999996
  endloop
endfacet
facet normal -0.8660254037844388 0.0 0.4999999999999999
  outer loop
    vertex 36.01681206722623 20.0 2.2249999999999996
    vertex 35.611569579601614 0.0 1.6968777079743032
    vertex 36.01681206722623 0.0 2.2249999999999996
  endloop
endfacet
facet normal -0.707106781186548 0.0 0.707106781186547
  outer loop
    vertex 35.611569579601614 0.0 1.6968777079743032
    vertex 36.01681206722623 20.0 2.2249999999999996
    vertex 35.611569579601614 20.0 1.6968777079743032
  endloop
endfacet
facet normal -1.0 0.0 0.0
  outer loop
    vertex 19.308447287575916 20.0 3.5
    vertex 19.308447287575916 0.0 0.0
    vertex 19.308447287575916 0.0 3.5
  endloop
endfacet
facet normal -1.0 0.0 0.0
  outer loop
    vertex 19.308447287575916 0.0 0.0
    vertex 19.308447287575916 20.0 3.5
    vertex 19.308447287575916 20.0 0.0
  endloop
endfacet
facet normal -0.9659258262890683 0.0 0.25881904510252096
  outer loop
    vertex 5.963110857037125 20.0 2.840011434988572
    vertex 5.708364779650319 0.0 2.225
    vertex 5.963110857037125 0.0 2.840011434988572
  endloop
endfacet
facet normal -0.8660254037844386 0.0 0.5000000000000001
  outer loop
    vertex 5.708364779650319 0.0 2.225
    vertex 5.963110857037125 20.0 2.840011434988572
    vertex 5.708364779650319 20.0 2.225
  endloop
endfacet
facet normal 0.2588190451025205 0.0 0.9659258262890684
  outer loop
    vertex 13.840011434988574 0.0 1.0368891429628748
    vertex 13.225000000000001 20.0 1.2916352203496804
    vertex 13.225000000000001 0.0 1.2916352203496804
  endloop
endfacet
facet normal 0.5000000000000002 0.0 0.8660254037844385
  outer loop
    vertex 13.225000000000001 20.0 1.2916352203496804
    vertex 13.840011434988574 0.0 1.0368891429628748
    vertex 13.840011434988574 20.0 1.0368891429628748
  endloop
endfacet
facet normal 0.9659258262890681 0.25881904510252146 0.0
  outer loop
    vertex 6.4885928516484235 9.327070482733443 1.4099832412739487e-15
    vertex 6.748333950160461 8.7 3.5
    vertex 6.748333950160461 8.7 1.4099832412739487e-15
  endloop
endfacet
facet normal 0.866025403784438 0.500000000000001 0.0
  outer loop
    vertex 6.748333950160461 8.7 3.5
    vertex 6.4885928516484235 9.327070482733443 1.4099832412739487e-15
    vertex 6.4885928516484235 9.327070482733443 3.5
  endloop
endfacet
facet normal -0.25881904510252074 0.0 0.9659258262890682
  outer loop
    vertex 34.46843585258735 0.0 1.036889142962875
    vertex 33.80844728757592 20.0 0.949999999999999
    vertex 33.80844728757592 0.0 0.949999999999999
  endloop
endfacet
facet normal -2.4951107707811333e-16 0.0 1.0
  outer loop
    vertex 33.80844728757592 20.0 0.949999999999999
    vertex 34.46843585258735 0.0 1.036889142962875
    vertex 34.46843585258735 20.0 1.036889142962875
  endloop
endfacet
facet normal 0.0 -1.0 0.0
  outer loop
    vertex 37.308447287575916 0.0 0.0
    vertex 33.80844728757592 0.0 0.949999999999999
    vertex 19.308447287575916 0.0 0.0
  endloop
endfacet
facet normal 0.0 -1.0 0.0
  outer loop
    vertex 33.80844728757592 0.0 0.949999999999999
    vertex 37.308447287575916 0.0 0.0
    vertex 34.46843585258735 0.0 1.036889142962875
  endloop
endfacet
facet normal 0.0 -1.0 0.0
  outer loop
    vertex 34.46843585258735 0.0 1.036889142962875
    vertex 37.308447287575916 0.0 0.0
    vertex 35.083447287575915 0.0 1.2916352203496806
  endloop
endfacet
facet normal 0.0 -1.0 0.0
  outer loop
    vertex 35.083447287575915 0.0 1.2916352203496806
    vertex 37.308447287575916 0.0 0.0
    vertex 35.611569579601614 0.0 1.6968777079743032
  endloop
endfacet
facet normal 0.0 -1.0 0.0
  outer loop
    vertex 35.611569579601614 0.0 1.6968777079743032
    vertex 37.308447287575916 0.0 0.0
    vertex 37.308447287575916 0.0 3.5
  endloop
endfacet
facet normal 0.0 -1.0 0.0
  outer loop
    vertex 35.611569579601614 0.0 1.6968777079743032
    vertex 37.308447287575916 0.0 3.5
    vertex 36.01681206722623 0.0 2.2249999999999996
  endloop
endfacet
facet normal 0.0 -1.0 0.0
  outer loop
    vertex 36.01681206722623 0.0 2.2249999999999996
    vertex 37.308447287575916 0.0 3.5
    vertex 36.271558144613046 0.0 2.840011434988572
  endloop
endfacet
facet normal 0.0 -1.0 0.0
  outer loop
    vertex 36.271558144613046 0.0 2.840011434988572
    vertex 37.308447287575916 0.0 3.5
    vertex 36.35844728757591 0.0 3.5
  endloop
endfacet
facet normal 0.0 -1.0 0.0
  outer loop
    vertex 33.14845872256449 0.0 1.0368891429628748
    vertex 22.80844728757592 0.0 0.9500000000000004
    vertex 33.80844728757592 0.0 0.949999999999999
  endloop
endfacet
facet normal 0.0 -1.0 0.0
  outer loop
    vertex 22.80844728757592 0.0 0.9500000000000004
    vertex 33.14845872256449 0.0 1.0368891429628748
    vertex 23.468435852587348 0.0 1.0368891429628764
  endloop
endfacet
facet normal 0.0 -1.0 0.0
  outer loop
    vertex 23.468435852587348 0.0 1.0368891429628764
    vertex 33.14845872256449 0.0 1.0368891429628748
    vertex 32.53344728757592 0.0 1.2916352203496804
  endloop
endfacet
facet normal 0.0 -1.0 0.0
  outer loop
    vertex 23.468435852587348 0.0 1.0368891429628764
    vertex 32.53344728757592 0.0 1.2916352203496804
    vertex 24.083447287575915 0.0 1.291635220349682
  endloop
endfacet
facet normal 0.0 -1.0 0.0
  outer loop
    vertex 24.083447287575915 0.0 1.291635220349682
    vertex 32.53344728757592 0.0 1.2916352203496804
    vertex 32.005324995550225 0.0 1.6968777079743032
  endloop
endfacet
facet normal 0.0 -1.0 0.0
  outer loop
    vertex 24.083447287575915 0.0 1.291635220349682
    vertex 32.005324995550225 0.0 1.6968777079743032
    vertex 24.611569579601614 0.0 1.696877707974304
  endloop
endfacet
facet normal 0.0 -1.0 0.0
  outer loop
    vertex 24.611569579601614 0.0 1.696877707974304
    vertex 32.005324995550225 0.0 1.6968777079743032
    vertex 31.600082507925595 0.0 2.2249999999999988
  endloop
endfacet
facet normal 0.0 -1.0 0.0
  outer loop
    vertex 24.611569579601614 0.0 1.696877707974304
    vertex 31.600082507925595 0.0 2.2249999999999988
    vertex 25.016812067226237 0.0 2.225
  endloop
endfacet
facet normal 0.0 -1.0 0.0
  outer loop
    vertex 25.016812067226237 0.0 2.225
    vertex 31.600082507925595 0.0 2.2249999999999988
    vertex 31.345336430538797 0.0 2.8400114349885714
  endloop
endfacet
facet normal 0.0 -1.0 0.0
  outer loop
    vertex 25.016812067226237 0.0 2.225
    vertex 31.345336430538797 0.0 2.8400114349885714
    vertex 25.271558144613042 0.0 2.840011434988572
  endloop
endfacet
facet normal 0.0 -1.0 0.0
  outer loop
    vertex 25.271558144613042 0.0 2.840011434988572
    vertex 31.345336430538797 0.0 2.8400114349885714
    vertex 31.258447287575915 0.0 3.5
  endloop
endfacet
facet normal 0.0 -1.0 0.0
  outer loop
    vertex 25.271558144613042 0.0 2.840011434988572
    vertex 31.258447287575915 0.0 3.5
    vertex 25.358447287575917 0.0 3.5
  endloop
endfacet
facet normal 0.0 -1.0 0.0
  outer loop
    vertex 19.308447287575916 0.0 0.0
    vertex 21.00532499555022 0.0 1.6968777079743038
    vertex 19.308447287575916 0.0 3.5
  endloop
endfacet
facet normal 0.0 -1.0 0.0
  outer loop
    vertex 21.00532499555022 0.0 1.6968777079743038
    vertex 19.308447287575916 0.0 0.0
    vertex 21.533447287575918 0.0 1.2916352203496813
  endloop
endfacet
facet normal 0.0 -1.0 0.0
  outer loop
    vertex 21.533447287575918 0.0 1.2916352203496813
    vertex 19.308447287575916 0.0 0.0
    vertex 22.14845872256449 0.0 1.0368891429628762
  endloop
endfacet
facet normal 0.0 -1.0 0.0
  outer loop
    vertex 22.14845872256449 0.0 1.0368891429628762
    vertex 19.308447287575916 0.0 0.0
    vertex 22.80844728757592 0.0 0.9500000000000004
  endloop
endfacet
facet normal 0.0 -1.0 0.0
  outer loop
    vertex 22.80844728757592 0.0 0.9500000000000004
    vertex 19.308447287575916 0.0 0.0
    vertex 33.80844728757592 0.0 0.949999999999999
  endloop
endfacet
facet normal 0.0 -1.0 0.0
  outer loop
    vertex 19.308447287575916 0.0 3.5
    vertex 21.00532499555022 0.0 1.6968777079743038
    vertex 20.6000825079256 0.0 2.2249999999999996
  endloop
endfacet
facet normal 0.0 -1.0 0.0
  outer loop
    vertex 19.308447287575916 0.0 3.5
    vertex 20.6000825079256 0.0 2.2249999999999996
    vertex 20.345336430538794 0.0 2.8400114349885714
  endloop
endfacet
facet normal 0.0 -1.0 0.0
  outer loop
    vertex 19.308447287575916 0.0 3.5
    vertex 20.345336430538794 0.0 2.8400114349885714
    vertex 20.258447287575915 0.0 3.5
  endloop
endfacet
facet normal 0.0 0.0 -1.0
  outer loop
    vertex 0.0 20.0 0.0
    vertex 6.748333950160459 11.299999999999997 1.4099832412739487e-15
    vertex 0.0 0.0 0.0
  endloop
endfacet
facet normal 0.0 0.0 -1.0
  outer loop
    vertex 6.748333950160459 11.299999999999997 1.4099832412739487e-15
    vertex 0.0 20.0 0.0
    vertex 7.161522368914977 11.838477631085023 1.4099832412739487e-15
  endloop
endfacet
facet normal 0.0 0.0 -1.0
  outer loop
    vertex 7.161522368914977 11.838477631085023 1.4099832412739487e-15
    vertex 0.0 20.0 0.0
    vertex 7.7 12.251666049839539 1.4099832412739487e-15
  endloop
endfacet
facet normal 0.0 0.0 -1.0
  outer loop
    vertex 7.7 12.251666049839539 1.4099832412739487e-15
    vertex 0.0 20.0 0.0
    vertex 18.0 20.0 0.0
  endloop
endfacet
facet normal 0.0 0.0 -1.0
  outer loop
    vertex 0.0 0.0 0.0
    vertex 6.748333950160459 11.299999999999997 1.4099832412739487e-15
    vertex 6.4885928516484235 10.672929517266553 1.4099832412739487e-15
  endloop
endfacet
facet normal 0.0 0.0 -1.0
  outer loop
    vertex 0.0 0.0 0.0
    vertex 6.4885928516484235 10.672929517266553 1.4099832412739487e-15
    vertex 6.400000000000001 10.0 1.4099832412739487e-15
  endloop
endfacet
facet normal 0.0 0.0 -1.0
  outer loop
    vertex 7.7 12.251666049839539 1.4099832412739487e-15
    vertex 18.0 20.0 0.0
    vertex 8.327070482733445 12.511407148351577 1.4099832412739487e-15
  endloop
endfacet
facet normal 0.0 0.0 -1.0
  outer loop
    vertex 8.327070482733445 12.511407148351577 1.4099832412739487e-15
    vertex 18.0 20.0 0.0
    vertex 9.0 12.6 1.4099832412739487e-15
  endloop
endfacet
facet normal 0.0 0.0 -1.0
  outer loop
    vertex 9.0 12.6 1.4099832412739487e-15
    vertex 18.0 20.0 0.0
    vertex 9.672929517266553 12.511407148351577 1.4099832412739487e-15
  endloop
endfacet
facet normal 0.0 0.0 -1.0
  outer loop
    vertex 9.672929517266553 12.511407148351577 1.4099832412739487e-15
    vertex 18.0 20.0 0.0
    vertex 10.299999999999999 12.251666049839539 1.4099832412739487e-15
  endloop
endfacet
facet normal 0.0 0.0 -1.0
  outer loop
    vertex 10.299999999999999 12.251666049839539 1.4099832412739487e-15
    vertex 18.0 20.0 0.0
    vertex 10.838477631085023 11.838477631085023 1.4099832412739487e-15
  endloop
endfacet
facet normal 0.0 0.0 -1.0
  outer loop
    vertex 10.838477631085023 11.838477631085023 1.4099832412739487e-15
    vertex 18.0 20.0 0.0
    vertex 11.25166604983954 11.3 1.4099832412739487e-15
  endloop
endfacet
facet normal 0.0 0.0 -1.0
  outer loop
    vertex 11.25166604983954 11.3 1.4099832412739487e-15
    vertex 18.0 20.0 0.0
    vertex 11.511407148351577 10.672929517266555 1.4099832412739487e-15
  endloop
endfacet
facet normal 0.0 0.0 -1.0
  outer loop
    vertex 11.511407148351577 10.672929517266555 1.4099832412739487e-15
    vertex 18.0 20.0 0.0
    vertex 11.6 10.0 1.4099832412739487e-15
  endloop
endfacet
facet normal 0.0 0.0 -1.0
  outer loop
    vertex 0.0 0.0 0.0
    vertex 7.700000000000001 7.748333950160461 1.4099832412739487e-15
    vertex 18.0 0.0 0.0
  endloop
endfacet
facet normal 0.0 0.0 -1.0
  outer loop
    vertex 7.700000000000001 7.748333950160461 1.4099832412739487e-15
    vertex 0.0 0.0 0.0
    vertex 7.161522368914978 8.161522368914977 1.4099832412739487e-15
  endloop
endfacet
facet normal 0.0 0.0 -1.0
  outer loop
    vertex 7.161522368914978 8.161522368914977 1.4099832412739487e-15
    vertex 0.0 0.0 0.0
    vertex 6.748333950160461 8.7 1.4099832412739487e-15
  endloop
endfacet
facet normal 0.0 0.0 -1.0
  outer loop
    vertex 6.748333950160461 8.7 1.4099832412739487e-15
    vertex 0.0 0.0 0.0
    vertex 6.4885928516484235 9.327070482733443 1.4099832412739487e-15
  endloop
endfacet
facet normal 0.0 0.0 -1.0
  outer loop
    vertex 6.4885928516484235 9.327070482733443 1.4099832412739487e-15
    vertex 0.0 0.0 0.0
    vertex 6.400000000000001 10.0 1.4099832412739487e-15
  endloop
endfacet
facet normal 0.0 0.0 -1.0
  outer loop
    vertex 18.0 0.0 0.0
    vertex 7.700000000000001 7.748333950160461 1.4099832412739487e-15
    vertex 8.327070482733447 7.4885928516484235 1.4099832412739487e-15
  endloop
endfacet
facet normal 0.0 0.0 -1.0
  outer loop
    vertex 18.0 0.0 0.0
    vertex 8.327070482733447 7.4885928516484235 1.4099832412739487e-15
    vertex 9.0 7.4 1.4099832412739487e-15
  endloop
endfacet
facet normal 0.0 0.0 -1.0
  outer loop
    vertex 18.0 0.0 0.0
    vertex 9.0 7.4 1.4099832412739487e-15
    vertex 9.672929517266555 7.4885928516484235 1.4099832412739487e-15
  endloop
endfacet
facet normal 0.0 0.0 -1.0
  outer loop
    vertex 18.0 0.0 0.0
    vertex 9.672929517266555 7.4885928516484235 1.4099832412739487e-15
    vertex 10.3 7.748333950160461 1.4099832412739487e-15
  endloop
endfacet
facet normal 0.0 0.0 -1.0
  outer loop
    vertex 18.0 0.0 0.0
    vertex 10.3 7.748333950160461 1.4099832412739487e-15
    vertex 10.838477631085023 8.161522368914977 1.4099832412739487e-15
  endloop
endfacet
facet normal 0.0 0.0 -1.0
  outer loop
    vertex 18.0 0.0 0.0
    vertex 10.838477631085023 8.161522368914977 1.4099832412739487e-15
    vertex 11.25166604983954 8.700000000000001 1.4099832412739487e-15
  endloop
endfacet
facet normal 0.0 0.0 -1.0
  outer loop
    vertex 18.0 0.0 0.0
    vertex 11.25166604983954 8.700000000000001 1.4099832412739487e-15
    vertex 11.511407148351577 9.327070482733447 1.4099832412739487e-15
  endloop
endfacet
facet normal 0.0 0.0 -1.0
  outer loop
    vertex 18.0 0.0 0.0
    vertex 11.511407148351577 9.327070482733447 1.4099832412739487e-15
    vertex 11.6 10.0 1.4099832412739487e-15
  endloop
endfacet
facet normal 0.0 0.0 -1.0
  outer loop
    vertex 18.0 0.0 0.0
    vertex 11.6 10.0 1.4099832412739487e-15
    vertex 18.0 20.0 0.0
  endloop
endfacet
facet normal 0.866025403784438 0.500000000000001 0.0
  outer loop
    vertex 6.748333950160461 8.7 1.4099832412739487e-15
    vertex 7.161522368914978 8.161522368914977 3.5
    vertex 7.161522368914978 8.161522368914977 1.4099832412739487e-15
  endloop
endfacet
facet normal 0.707106781186547 0.7071067811865481 0.0
  outer loop
    vertex 7.161522368914978 8.161522368914977 3.5
    vertex 6.748333950160461 8.7 1.4099832412739487e-15
    vertex 6.748333950160461 8.7 3.5
  endloop
endfacet
facet normal 0.707106781186548 0.0 0.707106781186547
  outer loop
    vertex 12.696877707974306 20.0 1.6968777079743032
    vertex 12.291635220349685 0.0 2.2249999999999988
    vertex 12.696877707974306 0.0 1.6968777079743032
  endloop
endfacet
facet normal 0.8660254037844387 0.0 0.5000000000000001
  outer loop
    vertex 12.291635220349685 0.0 2.2249999999999988
    vertex 12.696877707974306 20.0 1.6968777079743032
    vertex 12.291635220349685 20.0 2.2249999999999988
  endloop
endfacet
facet normal 0.707106781186547 0.7071067811865481 0.0
  outer loop
    vertex 26.469969656490896 8.161522368914977 3.5
    vertex 27.008447287575915 7.748333950160461 1.4099832412739487e-15
    vertex 26.469969656490896 8.161522368914977 1.4099832412739487e-15
  endloop
endfacet
facet normal 0.5 0.8660254037844388 0.0
  outer loop
    vertex 27.008447287575915 7.748333950160461 1.4099832412739487e-15
    vertex 26.469969656490896 8.161522368914977 3.5
    vertex 27.008447287575915 7.748333950160461 3.5
  endloop
endfacet
facet normal -0.2588190451025212 0.9659258262890682 0.0
  outer loop
    vertex 28.981376804842473 7.4885928516484235 3.5
    vertex 29.608447287575917 7.748333950160461 1.4099832412739487e-15
    vertex 28.981376804842473 7.4885928516484235 1.4099832412739487e-15
  endloop
endfacet
facet normal -0.5 0.8660254037844388 0.0
  outer loop
    vertex 29.608447287575917 7.748333950160461 1.4099832412739487e-15
    vertex 28.981376804842473 7.4885928516484235 3.5
    vertex 29.608447287575917 7.748333950160461 3.5
  endloop
endfacet
facet normal -0.707106781186548 0.0 0.707106781186547
  outer loop
    vertex 16.303122292025698 0.0 1.6968777079743032
    vertex 15.775000000000002 20.0 1.2916352203496806
    vertex 15.775000000000002 0.0 1.2916352203496806
  endloop
endfacet
facet normal -0.5 0.0 0.8660254037844386
  outer loop
    vertex 15.775000000000002 20.0 1.2916352203496806
    vertex 16.303122292025698 0.0 1.6968777079743032
    vertex 16.303122292025698 20.0 1.6968777079743032
  endloop
endfacet
facet normal 0.9659258262890682 0.0 0.2588190451025209
  outer loop
    vertex 20.345336430538794 20.0 2.8400114349885714
    vertex 20.258447287575915 0.0 3.5
    vertex 20.345336430538794 0.0 2.8400114349885714
  endloop
endfacet
facet normal 0.9914448613738105 0.0 0.13052619222005177
  outer loop
    vertex 20.258447287575915 0.0 3.5
    vertex 20.345336430538794 20.0 2.8400114349885714
    vertex 20.258447287575915 20.0 3.5
  endloop
endfacet
facet normal 0.0 0.0 1.0
  outer loop
    vertex 25.358447287575917 0.0 3.5
    vertex 25.70844728757592 10.0 3.5
    vertex 25.358447287575917 20.0 3.5
  endloop
endfacet
facet normal 0.0 0.0 1.0
  outer loop
    vertex 25.70844728757592 10.0 3.5
    vertex 25.358447287575917 0.0 3.5
    vertex 25.79704013922434 9.327070482733443 3.5
  endloop
endfacet
facet normal 0.0 0.0 1.0
  outer loop
    vertex 25.79704013922434 9.327070482733443 3.5
    vertex 25.358447287575917 0.0 3.5
    vertex 26.056781237736377 8.7 3.5
  endloop
endfacet
facet normal 0.0 0.0 1.0
  outer loop
    vertex 26.056781237736377 8.7 3.5
    vertex 25.358447287575917 0.0 3.5
    vertex 31.258447287575915 0.0 3.5
  endloop
endfacet
facet normal 0.0 0.0 1.0
  outer loop
    vertex 26.056781237736377 8.7 3.5
    vertex 31.258447287575915 0.0 3.5
    vertex 26.469969656490896 8.161522368914977 3.5
  endloop
endfacet
facet normal 0.0 0.0 1.0
  outer loop
    vertex 26.469969656490896 8.161522368914977 3.5
    vertex 31.258447287575915 0.0 3.5
    vertex 27.008447287575915 7.748333950160461 3.5
  endloop
endfacet
facet normal 0.0 0.0 1.0
  outer loop
    vertex 27.008447287575915 7.748333950160461 3.5
    vertex 31.258447287575915 0.0 3.5
    vertex 27.635517770309363 7.4885928516484235 3.5
  endloop
endfacet
facet normal 0.0 0.0 1.0
  outer loop
    vertex 27.635517770309363 7.4885928516484235 3.5
    vertex 31.258447287575915 0.0 3.5
    vertex 28.30844728757592 7.4 3.5
  endloop
endfacet
facet normal 0.0 0.0 1.0
  outer loop
    vertex 28.30844728757592 7.4 3.5
    vertex 31.258447287575915 0.0 3.5
    vertex 28.981376804842473 7.4885928516484235 3.5
  endloop
endfacet
facet normal 0.0 0.0 1.0
  outer loop
    vertex 28.981376804842473 7.4885928516484235 3.5
    vertex 31.258447287575915 0.0 3.5
    vertex 29.608447287575917 7.748333950160461 3.5
  endloop
endfacet
facet normal 0.0 0.0 1.0
  outer loop
    vertex 29.608447287575917 7.748333950160461 3.5
    vertex 31.258447287575915 0.0 3.5
    vertex 30.14692491866094 8.161522368914977 3.5
  endloop
endfacet
facet normal 0.0 0.0 1.0
  outer loop
    vertex 30.14692491866094 8.161522368914977 3.5
    vertex 31.258447287575915 0.0 3.5
    vertex 30.56011333741546 8.700000000000001 3.5
  endloop
endfacet
facet normal 0.0 0.0 1.0
  outer loop
    vertex 30.56011333741546 8.700000000000001 3.5
    vertex 31.258447287575915 0.0 3.5
    vertex 30.819854435927493 9.327070482733447 3.5
  endloop
endfacet
facet normal 0.0 0.0 1.0
  outer loop
    vertex 30.819854435927493 9.327070482733447 3.5
    vertex 31.258447287575915 0.0 3.5
    vertex 30.908447287575914 10.0 3.5
  endloop
endfacet
facet normal 0.0 0.0 1.0
  outer loop
    vertex 25.358447287575917 20.0 3.5
    vertex 26.056781237736377 11.299999999999997 3.5
    vertex 31.258447287575915 20.0 3.5
  endloop
endfacet
facet normal 0.0 0.0 1.0
  outer loop
    vertex 26.056781237736377 11.299999999999997 3.5
    vertex 25.358447287575917 20.0 3.5
    vertex 25.79704013922434 10.672929517266553 3.5
  endloop
endfacet
facet normal 0.0 0.0 1.0
  outer loop
    vertex 25.79704013922434 10.672929517266553 3.5
    vertex 25.358447287575917 20.0 3.5
    vertex 25.70844728757592 10.0 3.5
  endloop
endfacet
facet normal 0.0 0.0 1.0
  outer loop
    vertex 31.258447287575915 20.0 3.5
    vertex 26.056781237736377 11.299999999999997 3.5
    vertex 26.469969656490896 11.838477631085023 3.5
  endloop
endfacet
facet normal 0.0 0.0 1.0
  outer loop
    vertex 31.258447287575915 20.0 3.5
    vertex 26.469969656490896 11.838477631085023 3.5
    vertex 27.008447287575915 12.251666049839539 3.5
  endloop
endfacet
facet normal 0.0 0.0 1.0
  outer loop
    vertex 31.258447287575915 20.0 3.5
    vertex 27.008447287575915 12.251666049839539 3.5
    vertex 27.63551777030936 12.511407148351577 3.5
  endloop
endfacet
facet normal 0.0 0.0 1.0
  outer loop
    vertex 31.258447287575915 20.0 3.5
    vertex 27.63551777030936 12.511407148351577 3.5
    vertex 28.30844728757592 12.6 3.5
  endloop
endfacet
facet normal 0.0 0.0 1.0
  outer loop
    vertex 31.258447287575915 20.0 3.5
    vertex 28.30844728757592 12.6 3.5
    vertex 28.98137680484247 12.511407148351577 3.5
  endloop
endfacet
facet normal 0.0 0.0 1.0
  outer loop
    vertex 31.258447287575915 20.0 3.5
    vertex 28.98137680484247 12.511407148351577 3.5
    vertex 29.608447287575917 12.251666049839539 3.5
  endloop
endfacet
facet normal 0.0 0.0 1.0
  outer loop
    vertex 31.258447287575915 20.0 3.5
    vertex 29.608447287575917 12.251666049839539 3.5
    vertex 30.14692491866094 11.838477631085023 3.5
  endloop
endfacet
facet normal 0.0 0.0 1.0
  outer loop
    vertex 31.258447287575915 20.0 3.5
    vertex 30.14692491866094 11.838477631085023 3.5
    vertex 30.56011333741546 11.3 3.5
  endloop
endfacet
facet normal 0.0 0.0 1.0
  outer loop
    vertex 31.258447287575915 20.0 3.5
    vertex 30.56011333741546 11.3 3.5
    vertex 30.819854435927493 10.672929517266555 3.5
  endloop
endfacet
facet normal 0.0 0.0 1.0
  outer loop
    vertex 31.258447287575915 20.0 3.5
    vertex 30.819854435927493 10.672929517266555 3.5
    vertex 30.908447287575914 10.0 3.5
  endloop
endfacet
facet normal 0.0 0.0 1.0
  outer loop
    vertex 31.258447287575915 20.0 3.5
    vertex 30.908447287575914 10.0 3.5
    vertex 31.258447287575915 0.0 3.5
  endloop
endfacet
facet normal 0.8660254037844386 0.0 0.5000000000000001
  outer loop
    vertex 20.6000825079256 20.0 2.2249999999999996
    vertex 20.345336430538794 0.0 2.8400114349885714
    vertex 20.6000825079256 0.0 2.2249999999999996
  endloop
endfacet
facet normal 0.9659258262890682 0.0 0.2588190451025209
  outer loop
    vertex 20.345336430538794 0.0 2.8400114349885714
    vertex 20.6000825079256 20.0 2.2249999999999996
    vertex 20.345336430538794 20.0 2.8400114349885714
  endloop
endfacet
facet normal 1.3366664843470358e-16 1.0 0.0
  outer loop
    vertex 9.0 7.4 3.5
    vertex 9.672929517266555 7.4885928516484235 1.4099832412739487e-15
    vertex 9.0 7.4 1.4099832412739487e-15
  endloop
endfacet
facet normal -0.2588190451025212 0.9659258262890682 0.0
  outer loop
    vertex 9.672929517266555 7.4885928516484235 1.4099832412739487e-15
    vertex 9.0 7.4 3.5
    vertex 9.672929517266555 7.4885928516484235 3.5
  endloop
endfacet
facet normal -0.9914448613738103 0.0 0.13052619222005302
  outer loop
    vertex 17.050000000000004 20.0 3.5
    vertex 16.963110857037126 0.0 2.840011434988572
    vertex 17.050000000000004 0.0 3.5
  endloop
endfacet
facet normal -0.965925826289068 0.0 0.25881904510252174
  outer loop
    vertex 16.963110857037126 0.0 2.840011434988572
    vertex 17.050000000000004 20.0 3.5
    vertex 16.963110857037126 20.0 2.840011434988572
  endloop
endfacet
facet normal 0.5000000000000002 0.0 0.8660254037844385
  outer loop
    vertex 32.53344728757592 0.0 1.2916352203496804
    vertex 32.005324995550225 20.0 1.6968777079743032
    vertex 32.005324995550225 0.0 1.6968777079743032
  endloop
endfacet
facet normal 0.707106781186548 0.0 0.707106781186547
  outer loop
    vertex 32.005324995550225 20.0 1.6968777079743032
    vertex 32.53344728757592 0.0 1.2916352203496804
    vertex 32.53344728757592 20.0 1.2916352203496804
  endloop
endfacet
facet normal 0.7071067811865479 -0.7071067811865471 0.0
  outer loop
    vertex 26.469969656490896 11.838477631085023 1.4099832412739487e-15
    vertex 26.056781237736377 11.299999999999997 3.5
    vertex 26.056781237736377 11.299999999999997 1.4099832412739487e-15
  endloop
endfacet
facet normal 0.8660254037844392 -0.49999999999999906 0.0
  outer loop
    vertex 26.056781237736377 11.299999999999997 3.5
    vertex 26.469969656490896 11.838477631085023 1.4099832412739487e-15
    vertex 26.469969656490896 11.838477631085023 3.5
  endloop
endfacet
facet normal 0.8660254037844392 -0.49999999999999906 0.0
  outer loop
    vertex 26.056781237736377 11.299999999999997 1.4099832412739487e-15
    vertex 25.79704013922434 10.672929517266553 3.5
    vertex 25.79704013922434 10.672929517266553 1.4099832412739487e-15
  endloop
endfacet
facet normal 0.9659258262890682 -0.25881904510252074 0.0
  outer loop
    vertex 25.79704013922434 10.672929517266553 3.5
    vertex 26.056781237736377 11.299999999999997 1.4099832412739487e-15
    vertex 26.056781237736377 11.299999999999997 3.5
  endloop
endfacet
facet normal 0.2588190451025205 0.0 0.9659258262890683
  outer loop
    vertex 2.8400114349885732 0.0 1.0368891429628762
    vertex 2.2250000000000014 20.0 1.2916352203496813
    vertex 2.2250000000000014 0.0 1.2916352203496813
  endloop
endfacet
facet normal 0.4999999999999997 0.0 0.8660254037844389
  outer loop
    vertex 2.2250000000000014 20.0 1.2916352203496813
    vertex 2.8400114349885732 0.0 1.0368891429628762
    vertex 2.8400114349885732 20.0 1.0368891429628762
  endloop
endfacet
facet normal -0.25881904510252074 0.0 0.9659258262890682
  outer loop
    vertex 4.159988565011429 0.0 1.0368891429628764
    vertex 3.5000000000000004 20.0 0.9500000000000004
    vertex 3.5000000000000004 0.0 0.9500000000000004
  endloop
endfacet
facet normal -1.9604441770423192e-16 0.0 1.0
  outer loop
    vertex 3.5000000000000004 20.0 0.9500000000000004
    vertex 4.159988565011429 0.0 1.0368891429628764
    vertex 4.159988565011429 20.0 1.0368891429628764
  endloop
endfacet
facet normal -0.9659258262890684 -0.2588190451025203 0.0
  outer loop
    vertex 11.511407148351577 10.672929517266555 3.5
    vertex 11.6 10.0 1.4099832412739487e-15
    vertex 11.6 10.0 3.5
  endloop
endfacet
facet normal -1.0 1.3366664843470358e-16 0.0
  outer loop
    vertex 11.6 10.0 1.4099832412739487e-15
    vertex 11.511407148351577 10.672929517266555 3.5
    vertex 11.511407148351577 10.672929517266555 1.4099832412739487e-15
  endloop
endfacet
facet normal 0.0 1.0 0.0
  outer loop
    vertex 19.308447287575916 20.0 0.0
    vertex 22.80844728757592 20.0 0.9500000000000004
    vertex 37.308447287575916 20.0 0.0
  endloop
endfacet
facet normal 0.0 1.0 0.0
  outer loop
    vertex 22.80844728757592 20.0 0.9500000000000004
    vertex 19.308447287575916 20.0 0.0
    vertex 22.14845872256449 20.0 1.0368891429628762
  endloop
endfacet
facet normal 0.0 1.0 0.0
  outer loop
    vertex 22.14845872256449 20.0 1.0368891429628762
    vertex 19.308447287575916 20.0 0.0
    vertex 21.533447287575918 20.0 1.2916352203496813
  endloop
endfacet
facet normal 0.0 1.0 0.0
  outer loop
    vertex 21.533447287575918 20.0 1.2916352203496813
    vertex 19.308447287575916 20.0 0.0
    vertex 21.00532499555022 20.0 1.6968777079743038
  endloop
endfacet
facet normal 0.0 1.0 0.0
  outer loop
    vertex 21.00532499555022 20.0 1.6968777079743038
    vertex 19.308447287575916 20.0 0.0
    vertex 19.308447287575916 20.0 3.5
  endloop
endfacet
facet normal 0.0 1.0 0.0
  outer loop
    vertex 37.308447287575916 20.0 0.0
    vertex 22.80844728757592 20.0 0.9500000000000004
    vertex 33.80844728757592 20.0 0.949999999999999
  endloop
endfacet
facet normal 0.0 1.0 0.0
  outer loop
    vertex 21.00532499555022 20.0 1.6968777079743038
    vertex 19.308447287575916 20.0 3.5
    vertex 20.6000825079256 20.0 2.2249999999999996
  endloop
endfacet
facet normal 0.0 1.0 0.0
  outer loop
    vertex 20.6000825079256 20.0 2.2249999999999996
    vertex 19.308447287575916 20.0 3.5
    vertex 20.345336430538794 20.0 2.8400114349885714
  endloop
endfacet
facet normal 0.0 1.0 0.0
  outer loop
    vertex 20.345336430538794 20.0 2.8400114349885714
    vertex 19.308447287575916 20.0 3.5
    vertex 20.258447287575915 20.0 3.5
  endloop
endfacet
facet normal 0.0 1.0 0.0
  outer loop
    vertex 22.80844728757592 20.0 0.9500000000000004
    vertex 33.14845872256449 20.0 1.0368891429628748
    vertex 33.80844728757592 20.0 0.949999999999999
  endloop
endfacet
facet normal 0.0 1.0 0.0
  outer loop
    vertex 33.14845872256449 20.0 1.0368891429628748
    vertex 22.80844728757592 20.0 0.9500000000000004
    vertex 23.468435852587348 20.0 1.0368891429628764
  endloop
endfacet
facet normal 0.0 1.0 0.0
  outer loop
    vertex 33.14845872256449 20.0 1.0368891429628748
    vertex 23.468435852587348 20.0 1.0368891429628764
    vertex 32.53344728757592 20.0 1.2916352203496804
  endloop
endfacet
facet normal 0.0 1.0 0.0
  outer loop
    vertex 32.53344728757592 20.0 1.2916352203496804
    vertex 23.468435852587348 20.0 1.0368891429628764
    vertex 24.083447287575915 20.0 1.291635220349682
  endloop
endfacet
facet normal 0.0 1.0 0.0
  outer loop
    vertex 32.53344728757592 20.0 1.2916352203496804
    vertex 24.083447287575915 20.0 1.291635220349682
    vertex 32.005324995550225 20.0 1.6968777079743032
  endloop
endfacet
facet normal 0.0 1.0 0.0
  outer loop
    vertex 32.005324995550225 20.0 1.6968777079743032
    vertex 24.083447287575915 20.0 1.291635220349682
    vertex 24.611569579601614 20.0 1.696877707974304
  endloop
endfacet
facet normal 0.0 1.0 0.0
  outer loop
    vertex 32.005324995550225 20.0 1.6968777079743032
    vertex 24.611569579601614 20.0 1.696877707974304
    vertex 31.600082507925595 20.0 2.2249999999999988
  endloop
endfacet
facet normal 0.0 1.0 0.0
  outer loop
    vertex 31.600082507925595 20.0 2.2249999999999988
    vertex 24.611569579601614 20.0 1.696877707974304
    vertex 25.016812067226237 20.0 2.225
  endloop
endfacet
facet normal 0.0 1.0 0.0
  outer loop
    vertex 31.600082507925595 20.0 2.2249999999999988
    vertex 25.016812067226237 20.0 2.225
    vertex 31.345336430538797 20.0 2.8400114349885714
  endloop
endfacet
facet normal 0.0 1.0 0.0
  outer loop
    vertex 31.345336430538797 20.0 2.8400114349885714
    vertex 25.016812067226237 20.0 2.225
    vertex 25.271558144613042 20.0 2.840011434988572
  endloop
endfacet
facet normal 0.0 1.0 0.0
  outer loop
    vertex 31.345336430538797 20.0 2.8400114349885714
    vertex 25.271558144613042 20.0 2.840011434988572
    vertex 31.258447287575915 20.0 3.5
  endloop
endfacet
facet normal 0.0 1.0 0.0
  outer loop
    vertex 31.258447287575915 20.0 3.5
    vertex 25.271558144613042 20.0 2.840011434988572
    vertex 25.358447287575917 20.0 3.5
  endloop
endfacet
facet normal 0.0 1.0 0.0
  outer loop
    vertex 37.308447287575916 20.0 0.0
    vertex 35.611569579601614 20.0 1.6968777079743032
    vertex 37.308447287575916 20.0 3.5
  endloop
endfacet
facet normal 0.0 1.0 0.0
  outer loop
    vertex 35.611569579601614 20.0 1.6968777079743032
    vertex 37.308447287575916 20.0 0.0
    vertex 35.083447287575915 20.0 1.2916352203496806
  endloop
endfacet
facet normal 0.0 1.0 0.0
  outer loop
    vertex 35.083447287575915 20.0 1.2916352203496806
    vertex 37.308447287575916 20.0 0.0
    vertex 34.46843585258735 20.0 1.036889142962875
  endloop
endfacet
facet normal 0.0 1.0 0.0
  outer loop
    vertex 34.46843585258735 20.0 1.036889142962875
    vertex 37.308447287575916 20.0 0.0
    vertex 33.80844728757592 20.0 0.949999999999999
  endloop
endfacet
facet normal 0.0 1.0 0.0
  outer loop
    vertex 37.308447287575916 20.0 3.5
    vertex 35.611569579601614 20.0 1.6968777079743032
    vertex 36.01681206722623 20.0 2.2249999999999996
  endloop
endfacet
facet normal 0.0 1.0 0.0
  outer loop
    vertex 37.308447287575916 20.0 3.5
    vertex 36.01681206722623 20.0 2.2249999999999996
    vertex 36.271558144613046 20.0 2.840011434988572
  endloop
endfacet
facet normal 0.0 1.0 0.0
  outer loop
    vertex 37.308447287575916 20.0 3.5
    vertex 36.271558144613046 20.0 2.840011434988572
    vertex 36.35844728757591 20.0 3.5
  endloop
endfacet
facet normal -0.25881904510252074 0.0 0.9659258262890682
  outer loop
    vertex 15.15998856501143 0.0 1.036889142962875
    vertex 14.500000000000002 20.0 0.949999999999999
    vertex 14.500000000000002 0.0 0.949999999999999
  endloop
endfacet
facet normal -2.6733329686940717e-16 0.0 1.0
  outer loop
    vertex 14.500000000000002 20.0 0.949999999999999
    vertex 15.15998856501143 0.0 1.036889142962875
    vertex 15.15998856501143 20.0 1.036889142962875
  endloop
endfacet
facet normal 0.9659258262890682 0.0 0.2588190451025208
  outer loop
    vertex 1.0368891429628773 20.0 2.8400114349885714
    vertex 0.9500000000000011 0.0 3.5
    vertex 1.0368891429628773 0.0 2.8400114349885714
  endloop
endfacet
facet normal 0.9914448613738105 -0.0 0.13052619222005177
  outer loop
    vertex 0.9500000000000011 0.0 3.5
    vertex 1.0368891429628773 20.0 2.8400114349885714
    vertex 0.9500000000000011 20.0 3.5
  endloop
endfacet
facet normal -0.9914448613738105 0.0 0.13052619222005088
  outer loop
    vertex 6.05 20.0 3.5
    vertex 5.963110857037125 0.0 2.840011434988572
    vertex 6.05 0.0 3.5
  endloop
endfacet
facet normal -0.9659258262890683 0.0 0.25881904510252096
  outer loop
    vertex 5.963110857037125 0.0 2.840011434988572
    vertex 6.05 20.0 3.5
    vertex 5.963110857037125 20.0 2.840011434988572
  endloop
endfacet
facet normal -1.9604441770423192e-16 0.0 1.0
  outer loop
    vertex 3.5000000000000004 0.0 0.9500000000000004
    vertex 2.8400114349885732 20.0 1.0368891429628762
    vertex 2.8400114349885732 0.0 1.0368891429628762
  endloop
endfacet
facet normal 0.2588190451025205 0.0 0.9659258262890683
  outer loop
    vertex 2.8400114349885732 20.0 1.0368891429628762
    vertex 3.5000000000000004 0.0 0.9500000000000004
    vertex 3.5000000000000004 20.0 0.9500000000000004
  endloop
endfacet
facet normal -0.0 -0.0 1.0
  outer loop
    vertex 6.05 0.0 3.5
    vertex 6.400000000000001 10.0 3.5
    vertex 6.05 20.0 3.5
  endloop
endfacet
facet normal -0.0 -0.0 1.0
  outer loop
    vertex 6.400000000000001 10.0 3.5
    vertex 6.05 0.0 3.5
    vertex 6.4885928516484235 9.327070482733443 3.5
  endloop
endfacet
facet normal -0.0 -0.0 1.0
  outer loop
    vertex 6.4885928516484235 9.327070482733443 3.5
    vertex 6.05 0.0 3.5
    vertex 6.748333950160461 8.7 3.5
  endloop
endfacet
facet normal -0.0 -0.0 1.0
  outer loop
    vertex 6.748333950160461 8.7 3.5
    vertex 6.05 0.0 3.5
    vertex 11.950000000000001 0.0 3.5
  endloop
endfacet
facet normal -0.0 -0.0 1.0
  outer loop
    vertex 6.748333950160461 8.7 3.5
    vertex 11.950000000000001 0.0 3.5
    vertex 7.161522368914978 8.161522368914977 3.5
  endloop
endfacet
facet normal -0.0 -0.0 1.0
  outer loop
    vertex 7.161522368914978 8.161522368914977 3.5
    vertex 11.950000000000001 0.0 3.5
    vertex 7.700000000000001 7.748333950160461 3.5
  endloop
endfacet
facet normal -0.0 -0.0 1.0
  outer loop
    vertex 7.700000000000001 7.748333950160461 3.5
    vertex 11.950000000000001 0.0 3.5
    vertex 8.327070482733447 7.4885928516484235 3.5
  endloop
endfacet
facet normal -0.0 -0.0 1.0
  outer loop
    vertex 8.327070482733447 7.4885928516484235 3.5
    vertex 11.950000000000001 0.0 3.5
    vertex 9.0 7.4 3.5
  endloop
endfacet
facet normal -0.0 -0.0 1.0
  outer loop
    vertex 9.0 7.4 3.5
    vertex 11.950000000000001 0.0 3.5
    vertex 9.672929517266555 7.4885928516484235 3.5
  endloop
endfacet
facet normal -0.0 -0.0 1.0
  outer loop
    vertex 9.672929517266555 7.4885928516484235 3.5
    vertex 11.950000000000001 0.0 3.5
    vertex 10.3 7.748333950160461 3.5
  endloop
endfacet
facet normal -0.0 -0.0 1.0
  outer loop
    vertex 10.3 7.748333950160461 3.5
    vertex 11.950000000000001 0.0 3.5
    vertex 10.838477631085023 8.161522368914977 3.5
  endloop
endfacet
facet normal -0.0 -0.0 1.0
  outer loop
    vertex 10.838477631085023 8.161522368914977 3.5
    vertex 11.950000000000001 0.0 3.5
    vertex 11.25166604983954 8.700000000000001 3.5
  endloop
endfacet
facet normal -0.0 -0.0 1.0
  outer loop
    vertex 11.25166604983954 8.700000000000001 3.5
    vertex 11.950000000000001 0.0 3.5
    vertex 11.511407148351577 9.327070482733447 3.5
  endloop
endfacet
facet normal -0.0 -0.0 1.0
  outer loop
    vertex 11.511407148351577 9.327070482733447 3.5
    vertex 11.950000000000001 0.0 3.5
    vertex 11.6 10.0 3.5
  endloop
endfacet
facet normal -0.0 -0.0 1.0
  outer loop
    vertex 6.05 20.0 3.5
    vertex 6.748333950160459 11.299999999999997 3.5
    vertex 11.950000000000001 20.0 3.5
  endloop
endfacet
facet normal -0.0 -0.0 1.0
  outer loop
    vertex 6.748333950160459 11.299999999999997 3.5
    vertex 6.05 20.0 3.5
    vertex 6.4885928516484235 10.672929517266553 3.5
  endloop
endfacet
facet normal -0.0 -0.0 1.0
  outer loop
    vertex 6.4885928516484235 10.672929517266553 3.5
    vertex 6.05 20.0 3.5
    vertex 6.400000000000001 10.0 3.5
  endloop
endfacet
facet normal -0.0 -0.0 1.0
  outer loop
    vertex 11.950000000000001 20.0 3.5
    vertex 6.748333950160459 11.299999999999997 3.5
    vertex 7.161522368914977 11.838477631085023 3.5
  endloop
endfacet
facet normal -0.0 -0.0 1.0
  outer loop
    vertex 11.950000000000001 20.0 3.5
    vertex 7.161522368914977 11.838477631085023 3.5
    vertex 7.7 12.251666049839539 3.5
  endloop
endfacet
facet normal -0.0 -0.0 1.0
  outer loop
    vertex 11.950000000000001 20.0 3.5
    vertex 7.7 12.251666049839539 3.5
    vertex 8.327070482733445 12.511407148351577 3.5
  endloop
endfacet
facet normal -0.0 -0.0 1.0
  outer loop
    vertex 11.950000000000001 20.0 3.5
    vertex 8.327070482733445 12.511407148351577 3.5
    vertex 9.0 12.6 3.5
  endloop
endfacet
facet normal -0.0 -0.0 1.0
  outer loop
    vertex 11.950000000000001 20.0 3.5
    vertex 9.0 12.6 3.5
    vertex 9.672929517266553 12.511407148351577 3.5
  endloop
endfacet
facet normal -0.0 -0.0 1.0
  outer loop
    vertex 11.950000000000001 20.0 3.5
    vertex 9.672929517266553 12.511407148351577 3.5
    vertex 10.299999999999999 12.251666049839539 3.5
  endloop
endfacet
facet normal -0.0 -0.0 1.0
  outer loop
    vertex 11.950000000000001 20.0 3.5
    vertex 10.299999999999999 12.251666049839539 3.5
    vertex 10.838477631085023 11.838477631085023 3.5
  endloop
endfacet
facet normal -0.0 -0.0 1.0
  outer loop
    vertex 11.950000000000001 20.0 3.5
    vertex 10.838477631085023 11.838477631085023 3.5
    vertex 11.25166604983954 11.3 3.5
  endloop
endfacet
facet normal -0.0 -0.0 1.0
  outer loop
    vertex 11.950000000000001 20.0 3.5
    vertex 11.25166604983954 11.3 3.5
    vertex 11.511407148351577 10.672929517266555 3.5
  endloop
endfacet
facet normal -0.0 -0.0 1.0
  outer loop
    vertex 11.950000000000001 20.0 3.5
    vertex 11.511407148351577 10.672929517266555 3.5
    vertex 11.6 10.0 3.5
  endloop
endfacet
facet normal -0.0 -0.0 1.0
  outer loop
    vertex 11.950000000000001 20.0 3.5
    vertex 11.6 10.0 3.5
    vertex 11.950000000000001 0.0 3.5
  endloop
endfacet
facet normal 0.0 0.0 1.0
  outer loop
    vertex 37.308447287575916 0.0 3.5
    vertex 36.35844728757591 20.0 3.5
    vertex 36.35844728757591 0.0 3.5
  endloop
endfacet
facet normal 0.0 0.0 1.0
  outer loop
    vertex 36.35844728757591 20.0 3.5
    vertex 37.308447287575916 0.0 3.5
    vertex 37.308447287575916 20.0 3.5
  endloop
endfacet
facet normal 0.866025403784438 0.500000000000001 0.0
  outer loop
    vertex 26.056781237736377 8.7 1.4099832412739487e-15
    vertex 26.469969656490896 8.161522368914977 3.5
    vertex 26.469969656490896 8.161522368914977 1.4099832412739487e-15
  endloop
endfacet
facet normal 0.707106781186547 0.7071067811865481 0.0
  outer loop
    vertex 26.469969656490896 8.161522368914977 3.5
    vertex 26.056781237736377 8.7 1.4099832412739487e-15
    vertex 26.056781237736377 8.7 3.5
  endloop
endfacet
facet normal 0.5 0.8660254037844388 0.0
  outer loop
    vertex 27.008447287575915 7.748333950160461 3.5
    vertex 27.635517770309363 7.4885928516484235 1.4099832412739487e-15
    vertex 27.008447287575915 7.748333950160461 1.4099832412739487e-15
  endloop
endfacet
facet normal 0.25881904510252135 0.9659258262890682 0.0
  outer loop
    vertex 27.635517770309363 7.4885928516484235 1.4099832412739487e-15
    vertex 27.008447287575915 7.748333950160461 3.5
    vertex 27.635517770309363 7.4885928516484235 3.5
  endloop
endfacet
facet normal -0.8660254037844389 0.4999999999999994 0.0
  outer loop
    vertex 30.56011333741546 8.700000000000001 3.5
    vertex 30.14692491866094 8.161522368914977 1.4099832412739487e-15
    vertex 30.14692491866094 8.161522368914977 3.5
  endloop
endfacet
facet normal -0.7071067811865475 0.7071067811865477 0.0
  outer loop
    vertex 30.14692491866094 8.161522368914977 1.4099832412739487e-15
    vertex 30.56011333741546 8.700000000000001 3.5
    vertex 30.56011333741546 8.700000000000001 1.4099832412739487e-15
  endloop
endfacet
facet normal 0.8660254037844387 0.0 0.5000000000000001
  outer loop
    vertex 12.291635220349685 20.0 2.2249999999999988
    vertex 12.036889142962877 0.0 2.8400114349885714
    vertex 12.291635220349685 0.0 2.2249999999999988
  endloop
endfacet
facet normal 0.965925826289068 0.0 0.2588190451025216
  outer loop
    vertex 12.036889142962877 0.0 2.8400114349885714
    vertex 12.291635220349685 20.0 2.2249999999999988
    vertex 12.036889142962877 20.0 2.8400114349885714
  endloop
endfacet
facet normal 1.0 -2.7624440676505406e-16 0.0
  outer loop
    vertex 25.70844728757592 10.0 1.4099832412739487e-15
    vertex 25.79704013922434 9.327070482733443 3.5
    vertex 25.79704013922434 9.327070482733443 1.4099832412739487e-15
  endloop
endfacet
facet normal 0.9659258262890681 0.25881904510252146 0.0
  outer loop
    vertex 25.79704013922434 9.327070482733443 3.5
    vertex 25.70844728757592 10.0 1.4099832412739487e-15
    vertex 25.70844728757592 10.0 3.5
  endloop
endfacet
facet normal -0.8660254037844386 0.0 0.5000000000000001
  outer loop
    vertex 5.708364779650319 20.0 2.225
    vertex 5.303122292025697 0.0 1.696877707974304
    vertex 5.708364779650319 0.0 2.225
  endloop
endfacet
facet normal -0.7071067811865478 0.0 0.7071067811865472
  outer loop
    vertex 5.303122292025697 0.0 1.696877707974304
    vertex 5.708364779650319 20.0 2.225
    vertex 5.303122292025697 20.0 1.696877707974304
  endloop
endfacet
facet normal 0.8660254037844386 0.0 0.5
  outer loop
    vertex 1.2916352203496828 20.0 2.2249999999999996
    vertex 1.0368891429628773 0.0 2.8400114349885714
    vertex 1.2916352203496828 0.0 2.2249999999999996
  endloop
endfacet
facet normal 0.9659258262890682 0.0 0.2588190451025208
  outer loop
    vertex 1.0368891429628773 0.0 2.8400114349885714
    vertex 1.2916352203496828 20.0 2.2249999999999996
    vertex 1.0368891429628773 20.0 2.8400114349885714
  endloop
endfacet
facet normal 0.7071067811865479 -0.7071067811865471 0.0
  outer loop
    vertex 7.161522368914977 11.838477631085023 1.4099832412739487e-15
    vertex 6.748333950160459 11.299999999999997 3.5
    vertex 6.748333950160459 11.299999999999997 1.4099832412739487e-15
  endloop
endfacet
facet normal 0.8660254037844392 -0.49999999999999906 0.0
  outer loop
    vertex 6.748333950160459 11.299999999999997 3.5
    vertex 7.161522368914977 11.838477631085023 1.4099832412739487e-15
    vertex 7.161522368914977 11.838477631085023 3.5
  endloop
endfacet
facet normal 0.2588190451025205 0.0 0.9659258262890683
  outer loop
    vertex 22.14845872256449 0.0 1.0368891429628762
    vertex 21.533447287575918 20.0 1.2916352203496813
    vertex 21.533447287575918 0.0 1.2916352203496813
  endloop
endfacet
facet normal 0.4999999999999997 0.0 0.8660254037844389
  outer loop
    vertex 21.533447287575918 20.0 1.2916352203496813
    vertex 22.14845872256449 0.0 1.0368891429628762
    vertex 22.14845872256449 20.0 1.0368891429628762
  endloop
endfacet
facet normal -0.7071067811865478 0.0 0.7071067811865472
  outer loop
    vertex 5.303122292025697 0.0 1.696877707974304
    vertex 4.775000000000001 20.0 1.291635220349682
    vertex 4.775000000000001 0.0 1.291635220349682
  endloop
endfacet
facet normal -0.5 0.0 0.8660254037844387
  outer loop
    vertex 4.775000000000001 20.0 1.291635220349682
    vertex 5.303122292025697 0.0 1.696877707974304
    vertex 5.303122292025697 20.0 1.696877707974304
  endloop
endfacet
facet normal 0.5000000000000003 -0.8660254037844386 0.0
  outer loop
    vertex 7.7 12.251666049839539 3.5
    vertex 7.161522368914977 11.838477631085023 1.4099832412739487e-15
    vertex 7.7 12.251666049839539 1.4099832412739487e-15
  endloop
endfacet
facet normal 0.7071067811865479 -0.7071067811865471 0.0
  outer loop
    vertex 7.161522368914977 11.838477631085023 1.4099832412739487e-15
    vertex 7.7 12.251666049839539 3.5
    vertex 7.161522368914977 11.838477631085023 3.5
  endloop
endfacet
facet normal -1.0 0.0 0.0
  outer loop
    vertex 0.0 20.0 3.5
    vertex 0.0 0.0 0.0
    vertex 0.0 0.0 3.5
  endloop
endfacet
facet normal -1.0 0.0 0.0
  outer loop
    vertex 0.0 0.0 0.0
    vertex 0.0 20.0 3.5
    vertex 0.0 20.0 0.0
  endloop
endfacet
facet normal -0.7071067811865466 -0.7071067811865486 0.0
  outer loop
    vertex 30.14692491866094 11.838477631085023 3.5
    vertex 29.608447287575917 12.251666049839539 1.4099832412739487e-15
    vertex 30.14692491866094 11.838477631085023 1.4099832412739487e-15
  endloop
endfacet
facet normal -0.49999999999999944 -0.8660254037844392 0.0
  outer loop
    vertex 29.608447287575917 12.251666049839539 1.4099832412739487e-15
    vertex 30.14692491866094 11.838477631085023 3.5
    vertex 29.608447287575917 12.251666049839539 3.5
  endloop
endfacet
facet normal 0.9659258262890681 0.25881904510252146 0.0
  outer loop
    vertex 25.79704013922434 9.327070482733443 1.4099832412739487e-15
    vertex 26.056781237736377 8.7 3.5
    vertex 26.056781237736377 8.7 1.4099832412739487e-15
  endloop
endfacet
facet normal 0.866025403784438 0.500000000000001 0.0
  outer loop
    vertex 26.056781237736377 8.7 3.5
    vertex 25.79704013922434 9.327070482733443 1.4099832412739487e-15
    vertex 25.79704013922434 9.327070482733443 3.5
  endloop
endfacet
facet normal 0.707106781186548 0.0 0.707106781186547
  outer loop
    vertex 32.005324995550225 20.0 1.6968777079743032
    vertex 31.600082507925595 0.0 2.2249999999999988
    vertex 32.005324995550225 0.0 1.6968777079743032
  endloop
endfacet
facet normal 0.8660254037844387 0.0 0.5000000000000001
  outer loop
    vertex 31.600082507925595 0.0 2.2249999999999988
    vertex 32.005324995550225 20.0 1.6968777079743032
    vertex 31.600082507925595 20.0 2.2249999999999988
  endloop
endfacet
facet normal 0.7071067811865474 0.0 0.7071067811865477
  outer loop
    vertex 1.696877707974305 20.0 1.6968777079743038
    vertex 1.2916352203496828 0.0 2.2249999999999996
    vertex 1.696877707974305 0.0 1.6968777079743038
  endloop
endfacet
facet normal 0.8660254037844386 0.0 0.5
  outer loop
    vertex 1.2916352203496828 0.0 2.2249999999999996
    vertex 1.696877707974305 20.0 1.6968777079743038
    vertex 1.2916352203496828 20.0 2.2249999999999996
  endloop
endfacet
facet normal -0.5 0.0 0.8660254037844387
  outer loop
    vertex 4.775000000000001 0.0 1.291635220349682
    vertex 4.159988565011429 20.0 1.0368891429628764
    vertex 4.159988565011429 0.0 1.0368891429628764
  endloop
endfacet
facet normal -0.25881904510252074 0.0 0.9659258262890682
  outer loop
    vertex 4.159988565011429 20.0 1.0368891429628764
    vertex 4.775000000000001 0.0 1.291635220349682
    vertex 4.775000000000001 20.0 1.291635220349682
  endloop
endfacet
facet normal -0.0 -0.0 1.0
  outer loop
    vertex 0.9500000000000011 0.0 3.5
    vertex 0.0 20.0 3.5
    vertex 0.0 0.0 3.5
  endloop
endfacet
facet normal -0.0 -0.0 1.0
  outer loop
    vertex 0.0 20.0 3.5
    vertex 0.9500000000000011 0.0 3.5
    vertex 0.9500000000000011 20.0 3.5
  endloop
endfacet
facet normal -0.8660254037844388 0.0 0.4999999999999999
  outer loop
    vertex 16.70836477965032 20.0 2.2249999999999996
    vertex 16.303122292025698 0.0 1.6968777079743032
    vertex 16.70836477965032 0.0 2.2249999999999996
  endloop
endfacet
facet normal -0.707106781186548 0.0 0.707106781186547
  outer loop
    vertex 16.303122292025698 0.0 1.6968777079743032
    vertex 16.70836477965032 20.0 2.2249999999999996
    vertex 16.303122292025698 20.0 1.6968777079743032
  endloop
endfacet
facet normal 0.0 -1.0 0.0
  outer loop
    vertex 18.0 0.0 0.0
    vertex 14.500000000000002 0.0 0.949999999999999
    vertex 0.0 0.0 0.0
  endloop
endfacet
facet normal 0.0 -1.0 0.0
  outer loop
    vertex 14.500000000000002 0.0 0.949999999999999
    vertex 18.0 0.0 0.0
    vertex 15.15998856501143 0.0 1.036889142962875
  endloop
endfacet
facet normal 0.0 -1.0 0.0
  outer loop
    vertex 15.15998856501143 0.0 1.036889142962875
    vertex 18.0 0.0 0.0
    vertex 15.775000000000002 0.0 1.2916352203496806
  endloop
endfacet
facet normal 0.0 -1.0 0.0
  outer loop
    vertex 15.775000000000002 0.0 1.2916352203496806
    vertex 18.0 0.0 0.0
    vertex 16.303122292025698 0.0 1.6968777079743032
  endloop
endfacet
facet normal 0.0 -1.0 0.0
  outer loop
    vertex 16.303122292025698 0.0 1.6968777079743032
    vertex 18.0 0.0 0.0
    vertex 18.0 0.0 3.5
  endloop
endfacet
facet normal 0.0 -1.0 0.0
  outer loop
    vertex 16.303122292025698 0.0 1.6968777079743032
    vertex 18.0 0.0 3.5
    vertex 16.70836477965032 0.0 2.2249999999999996
  endloop
endfacet
facet normal 0.0 -1.0 0.0
  outer loop
    vertex 16.70836477965032 0.0 2.2249999999999996
    vertex 18.0 0.0 3.5
    vertex 16.963110857037126 0.0 2.840011434988572
  endloop
endfacet
facet normal 0.0 -1.0 0.0
  outer loop
    vertex 16.963110857037126 0.0 2.840011434988572
    vertex 18.0 0.0 3.5
    vertex 17.050000000000004 0.0 3.5
  endloop
endfacet
facet normal 0.0 -1.0 0.0
  outer loop
    vertex 13.840011434988574 0.0 1.0368891429628748
    vertex 3.5000000000000004 0.0 0.9500000000000004
    vertex 14.500000000000002 0.0 0.949999999999999
  endloop
endfacet
facet normal 0.0 -1.0 0.0
  outer loop
    vertex 3.5000000000000004 0.0 0.9500000000000004
    vertex 13.840011434988574 0.0 1.0368891429628748
    vertex 4.159988565011429 0.0 1.0368891429628764
  endloop
endfacet
facet normal 0.0 -1.0 0.0
  outer loop
    vertex 4.159988565011429 0.0 1.0368891429628764
    vertex 13.840011434988574 0.0 1.0368891429628748
    vertex 13.225000000000001 0.0 1.2916352203496804
  endloop
endfacet
facet normal 0.0 -1.0 0.0
  outer loop
    vertex 4.159988565011429 0.0 1.0368891429628764
    vertex 13.225000000000001 0.0 1.2916352203496804
    vertex 4.775000000000001 0.0 1.291635220349682
  endloop
endfacet
facet normal 0.0 -1.0 0.0
  outer loop
    vertex 4.775000000000001 0.0 1.291635220349682
    vertex 13.225000000000001 0.0 1.2916352203496804
    vertex 12.696877707974306 0.0 1.6968777079743032
  endloop
endfacet
facet normal 0.0 -1.0 0.0
  outer loop
    vertex 4.775000000000001 0.0 1.291635220349682
    vertex 12.696877707974306 0.0 1.6968777079743032
    vertex 5.303122292025697 0.0 1.696877707974304
  endloop
endfacet
facet normal 0.0 -1.0 0.0
  outer loop
    vertex 5.303122292025697 0.0 1.696877707974304
    vertex 12.696877707974306 0.0 1.6968777079743032
    vertex 12.291635220349685 0.0 2.2249999999999988
  endloop
endfacet
facet normal 0.0 -1.0 0.0
  outer loop
    vertex 5.303122292025697 0.0 1.696877707974304
    vertex 12.291635220349685 0.0 2.2249999999999988
    vertex 5.708364779650319 0.0 2.225
  endloop
endfacet
facet normal 0.0 -1.0 0.0
  outer loop
    vertex 5.708364779650319 0.0 2.225
    vertex 12.291635220349685 0.0 2.2249999999999988
    vertex 12.036889142962877 0.0 2.8400114349885714
  endloop
endfacet
facet normal 0.0 -1.0 0.0
  outer loop
    vertex 5.708364779650319 0.0 2.225
    vertex 12.036889142962877 0.0 2.8400114349885714
    vertex 5.963110857037125 0.0 2.840011434988572
  endloop
endfacet
facet normal 0.0 -1.0 0.0
  outer loop
    vertex 5.963110857037125 0.0 2.840011434988572
    vertex 12.036889142962877 0.0 2.8400114349885714
    vertex 11.950000000000001 0.0 3.5
  endloop
endfacet
facet normal 0.0 -1.0 0.0
  outer loop
    vertex 5.963110857037125 0.0 2.840011434988572
    vertex 11.950000000000001 0.0 3.5
    vertex 6.05 0.0 3.5
  endloop
endfacet
facet normal 0.0 -1.0 0.0
  outer loop
    vertex 0.0 0.0 0.0
    vertex 1.696877707974305 0.0 1.6968777079743038
    vertex 0.0 0.0 3.5
  endloop
endfacet
facet normal 0.0 -1.0 0.0
  outer loop
    vertex 1.696877707974305 0.0 1.6968777079743038
    vertex 0.0 0.0 0.0
    vertex 2.2250000000000014 0.0 1.2916352203496813
  endloop
endfacet
facet normal 0.0 -1.0 0.0
  outer loop
    vertex 2.2250000000000014 0.0 1.2916352203496813
    vertex 0.0 0.0 0.0
    vertex 2.8400114349885732 0.0 1.0368891429628762
  endloop
endfacet
facet normal 0.0 -1.0 0.0
  outer loop
    vertex 2.8400114349885732 0.0 1.0368891429628762
    vertex 0.0 0.0 0.0
    vertex 3.5000000000000004 0.0 0.9500000000000004
  endloop
endfacet
facet normal 0.0 -1.0 0.0
  outer loop
    vertex 3.5000000000000004 0.0 0.9500000000000004
    vertex 0.0 0.0 0.0
    vertex 14.500000000000002 0.0 0.949999999999999
  endloop
endfacet
facet normal 0.0 -1.0 0.0
  outer loop
    vertex 0.0 0.0 3.5
    vertex 1.696877707974305 0.0 1.6968777079743038
    vertex 1.2916352203496828 0.0 2.2249999999999996
  endloop
endfacet
facet normal 0.0 -1.0 0.0
  outer loop
    vertex 0.0 0.0 3.5
    vertex 1.2916352203496828 0.0 2.2249999999999996
    vertex 1.0368891429628773 0.0 2.8400114349885714
  endloop
endfacet
facet normal 0.0 -1.0 0.0
  outer loop
    vertex 0.0 0.0 3.5
    vertex 1.0368891429628773 0.0 2.8400114349885714
    vertex 0.9500000000000011 0.0 3.5
  endloop
endfacet
facet normal 1.0 0.0 0.0
  outer loop
    vertex 18.0 20.0 0.0
    vertex 18.0 0.0 3.5
    vertex 18.0 0.0 0.0
  endloop
endfacet
facet normal 1.0 0.0 0.0
  outer loop
    vertex 18.0 0.0 3.5
    vertex 18.0 20.0 0.0
    vertex 18.0 20.0 3.5
  endloop
endfacet
facet normal 0.8660254037844387 0.0 0.5000000000000001
  outer loop
    vertex 31.600082507925595 20.0 2.2249999999999988
    vertex 31.345336430538797 0.0 2.8400114349885714
    vertex 31.600082507925595 0.0 2.2249999999999988
  endloop
endfacet
facet normal 0.965925826289068 0.0 0.2588190451025216
  outer loop
    vertex 31.345336430538797 0.0 2.8400114349885714
    vertex 31.600082507925595 20.0 2.2249999999999988
    vertex 31.345336430538797 20.0 2.8400114349885714
  endloop
endfacet
facet normal -0.965925826289068 0.0 0.25881904510252174
  outer loop
    vertex 16.963110857037126 20.0 2.840011434988572
    vertex 16.70836477965032 0.0 2.2249999999999996
    vertex 16.963110857037126 0.0 2.840011434988572
  endloop
endfacet
facet normal -0.8660254037844388 0.0 0.4999999999999999
  outer loop
    vertex 16.70836477965032 0.0 2.2249999999999996
    vertex 16.963110857037126 20.0 2.840011434988572
    vertex 16.70836477965032 20.0 2.2249999999999996
  endloop
endfacet
facet normal 0.8660254037844392 -0.49999999999999906 0.0
  outer loop
    vertex 6.748333950160459 11.299999999999997 1.4099832412739487e-15
    vertex 6.4885928516484235 10.672929517266553 3.5
    vertex 6.4885928516484235 10.672929517266553 1.4099832412739487e-15
  endloop
endfacet
facet normal 0.9659258262890682 -0.25881904510252074 0.0
  outer loop
    vertex 6.4885928516484235 10.672929517266553 3.5
    vertex 6.748333950160459 11.299999999999997 1.4099832412739487e-15
    vertex 6.748333950160459 11.299999999999997 3.5
  endloop
endfacet
facet normal -0.2588190451025212 0.9659258262890682 0.0
  outer loop
    vertex 9.672929517266555 7.4885928516484235 3.5
    vertex 10.3 7.748333950160461 1.4099832412739487e-15
    vertex 9.672929517266555 7.4885928516484235 1.4099832412739487e-15
  endloop
endfacet
facet normal -0.5 0.8660254037844388 0.0
  outer loop
    vertex 10.3 7.748333950160461 1.4099832412739487e-15
    vertex 9.672929517266555 7.4885928516484235 3.5
    vertex 10.3 7.748333950160461 3.5
  endloop
endfacet
facet normal -0.7071067811865466 -0.7071067811865486 0.0
  outer loop
    vertex 10.838477631085023 11.838477631085023 3.5
    vertex 10.299999999999999 12.251666049839539 1.4099832412739487e-15
    vertex 10.838477631085023 11.838477631085023 1.4099832412739487e-15
  endloop
endfacet
facet normal -0.49999999999999944 -0.8660254037844392 0.0
  outer loop
    vertex 10.299999999999999 12.251666049839539 1.4099832412739487e-15
    vertex 10.838477631085023 11.838477631085023 3.5
    vertex 10.299999999999999 12.251666049839539 3.5
  endloop
endfacet
facet normal 0.965925826289068 0.0 0.2588190451025216
  outer loop
    vertex 31.345336430538797 20.0 2.8400114349885714
    vertex 31.258447287575915 0.0 3.5
    vertex 31.345336430538797 0.0 2.8400114349885714
  endloop
endfacet
facet normal 0.9914448613738103 0.0 0.13052619222005282
  outer loop
    vertex 31.258447287575915 0.0 3.5
    vertex 31.345336430538797 20.0 2.8400114349885714
    vertex 31.258447287575915 20.0 3.5
  endloop
endfacet
facet normal -0.5 0.0 0.8660254037844386
  outer loop
    vertex 15.775000000000002 0.0 1.2916352203496806
    vertex 15.15998856501143 20.0 1.036889142962875
    vertex 15.15998856501143 0.0 1.036889142962875
  endloop
endfacet
facet normal -0.25881904510252074 0.0 0.9659258262890682
  outer loop
    vertex 15.15998856501143 20.0 1.036889142962875
    vertex 15.775000000000002 0.0 1.2916352203496806
    vertex 15.775000000000002 20.0 1.2916352203496806
  endloop
endfacet
facet normal -0.7071067811865478 0.0 0.7071067811865472
  outer loop
    vertex 24.611569579601614 0.0 1.696877707974304
    vertex 24.083447287575915 20.0 1.291635220349682
    vertex 24.083447287575915 0.0 1.291635220349682
  endloop
endfacet
facet normal -0.5 0.0 0.8660254037844387
  outer loop
    vertex 24.083447287575915 20.0 1.291635220349682
    vertex 24.611569579601614 0.0 1.696877707974304
    vertex 24.611569579601614 20.0 1.696877707974304
  endloop
endfacet
endsolid Robin-Extruder-Mount
