solid Robin-XY-Endstops
facet normal -0.0 1.0 0.0
  outer loop
    vertex 0.0 25.0 0.0
    vertex 25.0 25.0 -1.5
    vertex 0.0 25.0 -1.5
  endloop
endfacet
facet normal -0.0 1.0 0.0
  outer loop
    vertex 25.0 25.0 -1.5
    vertex 0.0 25.0 0.0
    vertex 25.0 25.0 0.0
  endloop
endfacet
facet normal -0.5000000000000008 -0.8660254037844382 0.0
  outer loop
    vertex 13.775 14.708364779650317 0.0
    vertex 13.15998856501143 14.963110857037124 -1.5000000000000029
    vertex 13.775 14.708364779650317 -1.5000000000000029
  endloop
endfacet
facet normal -0.25881904510252235 -0.9659258262890679 0.0
  outer loop
    vertex 13.15998856501143 14.963110857037124 -1.5000000000000029
    vertex 13.775 14.708364779650317 0.0
    vertex 13.15998856501143 14.963110857037124 0.0
  endloop
endfacet
facet normal -0.5000000000000001 0.8660254037844387 0.0
  outer loop
    vertex 13.775 10.291635220349681 0.0
    vertex 14.303122292025696 10.696877707974302 -1.5000000000000029
    vertex 13.775 10.291635220349681 -1.5000000000000029
  endloop
endfacet
facet normal -0.7071067811865476 0.7071067811865476 0.0
  outer loop
    vertex 14.303122292025696 10.696877707974302 -1.5000000000000029
    vertex 13.775 10.291635220349681 0.0
    vertex 14.303122292025696 10.696877707974302 0.0
  endloop
endfacet
facet normal -1.0 -0.0 -0.0
  outer loop
    vertex -9.500000000000002 19.0 1.9999999999999998
    vertex -9.500000000000002 15.0 0.0
    vertex -9.500000000000002 15.0 1.9999999999999998
  endloop
endfacet
facet normal -1.0 -0.0 -0.0
  outer loop
    vertex -9.500000000000002 15.0 0.0
    vertex -9.500000000000002 19.0 1.9999999999999998
    vertex -9.500000000000002 19.0 0.0
  endloop
endfacet
facet normal -1.8137108115719568e-18 -1.0 -1.1032442180264418e-17
  outer loop
    vertex 25.0 0.0 -1.5
    vertex -20.0 0.0 0.0
    vertex -19.39999999999999 1.8150423343240427e-16 -1.5000000000000107
  endloop
endfacet
facet normal -1.8137108115719568e-18 -1.0 -1.1032442180264418e-17
  outer loop
    vertex -20.0 0.0 0.0
    vertex 25.0 0.0 -1.5
    vertex 25.0 0.0 0.0
  endloop
endfacet
facet normal -1.8137108115719568e-18 -1.0 -1.1032442180264418e-17
  outer loop
    vertex -20.0 0.0 0.0
    vertex 25.0 0.0 0.0
    vertex -10.000000000000002 0.0 0.0
  endloop
endfacet
facet normal -1.8137108115719568e-18 -1.0 -1.1032442180264418e-17
  outer loop
    vertex -20.0 0.0 0.0
    vertex -10.000000000000002 0.0 0.0
    vertex -10.000000000000002 0.0 6.499999999999999
  endloop
endfacet
facet normal -1.8137108115719568e-18 -1.0 -1.1032442180264418e-17
  outer loop
    vertex -20.0 0.0 0.0
    vertex -10.000000000000002 0.0 6.499999999999999
    vertex -20.0 0.0 6.499999999999999
  endloop
endfacet
facet normal -1.0 0.0 0.0
  outer loop
    vertex -20.0 1.5999999999999999 6.499999999999999
    vertex -20.0 0.0 0.0
    vertex -20.0 0.0 6.499999999999999
  endloop
endfacet
facet normal -1.0 0.0 0.0
  outer loop
    vertex -20.0 0.0 0.0
    vertex -20.0 1.5999999999999999 6.499999999999999
    vertex -20.0 1.5999999999999999 0.0
  endloop
endfacet
facet normal 9.089332093559844e-16 1.0 0.0
  outer loop
    vertex 12.5 9.95 0.0
    vertex 13.159988565011428 10.036889142962874 -1.5000000000000029
    vertex 12.5 9.95 -1.5000000000000029
  endloop
endfacet
facet normal -0.2588190451025207 0.9659258262890682 0.0
  outer loop
    vertex 13.159988565011428 10.036889142962874 -1.5000000000000029
    vertex 12.5 9.95 0.0
    vertex 13.159988565011428 10.036889142962874 0.0
  endloop
endfacet
facet normal 0.9659258262890682 0.2588190451025207 0.0
  outer loop
    vertex 10.036889142962874 11.840011434988572 -1.5000000000000029
    vertex 10.291635220349681 11.225 0.0
    vertex 10.291635220349681 11.225 -1.5000000000000029
  endloop
endfacet
facet normal 0.866025403784438 0.5000000000000008 0.0
  outer loop
    vertex 10.291635220349681 11.225 0.0
    vertex 10.036889142962874 11.840011434988572 -1.5000000000000029
    vertex 10.036889142962874 11.840011434988572 0.0
  endloop
endfacet
facet normal -0.0 1.0 -0.0
  outer loop
    vertex -19.400000000000006 0.9999999999999999 5.8999999999999995
    vertex -10.0 0.9999999999999999 0.0
    vertex -19.400000000000002 0.9999999999999999 0.0
  endloop
endfacet
facet normal -0.0 1.0 -0.0
  outer loop
    vertex -10.0 0.9999999999999999 0.0
    vertex -19.400000000000006 0.9999999999999999 5.8999999999999995
    vertex -10.0 0.9999999999999999 5.8999999999999995
  endloop
endfacet
facet normal -0.0 -0.0 1.0
  outer loop
    vertex -7.000000000000004 15.0 0.0
    vertex -9.500000000000002 19.0 0.0
    vertex -9.500000000000002 15.0 0.0
  endloop
endfacet
facet normal -0.0 -0.0 1.0
  outer loop
    vertex -9.500000000000002 19.0 0.0
    vertex -7.000000000000004 15.0 0.0
    vertex -7.000000000000004 19.0 0.0
  endloop
endfacet
facet normal 0.707106781186549 0.707106781186546 1.5220817367314586e-16
  outer loop
    vertex -20.0 1.5999999999999999 0.0
    vertex -19.400000000000006 0.9999999999999999 5.8999999999999995
    vertex -19.400000000000002 0.9999999999999999 0.0
  endloop
endfacet
facet normal 0.707106781186549 0.707106781186546 1.5220817367314586e-16
  outer loop
    vertex -19.400000000000006 0.9999999999999999 5.8999999999999995
    vertex -20.0 1.5999999999999999 0.0
    vertex -20.0 1.5999999999999999 6.499999999999999
  endloop
endfacet
facet normal -0.0 -0.0 1.0
  outer loop
    vertex -7.00000000000001 3.9999999999999996 0.0
    vertex -9.500000000000002 7.999999999999999 0.0
    vertex -9.500000000000002 3.9999999999999996 0.0
  endloop
endfacet
facet normal -0.0 -0.0 1.0
  outer loop
    vertex -9.500000000000002 7.999999999999999 0.0
    vertex -7.00000000000001 3.9999999999999996 0.0
    vertex -7.00000000000001 7.999999999999999 0.0
  endloop
endfacet
facet normal -0.9659258262890684 -0.2588190451025207 0.0
  outer loop
    vertex 14.963110857037124 13.159988565011428 0.0
    vertex 15.05 12.5 -1.5000000000000029
    vertex 15.05 12.5 0.0
  endloop
endfacet
facet normal -1.0 -1.514888682259974e-16 0.0
  outer loop
    vertex 15.05 12.5 -1.5000000000000029
    vertex 14.963110857037124 13.159988565011428 0.0
    vertex 14.963110857037124 13.159988565011428 -1.5000000000000029
  endloop
endfacet
facet normal -0.0 1.0 -0.0
  outer loop
    vertex -9.500000000000002 7.999999999999999 2.0000000000000004
    vertex -7.00000000000001 7.999999999999999 0.0
    vertex -9.500000000000002 7.999999999999999 0.0
  endloop
endfacet
facet normal -0.0 1.0 -0.0
  outer loop
    vertex -7.00000000000001 7.999999999999999 0.0
    vertex -9.500000000000002 7.999999999999999 2.0000000000000004
    vertex -7.00000000000001 7.999999999999999 2.0000000000000004
  endloop
endfacet
facet normal -1.0 0.0 0.0
  outer loop
    vertex -20.0 22.0 6.499999999999999
    vertex -20.0 20.4 0.0
    vertex -20.0 20.4 6.499999999999999
  endloop
endfacet
facet normal -1.0 0.0 0.0
  outer loop
    vertex -20.0 20.4 0.0
    vertex -20.0 22.0 6.499999999999999
    vertex -20.0 22.0 0.0
  endloop
endfacet
facet normal 0.866025403784438 0.5000000000000008 0.0
  outer loop
    vertex 10.291635220349681 11.225 -1.5000000000000029
    vertex 10.696877707974304 10.696877707974304 0.0
    vertex 10.696877707974304 10.696877707974304 -1.5000000000000029
  endloop
endfacet
facet normal 0.7071067811865475 0.7071067811865477 0.0
  outer loop
    vertex 10.696877707974304 10.696877707974304 0.0
    vertex 10.291635220349681 11.225 -1.5000000000000029
    vertex 10.291635220349681 11.225 0.0
  endloop
endfacet
facet normal 2.5555644831012606e-18 -0.7071067811865483 -0.7071067811865468
  outer loop
    vertex -10.0 20.4 6.499999999999999
    vertex -19.400000000000006 20.999999999999996 5.8999999999999995
    vertex -10.0 20.999999999999996 5.8999999999999995
  endloop
endfacet
facet normal 2.5555644831012606e-18 -0.7071067811865483 -0.7071067811865468
  outer loop
    vertex -19.400000000000006 20.999999999999996 5.8999999999999995
    vertex -10.0 20.4 6.499999999999999
    vertex -20.0 20.4 6.499999999999999
  endloop
endfacet
facet normal -0.0 -0.0 1.0
  outer loop
    vertex 25.0 0.0 0.0
    vertex -10.0 0.9999999999999999 0.0
    vertex -10.000000000000002 0.0 0.0
  endloop
endfacet
facet normal -0.0 -0.0 1.0
  outer loop
    vertex -10.0 0.9999999999999999 0.0
    vertex 25.0 0.0 0.0
    vertex -9.500000000000002 3.9999999999999996 0.0
  endloop
endfacet
facet normal -0.0 -0.0 1.0
  outer loop
    vertex -10.0 0.9999999999999999 0.0
    vertex -9.500000000000002 3.9999999999999996 0.0
    vertex -10.0 20.999999999999996 0.0
  endloop
endfacet
facet normal -0.0 -0.0 1.0
  outer loop
    vertex -10.0 20.999999999999996 0.0
    vertex -9.500000000000002 3.9999999999999996 0.0
    vertex -10.0 22.0 0.0
  endloop
endfacet
facet normal -0.0 -0.0 1.0
  outer loop
    vertex -9.500000000000002 3.9999999999999996 0.0
    vertex 25.0 0.0 0.0
    vertex -7.00000000000001 3.9999999999999996 0.0
  endloop
endfacet
facet normal -0.0 -0.0 1.0
  outer loop
    vertex -7.00000000000001 3.9999999999999996 0.0
    vertex 25.0 0.0 0.0
    vertex -7.00000000000001 7.999999999999999 0.0
  endloop
endfacet
facet normal -0.0 -0.0 1.0
  outer loop
    vertex -7.00000000000001 7.999999999999999 0.0
    vertex 25.0 0.0 0.0
    vertex -7.000000000000004 15.0 0.0
  endloop
endfacet
facet normal -0.0 -0.0 1.0
  outer loop
    vertex -7.000000000000004 15.0 0.0
    vertex 25.0 0.0 0.0
    vertex -7.000000000000004 19.0 0.0
  endloop
endfacet
facet normal -0.0 -0.0 1.0
  outer loop
    vertex -7.000000000000004 19.0 0.0
    vertex 25.0 0.0 0.0
    vertex 11.224999999999998 10.291635220349681 0.0
  endloop
endfacet
facet normal -0.0 -0.0 1.0
  outer loop
    vertex -7.000000000000004 19.0 0.0
    vertex 11.224999999999998 10.291635220349681 0.0
    vertex 10.696877707974304 10.696877707974304 0.0
  endloop
endfacet
facet normal -0.0 -0.0 1.0
  outer loop
    vertex -7.000000000000004 19.0 0.0
    vertex 10.696877707974304 10.696877707974304 0.0
    vertex 0.0 22.0 0.0
  endloop
endfacet
facet normal -0.0 -0.0 1.0
  outer loop
    vertex 0.0 22.0 0.0
    vertex 10.696877707974304 10.696877707974304 0.0
    vertex 10.291635220349681 11.225 0.0
  endloop
endfacet
facet normal -0.0 -0.0 1.0
  outer loop
    vertex 0.0 22.0 0.0
    vertex 10.291635220349681 11.225 0.0
    vertex 0.0 25.0 0.0
  endloop
endfacet
facet normal -0.0 -0.0 1.0
  outer loop
    vertex 0.0 25.0 0.0
    vertex 10.291635220349681 11.225 0.0
    vertex 10.036889142962874 11.840011434988572 0.0
  endloop
endfacet
facet normal -0.0 -0.0 1.0
  outer loop
    vertex 0.0 25.0 0.0
    vertex 10.036889142962874 11.840011434988572 0.0
    vertex 9.95 12.5 0.0
  endloop
endfacet
facet normal -0.0 -0.0 1.0
  outer loop
    vertex 11.224999999999998 10.291635220349681 0.0
    vertex 25.0 0.0 0.0
    vertex 11.84001143498857 10.036889142962876 0.0
  endloop
endfacet
facet normal -0.0 -0.0 1.0
  outer loop
    vertex 11.84001143498857 10.036889142962876 0.0
    vertex 25.0 0.0 0.0
    vertex 12.5 9.95 0.0
  endloop
endfacet
facet normal -0.0 -0.0 1.0
  outer loop
    vertex 12.5 9.95 0.0
    vertex 25.0 0.0 0.0
    vertex 13.159988565011428 10.036889142962874 0.0
  endloop
endfacet
facet normal -0.0 -0.0 1.0
  outer loop
    vertex 13.159988565011428 10.036889142962874 0.0
    vertex 25.0 0.0 0.0
    vertex 13.775 10.291635220349681 0.0
  endloop
endfacet
facet normal -0.0 -0.0 1.0
  outer loop
    vertex 13.775 10.291635220349681 0.0
    vertex 25.0 0.0 0.0
    vertex 14.303122292025696 10.696877707974302 0.0
  endloop
endfacet
facet normal -0.0 -0.0 1.0
  outer loop
    vertex 14.303122292025696 10.696877707974302 0.0
    vertex 25.0 0.0 0.0
    vertex 14.708364779650317 11.224999999999998 0.0
  endloop
endfacet
facet normal -0.0 -0.0 1.0
  outer loop
    vertex 14.708364779650317 11.224999999999998 0.0
    vertex 25.0 0.0 0.0
    vertex 14.963110857037124 11.84001143498857 0.0
  endloop
endfacet
facet normal -0.0 -0.0 1.0
  outer loop
    vertex 14.963110857037124 11.84001143498857 0.0
    vertex 25.0 0.0 0.0
    vertex 15.05 12.5 0.0
  endloop
endfacet
facet normal -0.0 -0.0 1.0
  outer loop
    vertex 0.0 25.0 0.0
    vertex 11.225 14.708364779650317 0.0
    vertex 25.0 25.0 0.0
  endloop
endfacet
facet normal -0.0 -0.0 1.0
  outer loop
    vertex 11.225 14.708364779650317 0.0
    vertex 0.0 25.0 0.0
    vertex 10.696877707974304 14.303122292025696 0.0
  endloop
endfacet
facet normal -0.0 -0.0 1.0
  outer loop
    vertex 10.696877707974304 14.303122292025696 0.0
    vertex 0.0 25.0 0.0
    vertex 10.291635220349681 13.775 0.0
  endloop
endfacet
facet normal -0.0 -0.0 1.0
  outer loop
    vertex 10.291635220349681 13.775 0.0
    vertex 0.0 25.0 0.0
    vertex 10.036889142962876 13.159988565011428 0.0
  endloop
endfacet
facet normal -0.0 -0.0 1.0
  outer loop
    vertex 10.036889142962876 13.159988565011428 0.0
    vertex 0.0 25.0 0.0
    vertex 9.95 12.5 0.0
  endloop
endfacet
facet normal -0.0 -0.0 1.0
  outer loop
    vertex 25.0 25.0 0.0
    vertex 11.225 14.708364779650317 0.0
    vertex 11.840011434988572 14.963110857037124 0.0
  endloop
endfacet
facet normal -0.0 -0.0 1.0
  outer loop
    vertex 25.0 25.0 0.0
    vertex 11.840011434988572 14.963110857037124 0.0
    vertex 12.5 15.05 0.0
  endloop
endfacet
facet normal -0.0 -0.0 1.0
  outer loop
    vertex 25.0 25.0 0.0
    vertex 12.5 15.05 0.0
    vertex 13.15998856501143 14.963110857037124 0.0
  endloop
endfacet
facet normal -0.0 -0.0 1.0
  outer loop
    vertex 25.0 25.0 0.0
    vertex 13.15998856501143 14.963110857037124 0.0
    vertex 13.775 14.708364779650317 0.0
  endloop
endfacet
facet normal -0.0 -0.0 1.0
  outer loop
    vertex 25.0 25.0 0.0
    vertex 13.775 14.708364779650317 0.0
    vertex 14.303122292025696 14.303122292025696 0.0
  endloop
endfacet
facet normal -0.0 -0.0 1.0
  outer loop
    vertex 25.0 25.0 0.0
    vertex 14.303122292025696 14.303122292025696 0.0
    vertex 14.70836477965032 13.774999999999997 0.0
  endloop
endfacet
facet normal -0.0 -0.0 1.0
  outer loop
    vertex 25.0 25.0 0.0
    vertex 14.70836477965032 13.774999999999997 0.0
    vertex 14.963110857037124 13.159988565011428 0.0
  endloop
endfacet
facet normal -0.0 -0.0 1.0
  outer loop
    vertex 25.0 25.0 0.0
    vertex 14.963110857037124 13.159988565011428 0.0
    vertex 15.05 12.5 0.0
  endloop
endfacet
facet normal -0.0 -0.0 1.0
  outer loop
    vertex 25.0 25.0 0.0
    vertex 15.05 12.5 0.0
    vertex 25.0 0.0 0.0
  endloop
endfacet
facet normal -0.0 -0.0 1.0
  outer loop
    vertex -10.0 22.0 0.0
    vertex -9.500000000000002 19.0 0.0
    vertex 0.0 22.0 0.0
  endloop
endfacet
facet normal -0.0 -0.0 1.0
  outer loop
    vertex -9.500000000000002 19.0 0.0
    vertex -10.0 22.0 0.0
    vertex -9.500000000000002 3.9999999999999996 0.0
  endloop
endfacet
facet normal -0.0 -0.0 1.0
  outer loop
    vertex -9.500000000000002 19.0 0.0
    vertex -9.500000000000002 3.9999999999999996 0.0
    vertex -9.500000000000002 7.999999999999999 0.0
  endloop
endfacet
facet normal -0.0 -0.0 1.0
  outer loop
    vertex -9.500000000000002 19.0 0.0
    vertex -9.500000000000002 7.999999999999999 0.0
    vertex -9.500000000000002 15.0 0.0
  endloop
endfacet
facet normal -0.0 -0.0 1.0
  outer loop
    vertex 0.0 22.0 0.0
    vertex -9.500000000000002 19.0 0.0
    vertex -7.000000000000004 19.0 0.0
  endloop
endfacet
facet normal -0.0 -0.0 1.0
  outer loop
    vertex -7.00000000000001 7.999999999999999 0.0
    vertex -9.500000000000002 15.0 0.0
    vertex -9.500000000000002 7.999999999999999 0.0
  endloop
endfacet
facet normal -0.0 -0.0 1.0
  outer loop
    vertex -9.500000000000002 15.0 0.0
    vertex -7.00000000000001 7.999999999999999 0.0
    vertex -7.000000000000004 15.0 0.0
  endloop
endfacet
facet normal -0.0 -0.0 1.0
  outer loop
    vertex -19.400000000000002 0.9999999999999999 0.0
    vertex -20.0 20.4 0.0
    vertex -20.0 1.5999999999999999 0.0
  endloop
endfacet
facet normal -0.0 -0.0 1.0
  outer loop
    vertex -20.0 20.4 0.0
    vertex -19.400000000000002 0.9999999999999999 0.0
    vertex -19.400000000000002 20.999999999999996 0.0
  endloop
endfacet
facet normal -0.0 -0.0 1.0
  outer loop
    vertex -19.400000000000002 20.999999999999996 0.0
    vertex -19.400000000000002 0.9999999999999999 0.0
    vertex -10.0 0.9999999999999999 0.0
  endloop
endfacet
facet normal -0.0 -0.0 1.0
  outer loop
    vertex -19.400000000000002 20.999999999999996 0.0
    vertex -10.0 0.9999999999999999 0.0
    vertex -10.0 20.999999999999996 0.0
  endloop
endfacet
facet normal -0.0 -0.0 1.0
  outer loop
    vertex -7.000000000000004 15.0 1.9999999999999998
    vertex -9.500000000000002 19.0 1.9999999999999998
    vertex -9.500000000000002 15.0 1.9999999999999998
  endloop
endfacet
facet normal -0.0 -0.0 1.0
  outer loop
    vertex -9.500000000000002 19.0 1.9999999999999998
    vertex -7.000000000000004 15.0 1.9999999999999998
    vertex -7.000000000000004 19.0 1.9999999999999998
  endloop
endfacet
facet normal 0.8660254037844387 -0.5 0.0
  outer loop
    vertex 10.291635220349681 13.775 -1.5000000000000029
    vertex 10.036889142962876 13.159988565011428 0.0
    vertex 10.036889142962876 13.159988565011428 -1.5000000000000029
  endloop
endfacet
facet normal 0.9659258262890682 -0.25881904510252085 0.0
  outer loop
    vertex 10.036889142962876 13.159988565011428 0.0
    vertex 10.291635220349681 13.775 -1.5000000000000029
    vertex 10.291635220349681 13.775 0.0
  endloop
endfacet
facet normal 0.9659258262890682 -0.25881904510252085 0.0
  outer loop
    vertex 10.036889142962876 13.159988565011428 -1.5000000000000029
    vertex 9.95 12.5 0.0
    vertex 9.95 12.5 -1.5000000000000029
  endloop
endfacet
facet normal 1.0 -1.0604220775819816e-15 0.0
  outer loop
    vertex 9.95 12.5 0.0
    vertex 10.036889142962876 13.159988565011428 -1.5000000000000029
    vertex 10.036889142962876 13.159988565011428 0.0
  endloop
endfacet
facet normal 2.292746028981703e-16 1.2763635692948695e-16 -1.0
  outer loop
    vertex 25.0 25.0 -1.5
    vertex 0.0 22.0 -1.5
    vertex 0.0 25.0 -1.5
  endloop
endfacet
facet normal 2.292746028981703e-16 1.2763635692948695e-16 -1.0
  outer loop
    vertex 0.0 22.0 -1.5
    vertex 25.0 25.0 -1.5
    vertex 11.225 14.708364779650317 -1.5000000000000029
  endloop
endfacet
facet normal 2.292746028981703e-16 1.2763635692948695e-16 -1.0
  outer loop
    vertex 0.0 22.0 -1.5
    vertex 11.225 14.708364779650317 -1.5000000000000029
    vertex 10.696877707974304 14.303122292025696 -1.5000000000000029
  endloop
endfacet
facet normal 2.292746028981703e-16 1.2763635692948695e-16 -1.0
  outer loop
    vertex 0.0 22.0 -1.5
    vertex 10.696877707974304 14.303122292025696 -1.5000000000000029
    vertex 10.291635220349681 13.775 -1.5000000000000029
  endloop
endfacet
facet normal 2.292746028981703e-16 1.2763635692948695e-16 -1.0
  outer loop
    vertex 0.0 22.0 -1.5
    vertex 10.291635220349681 13.775 -1.5000000000000029
    vertex 10.036889142962876 13.159988565011428 -1.5000000000000029
  endloop
endfacet
facet normal 2.292746028981703e-16 1.2763635692948695e-16 -1.0
  outer loop
    vertex 0.0 22.0 -1.5
    vertex 10.036889142962876 13.159988565011428 -1.5000000000000029
    vertex 9.95 12.5 -1.5000000000000029
  endloop
endfacet
facet normal 2.292746028981703e-16 1.2763635692948695e-16 -1.0
  outer loop
    vertex 11.225 14.708364779650317 -1.5000000000000029
    vertex 25.0 25.0 -1.5
    vertex 11.840011434988572 14.963110857037124 -1.5000000000000029
  endloop
endfacet
facet normal 2.292746028981703e-16 1.2763635692948695e-16 -1.0
  outer loop
    vertex 11.840011434988572 14.963110857037124 -1.5000000000000029
    vertex 25.0 25.0 -1.5
    vertex 12.5 15.05 -1.5000000000000029
  endloop
endfacet
facet normal 2.292746028981703e-16 1.2763635692948695e-16 -1.0
  outer loop
    vertex 12.5 15.05 -1.5000000000000029
    vertex 25.0 25.0 -1.5
    vertex 13.15998856501143 14.963110857037124 -1.5000000000000029
  endloop
endfacet
facet normal 2.292746028981703e-16 1.2763635692948695e-16 -1.0
  outer loop
    vertex 13.15998856501143 14.963110857037124 -1.5000000000000029
    vertex 25.0 25.0 -1.5
    vertex 13.775 14.708364779650317 -1.5000000000000029
  endloop
endfacet
facet normal 2.292746028981703e-16 1.2763635692948695e-16 -1.0
  outer loop
    vertex 13.775 14.708364779650317 -1.5000000000000029
    vertex 25.0 25.0 -1.5
    vertex 14.303122292025696 14.303122292025696 -1.5000000000000029
  endloop
endfacet
facet normal 2.292746028981703e-16 1.2763635692948695e-16 -1.0
  outer loop
    vertex 14.303122292025696 14.303122292025696 -1.5000000000000029
    vertex 25.0 25.0 -1.5
    vertex 14.70836477965032 13.774999999999997 -1.5000000000000029
  endloop
endfacet
facet normal 2.292746028981703e-16 1.2763635692948695e-16 -1.0
  outer loop
    vertex 14.70836477965032 13.774999999999997 -1.5000000000000029
    vertex 25.0 25.0 -1.5
    vertex 14.963110857037124 13.159988565011428 -1.5000000000000029
  endloop
endfacet
facet normal 2.292746028981703e-16 1.2763635692948695e-16 -1.0
  outer loop
    vertex 14.963110857037124 13.159988565011428 -1.5000000000000029
    vertex 25.0 25.0 -1.5
    vertex 15.05 12.5 -1.5000000000000029
  endloop
endfacet
facet normal 2.292746028981703e-16 1.2763635692948695e-16 -1.0
  outer loop
    vertex 0.0 22.0 -1.5
    vertex -19.39999999999999 1.8150423343240427e-16 -1.5000000000000107
    vertex -19.39999999999999 22.0 -1.5000000000000107
  endloop
endfacet
facet normal 2.292746028981703e-16 1.2763635692948695e-16 -1.0
  outer loop
    vertex -19.39999999999999 1.8150423343240427e-16 -1.5000000000000107
    vertex 0.0 22.0 -1.5
    vertex 10.696877707974304 10.696877707974304 -1.5000000000000029
  endloop
endfacet
facet normal 2.292746028981703e-16 1.2763635692948695e-16 -1.0
  outer loop
    vertex -19.39999999999999 1.8150423343240427e-16 -1.5000000000000107
    vertex 10.696877707974304 10.696877707974304 -1.5000000000000029
    vertex 11.224999999999998 10.291635220349681 -1.5000000000000029
  endloop
endfacet
facet normal 2.292746028981703e-16 1.2763635692948695e-16 -1.0
  outer loop
    vertex -19.39999999999999 1.8150423343240427e-16 -1.5000000000000107
    vertex 11.224999999999998 10.291635220349681 -1.5000000000000029
    vertex 25.0 0.0 -1.5
  endloop
endfacet
facet normal 2.292746028981703e-16 1.2763635692948695e-16 -1.0
  outer loop
    vertex 10.696877707974304 10.696877707974304 -1.5000000000000029
    vertex 0.0 22.0 -1.5
    vertex 10.291635220349681 11.225 -1.5000000000000029
  endloop
endfacet
facet normal 2.292746028981703e-16 1.2763635692948695e-16 -1.0
  outer loop
    vertex 10.291635220349681 11.225 -1.5000000000000029
    vertex 0.0 22.0 -1.5
    vertex 10.036889142962874 11.840011434988572 -1.5000000000000029
  endloop
endfacet
facet normal 2.292746028981703e-16 1.2763635692948695e-16 -1.0
  outer loop
    vertex 10.036889142962874 11.840011434988572 -1.5000000000000029
    vertex 0.0 22.0 -1.5
    vertex 9.95 12.5 -1.5000000000000029
  endloop
endfacet
facet normal 2.292746028981703e-16 1.2763635692948695e-16 -1.0
  outer loop
    vertex 25.0 0.0 -1.5
    vertex 11.224999999999998 10.291635220349681 -1.5000000000000029
    vertex 11.84001143498857 10.036889142962876 -1.5000000000000029
  endloop
endfacet
facet normal 2.292746028981703e-16 1.2763635692948695e-16 -1.0
  outer loop
    vertex 25.0 0.0 -1.5
    vertex 11.84001143498857 10.036889142962876 -1.5000000000000029
    vertex 12.5 9.95 -1.5000000000000029
  endloop
endfacet
facet normal 2.292746028981703e-16 1.2763635692948695e-16 -1.0
  outer loop
    vertex 25.0 0.0 -1.5
    vertex 12.5 9.95 -1.5000000000000029
    vertex 13.159988565011428 10.036889142962874 -1.5000000000000029
  endloop
endfacet
facet normal 2.292746028981703e-16 1.2763635692948695e-16 -1.0
  outer loop
    vertex 25.0 0.0 -1.5
    vertex 13.159988565011428 10.036889142962874 -1.5000000000000029
    vertex 13.775 10.291635220349681 -1.5000000000000029
  endloop
endfacet
facet normal 2.292746028981703e-16 1.2763635692948695e-16 -1.0
  outer loop
    vertex 25.0 0.0 -1.5
    vertex 13.775 10.291635220349681 -1.5000000000000029
    vertex 14.303122292025696 10.696877707974302 -1.5000000000000029
  endloop
endfacet
facet normal 2.292746028981703e-16 1.2763635692948695e-16 -1.0
  outer loop
    vertex 25.0 0.0 -1.5
    vertex 14.303122292025696 10.696877707974302 -1.5000000000000029
    vertex 14.708364779650317 11.224999999999998 -1.5000000000000029
  endloop
endfacet
facet normal 2.292746028981703e-16 1.2763635692948695e-16 -1.0
  outer loop
    vertex 25.0 0.0 -1.5
    vertex 14.708364779650317 11.224999999999998 -1.5000000000000029
    vertex 14.963110857037124 11.84001143498857 -1.5000000000000029
  endloop
endfacet
facet normal 2.292746028981703e-16 1.2763635692948695e-16 -1.0
  outer loop
    vertex 25.0 0.0 -1.5
    vertex 14.963110857037124 11.84001143498857 -1.5000000000000029
    vertex 15.05 12.5 -1.5000000000000029
  endloop
endfacet
facet normal 2.292746028981703e-16 1.2763635692948695e-16 -1.0
  outer loop
    vertex 25.0 0.0 -1.5
    vertex 15.05 12.5 -1.5000000000000029
    vertex 25.0 25.0 -1.5
  endloop
endfacet
facet normal 0.25881904510252157 0.965925826289068 0.0
  outer loop
    vertex 11.84001143498857 10.036889142962876 0.0
    vertex 12.5 9.95 -1.5000000000000029
    vertex 11.84001143498857 10.036889142962876 -1.5000000000000029
  endloop
endfacet
facet normal 9.089332093559844e-16 1.0 0.0
  outer loop
    vertex 12.5 9.95 -1.5000000000000029
    vertex 11.84001143498857 10.036889142962876 0.0
    vertex 12.5 9.95 0.0
  endloop
endfacet
facet normal 0.5000000000000001 -0.8660254037844387 0.0
  outer loop
    vertex 11.225 14.708364779650317 0.0
    vertex 10.696877707974304 14.303122292025696 -1.5000000000000029
    vertex 11.225 14.708364779650317 -1.5000000000000029
  endloop
endfacet
facet normal 0.707106781186547 -0.7071067811865481 0.0
  outer loop
    vertex 10.696877707974304 14.303122292025696 -1.5000000000000029
    vertex 11.225 14.708364779650317 0.0
    vertex 10.696877707974304 14.303122292025696 0.0
  endloop
endfacet
facet normal -0.0 1.0 -0.0
  outer loop
    vertex -9.500000000000002 19.0 1.9999999999999998
    vertex -7.000000000000004 19.0 0.0
    vertex -9.500000000000002 19.0 0.0
  endloop
endfacet
facet normal -0.0 1.0 -0.0
  outer loop
    vertex -7.000000000000004 19.0 0.0
    vertex -9.500000000000002 19.0 1.9999999999999998
    vertex -7.000000000000004 19.0 1.9999999999999998
  endloop
endfacet
facet normal 1.0 0.0 0.0
  outer loop
    vertex 25.0 25.0 -1.5
    vertex 25.0 0.0 0.0
    vertex 25.0 0.0 -1.5
  endloop
endfacet
facet normal 1.0 0.0 0.0
  outer loop
    vertex 25.0 0.0 0.0
    vertex 25.0 25.0 -1.5
    vertex 25.0 25.0 0.0
  endloop
endfacet
facet normal 0.7071067811865483 -0.7071067811865467 1.5164651989575457e-16
  outer loop
    vertex -19.400000000000002 20.999999999999996 0.0
    vertex -20.0 20.4 6.499999999999999
    vertex -20.0 20.4 0.0
  endloop
endfacet
facet normal 0.7071067811865483 -0.7071067811865467 1.5164651989575457e-16
  outer loop
    vertex -20.0 20.4 6.499999999999999
    vertex -19.400000000000002 20.999999999999996 0.0
    vertex -19.400000000000006 20.999999999999996 5.8999999999999995
  endloop
endfacet
facet normal -0.7071067811865471 -0.7071067811865479 0.0
  outer loop
    vertex 14.303122292025696 14.303122292025696 0.0
    vertex 14.70836477965032 13.774999999999997 -1.5000000000000029
    vertex 14.70836477965032 13.774999999999997 0.0
  endloop
endfacet
facet normal -0.8660254037844389 -0.49999999999999956 0.0
  outer loop
    vertex 14.70836477965032 13.774999999999997 -1.5000000000000029
    vertex 14.303122292025696 14.303122292025696 0.0
    vertex 14.303122292025696 14.303122292025696 -1.5000000000000029
  endloop
endfacet
facet normal 0.0 -1.0 0.0
  outer loop
    vertex -7.000000000000004 15.0 1.9999999999999998
    vertex -9.500000000000002 15.0 0.0
    vertex -7.000000000000004 15.0 0.0
  endloop
endfacet
facet normal 0.0 -1.0 0.0
  outer loop
    vertex -9.500000000000002 15.0 0.0
    vertex -7.000000000000004 15.0 1.9999999999999998
    vertex -9.500000000000002 15.0 1.9999999999999998
  endloop
endfacet
facet normal -1.0 -1.514888682259974e-16 0.0
  outer loop
    vertex 15.05 12.5 0.0
    vertex 14.963110857037124 11.84001143498857 -1.5000000000000029
    vertex 14.963110857037124 11.84001143498857 0.0
  endloop
endfacet
facet normal -0.965925826289068 0.25881904510252157 0.0
  outer loop
    vertex 14.963110857037124 11.84001143498857 -1.5000000000000029
    vertex 15.05 12.5 0.0
    vertex 15.05 12.5 -1.5000000000000029
  endloop
endfacet
facet normal -0.8660254037844389 -0.49999999999999956 0.0
  outer loop
    vertex 14.70836477965032 13.774999999999997 0.0
    vertex 14.963110857037124 13.159988565011428 -1.5000000000000029
    vertex 14.963110857037124 13.159988565011428 0.0
  endloop
endfacet
facet normal -0.9659258262890684 -0.2588190451025207 0.0
  outer loop
    vertex 14.963110857037124 13.159988565011428 -1.5000000000000029
    vertex 14.70836477965032 13.774999999999997 0.0
    vertex 14.70836477965032 13.774999999999997 -1.5000000000000029
  endloop
endfacet
facet normal -0.0 -0.0 1.0
  outer loop
    vertex -10.000000000000002 0.0 6.499999999999999
    vertex -20.0 1.5999999999999999 6.499999999999999
    vertex -20.0 0.0 6.499999999999999
  endloop
endfacet
facet normal -0.0 -0.0 1.0
  outer loop
    vertex -20.0 1.5999999999999999 6.499999999999999
    vertex -10.000000000000002 0.0 6.499999999999999
    vertex -10.0 1.5999999999999999 6.499999999999999
  endloop
endfacet
facet normal 1.0 -1.0714057630511546e-15 2.9030711088479215e-17
  outer loop
    vertex -10.0 0.9999999999999999 0.0
    vertex -10.000000000000002 0.0 6.499999999999999
    vertex -10.000000000000002 0.0 0.0
  endloop
endfacet
facet normal 1.0 -1.0714057630511546e-15 2.9030711088479215e-17
  outer loop
    vertex -10.000000000000002 0.0 6.499999999999999
    vertex -10.0 0.9999999999999999 0.0
    vertex -10.0 0.9999999999999999 5.8999999999999995
  endloop
endfacet
facet normal 1.0 -1.0714057630511546e-15 2.9030711088479215e-17
  outer loop
    vertex -10.000000000000002 0.0 6.499999999999999
    vertex -10.0 0.9999999999999999 5.8999999999999995
    vertex -10.0 1.5999999999999999 6.499999999999999
  endloop
endfacet
facet normal 1.0 -0.0 -0.0
  outer loop
    vertex -7.00000000000001 7.999999999999999 0.0
    vertex -7.00000000000001 3.9999999999999996 2.0000000000000004
    vertex -7.00000000000001 3.9999999999999996 0.0
  endloop
endfacet
facet normal 1.0 -0.0 -0.0
  outer loop
    vertex -7.00000000000001 3.9999999999999996 2.0000000000000004
    vertex -7.00000000000001 7.999999999999999 0.0
    vertex -7.00000000000001 7.999999999999999 2.0000000000000004
  endloop
endfacet
facet normal -1.0 0.0 0.0
  outer loop
    vertex 0.0 25.0 0.0
    vertex 0.0 22.0 -1.5
    vertex 0.0 22.0 0.0
  endloop
endfacet
facet normal -1.0 0.0 0.0
  outer loop
    vertex 0.0 22.0 -1.5
    vertex 0.0 25.0 0.0
    vertex 0.0 25.0 -1.5
  endloop
endfacet
facet normal 1.0 -0.0 -0.0
  outer loop
    vertex -10.0 22.0 0.0
    vertex -10.0 20.999999999999996 5.8999999999999995
    vertex -10.0 20.999999999999996 0.0
  endloop
endfacet
facet normal 1.0 -0.0 -0.0
  outer loop
    vertex -10.0 20.999999999999996 5.8999999999999995
    vertex -10.0 22.0 6.499999999999999
    vertex -10.0 20.4 6.499999999999999
  endloop
endfacet
facet normal 1.0 -0.0 -0.0
  outer loop
    vertex -10.0 22.0 6.499999999999999
    vertex -10.0 20.999999999999996 5.8999999999999995
    vertex -10.0 22.0 0.0
  endloop
endfacet
facet normal 0.707106781186547 -0.7071067811865481 0.0
  outer loop
    vertex 10.696877707974304 14.303122292025696 -1.5000000000000029
    vertex 10.291635220349681 13.775 0.0
    vertex 10.291635220349681 13.775 -1.5000000000000029
  endloop
endfacet
facet normal 0.8660254037844387 -0.5 0.0
  outer loop
    vertex 10.291635220349681 13.775 0.0
    vertex 10.696877707974304 14.303122292025696 -1.5000000000000029
    vertex 10.696877707974304 14.303122292025696 0.0
  endloop
endfacet
facet normal 2.940666265563479e-16 -1.0 0.0
  outer loop
    vertex 12.5 15.05 0.0
    vertex 11.840011434988572 14.963110857037124 -1.5000000000000029
    vertex 12.5 15.05 -1.5000000000000029
  endloop
endfacet
facet normal 0.2588190451025217 -0.965925826289068 0.0
  outer loop
    vertex 11.840011434988572 14.963110857037124 -1.5000000000000029
    vertex 12.5 15.05 0.0
    vertex 11.840011434988572 14.963110857037124 0.0
  endloop
endfacet
facet normal -0.9284766908852582 -1.089547229819986e-32 -0.37139067635410694
  outer loop
    vertex -20.0 1.5999999999999999 0.0
    vertex -19.39999999999999 1.8150423343240427e-16 -1.5000000000000107
    vertex -20.0 0.0 0.0
  endloop
endfacet
facet normal -0.9284766908852582 -1.089547229819986e-32 -0.37139067635410694
  outer loop
    vertex -19.39999999999999 1.8150423343240427e-16 -1.5000000000000107
    vertex -20.0 1.5999999999999999 0.0
    vertex -19.39999999999999 22.0 -1.5000000000000107
  endloop
endfacet
facet normal -0.9284766908852582 -1.089547229819986e-32 -0.37139067635410694
  outer loop
    vertex -19.39999999999999 22.0 -1.5000000000000107
    vertex -20.0 1.5999999999999999 0.0
    vertex -20.0 20.4 0.0
  endloop
endfacet
facet normal -0.9284766908852582 -1.089547229819986e-32 -0.37139067635410694
  outer loop
    vertex -19.39999999999999 22.0 -1.5000000000000107
    vertex -20.0 20.4 0.0
    vertex -20.0 22.0 0.0
  endloop
endfacet
facet normal 0.2588190451025217 -0.965925826289068 0.0
  outer loop
    vertex 11.840011434988572 14.963110857037124 0.0
    vertex 11.225 14.708364779650317 -1.5000000000000029
    vertex 11.840011434988572 14.963110857037124 -1.5000000000000029
  endloop
endfacet
facet normal 0.5000000000000001 -0.8660254037844387 0.0
  outer loop
    vertex 11.225 14.708364779650317 -1.5000000000000029
    vertex 11.840011434988572 14.963110857037124 0.0
    vertex 11.225 14.708364779650317 0.0
  endloop
endfacet
facet normal -0.0 -0.0 1.0
  outer loop
    vertex -7.00000000000001 3.9999999999999996 2.0000000000000004
    vertex -9.500000000000002 7.999999999999999 2.0000000000000004
    vertex -9.500000000000002 3.9999999999999996 2.0000000000000004
  endloop
endfacet
facet normal -0.0 -0.0 1.0
  outer loop
    vertex -9.500000000000002 7.999999999999999 2.0000000000000004
    vertex -7.00000000000001 3.9999999999999996 2.0000000000000004
    vertex -7.00000000000001 7.999999999999999 2.0000000000000004
  endloop
endfacet
facet normal -0.2588190451025207 0.9659258262890682 0.0
  outer loop
    vertex 13.159988565011428 10.036889142962874 0.0
    vertex 13.775 10.291635220349681 -1.5000000000000029
    vertex 13.159988565011428 10.036889142962874 -1.5000000000000029
  endloop
endfacet
facet normal -0.5000000000000001 0.8660254037844387 0.0
  outer loop
    vertex 13.775 10.291635220349681 -1.5000000000000029
    vertex 13.159988565011428 10.036889142962874 0.0
    vertex 13.775 10.291635220349681 0.0
  endloop
endfacet
facet normal -0.7071067811865471 -0.7071067811865479 0.0
  outer loop
    vertex 14.303122292025696 14.303122292025696 0.0
    vertex 13.775 14.708364779650317 -1.5000000000000029
    vertex 14.303122292025696 14.303122292025696 -1.5000000000000029
  endloop
endfacet
facet normal -0.5000000000000008 -0.8660254037844382 0.0
  outer loop
    vertex 13.775 14.708364779650317 -1.5000000000000029
    vertex 14.303122292025696 14.303122292025696 0.0
    vertex 13.775 14.708364779650317 0.0
  endloop
endfacet
facet normal -0.8660254037844387 0.5000000000000001 0.0
  outer loop
    vertex 14.708364779650317 11.224999999999998 0.0
    vertex 14.303122292025696 10.696877707974302 -1.5000000000000029
    vertex 14.303122292025696 10.696877707974302 0.0
  endloop
endfacet
facet normal -0.7071067811865476 0.7071067811865476 0.0
  outer loop
    vertex 14.303122292025696 10.696877707974302 -1.5000000000000029
    vertex 14.708364779650317 11.224999999999998 0.0
    vertex 14.708364779650317 11.224999999999998 -1.5000000000000029
  endloop
endfacet
facet normal 0.5000000000000007 0.8660254037844383 0.0
  outer loop
    vertex 11.224999999999998 10.291635220349681 0.0
    vertex 11.84001143498857 10.036889142962876 -1.5000000000000029
    vertex 11.224999999999998 10.291635220349681 -1.5000000000000029
  endloop
endfacet
facet normal 0.25881904510252157 0.965925826289068 0.0
  outer loop
    vertex 11.84001143498857 10.036889142962876 -1.5000000000000029
    vertex 11.224999999999998 10.291635220349681 0.0
    vertex 11.84001143498857 10.036889142962876 0.0
  endloop
endfacet
facet normal 0.7071067811865475 0.7071067811865477 0.0
  outer loop
    vertex 10.696877707974304 10.696877707974304 0.0
    vertex 11.224999999999998 10.291635220349681 -1.5000000000000029
    vertex 10.696877707974304 10.696877707974304 -1.5000000000000029
  endloop
endfacet
facet normal 0.5000000000000007 0.8660254037844383 0.0
  outer loop
    vertex 11.224999999999998 10.291635220349681 -1.5000000000000029
    vertex 10.696877707974304 10.696877707974304 0.0
    vertex 11.224999999999998 10.291635220349681 0.0
  endloop
endfacet
facet normal 0.0 -1.0 0.0
  outer loop
    vertex -7.00000000000001 3.9999999999999996 2.0000000000000004
    vertex -9.500000000000002 3.9999999999999996 0.0
    vertex -7.00000000000001 3.9999999999999996 0.0
  endloop
endfacet
facet normal 0.0 -1.0 0.0
  outer loop
    vertex -9.500000000000002 3.9999999999999996 0.0
    vertex -7.00000000000001 3.9999999999999996 2.0000000000000004
    vertex -9.500000000000002 3.9999999999999996 2.0000000000000004
  endloop
endfacet
facet normal -0.965925826289068 0.25881904510252157 0.0
  outer loop
    vertex 14.963110857037124 11.84001143498857 0.0
    vertex 14.708364779650317 11.224999999999998 -1.5000000000000029
    vertex 14.708364779650317 11.224999999999998 0.0
  endloop
endfacet
facet normal -0.8660254037844387 0.5000000000000001 0.0
  outer loop
    vertex 14.708364779650317 11.224999999999998 -1.5000000000000029
    vertex 14.963110857037124 11.84001143498857 0.0
    vertex 14.963110857037124 11.84001143498857 -1.5000000000000029
  endloop
endfacet
facet normal -0.0 -0.0 1.0
  outer loop
    vertex -10.0 20.4 6.499999999999999
    vertex -20.0 22.0 6.499999999999999
    vertex -20.0 20.4 6.499999999999999
  endloop
endfacet
facet normal -0.0 -0.0 1.0
  outer loop
    vertex -20.0 22.0 6.499999999999999
    vertex -10.0 20.4 6.499999999999999
    vertex -10.0 22.0 6.499999999999999
  endloop
endfacet
facet normal -1.277782241550629e-18 0.7071067811865477 -0.7071067811865475
  outer loop
    vertex -20.0 1.5999999999999999 6.499999999999999
    vertex -10.0 0.9999999999999999 5.8999999999999995
    vertex -19.400000000000006 0.9999999999999999 5.8999999999999995
  endloop
endfacet
facet normal -1.277782241550629e-18 0.7071067811865477 -0.7071067811865475
  outer loop
    vertex -10.0 0.9999999999999999 5.8999999999999995
    vertex -20.0 1.5999999999999999 6.499999999999999
    vertex -10.0 1.5999999999999999 6.499999999999999
  endloop
endfacet
facet normal -0.25881904510252235 -0.9659258262890679 0.0
  outer loop
    vertex 13.15998856501143 14.963110857037124 0.0
    vertex 12.5 15.05 -1.5000000000000029
    vertex 13.15998856501143 14.963110857037124 -1.5000000000000029
  endloop
endfacet
facet normal 2.940666265563479e-16 -1.0 0.0
  outer loop
    vertex 12.5 15.05 -1.5000000000000029
    vertex 13.15998856501143 14.963110857037124 0.0
    vertex 12.5 15.05 0.0
  endloop
endfacet
facet normal 1.0 -0.0 -0.0
  outer loop
    vertex -7.000000000000004 19.0 0.0
    vertex -7.000000000000004 15.0 1.9999999999999998
    vertex -7.000000000000004 15.0 0.0
  endloop
endfacet
facet normal 1.0 -0.0 -0.0
  outer loop
    vertex -7.000000000000004 15.0 1.9999999999999998
    vertex -7.000000000000004 19.0 0.0
    vertex -7.000000000000004 19.0 1.9999999999999998
  endloop
endfacet
facet normal 1.0 -1.0604220775819816e-15 0.0
  outer loop
    vertex 9.95 12.5 -1.5000000000000029
    vertex 10.036889142962874 11.840011434988572 0.0
    vertex 10.036889142962874 11.840011434988572 -1.5000000000000029
  endloop
endfacet
facet normal 0.9659258262890682 0.2588190451025207 0.0
  outer loop
    vertex 10.036889142962874 11.840011434988572 0.0
    vertex 9.95 12.5 -1.5000000000000029
    vertex 9.95 12.5 0.0
  endloop
endfacet
facet normal -0.0 1.0 -0.0
  outer loop
    vertex -20.0 22.0 6.499999999999999
    vertex -10.0 22.0 0.0
    vertex -20.0 22.0 0.0
  endloop
endfacet
facet normal -0.0 1.0 -0.0
  outer loop
    vertex -10.0 22.0 0.0
    vertex -20.0 22.0 6.499999999999999
    vertex -10.0 22.0 6.499999999999999
  endloop
endfacet
facet normal -0.0 1.0 -0.0
  outer loop
    vertex -20.0 22.0 0.0
    vertex 0.0 22.0 -1.5
    vertex -19.39999999999999 22.0 -1.5000000000000107
  endloop
endfacet
facet normal -0.0 1.0 -0.0
  outer loop
    vertex 0.0 22.0 -1.5
    vertex -20.0 22.0 0.0
    vertex 0.0 22.0 0.0
  endloop
endfacet
facet normal -0.0 1.0 -0.0
  outer loop
    vertex 0.0 22.0 0.0
    vertex -20.0 22.0 0.0
    vertex -10.0 22.0 0.0
  endloop
endfacet
facet normal 0.0 -1.0 0.0
  outer loop
    vertex -10.0 20.999999999999996 5.8999999999999995
    vertex -19.400000000000002 20.999999999999996 0.0
    vertex -10.0 20.999999999999996 0.0
  endloop
endfacet
facet normal 0.0 -1.0 0.0
  outer loop
    vertex -19.400000000000002 20.999999999999996 0.0
    vertex -10.0 20.999999999999996 5.8999999999999995
    vertex -19.400000000000006 20.999999999999996 5.8999999999999995
  endloop
endfacet
facet normal -1.0 -0.0 -0.0
  outer loop
    vertex -9.500000000000002 7.999999999999999 2.0000000000000004
    vertex -9.500000000000002 3.9999999999999996 0.0
    vertex -9.500000000000002 3.9999999999999996 2.0000000000000004
  endloop
endfacet
facet normal -1.0 -0.0 -0.0
  outer loop
    vertex -9.500000000000002 3.9999999999999996 0.0
    vertex -9.500000000000002 7.999999999999999 2.0000000000000004
    vertex -9.500000000000002 7.999999999999999 0.0
  endloop
endfacet
endsolid Robin-XY-Endstops
