solid Robin-XY-Endstops
facet normal 0.0 -1.0 0.0
  outer loop
    vertex -9.999999999999998 53.141740764144785 5.899999999999998
    vertex -19.400000000000002 53.141740764144785 0.0
    vertex -9.999999999999998 53.141740764144785 0.0
  endloop
endfacet
facet normal 0.0 -1.0 0.0
  outer loop
    vertex -19.400000000000002 53.141740764144785 0.0
    vertex -9.999999999999998 53.141740764144785 5.899999999999998
    vertex -19.400000000000002 53.141740764144785 5.899999999999998
  endloop
endfacet
facet normal -1.0 0.0 0.0
  outer loop
    vertex -20.0 54.14174076414478 6.499999999999999
    vertex -20.0 52.541740764144805 0.0
    vertex -20.0 52.541740764144805 6.499999999999999
  endloop
endfacet
facet normal -1.0 0.0 0.0
  outer loop
    vertex -20.0 52.541740764144805 0.0
    vertex -20.0 54.14174076414478 6.499999999999999
    vertex -20.0 54.14174076414478 0.0
  endloop
endfacet
facet normal 5.435777036344594e-16 0.9999999999999999 0.0
  outer loop
    vertex 12.499999999999996 39.09174076414478 0.0
    vertex 13.15998856501143 39.17862990710764 -1.5000000000000029
    vertex 12.499999999999996 39.09174076414478 -1.5000000000000029
  endloop
endfacet
facet normal -0.25881904510254383 0.9659258262890621 0.0
  outer loop
    vertex 13.15998856501143 39.17862990710764 -1.5000000000000029
    vertex 12.499999999999996 39.09174076414478 0.0
    vertex 13.15998856501143 39.17862990710764 0.0
  endloop
endfacet
facet normal -0.0 -0.0 1.0
  outer loop
    vertex -9.999999999999998 32.14174076414477 6.499999999999999
    vertex -20.0 33.74174076414476 6.499999999999999
    vertex -20.0 32.14174076414477 6.499999999999999
  endloop
endfacet
facet normal -0.0 -0.0 1.0
  outer loop
    vertex -20.0 33.74174076414476 6.499999999999999
    vertex -9.999999999999998 32.14174076414477 6.499999999999999
    vertex -9.999999999999998 33.74174076414476 6.499999999999999
  endloop
endfacet
facet normal -0.0 -0.0 1.0
  outer loop
    vertex -7.00000000000001 46.14174076414476 0.0
    vertex -9.500000000000002 50.14174076414477 0.0
    vertex -9.500000000000002 46.14174076414476 0.0
  endloop
endfacet
facet normal -0.0 -0.0 1.0
  outer loop
    vertex -9.500000000000002 50.14174076414477 0.0
    vertex -7.00000000000001 46.14174076414476 0.0
    vertex -7.00000000000001 50.14174076414477 0.0
  endloop
endfacet
facet normal -0.0 -0.0 1.0
  outer loop
    vertex -7.000000000000004 35.141740764144764 0.0
    vertex -9.500000000000002 39.14174076414474 0.0
    vertex -9.500000000000002 35.141740764144764 0.0
  endloop
endfacet
facet normal -0.0 -0.0 1.0
  outer loop
    vertex -9.500000000000002 39.14174076414474 0.0
    vertex -7.000000000000004 35.141740764144764 0.0
    vertex -7.000000000000004 39.14174076414474 0.0
  endloop
endfacet
facet normal -0.9284766908852582 -3.1454387809102295e-19 -0.3713906763541069
  outer loop
    vertex -20.0 33.74174076414476 0.0
    vertex -19.39999999999999 32.14174076414477 -1.5000000000000107
    vertex -20.0 32.14174076414477 0.0
  endloop
endfacet
facet normal -0.9284766908852582 -3.1454387809102295e-19 -0.3713906763541069
  outer loop
    vertex -19.39999999999999 32.14174076414477 -1.5000000000000107
    vertex -20.0 33.74174076414476 0.0
    vertex -19.39999999999999 54.14174076414478 -1.5000000000000107
  endloop
endfacet
facet normal -0.9284766908852582 -3.1454387809102295e-19 -0.3713906763541069
  outer loop
    vertex -19.39999999999999 54.14174076414478 -1.5000000000000107
    vertex -20.0 33.74174076414476 0.0
    vertex -20.0 52.541740764144805 0.0
  endloop
endfacet
facet normal -0.9284766908852582 -3.1454387809102295e-19 -0.3713906763541069
  outer loop
    vertex -19.39999999999999 54.14174076414478 -1.5000000000000107
    vertex -20.0 52.541740764144805 0.0
    vertex -20.0 54.14174076414478 0.0
  endloop
endfacet
facet normal -0.500000000000012 0.8660254037844317 0.0
  outer loop
    vertex 13.775 39.433375984494496 0.0
    vertex 14.303122292025693 39.83861847211908 -1.5000000000000029
    vertex 13.775 39.433375984494496 -1.5000000000000029
  endloop
endfacet
facet normal -0.7071067811865323 0.7071067811865629 0.0
  outer loop
    vertex 14.303122292025693 39.83861847211908 -1.5000000000000029
    vertex 13.775 39.433375984494496 0.0
    vertex 14.303122292025693 39.83861847211908 0.0
  endloop
endfacet
facet normal 0.2588190451025444 0.9659258262890621 0.0
  outer loop
    vertex 11.840011434988568 39.17862990710764 0.0
    vertex 12.499999999999996 39.09174076414478 -1.5000000000000029
    vertex 11.840011434988568 39.17862990710764 -1.5000000000000029
  endloop
endfacet
facet normal 5.435777036344594e-16 0.9999999999999999 0.0
  outer loop
    vertex 12.499999999999996 39.09174076414478 -1.5000000000000029
    vertex 11.840011434988568 39.17862990710764 0.0
    vertex 12.499999999999996 39.09174076414478 0.0
  endloop
endfacet
facet normal 0.5000000000000099 0.8660254037844328 0.0
  outer loop
    vertex 11.225 39.433375984494496 0.0
    vertex 11.840011434988568 39.17862990710764 -1.5000000000000029
    vertex 11.225 39.433375984494496 -1.5000000000000029
  endloop
endfacet
facet normal 0.2588190451025444 0.9659258262890621 0.0
  outer loop
    vertex 11.840011434988568 39.17862990710764 -1.5000000000000029
    vertex 11.225 39.433375984494496 0.0
    vertex 11.840011434988568 39.17862990710764 0.0
  endloop
endfacet
facet normal 1.0 2.1428115261023404e-15 5.806142217695721e-17
  outer loop
    vertex -10.000000000000002 54.14174076414478 0.0
    vertex -9.999999999999998 53.141740764144785 5.899999999999998
    vertex -9.999999999999998 53.141740764144785 0.0
  endloop
endfacet
facet normal 1.0 2.1428115261023404e-15 5.806142217695721e-17
  outer loop
    vertex -9.999999999999998 53.141740764144785 5.899999999999998
    vertex -10.000000000000002 54.14174076414478 6.499999999999999
    vertex -9.999999999999998 52.541740764144805 6.499999999999999
  endloop
endfacet
facet normal 1.0 2.1428115261023404e-15 5.806142217695721e-17
  outer loop
    vertex -10.000000000000002 54.14174076414478 6.499999999999999
    vertex -9.999999999999998 53.141740764144785 5.899999999999998
    vertex -10.000000000000002 54.14174076414478 0.0
  endloop
endfacet
facet normal -0.0 1.0 -0.0
  outer loop
    vertex -20.0 54.14174076414478 6.499999999999999
    vertex -10.000000000000002 54.14174076414478 0.0
    vertex -20.0 54.14174076414478 0.0
  endloop
endfacet
facet normal -0.0 1.0 -0.0
  outer loop
    vertex -10.000000000000002 54.14174076414478 0.0
    vertex -20.0 54.14174076414478 6.499999999999999
    vertex -10.000000000000002 54.14174076414478 6.499999999999999
  endloop
endfacet
facet normal -0.0 1.0 -0.0
  outer loop
    vertex -20.0 54.14174076414478 0.0
    vertex 24.999999999999996 54.14174076414478 -1.4999999999999998
    vertex -19.39999999999999 54.14174076414478 -1.5000000000000107
  endloop
endfacet
facet normal -0.0 1.0 -0.0
  outer loop
    vertex 24.999999999999996 54.14174076414478 -1.4999999999999998
    vertex -20.0 54.14174076414478 0.0
    vertex 24.999999999999996 54.14174076414478 0.0
  endloop
endfacet
facet normal -0.0 1.0 -0.0
  outer loop
    vertex 24.999999999999996 54.14174076414478 0.0
    vertex -20.0 54.14174076414478 0.0
    vertex -10.000000000000002 54.14174076414478 0.0
  endloop
endfacet
facet normal -0.0 1.0 -0.0
  outer loop
    vertex -9.500000000000002 50.14174076414477 2.0000000000000004
    vertex -7.00000000000001 50.14174076414477 0.0
    vertex -9.500000000000002 50.14174076414477 0.0
  endloop
endfacet
facet normal -0.0 1.0 -0.0
  outer loop
    vertex -7.00000000000001 50.14174076414477 0.0
    vertex -9.500000000000002 50.14174076414477 2.0000000000000004
    vertex -7.00000000000001 50.14174076414477 2.0000000000000004
  endloop
endfacet
facet normal -0.0 1.0 -0.0
  outer loop
    vertex -19.400000000000002 33.14174076414479 5.899999999999998
    vertex -9.999999999999998 33.14174076414479 0.0
    vertex -19.400000000000002 33.14174076414479 0.0
  endloop
endfacet
facet normal -0.0 1.0 -0.0
  outer loop
    vertex -9.999999999999998 33.14174076414479 0.0
    vertex -19.400000000000002 33.14174076414479 5.899999999999998
    vertex -9.999999999999998 33.14174076414479 5.899999999999998
  endloop
endfacet
facet normal -0.25881904510252884 -0.9659258262890661 0.0
  outer loop
    vertex 13.159988565011425 44.104851621181886 0.0
    vertex 12.499999999999996 44.19174076414477 -1.5000000000000029
    vertex 13.159988565011425 44.104851621181886 -1.5000000000000029
  endloop
endfacet
facet normal 0.0 -1.0 0.0
  outer loop
    vertex 12.499999999999996 44.19174076414477 -1.5000000000000029
    vertex 13.159988565011425 44.104851621181886 0.0
    vertex 12.499999999999996 44.19174076414477 0.0
  endloop
endfacet
facet normal -0.0 -0.0 1.0
  outer loop
    vertex -7.000000000000004 39.14174076414474 0.0
    vertex -9.500000000000002 46.14174076414476 0.0
    vertex -9.500000000000002 39.14174076414474 0.0
  endloop
endfacet
facet normal -0.0 -0.0 1.0
  outer loop
    vertex -9.500000000000002 46.14174076414476 0.0
    vertex -7.000000000000004 39.14174076414474 0.0
    vertex -7.00000000000001 46.14174076414476 0.0
  endloop
endfacet
facet normal -0.0 -0.0 1.0
  outer loop
    vertex -7.00000000000001 46.14174076414476 0.0
    vertex -7.000000000000004 39.14174076414474 0.0
    vertex -7.00000000000001 50.14174076414477 0.0
  endloop
endfacet
facet normal -0.0 -0.0 1.0
  outer loop
    vertex 0.0 32.14174076414477 0.0
    vertex -9.999999999999998 33.14174076414479 0.0
    vertex -9.999999999999998 32.14174076414477 0.0
  endloop
endfacet
facet normal -0.0 -0.0 1.0
  outer loop
    vertex -9.999999999999998 33.14174076414479 0.0
    vertex 0.0 32.14174076414477 0.0
    vertex -9.500000000000002 35.141740764144764 0.0
  endloop
endfacet
facet normal -0.0 -0.0 1.0
  outer loop
    vertex -9.999999999999998 33.14174076414479 0.0
    vertex -9.500000000000002 35.141740764144764 0.0
    vertex -9.999999999999998 53.141740764144785 0.0
  endloop
endfacet
facet normal -0.0 -0.0 1.0
  outer loop
    vertex -9.500000000000002 35.141740764144764 0.0
    vertex 0.0 32.14174076414477 0.0
    vertex -7.000000000000004 35.141740764144764 0.0
  endloop
endfacet
facet normal -0.0 -0.0 1.0
  outer loop
    vertex -7.000000000000004 35.141740764144764 0.0
    vertex 0.0 32.14174076414477 0.0
    vertex -7.000000000000004 39.14174076414474 0.0
  endloop
endfacet
facet normal -0.0 -0.0 1.0
  outer loop
    vertex 24.999999999999996 29.141740764144775 0.0
    vertex 0.0 32.14174076414477 0.0
    vertex 0.0 29.141740764144775 0.0
  endloop
endfacet
facet normal -0.0 -0.0 1.0
  outer loop
    vertex 0.0 32.14174076414477 0.0
    vertex 24.999999999999996 29.141740764144775 0.0
    vertex 11.225 39.433375984494496 0.0
  endloop
endfacet
facet normal -0.0 -0.0 1.0
  outer loop
    vertex 0.0 32.14174076414477 0.0
    vertex 11.225 39.433375984494496 0.0
    vertex 10.6968777079743 39.83861847211908 0.0
  endloop
endfacet
facet normal -0.0 -0.0 1.0
  outer loop
    vertex 0.0 32.14174076414477 0.0
    vertex 10.6968777079743 39.83861847211908 0.0
    vertex 10.29163522034968 40.36674076414478 0.0
  endloop
endfacet
facet normal -0.0 -0.0 1.0
  outer loop
    vertex 0.0 32.14174076414477 0.0
    vertex 10.29163522034968 40.36674076414478 0.0
    vertex 10.036889142962872 40.981752199133346 0.0
  endloop
endfacet
facet normal -0.0 -0.0 1.0
  outer loop
    vertex 0.0 32.14174076414477 0.0
    vertex 10.036889142962872 40.981752199133346 0.0
    vertex 9.950000000000001 41.641740764144764 0.0
  endloop
endfacet
facet normal -0.0 -0.0 1.0
  outer loop
    vertex 11.225 39.433375984494496 0.0
    vertex 24.999999999999996 29.141740764144775 0.0
    vertex 11.840011434988568 39.17862990710764 0.0
  endloop
endfacet
facet normal -0.0 -0.0 1.0
  outer loop
    vertex 11.840011434988568 39.17862990710764 0.0
    vertex 24.999999999999996 29.141740764144775 0.0
    vertex 12.499999999999996 39.09174076414478 0.0
  endloop
endfacet
facet normal -0.0 -0.0 1.0
  outer loop
    vertex 12.499999999999996 39.09174076414478 0.0
    vertex 24.999999999999996 29.141740764144775 0.0
    vertex 13.15998856501143 39.17862990710764 0.0
  endloop
endfacet
facet normal -0.0 -0.0 1.0
  outer loop
    vertex 13.15998856501143 39.17862990710764 0.0
    vertex 24.999999999999996 29.141740764144775 0.0
    vertex 13.775 39.433375984494496 0.0
  endloop
endfacet
facet normal -0.0 -0.0 1.0
  outer loop
    vertex 13.775 39.433375984494496 0.0
    vertex 24.999999999999996 29.141740764144775 0.0
    vertex 14.303122292025693 39.83861847211908 0.0
  endloop
endfacet
facet normal -0.0 -0.0 1.0
  outer loop
    vertex 14.303122292025693 39.83861847211908 0.0
    vertex 24.999999999999996 29.141740764144775 0.0
    vertex 14.70836477965032 40.36674076414478 0.0
  endloop
endfacet
facet normal -0.0 -0.0 1.0
  outer loop
    vertex 14.70836477965032 40.36674076414478 0.0
    vertex 24.999999999999996 29.141740764144775 0.0
    vertex 14.96311085703712 40.981752199133346 0.0
  endloop
endfacet
facet normal -0.0 -0.0 1.0
  outer loop
    vertex 14.96311085703712 40.981752199133346 0.0
    vertex 24.999999999999996 29.141740764144775 0.0
    vertex 15.050000000000004 41.641740764144764 0.0
  endloop
endfacet
facet normal -0.0 -0.0 1.0
  outer loop
    vertex -9.999999999999998 53.141740764144785 0.0
    vertex 24.999999999999996 54.14174076414478 0.0
    vertex -10.000000000000002 54.14174076414478 0.0
  endloop
endfacet
facet normal -0.0 -0.0 1.0
  outer loop
    vertex 24.999999999999996 54.14174076414478 0.0
    vertex -9.999999999999998 53.141740764144785 0.0
    vertex -9.500000000000002 50.14174076414477 0.0
  endloop
endfacet
facet normal -0.0 -0.0 1.0
  outer loop
    vertex -9.500000000000002 50.14174076414477 0.0
    vertex -9.999999999999998 53.141740764144785 0.0
    vertex -9.500000000000002 35.141740764144764 0.0
  endloop
endfacet
facet normal -0.0 -0.0 1.0
  outer loop
    vertex -9.500000000000002 50.14174076414477 0.0
    vertex -9.500000000000002 35.141740764144764 0.0
    vertex -9.500000000000002 39.14174076414474 0.0
  endloop
endfacet
facet normal -0.0 -0.0 1.0
  outer loop
    vertex -9.500000000000002 50.14174076414477 0.0
    vertex -9.500000000000002 39.14174076414474 0.0
    vertex -9.500000000000002 46.14174076414476 0.0
  endloop
endfacet
facet normal -0.0 -0.0 1.0
  outer loop
    vertex 24.999999999999996 54.14174076414478 0.0
    vertex -9.500000000000002 50.14174076414477 0.0
    vertex -7.00000000000001 50.14174076414477 0.0
  endloop
endfacet
facet normal -0.0 -0.0 1.0
  outer loop
    vertex 24.999999999999996 54.14174076414478 0.0
    vertex -7.00000000000001 50.14174076414477 0.0
    vertex -7.000000000000004 39.14174076414474 0.0
  endloop
endfacet
facet normal -0.0 -0.0 1.0
  outer loop
    vertex 24.999999999999996 54.14174076414478 0.0
    vertex -7.000000000000004 39.14174076414474 0.0
    vertex 11.225 43.850105543795074 0.0
  endloop
endfacet
facet normal -0.0 -0.0 1.0
  outer loop
    vertex 11.225 43.850105543795074 0.0
    vertex -7.000000000000004 39.14174076414474 0.0
    vertex 10.6968777079743 43.44486305617047 0.0
  endloop
endfacet
facet normal -0.0 -0.0 1.0
  outer loop
    vertex 10.6968777079743 43.44486305617047 0.0
    vertex -7.000000000000004 39.14174076414474 0.0
    vertex 0.0 32.14174076414477 0.0
  endloop
endfacet
facet normal -0.0 -0.0 1.0
  outer loop
    vertex 10.6968777079743 43.44486305617047 0.0
    vertex 0.0 32.14174076414477 0.0
    vertex 10.29163522034968 42.91674076414474 0.0
  endloop
endfacet
facet normal -0.0 -0.0 1.0
  outer loop
    vertex 10.29163522034968 42.91674076414474 0.0
    vertex 0.0 32.14174076414477 0.0
    vertex 10.036889142962872 42.3017293291562 0.0
  endloop
endfacet
facet normal -0.0 -0.0 1.0
  outer loop
    vertex 10.036889142962872 42.3017293291562 0.0
    vertex 0.0 32.14174076414477 0.0
    vertex 9.950000000000001 41.641740764144764 0.0
  endloop
endfacet
facet normal -0.0 -0.0 1.0
  outer loop
    vertex 24.999999999999996 54.14174076414478 0.0
    vertex 11.225 43.850105543795074 0.0
    vertex 11.840011434988568 44.104851621181886 0.0
  endloop
endfacet
facet normal -0.0 -0.0 1.0
  outer loop
    vertex 24.999999999999996 54.14174076414478 0.0
    vertex 11.840011434988568 44.104851621181886 0.0
    vertex 12.499999999999996 44.19174076414477 0.0
  endloop
endfacet
facet normal -0.0 -0.0 1.0
  outer loop
    vertex 24.999999999999996 54.14174076414478 0.0
    vertex 12.499999999999996 44.19174076414477 0.0
    vertex 13.159988565011425 44.104851621181886 0.0
  endloop
endfacet
facet normal -0.0 -0.0 1.0
  outer loop
    vertex 24.999999999999996 54.14174076414478 0.0
    vertex 13.159988565011425 44.104851621181886 0.0
    vertex 13.775 43.850105543795074 0.0
  endloop
endfacet
facet normal -0.0 -0.0 1.0
  outer loop
    vertex 24.999999999999996 54.14174076414478 0.0
    vertex 13.775 43.850105543795074 0.0
    vertex 14.303122292025693 43.44486305617047 0.0
  endloop
endfacet
facet normal -0.0 -0.0 1.0
  outer loop
    vertex 24.999999999999996 54.14174076414478 0.0
    vertex 14.303122292025693 43.44486305617047 0.0
    vertex 14.70836477965032 42.91674076414477 0.0
  endloop
endfacet
facet normal -0.0 -0.0 1.0
  outer loop
    vertex 24.999999999999996 54.14174076414478 0.0
    vertex 14.70836477965032 42.91674076414477 0.0
    vertex 14.96311085703712 42.3017293291562 0.0
  endloop
endfacet
facet normal -0.0 -0.0 1.0
  outer loop
    vertex 24.999999999999996 54.14174076414478 0.0
    vertex 14.96311085703712 42.3017293291562 0.0
    vertex 15.050000000000004 41.641740764144764 0.0
  endloop
endfacet
facet normal -0.0 -0.0 1.0
  outer loop
    vertex 24.999999999999996 54.14174076414478 0.0
    vertex 15.050000000000004 41.641740764144764 0.0
    vertex 24.999999999999996 29.141740764144775 0.0
  endloop
endfacet
facet normal -0.0 -0.0 1.0
  outer loop
    vertex -19.400000000000002 33.14174076414479 0.0
    vertex -20.0 52.541740764144805 0.0
    vertex -20.0 33.74174076414476 0.0
  endloop
endfacet
facet normal -0.0 -0.0 1.0
  outer loop
    vertex -20.0 52.541740764144805 0.0
    vertex -19.400000000000002 33.14174076414479 0.0
    vertex -19.400000000000002 53.141740764144785 0.0
  endloop
endfacet
facet normal -0.0 -0.0 1.0
  outer loop
    vertex -19.400000000000002 53.141740764144785 0.0
    vertex -19.400000000000002 33.14174076414479 0.0
    vertex -9.999999999999998 33.14174076414479 0.0
  endloop
endfacet
facet normal -0.0 -0.0 1.0
  outer loop
    vertex -19.400000000000002 53.141740764144785 0.0
    vertex -9.999999999999998 33.14174076414479 0.0
    vertex -9.999999999999998 53.141740764144785 0.0
  endloop
endfacet
facet normal -0.0 -0.0 1.0
  outer loop
    vertex -9.999999999999998 52.541740764144805 6.499999999999999
    vertex -20.0 54.14174076414478 6.499999999999999
    vertex -20.0 52.541740764144805 6.499999999999999
  endloop
endfacet
facet normal -0.0 -0.0 1.0
  outer loop
    vertex -20.0 54.14174076414478 6.499999999999999
    vertex -9.999999999999998 52.541740764144805 6.499999999999999
    vertex -10.000000000000002 54.14174076414478 6.499999999999999
  endloop
endfacet
facet normal 2.5275612706723257e-18 -0.7071067811865624 -0.7071067811865326
  outer loop
    vertex -9.999999999999998 52.541740764144805 6.499999999999999
    vertex -19.400000000000002 53.141740764144785 5.899999999999998
    vertex -9.999999999999998 53.141740764144785 5.899999999999998
  endloop
endfacet
facet normal 2.5275612706723257e-18 -0.7071067811865624 -0.7071067811865326
  outer loop
    vertex -19.400000000000002 53.141740764144785 5.899999999999998
    vertex -9.999999999999998 52.541740764144805 6.499999999999999
    vertex -20.0 52.541740764144805 6.499999999999999
  endloop
endfacet
facet normal -0.7071067811865417 -0.7071067811865533 0.0
  outer loop
    vertex 14.303122292025693 43.44486305617047 0.0
    vertex 13.775 43.850105543795074 -1.5000000000000029
    vertex 14.303122292025693 43.44486305617047 -1.5000000000000029
  endloop
endfacet
facet normal -0.4999999999999951 -0.8660254037844413 0.0
  outer loop
    vertex 13.775 43.850105543795074 -1.5000000000000029
    vertex 14.303122292025693 43.44486305617047 0.0
    vertex 13.775 43.850105543795074 0.0
  endloop
endfacet
facet normal -0.4999999999999951 -0.8660254037844413 0.0
  outer loop
    vertex 13.775 43.850105543795074 0.0
    vertex 13.159988565011425 44.104851621181886 -1.5000000000000029
    vertex 13.775 43.850105543795074 -1.5000000000000029
  endloop
endfacet
facet normal -0.25881904510252884 -0.9659258262890661 0.0
  outer loop
    vertex 13.159988565011425 44.104851621181886 -1.5000000000000029
    vertex 13.775 43.850105543795074 0.0
    vertex 13.159988565011425 44.104851621181886 0.0
  endloop
endfacet
facet normal -1.0 2.183221924433494e-15 0.0
  outer loop
    vertex 15.050000000000004 41.641740764144764 0.0
    vertex 14.96311085703712 40.981752199133346 -1.5000000000000029
    vertex 14.96311085703712 40.981752199133346 0.0
  endloop
endfacet
facet normal -0.965925826289067 0.2588190451025255 0.0
  outer loop
    vertex 14.96311085703712 40.981752199133346 -1.5000000000000029
    vertex 15.050000000000004 41.641740764144764 0.0
    vertex 15.050000000000004 41.641740764144764 -1.5000000000000029
  endloop
endfacet
facet normal -0.0 1.0 -0.0
  outer loop
    vertex -9.500000000000002 39.14174076414474 1.9999999999999998
    vertex -7.000000000000004 39.14174076414474 0.0
    vertex -9.500000000000002 39.14174076414474 0.0
  endloop
endfacet
facet normal -0.0 1.0 -0.0
  outer loop
    vertex -7.000000000000004 39.14174076414474 0.0
    vertex -9.500000000000002 39.14174076414474 1.9999999999999998
    vertex -7.000000000000004 39.14174076414474 1.9999999999999998
  endloop
endfacet
facet normal -0.0 -0.0 1.0
  outer loop
    vertex -7.000000000000004 35.141740764144764 1.9999999999999998
    vertex -9.500000000000002 39.14174076414474 1.9999999999999998
    vertex -9.500000000000002 35.141740764144764 1.9999999999999998
  endloop
endfacet
facet normal -0.0 -0.0 1.0
  outer loop
    vertex -9.500000000000002 39.14174076414474 1.9999999999999998
    vertex -7.000000000000004 35.141740764144764 1.9999999999999998
    vertex -7.000000000000004 39.14174076414474 1.9999999999999998
  endloop
endfacet
facet normal 1.0 -0.0 -0.0
  outer loop
    vertex -9.999999999999998 33.14174076414479 0.0
    vertex -9.999999999999998 32.14174076414477 6.499999999999999
    vertex -9.999999999999998 32.14174076414477 0.0
  endloop
endfacet
facet normal 1.0 -0.0 -0.0
  outer loop
    vertex -9.999999999999998 32.14174076414477 6.499999999999999
    vertex -9.999999999999998 33.14174076414479 0.0
    vertex -9.999999999999998 33.14174076414479 5.899999999999998
  endloop
endfacet
facet normal 1.0 -0.0 -0.0
  outer loop
    vertex -9.999999999999998 32.14174076414477 6.499999999999999
    vertex -9.999999999999998 33.14174076414479 5.899999999999998
    vertex -9.999999999999998 33.74174076414476 6.499999999999999
  endloop
endfacet
facet normal 0.0 -1.0 0.0
  outer loop
    vertex -7.000000000000004 35.141740764144764 1.9999999999999998
    vertex -9.500000000000002 35.141740764144764 0.0
    vertex -7.000000000000004 35.141740764144764 0.0
  endloop
endfacet
facet normal 0.0 -1.0 0.0
  outer loop
    vertex -9.500000000000002 35.141740764144764 0.0
    vertex -7.000000000000004 35.141740764144764 1.9999999999999998
    vertex -9.500000000000002 35.141740764144764 1.9999999999999998
  endloop
endfacet
facet normal -0.0 -0.0 1.0
  outer loop
    vertex -7.00000000000001 46.14174076414476 2.0000000000000004
    vertex -9.500000000000002 50.14174076414477 2.0000000000000004
    vertex -9.500000000000002 46.14174076414476 2.0000000000000004
  endloop
endfacet
facet normal -0.0 -0.0 1.0
  outer loop
    vertex -9.500000000000002 50.14174076414477 2.0000000000000004
    vertex -7.00000000000001 46.14174076414476 2.0000000000000004
    vertex -7.00000000000001 50.14174076414477 2.0000000000000004
  endloop
endfacet
facet normal 2.987117865340049e-18 0.7071067811865691 -0.7071067811865259
  outer loop
    vertex -20.0 33.74174076414476 6.499999999999999
    vertex -9.999999999999998 33.14174076414479 5.899999999999998
    vertex -19.400000000000002 33.14174076414479 5.899999999999998
  endloop
endfacet
facet normal 2.987117865340049e-18 0.7071067811865691 -0.7071067811865259
  outer loop
    vertex -9.999999999999998 33.14174076414479 5.899999999999998
    vertex -20.0 33.74174076414476 6.499999999999999
    vertex -9.999999999999998 33.74174076414476 6.499999999999999
  endloop
endfacet
facet normal -1.0 0.0 0.0
  outer loop
    vertex -20.0 33.74174076414476 6.499999999999999
    vertex -20.0 32.14174076414477 0.0
    vertex -20.0 32.14174076414477 6.499999999999999
  endloop
endfacet
facet normal -1.0 0.0 0.0
  outer loop
    vertex -20.0 32.14174076414477 0.0
    vertex -20.0 33.74174076414476 6.499999999999999
    vertex -20.0 33.74174076414476 0.0
  endloop
endfacet
facet normal 1.0 -0.0 -0.0
  outer loop
    vertex -7.00000000000001 50.14174076414477 0.0
    vertex -7.00000000000001 46.14174076414476 2.0000000000000004
    vertex -7.00000000000001 46.14174076414476 0.0
  endloop
endfacet
facet normal 1.0 -0.0 -0.0
  outer loop
    vertex -7.00000000000001 46.14174076414476 2.0000000000000004
    vertex -7.00000000000001 50.14174076414477 0.0
    vertex -7.00000000000001 50.14174076414477 2.0000000000000004
  endloop
endfacet
facet normal -1.0 0.0 0.0
  outer loop
    vertex -9.500000000000002 39.14174076414474 1.9999999999999998
    vertex -9.500000000000002 35.141740764144764 0.0
    vertex -9.500000000000002 35.141740764144764 1.9999999999999998
  endloop
endfacet
facet normal -1.0 0.0 0.0
  outer loop
    vertex -9.500000000000002 35.141740764144764 0.0
    vertex -9.500000000000002 39.14174076414474 1.9999999999999998
    vertex -9.500000000000002 39.14174076414474 0.0
  endloop
endfacet
facet normal 0.0 -1.0 0.0
  outer loop
    vertex -7.00000000000001 46.14174076414476 2.0000000000000004
    vertex -9.500000000000002 46.14174076414476 0.0
    vertex -7.00000000000001 46.14174076414476 0.0
  endloop
endfacet
facet normal 0.0 -1.0 0.0
  outer loop
    vertex -9.500000000000002 46.14174076414476 0.0
    vertex -7.00000000000001 46.14174076414476 2.0000000000000004
    vertex -9.500000000000002 46.14174076414476 2.0000000000000004
  endloop
endfacet
facet normal -0.8660254037844396 0.4999999999999985 0.0
  outer loop
    vertex 14.70836477965032 40.36674076414478 0.0
    vertex 14.303122292025693 39.83861847211908 -1.5000000000000029
    vertex 14.303122292025693 39.83861847211908 0.0
  endloop
endfacet
facet normal -0.7071067811865323 0.7071067811865629 0.0
  outer loop
    vertex 14.303122292025693 39.83861847211908 -1.5000000000000029
    vertex 14.70836477965032 40.36674076414478 0.0
    vertex 14.70836477965032 40.36674076414478 -1.5000000000000029
  endloop
endfacet
facet normal 0.965925826289067 -0.2588190451025252 0.0
  outer loop
    vertex 10.036889142962872 42.3017293291562 -1.5000000000000029
    vertex 9.950000000000001 41.641740764144764 0.0
    vertex 9.950000000000001 41.641740764144764 -1.5000000000000029
  endloop
endfacet
facet normal 1.0 2.2010441442247832e-15 0.0
  outer loop
    vertex 9.950000000000001 41.641740764144764 0.0
    vertex 10.036889142962872 42.3017293291562 -1.5000000000000029
    vertex 10.036889142962872 42.3017293291562 0.0
  endloop
endfacet
facet normal 1.0 -0.0 -0.0
  outer loop
    vertex 24.999999999999996 54.14174076414478 -1.4999999999999998
    vertex 24.999999999999996 29.141740764144775 0.0
    vertex 24.999999999999996 29.141740764144775 -1.4999999999999998
  endloop
endfacet
facet normal 1.0 -0.0 -0.0
  outer loop
    vertex 24.999999999999996 29.141740764144775 0.0
    vertex 24.999999999999996 54.14174076414478 -1.4999999999999998
    vertex 24.999999999999996 54.14174076414478 0.0
  endloop
endfacet
facet normal 0.7071067811865277 0.7071067811865674 1.1233075547833978e-18
  outer loop
    vertex -20.0 33.74174076414476 6.499999999999999
    vertex -19.400000000000002 33.14174076414479 0.0
    vertex -20.0 33.74174076414476 0.0
  endloop
endfacet
facet normal 0.7071067811865277 0.7071067811865674 1.1233075547833978e-18
  outer loop
    vertex -19.400000000000002 33.14174076414479 0.0
    vertex -20.0 33.74174076414476 6.499999999999999
    vertex -19.400000000000002 33.14174076414479 5.899999999999998
  endloop
endfacet
facet normal 2.3303320294568124e-16 -1.29728756223413e-16 -1.0
  outer loop
    vertex 24.999999999999996 54.14174076414478 -1.4999999999999998
    vertex -19.39999999999999 32.14174076414477 -1.5000000000000107
    vertex -19.39999999999999 54.14174076414478 -1.5000000000000107
  endloop
endfacet
facet normal 2.3303320294568124e-16 -1.29728756223413e-16 -1.0
  outer loop
    vertex -19.39999999999999 32.14174076414477 -1.5000000000000107
    vertex 24.999999999999996 54.14174076414478 -1.4999999999999998
    vertex 11.225 43.850105543795074 -1.5000000000000029
  endloop
endfacet
facet normal 2.3303320294568124e-16 -1.29728756223413e-16 -1.0
  outer loop
    vertex -19.39999999999999 32.14174076414477 -1.5000000000000107
    vertex 11.225 43.850105543795074 -1.5000000000000029
    vertex 10.6968777079743 43.44486305617047 -1.5000000000000029
  endloop
endfacet
facet normal 2.3303320294568124e-16 -1.29728756223413e-16 -1.0
  outer loop
    vertex -19.39999999999999 32.14174076414477 -1.5000000000000107
    vertex 10.6968777079743 43.44486305617047 -1.5000000000000029
    vertex 0.0 32.14174076414477 -1.4999999999999998
  endloop
endfacet
facet normal 2.3303320294568124e-16 -1.29728756223413e-16 -1.0
  outer loop
    vertex 0.0 32.14174076414477 -1.4999999999999998
    vertex 10.6968777079743 43.44486305617047 -1.5000000000000029
    vertex 10.29163522034968 42.91674076414474 -1.5000000000000029
  endloop
endfacet
facet normal 2.3303320294568124e-16 -1.29728756223413e-16 -1.0
  outer loop
    vertex 0.0 32.14174076414477 -1.4999999999999998
    vertex 10.29163522034968 42.91674076414474 -1.5000000000000029
    vertex 0.0 29.141740764144775 -1.4999999999999998
  endloop
endfacet
facet normal 2.3303320294568124e-16 -1.29728756223413e-16 -1.0
  outer loop
    vertex 0.0 29.141740764144775 -1.4999999999999998
    vertex 10.29163522034968 42.91674076414474 -1.5000000000000029
    vertex 10.036889142962872 42.3017293291562 -1.5000000000000029
  endloop
endfacet
facet normal 2.3303320294568124e-16 -1.29728756223413e-16 -1.0
  outer loop
    vertex 0.0 29.141740764144775 -1.4999999999999998
    vertex 10.036889142962872 42.3017293291562 -1.5000000000000029
    vertex 9.950000000000001 41.641740764144764 -1.5000000000000029
  endloop
endfacet
facet normal 2.3303320294568124e-16 -1.29728756223413e-16 -1.0
  outer loop
    vertex 11.225 43.850105543795074 -1.5000000000000029
    vertex 24.999999999999996 54.14174076414478 -1.4999999999999998
    vertex 11.840011434988568 44.104851621181886 -1.5000000000000029
  endloop
endfacet
facet normal 2.3303320294568124e-16 -1.29728756223413e-16 -1.0
  outer loop
    vertex 11.840011434988568 44.104851621181886 -1.5000000000000029
    vertex 24.999999999999996 54.14174076414478 -1.4999999999999998
    vertex 12.499999999999996 44.19174076414477 -1.5000000000000029
  endloop
endfacet
facet normal 2.3303320294568124e-16 -1.29728756223413e-16 -1.0
  outer loop
    vertex 12.499999999999996 44.19174076414477 -1.5000000000000029
    vertex 24.999999999999996 54.14174076414478 -1.4999999999999998
    vertex 13.159988565011425 44.104851621181886 -1.5000000000000029
  endloop
endfacet
facet normal 2.3303320294568124e-16 -1.29728756223413e-16 -1.0
  outer loop
    vertex 13.159988565011425 44.104851621181886 -1.5000000000000029
    vertex 24.999999999999996 54.14174076414478 -1.4999999999999998
    vertex 13.775 43.850105543795074 -1.5000000000000029
  endloop
endfacet
facet normal 2.3303320294568124e-16 -1.29728756223413e-16 -1.0
  outer loop
    vertex 13.775 43.850105543795074 -1.5000000000000029
    vertex 24.999999999999996 54.14174076414478 -1.4999999999999998
    vertex 14.303122292025693 43.44486305617047 -1.5000000000000029
  endloop
endfacet
facet normal 2.3303320294568124e-16 -1.29728756223413e-16 -1.0
  outer loop
    vertex 14.303122292025693 43.44486305617047 -1.5000000000000029
    vertex 24.999999999999996 54.14174076414478 -1.4999999999999998
    vertex 14.70836477965032 42.91674076414477 -1.5000000000000029
  endloop
endfacet
facet normal 2.3303320294568124e-16 -1.29728756223413e-16 -1.0
  outer loop
    vertex 14.70836477965032 42.91674076414477 -1.5000000000000029
    vertex 24.999999999999996 54.14174076414478 -1.4999999999999998
    vertex 14.96311085703712 42.3017293291562 -1.5000000000000029
  endloop
endfacet
facet normal 2.3303320294568124e-16 -1.29728756223413e-16 -1.0
  outer loop
    vertex 14.96311085703712 42.3017293291562 -1.5000000000000029
    vertex 24.999999999999996 54.14174076414478 -1.4999999999999998
    vertex 15.050000000000004 41.641740764144764 -1.5000000000000029
  endloop
endfacet
facet normal 2.3303320294568124e-16 -1.29728756223413e-16 -1.0
  outer loop
    vertex 0.0 29.141740764144775 -1.4999999999999998
    vertex 11.225 39.433375984494496 -1.5000000000000029
    vertex 24.999999999999996 29.141740764144775 -1.4999999999999998
  endloop
endfacet
facet normal 2.3303320294568124e-16 -1.29728756223413e-16 -1.0
  outer loop
    vertex 11.225 39.433375984494496 -1.5000000000000029
    vertex 0.0 29.141740764144775 -1.4999999999999998
    vertex 10.6968777079743 39.83861847211908 -1.5000000000000029
  endloop
endfacet
facet normal 2.3303320294568124e-16 -1.29728756223413e-16 -1.0
  outer loop
    vertex 10.6968777079743 39.83861847211908 -1.5000000000000029
    vertex 0.0 29.141740764144775 -1.4999999999999998
    vertex 10.29163522034968 40.36674076414478 -1.5000000000000029
  endloop
endfacet
facet normal 2.3303320294568124e-16 -1.29728756223413e-16 -1.0
  outer loop
    vertex 10.29163522034968 40.36674076414478 -1.5000000000000029
    vertex 0.0 29.141740764144775 -1.4999999999999998
    vertex 10.036889142962872 40.981752199133346 -1.5000000000000029
  endloop
endfacet
facet normal 2.3303320294568124e-16 -1.29728756223413e-16 -1.0
  outer loop
    vertex 10.036889142962872 40.981752199133346 -1.5000000000000029
    vertex 0.0 29.141740764144775 -1.4999999999999998
    vertex 9.950000000000001 41.641740764144764 -1.5000000000000029
  endloop
endfacet
facet normal 2.3303320294568124e-16 -1.29728756223413e-16 -1.0
  outer loop
    vertex 24.999999999999996 29.141740764144775 -1.4999999999999998
    vertex 11.225 39.433375984494496 -1.5000000000000029
    vertex 11.840011434988568 39.17862990710764 -1.5000000000000029
  endloop
endfacet
facet normal 2.3303320294568124e-16 -1.29728756223413e-16 -1.0
  outer loop
    vertex 24.999999999999996 29.141740764144775 -1.4999999999999998
    vertex 11.840011434988568 39.17862990710764 -1.5000000000000029
    vertex 12.499999999999996 39.09174076414478 -1.5000000000000029
  endloop
endfacet
facet normal 2.3303320294568124e-16 -1.29728756223413e-16 -1.0
  outer loop
    vertex 24.999999999999996 29.141740764144775 -1.4999999999999998
    vertex 12.499999999999996 39.09174076414478 -1.5000000000000029
    vertex 13.15998856501143 39.17862990710764 -1.5000000000000029
  endloop
endfacet
facet normal 2.3303320294568124e-16 -1.29728756223413e-16 -1.0
  outer loop
    vertex 24.999999999999996 29.141740764144775 -1.4999999999999998
    vertex 13.15998856501143 39.17862990710764 -1.5000000000000029
    vertex 13.775 39.433375984494496 -1.5000000000000029
  endloop
endfacet
facet normal 2.3303320294568124e-16 -1.29728756223413e-16 -1.0
  outer loop
    vertex 24.999999999999996 29.141740764144775 -1.4999999999999998
    vertex 13.775 39.433375984494496 -1.5000000000000029
    vertex 14.303122292025693 39.83861847211908 -1.5000000000000029
  endloop
endfacet
facet normal 2.3303320294568124e-16 -1.29728756223413e-16 -1.0
  outer loop
    vertex 24.999999999999996 29.141740764144775 -1.4999999999999998
    vertex 14.303122292025693 39.83861847211908 -1.5000000000000029
    vertex 14.70836477965032 40.36674076414478 -1.5000000000000029
  endloop
endfacet
facet normal 2.3303320294568124e-16 -1.29728756223413e-16 -1.0
  outer loop
    vertex 24.999999999999996 29.141740764144775 -1.4999999999999998
    vertex 14.70836477965032 40.36674076414478 -1.5000000000000029
    vertex 14.96311085703712 40.981752199133346 -1.5000000000000029
  endloop
endfacet
facet normal 2.3303320294568124e-16 -1.29728756223413e-16 -1.0
  outer loop
    vertex 24.999999999999996 29.141740764144775 -1.4999999999999998
    vertex 14.96311085703712 40.981752199133346 -1.5000000000000029
    vertex 15.050000000000004 41.641740764144764 -1.5000000000000029
  endloop
endfacet
facet normal 2.3303320294568124e-16 -1.29728756223413e-16 -1.0
  outer loop
    vertex 24.999999999999996 29.141740764144775 -1.4999999999999998
    vertex 15.050000000000004 41.641740764144764 -1.5000000000000029
    vertex 24.999999999999996 54.14174076414478 -1.4999999999999998
  endloop
endfacet
facet normal -0.25881904510254383 0.9659258262890621 0.0
  outer loop
    vertex 13.15998856501143 39.17862990710764 0.0
    vertex 13.775 39.433375984494496 -1.5000000000000029
    vertex 13.15998856501143 39.17862990710764 -1.5000000000000029
  endloop
endfacet
facet normal -0.500000000000012 0.8660254037844317 0.0
  outer loop
    vertex 13.775 39.433375984494496 -1.5000000000000029
    vertex 13.15998856501143 39.17862990710764 0.0
    vertex 13.775 39.433375984494496 0.0
  endloop
endfacet
facet normal 0.7071067811865343 -0.7071067811865609 2.2466151095667747e-18
  outer loop
    vertex -19.400000000000002 53.141740764144785 5.899999999999998
    vertex -20.0 52.541740764144805 0.0
    vertex -19.400000000000002 53.141740764144785 0.0
  endloop
endfacet
facet normal 0.7071067811865343 -0.7071067811865609 2.2466151095667747e-18
  outer loop
    vertex -20.0 52.541740764144805 0.0
    vertex -19.400000000000002 53.141740764144785 5.899999999999998
    vertex -20.0 52.541740764144805 6.499999999999999
  endloop
endfacet
facet normal -1.0 0.0 0.0
  outer loop
    vertex -9.500000000000002 50.14174076414477 2.0000000000000004
    vertex -9.500000000000002 46.14174076414476 0.0
    vertex -9.500000000000002 46.14174076414476 2.0000000000000004
  endloop
endfacet
facet normal -1.0 0.0 0.0
  outer loop
    vertex -9.500000000000002 46.14174076414476 0.0
    vertex -9.500000000000002 50.14174076414477 2.0000000000000004
    vertex -9.500000000000002 50.14174076414477 0.0
  endloop
endfacet
facet normal 0.7071067811865495 -0.7071067811865455 0.0
  outer loop
    vertex 10.6968777079743 43.44486305617047 -1.5000000000000029
    vertex 10.29163522034968 42.91674076414474 0.0
    vertex 10.29163522034968 42.91674076414474 -1.5000000000000029
  endloop
endfacet
facet normal 0.8660254037844413 -0.49999999999999556 0.0
  outer loop
    vertex 10.29163522034968 42.91674076414474 0.0
    vertex 10.6968777079743 43.44486305617047 -1.5000000000000029
    vertex 10.6968777079743 43.44486305617047 0.0
  endloop
endfacet
facet normal 0.8660254037844413 -0.49999999999999556 0.0
  outer loop
    vertex 10.29163522034968 42.91674076414474 -1.5000000000000029
    vertex 10.036889142962872 42.3017293291562 0.0
    vertex 10.036889142962872 42.3017293291562 -1.5000000000000029
  endloop
endfacet
facet normal 0.965925826289067 -0.2588190451025252 0.0
  outer loop
    vertex 10.036889142962872 42.3017293291562 0.0
    vertex 10.29163522034968 42.91674076414474 -1.5000000000000029
    vertex 10.29163522034968 42.91674076414474 0.0
  endloop
endfacet
facet normal -0.9659258262890675 -0.25881904510252335 0.0
  outer loop
    vertex 14.96311085703712 42.3017293291562 0.0
    vertex 15.050000000000004 41.641740764144764 -1.5000000000000029
    vertex 15.050000000000004 41.641740764144764 0.0
  endloop
endfacet
facet normal -1.0 2.183221924433494e-15 0.0
  outer loop
    vertex 15.050000000000004 41.641740764144764 -1.5000000000000029
    vertex 14.96311085703712 42.3017293291562 0.0
    vertex 14.96311085703712 42.3017293291562 -1.5000000000000029
  endloop
endfacet
facet normal -0.8660254037844396 -0.4999999999999985 0.0
  outer loop
    vertex 14.70836477965032 42.91674076414477 0.0
    vertex 14.96311085703712 42.3017293291562 -1.5000000000000029
    vertex 14.96311085703712 42.3017293291562 0.0
  endloop
endfacet
facet normal -0.9659258262890675 -0.25881904510252335 0.0
  outer loop
    vertex 14.96311085703712 42.3017293291562 -1.5000000000000029
    vertex 14.70836477965032 42.91674076414477 0.0
    vertex 14.70836477965032 42.91674076414477 -1.5000000000000029
  endloop
endfacet
facet normal -0.7071067811865417 -0.7071067811865533 0.0
  outer loop
    vertex 14.303122292025693 43.44486305617047 0.0
    vertex 14.70836477965032 42.91674076414477 -1.5000000000000029
    vertex 14.70836477965032 42.91674076414477 0.0
  endloop
endfacet
facet normal -0.8660254037844396 -0.4999999999999985 0.0
  outer loop
    vertex 14.70836477965032 42.91674076414477 -1.5000000000000029
    vertex 14.303122292025693 43.44486305617047 0.0
    vertex 14.303122292025693 43.44486305617047 -1.5000000000000029
  endloop
endfacet
facet normal -1.0 0.0 0.0
  outer loop
    vertex 0.0 32.14174076414477 0.0
    vertex 0.0 29.141740764144775 -1.4999999999999998
    vertex 0.0 29.141740764144775 0.0
  endloop
endfacet
facet normal -1.0 0.0 0.0
  outer loop
    vertex 0.0 29.141740764144775 -1.4999999999999998
    vertex 0.0 32.14174076414477 0.0
    vertex 0.0 32.14174076414477 -1.4999999999999998
  endloop
endfacet
facet normal 1.0 -0.0 -0.0
  outer loop
    vertex -7.000000000000004 39.14174076414474 0.0
    vertex -7.000000000000004 35.141740764144764 1.9999999999999998
    vertex -7.000000000000004 35.141740764144764 0.0
  endloop
endfacet
facet normal 1.0 -0.0 -0.0
  outer loop
    vertex -7.000000000000004 35.141740764144764 1.9999999999999998
    vertex -7.000000000000004 39.14174076414474 0.0
    vertex -7.000000000000004 39.14174076414474 1.9999999999999998
  endloop
endfacet
facet normal 0.0 -1.0 0.0
  outer loop
    vertex 12.499999999999996 44.19174076414477 0.0
    vertex 11.840011434988568 44.104851621181886 -1.5000000000000029
    vertex 12.499999999999996 44.19174076414477 -1.5000000000000029
  endloop
endfacet
facet normal 0.2588190451025304 -0.9659258262890659 0.0
  outer loop
    vertex 11.840011434988568 44.104851621181886 -1.5000000000000029
    vertex 12.499999999999996 44.19174076414477 0.0
    vertex 11.840011434988568 44.104851621181886 0.0
  endloop
endfacet
facet normal 0.2588190451025304 -0.9659258262890659 0.0
  outer loop
    vertex 11.840011434988568 44.104851621181886 0.0
    vertex 11.225 43.850105543795074 -1.5000000000000029
    vertex 11.840011434988568 44.104851621181886 -1.5000000000000029
  endloop
endfacet
facet normal 0.49999999999999445 -0.8660254037844418 0.0
  outer loop
    vertex 11.225 43.850105543795074 -1.5000000000000029
    vertex 11.840011434988568 44.104851621181886 0.0
    vertex 11.225 43.850105543795074 0.0
  endloop
endfacet
facet normal 0.0 -1.0 0.0
  outer loop
    vertex 24.999999999999996 29.141740764144775 0.0
    vertex 0.0 29.141740764144775 -1.4999999999999998
    vertex 24.999999999999996 29.141740764144775 -1.4999999999999998
  endloop
endfacet
facet normal 0.0 -1.0 0.0
  outer loop
    vertex 0.0 29.141740764144775 -1.4999999999999998
    vertex 24.999999999999996 29.141740764144775 0.0
    vertex 0.0 29.141740764144775 0.0
  endloop
endfacet
facet normal 0.49999999999999445 -0.8660254037844418 0.0
  outer loop
    vertex 11.225 43.850105543795074 0.0
    vertex 10.6968777079743 43.44486305617047 -1.5000000000000029
    vertex 11.225 43.850105543795074 -1.5000000000000029
  endloop
endfacet
facet normal 0.7071067811865495 -0.7071067811865455 0.0
  outer loop
    vertex 10.6968777079743 43.44486305617047 -1.5000000000000029
    vertex 11.225 43.850105543795074 0.0
    vertex 10.6968777079743 43.44486305617047 0.0
  endloop
endfacet
facet normal -0.965925826289067 0.2588190451025255 0.0
  outer loop
    vertex 14.96311085703712 40.981752199133346 0.0
    vertex 14.70836477965032 40.36674076414478 -1.5000000000000029
    vertex 14.70836477965032 40.36674076414478 0.0
  endloop
endfacet
facet normal -0.8660254037844396 0.4999999999999985 0.0
  outer loop
    vertex 14.70836477965032 40.36674076414478 -1.5000000000000029
    vertex 14.96311085703712 40.981752199133346 0.0
    vertex 14.96311085703712 40.981752199133346 -1.5000000000000029
  endloop
endfacet
facet normal 1.0 2.2010441442247832e-15 0.0
  outer loop
    vertex 9.950000000000001 41.641740764144764 -1.5000000000000029
    vertex 10.036889142962872 40.981752199133346 0.0
    vertex 10.036889142962872 40.981752199133346 -1.5000000000000029
  endloop
endfacet
facet normal 0.9659258262890683 0.2588190451025212 0.0
  outer loop
    vertex 10.036889142962872 40.981752199133346 0.0
    vertex 9.950000000000001 41.641740764144764 -1.5000000000000029
    vertex 9.950000000000001 41.641740764144764 0.0
  endloop
endfacet
facet normal 0.9659258262890683 0.2588190451025212 0.0
  outer loop
    vertex 10.036889142962872 40.981752199133346 -1.5000000000000029
    vertex 10.29163522034968 40.36674076414478 0.0
    vertex 10.29163522034968 40.36674076414478 -1.5000000000000029
  endloop
endfacet
facet normal 0.8660254037844393 0.499999999999999 0.0
  outer loop
    vertex 10.29163522034968 40.36674076414478 0.0
    vertex 10.036889142962872 40.981752199133346 -1.5000000000000029
    vertex 10.036889142962872 40.981752199133346 0.0
  endloop
endfacet
facet normal 0.0 -1.0 0.0
  outer loop
    vertex 0.0 32.14174076414477 -1.4999999999999998
    vertex -20.0 32.14174076414477 0.0
    vertex -19.39999999999999 32.14174076414477 -1.5000000000000107
  endloop
endfacet
facet normal 0.0 -1.0 0.0
  outer loop
    vertex -20.0 32.14174076414477 0.0
    vertex 0.0 32.14174076414477 -1.4999999999999998
    vertex 0.0 32.14174076414477 0.0
  endloop
endfacet
facet normal 0.0 -1.0 0.0
  outer loop
    vertex -20.0 32.14174076414477 0.0
    vertex 0.0 32.14174076414477 0.0
    vertex -9.999999999999998 32.14174076414477 0.0
  endloop
endfacet
facet normal 0.0 -1.0 0.0
  outer loop
    vertex -20.0 32.14174076414477 0.0
    vertex -9.999999999999998 32.14174076414477 0.0
    vertex -9.999999999999998 32.14174076414477 6.499999999999999
  endloop
endfacet
facet normal 0.0 -1.0 0.0
  outer loop
    vertex -20.0 32.14174076414477 0.0
    vertex -9.999999999999998 32.14174076414477 6.499999999999999
    vertex -20.0 32.14174076414477 6.499999999999999
  endloop
endfacet
facet normal 0.8660254037844393 0.499999999999999 0.0
  outer loop
    vertex 10.29163522034968 40.36674076414478 -1.5000000000000029
    vertex 10.6968777079743 39.83861847211908 0.0
    vertex 10.6968777079743 39.83861847211908 -1.5000000000000029
  endloop
endfacet
facet normal 0.7071067811865327 0.7071067811865623 0.0
  outer loop
    vertex 10.6968777079743 39.83861847211908 0.0
    vertex 10.29163522034968 40.36674076414478 -1.5000000000000029
    vertex 10.29163522034968 40.36674076414478 0.0
  endloop
endfacet
facet normal 0.7071067811865327 0.7071067811865623 0.0
  outer loop
    vertex 10.6968777079743 39.83861847211908 0.0
    vertex 11.225 39.433375984494496 -1.5000000000000029
    vertex 10.6968777079743 39.83861847211908 -1.5000000000000029
  endloop
endfacet
facet normal 0.5000000000000099 0.8660254037844328 0.0
  outer loop
    vertex 11.225 39.433375984494496 -1.5000000000000029
    vertex 10.6968777079743 39.83861847211908 0.0
    vertex 11.225 39.433375984494496 0.0
  endloop
endfacet
endsolid Robin-XY-Endstops
